<svg width="120" height="34" viewBox="0 0 120 34" fill="none" xmlns="http://www.w3.org/2000/svg">
<path d="M17.9646 10.5672C17.6962 10.8298 17.1634 10.8298 16.896 10.5672L12.088 5.84002C11.8196 5.57835 11.8196 5.0531 12.088 4.79048L16.896 0.196966C17.1644 -0.0656555 17.6972 -0.0656555 17.9646 0.196966L22.7726 4.92321C23.0381 5.18489 23.0381 5.71013 22.7726 5.97275L17.9636 10.5663H17.9646V10.5672Z" fill="url(#paint0_linear_133_1741)"/>
<path d="M17.9646 33.803C17.6962 34.0657 17.1634 34.0657 16.896 33.803L12.088 29.0768C11.8196 28.8151 11.8196 28.2899 12.088 28.0272L16.896 23.3019C17.1644 23.0393 17.6972 23.0393 17.9646 23.3019L22.7726 28.0282C23.0381 28.2918 23.0381 28.817 22.7726 29.0787L17.9636 33.8049L17.9646 33.803Z" fill="url(#paint1_linear_133_1741)"/>
<path d="M29.8513 22.1187C29.583 22.3822 29.0501 22.3822 28.7827 22.1187L23.9747 17.3934C23.7064 17.1308 23.7064 16.6065 23.9747 16.3438L28.7827 11.6176C29.0511 11.355 29.5839 11.355 29.8513 11.6176L34.6593 16.3438C34.9277 16.6065 34.9277 17.1308 34.6593 17.3934L29.8513 22.1196V22.1187Z" fill="url(#paint2_linear_133_1741)"/>
<path d="M11.4191 29.471C11.4191 29.0766 11.1507 28.9458 10.8853 29.2084L8.88233 31.3084C8.61399 31.5711 8.61399 31.9655 9.0165 32.2281L10.8853 33.015C11.2859 33.1477 11.5523 33.015 11.5523 32.6215V29.471H11.4181H11.4191Z" fill="url(#paint3_linear_133_1741)"/>
<path d="M25.8444 32.2283C26.2449 32.0956 26.2449 31.7031 25.9785 31.3087L23.8414 29.2086C23.5731 28.946 23.3066 29.0759 23.3066 29.4713V32.6218C23.3066 33.0152 23.575 33.2779 23.9746 33.0152L25.8434 32.2283H25.8444Z" fill="url(#paint4_linear_133_1741)"/>
<path d="M29.1832 23.5636C29.1832 23.1701 28.7827 22.7767 28.3821 22.7767H24.1078C23.7072 22.7767 23.3066 23.1701 23.3066 23.5636V27.7636C23.3066 28.1581 23.7072 28.5525 24.1078 28.5525H28.3821C28.7827 28.5525 29.1832 28.1581 29.1832 27.7655V23.5636Z" fill="url(#paint5_linear_133_1741)"/>
<path d="M32.9221 8.72966C32.7879 8.33621 32.3883 8.3362 31.9877 8.59693L29.8505 10.6989C29.5822 10.9615 29.7164 11.2241 30.1189 11.2241H33.3226C33.7232 11.2241 33.9906 10.9615 33.7232 10.5671L32.9221 8.72966Z" fill="url(#paint6_linear_133_1741)"/>
<path d="M25.9776 2.69154C26.2459 2.29713 26.2459 1.90462 25.8434 1.77189L23.9746 0.984969C23.574 0.852236 23.3066 0.984969 23.3066 1.37843V4.52894C23.3066 4.92335 23.575 5.05419 23.8414 4.79156L25.9785 2.69154H25.9776Z" fill="url(#paint7_linear_133_1741)"/>
<path d="M2.87146 8.59763C2.47087 8.33596 2.07027 8.33596 1.93611 8.73037L1.00171 10.4369C0.867545 10.8294 1.13588 11.0911 1.53552 11.0911H4.7412C5.14179 11.0911 5.27596 10.8294 5.00954 10.5668L2.87241 8.59763H2.87146Z" fill="url(#paint8_linear_133_1741)"/>
<path d="M11.4202 6.23531C11.4202 5.84185 11.0196 5.44839 10.619 5.44839H6.47892C6.07833 5.44839 5.67773 5.84185 5.67773 6.23531V10.4354C5.67773 10.8298 6.08024 11.2242 6.47987 11.2242H10.7541C11.1537 11.2242 11.5543 10.8298 11.5543 10.4373V6.23436H11.4202V6.23531Z" fill="url(#paint9_linear_133_1741)"/>
<path d="M11.4194 1.37836C11.4194 0.984905 11.1511 0.722283 10.7515 0.984905L9.01685 1.77182C8.61434 1.90456 8.48017 2.29707 8.88268 2.69147L11.0198 4.7915C11.2862 5.05412 11.5526 4.92423 11.5526 4.52888V1.37836H11.4185H11.4194Z" fill="url(#paint10_linear_133_1741)"/>
<path d="M33.7239 23.5637C33.858 23.1702 33.7239 22.9076 33.3233 22.9076H30.1185C29.718 22.9076 29.5838 23.1712 29.8502 23.4338L31.9883 25.5329C32.2566 25.7955 32.6563 25.7955 32.9236 25.4021L33.7248 23.5628H33.7239V23.5637Z" fill="url(#paint11_linear_133_1741)"/>
<path d="M11.4202 23.5636C11.4202 23.1701 11.0196 22.7767 10.619 22.7767H6.47892C6.07833 22.7767 5.67773 23.1701 5.67773 23.5636V27.7636C5.67773 28.1581 6.08024 28.5525 6.47987 28.5525H10.7541C11.1537 28.5525 11.5543 28.1581 11.5543 27.7655V23.5636H11.4202Z" fill="url(#paint12_linear_133_1741)"/>
<path d="M4.87503 23.3007C5.14336 23.0381 5.0092 22.7755 4.60861 22.7755H1.53613C1.13554 22.7755 0.869121 23.0381 1.13554 23.4325L1.93672 25.2699C2.07089 25.6633 2.47148 25.6633 2.87207 25.4026L4.87503 23.3007Z" fill="url(#paint13_linear_133_1741)"/>
<path d="M29.1832 10.4367C29.1832 10.8301 28.7827 11.2236 28.3821 11.2236H24.1078C23.7072 11.2236 23.3066 10.8301 23.3066 10.4367V6.2366C23.3066 5.84219 23.7072 5.44778 24.1078 5.44778H28.3821C28.7827 5.44778 29.1832 5.84219 29.1832 6.2347V10.4367Z" fill="url(#paint14_linear_133_1741)"/>
<path d="M6.07882 22.1187C5.81048 22.3823 5.27668 22.3823 5.0093 22.1187L0.201254 17.3944C-0.0670845 17.1318 -0.0670845 16.6075 0.201254 16.3448L5.0093 11.7504C5.27764 11.4878 5.81048 11.4878 6.07786 11.7504L10.8849 16.4757C11.1514 16.7383 11.1514 17.2626 10.8849 17.5262L6.07882 22.1187Z" fill="url(#paint15_linear_133_1741)"/>
<path d="M95.9608 10.9597C94.6258 10.9597 93.9578 11.3541 92.6219 12.799V12.142C92.6219 11.3551 92.4877 11.2224 91.6875 11.2224H91.0186C90.2174 11.2224 90.0842 11.3551 90.0842 12.142V24.6123C90.0842 25.4011 90.2183 25.5319 91.0186 25.5319H91.6865C92.4867 25.5319 92.62 25.4011 92.62 24.6123V17.9187C92.62 16.2122 92.7541 15.1617 93.1547 14.5056C93.6885 13.586 94.8893 13.0607 95.9589 13.1925C96.2272 13.1925 96.4936 13.3233 96.6268 13.3233H96.8952C97.0274 13.3233 97.0274 13.1925 97.1616 13.1925C97.2958 13.0598 97.428 12.7981 97.5622 12.5355C97.6963 12.4046 97.6963 12.2728 97.8305 12.142L98.0969 11.6168C97.9628 11.3541 97.0284 10.9607 95.9598 10.9607L95.9608 10.9597ZM51.6198 10.9597C50.2848 10.9597 49.6169 11.3541 48.2819 12.799V12.142C48.2819 11.3551 48.1477 11.2224 47.3465 11.2224H46.6795C45.8783 11.2224 45.7451 11.3551 45.7451 12.142V24.6123C45.7451 25.4011 45.8774 25.5319 46.6785 25.5319H47.3465C48.1487 25.5319 48.2828 25.4011 48.2828 24.6123V17.9187C48.2828 16.2122 48.417 15.1617 48.8166 14.5056C49.3514 13.586 50.5532 13.0607 51.6217 13.1925C51.8901 13.1925 52.1565 13.3233 52.2897 13.3233H52.558C52.6922 13.3233 52.6922 13.1925 52.8245 13.1925C52.9586 13.0598 53.0928 12.7981 53.225 12.5355C53.3592 12.4046 53.3592 12.2728 53.4934 12.142L53.7588 11.6168C53.6247 11.3541 52.6912 10.9607 51.6217 10.9607L51.6198 10.9597ZM58.8324 19.6253C58.8324 20.9375 58.9665 21.7253 59.2329 22.2496C59.7677 23.1693 60.8363 23.6945 62.038 23.6945C63.2408 23.6945 64.3093 23.1693 64.8431 22.2496C65.1115 21.5935 65.2437 20.9375 65.2437 19.6234V12.143C65.2437 11.3541 65.3779 11.2233 66.1791 11.2233H66.848C67.6492 11.2233 67.7824 11.3541 67.7824 12.143V19.887C67.7824 21.988 67.3818 23.1693 66.4474 24.2198C65.3788 25.4011 63.7755 26.0572 62.039 26.0572C60.1702 26.0572 58.7011 25.4011 57.6325 24.2179C56.6971 23.1693 56.2966 21.988 56.2966 19.887V12.1411C56.2966 11.3541 56.4307 11.2233 57.2319 11.2233H57.8999C58.702 11.2233 58.8352 11.3541 58.8352 12.143V19.6234L58.8324 19.6253ZM74.4573 13.3233C75.9274 11.7495 77.3966 10.9607 79.5337 10.9607C83.5396 10.9607 86.4788 14.1121 86.4788 18.444C86.4788 22.7768 83.5405 26.0572 79.4005 26.0572C77.3975 26.0572 75.7942 25.2703 74.325 23.6964V24.745C74.325 25.5319 74.1909 25.6628 73.3897 25.6628H72.7227C71.9205 25.6628 71.7873 25.5319 71.7873 24.7431V1.3783C71.7873 0.591382 71.9215 0.458649 72.7227 0.458649H73.3897C74.1918 0.458649 74.325 0.591382 74.325 1.3783V13.3243H74.4592L74.4573 13.3233ZM74.1918 18.443C74.1918 21.5935 76.1948 23.8254 78.9999 23.8254C81.804 23.8254 83.8079 21.5935 83.8079 18.443C83.8079 15.5551 81.805 13.3233 78.9999 13.3233C76.1948 13.1925 74.1918 15.2925 74.1918 18.443ZM104.243 5.84003C104.243 6.75968 103.441 7.5466 102.505 7.5466C101.571 7.5466 100.769 6.75968 100.769 5.70919C100.769 4.78954 101.571 4.00262 102.505 4.00262C103.441 4.13536 104.242 4.92227 104.242 5.84192L104.243 5.84003ZM103.574 24.745C103.574 25.5319 103.44 25.6628 102.639 25.6628H101.972C101.169 25.6628 101.036 25.5319 101.036 24.7431V12.2738C101.036 11.4869 101.17 11.3541 101.972 11.3541H102.639C103.441 11.3541 103.574 11.4869 103.574 12.2738V24.745ZM115.594 11.7485C115.994 11.3541 115.994 11.3541 116.662 11.3541H117.73C118.398 11.3541 118.665 11.4869 118.665 11.8794C118.665 12.0102 118.531 12.2728 118.264 12.5355L113.189 17.5243L119.6 24.6132C119.867 24.8768 120 25.1394 120 25.2703C120 25.6637 119.734 25.7955 119.066 25.7955H117.997C117.329 25.7955 117.329 25.7955 116.929 25.402L111.453 19.3627L110.785 19.6253V24.6123C110.785 25.4011 110.65 25.5319 109.85 25.5319H109.182C108.381 25.5319 108.248 25.4011 108.248 24.6123V1.3783C108.248 0.591382 108.382 0.458649 109.182 0.458649H109.85C110.651 0.458649 110.785 0.591382 110.785 1.3783V16.6066L115.593 11.7495L115.594 11.7485Z" fill="#F0EFEF"/>
<defs>
<linearGradient id="paint0_linear_133_1741" x1="11.5024" y1="-0.463506" x2="34.5045" y2="23.513" gradientUnits="userSpaceOnUse">
<stop stop-color="#00B388"/>
<stop offset="0.132" stop-color="#00B097"/>
<stop offset="0.512" stop-color="#00A9BF"/>
<stop offset="0.814" stop-color="#00A5D7"/>
<stop offset="1" stop-color="#00A3E0"/>
</linearGradient>
<linearGradient id="paint1_linear_133_1741" x1="-0.353895" y1="11.1918" x2="22.9426" y2="34.8946" gradientUnits="userSpaceOnUse">
<stop stop-color="#00B388"/>
<stop offset="0.132" stop-color="#00B097"/>
<stop offset="0.512" stop-color="#00A9BF"/>
<stop offset="0.814" stop-color="#00A5D7"/>
<stop offset="1" stop-color="#00A3E0"/>
</linearGradient>
<linearGradient id="paint2_linear_133_1741" x1="11.5049" y1="-0.468469" x2="34.8029" y2="23.2388" gradientUnits="userSpaceOnUse">
<stop stop-color="#00B388"/>
<stop offset="0.132" stop-color="#00B097"/>
<stop offset="0.512" stop-color="#00A9BF"/>
<stop offset="0.814" stop-color="#00A5D7"/>
<stop offset="1" stop-color="#00A3E0"/>
</linearGradient>
<linearGradient id="paint3_linear_133_1741" x1="-5.02039" y1="15.7757" x2="23.252" y2="30.0037" gradientUnits="userSpaceOnUse">
<stop stop-color="#00B388"/>
<stop offset="0.132" stop-color="#00B097"/>
<stop offset="0.512" stop-color="#00A9BF"/>
<stop offset="0.814" stop-color="#00A5D7"/>
<stop offset="1" stop-color="#00A3E0"/>
</linearGradient>
<linearGradient id="paint4_linear_133_1741" x1="1.52806" y1="9.33797" x2="29.8561" y2="23.2028" gradientUnits="userSpaceOnUse">
<stop stop-color="#00B388"/>
<stop offset="0.132" stop-color="#00B097"/>
<stop offset="0.512" stop-color="#00A9BF"/>
<stop offset="0.814" stop-color="#00A5D7"/>
<stop offset="1" stop-color="#00A3E0"/>
</linearGradient>
<linearGradient id="paint5_linear_133_1741" x1="5.58532" y1="5.35453" x2="28.8823" y2="29.0582" gradientUnits="userSpaceOnUse">
<stop stop-color="#00B388"/>
<stop offset="0.132" stop-color="#00B097"/>
<stop offset="0.512" stop-color="#00A9BF"/>
<stop offset="0.814" stop-color="#00A5D7"/>
<stop offset="1" stop-color="#00A3E0"/>
</linearGradient>
<linearGradient id="paint6_linear_133_1741" x1="16.1855" y1="-5.06819" x2="29.5226" y2="23.1385" gradientUnits="userSpaceOnUse">
<stop stop-color="#00B388"/>
<stop offset="0.132" stop-color="#00B097"/>
<stop offset="0.512" stop-color="#00A9BF"/>
<stop offset="0.814" stop-color="#00A5D7"/>
<stop offset="1" stop-color="#00A3E0"/>
</linearGradient>
<linearGradient id="paint7_linear_133_1741" x1="16.1834" y1="-5.06617" x2="44.4606" y2="9.16903" gradientUnits="userSpaceOnUse">
<stop stop-color="#00B388"/>
<stop offset="0.132" stop-color="#00B097"/>
<stop offset="0.512" stop-color="#00A9BF"/>
<stop offset="0.814" stop-color="#00A5D7"/>
<stop offset="1" stop-color="#00A3E0"/>
</linearGradient>
<linearGradient id="paint8_linear_133_1741" x1="1.52091" y1="9.34695" x2="13.3046" y2="37.6078" gradientUnits="userSpaceOnUse">
<stop stop-color="#00B388"/>
<stop offset="0.132" stop-color="#00B097"/>
<stop offset="0.512" stop-color="#00A9BF"/>
<stop offset="0.814" stop-color="#00A5D7"/>
<stop offset="1" stop-color="#00A3E0"/>
</linearGradient>
<linearGradient id="paint9_linear_133_1741" x1="5.57959" y1="5.36003" x2="28.8769" y2="29.0642" gradientUnits="userSpaceOnUse">
<stop stop-color="#00B388"/>
<stop offset="0.132" stop-color="#00B097"/>
<stop offset="0.512" stop-color="#00A9BF"/>
<stop offset="0.814" stop-color="#00A5D7"/>
<stop offset="1" stop-color="#00A3E0"/>
</linearGradient>
<linearGradient id="paint10_linear_133_1741" x1="9.63374" y1="1.37344" x2="37.8845" y2="15.7443" gradientUnits="userSpaceOnUse">
<stop stop-color="#00B388"/>
<stop offset="0.132" stop-color="#00B097"/>
<stop offset="0.512" stop-color="#00A9BF"/>
<stop offset="0.814" stop-color="#00A5D7"/>
<stop offset="1" stop-color="#00A3E0"/>
</linearGradient>
<linearGradient id="paint11_linear_133_1741" x1="9.64519" y1="1.36933" x2="23.3405" y2="29.5336" gradientUnits="userSpaceOnUse">
<stop stop-color="#00B388"/>
<stop offset="0.132" stop-color="#00B097"/>
<stop offset="0.512" stop-color="#00A9BF"/>
<stop offset="0.814" stop-color="#00A5D7"/>
<stop offset="1" stop-color="#00A3E0"/>
</linearGradient>
<linearGradient id="paint12_linear_133_1741" x1="-3.25159" y1="14.0404" x2="20.0457" y2="37.7443" gradientUnits="userSpaceOnUse">
<stop stop-color="#00B388"/>
<stop offset="0.132" stop-color="#00B097"/>
<stop offset="0.512" stop-color="#00A9BF"/>
<stop offset="0.814" stop-color="#00A5D7"/>
<stop offset="1" stop-color="#00A3E0"/>
</linearGradient>
<linearGradient id="paint13_linear_133_1741" x1="-5.02335" y1="15.7788" x2="9.17218" y2="43.8864" gradientUnits="userSpaceOnUse">
<stop stop-color="#00B388"/>
<stop offset="0.132" stop-color="#00B097"/>
<stop offset="0.512" stop-color="#00A9BF"/>
<stop offset="0.814" stop-color="#00A5D7"/>
<stop offset="1" stop-color="#00A3E0"/>
</linearGradient>
<linearGradient id="paint14_linear_133_1741" x1="14.4163" y1="-3.32656" x2="37.7132" y2="20.3771" gradientUnits="userSpaceOnUse">
<stop stop-color="#00B388"/>
<stop offset="0.132" stop-color="#00B097"/>
<stop offset="0.512" stop-color="#00A9BF"/>
<stop offset="0.814" stop-color="#00A5D7"/>
<stop offset="1" stop-color="#00A3E0"/>
</linearGradient>
<linearGradient id="paint15_linear_133_1741" x1="-0.343739" y1="11.1813" x2="22.6557" y2="35.1572" gradientUnits="userSpaceOnUse">
<stop stop-color="#00B388"/>
<stop offset="0.132" stop-color="#00B097"/>
<stop offset="0.512" stop-color="#00A9BF"/>
<stop offset="0.814" stop-color="#00A5D7"/>
<stop offset="1" stop-color="#00A3E0"/>
</linearGradient>
</defs>
</svg>
