<svg width="140" height="28" viewBox="0 0 140 28" fill="none" xmlns="http://www.w3.org/2000/svg">
<path d="M51.1261 15.3437C50.7908 15.9966 50.3358 16.8002 49.5455 17.654C48.372 18.9598 45.4981 20.9688 47.1027 16.6496C48.7073 12.3303 49.2102 11.8532 49.1623 9.91956C49.1144 7.98595 47.0309 7.78505 45.5939 8.28729C44.9712 8.51329 43.9414 9.11599 42.9835 9.74379L43.4625 8.38774H39.7744L37.4274 15.0173C36.4456 16.0469 35.5116 16.9509 34.9608 17.1769C34.362 17.428 33.9788 17.4783 33.6675 17.4532L36.9006 8.41285H33.2124L30.9853 14.6406C30.7458 15.2684 30.3865 16.3734 29.4526 17.7043C29.0693 18.2065 28.6383 18.6083 28.1833 18.759C26.8901 19.1608 26.9379 18.4325 26.9858 18.2567L30.5063 8.41285H26.8422L26.3632 9.7689C25.9081 10.9742 24.1839 15.4442 23.0343 17.1016C22.1003 18.4325 21.4776 19.0352 20.9268 19.0603C20.4718 19.0854 20.3999 18.307 20.5197 17.7043L23.8246 8.41285H20.1365L18.6996 12.481C18.1488 13.8119 17.4543 15.2433 16.7837 15.9464C15.5144 17.2523 14.3169 17.1769 14.0057 17.1267C14.5326 16.1474 16.3047 12.6316 16.664 9.34199C17.5021 1.28106 13.9578 0.326807 11.6108 0.62815C9.93436 0.854155 8.80879 1.75818 8.04243 2.76267C6.7013 3.29002 4.71356 4.7214 2.55818 8.38774C-1.32151 15.0173 -1.03411 23.7311 5.1207 23.7311C8.5693 23.7311 11.1079 21.3455 12.7125 19.0854C14.6762 19.3868 16.2089 18.6335 16.7837 18.2819V18.307C16.7837 18.307 16.1849 20.9186 18.7475 21.6719C20.0168 22.0486 21.4297 21.5213 22.2919 20.8935C23.178 20.2406 23.5612 19.5123 23.5612 19.5123C23.5612 19.5123 23.4175 21.6719 26.435 21.6719C28.782 21.6719 30.9134 19.889 31.7516 19.1106C32.039 19.2109 32.2306 19.2361 32.2306 19.2361V19.2109C32.5898 19.2863 33.0928 19.3365 33.6675 19.2863C34.5296 19.1859 35.3918 18.9347 36.1821 18.5832L35.1763 21.4459H38.8644L41.8101 13.0837C43.1991 11.4766 44.3486 10.9742 44.9712 11.5518C45.7855 12.3052 42.2891 17.4532 43.0554 19.7383C43.8218 22.0235 46.4322 22.3751 49.1384 20.3912C50.5513 19.3617 51.4614 18.106 52.0362 17.1518C52.6348 16.1724 51.9883 15.3437 51.1261 15.3437ZM9.28776 17.8048C8.25797 19.3617 6.98868 20.6675 5.69546 20.6172C1.64813 20.4666 4.33039 11.9537 6.17443 8.68908C6.17443 8.68908 6.05469 9.06576 6.50972 11.8783C7.10843 15.645 9.43145 17.5787 9.43145 17.5787L9.28776 17.8048ZM11.8024 12.8075C11.8024 12.8075 11.4431 13.7868 10.8205 15.0675C10.8205 15.0675 9.31171 13.5357 9.09617 9.7689C8.97643 7.70972 10.1259 3.81736 12.3772 4.74651C14.7241 5.70076 11.8024 12.8075 11.8024 12.8075Z" fill="#FFA1A1"/>
<path d="M64.8485 4.01831V11.2254H64.8964C65.0401 10.7735 65.2796 10.3716 65.567 10.02C65.8543 9.6685 66.1897 9.39227 66.5489 9.16626C66.9081 8.94025 67.3153 8.76447 67.7463 8.63891C68.1774 8.51335 68.6085 8.46313 69.0395 8.46313C69.9496 8.46313 70.7399 8.63891 71.4105 8.99047C72.081 9.34205 72.6318 9.81917 73.0869 10.447C73.5419 11.0497 73.8772 11.7528 74.0927 12.5563C74.3083 13.3599 74.4279 14.2137 74.4279 15.0927C74.4279 15.9967 74.3083 16.8254 74.0927 17.629C73.8772 18.4326 73.5419 19.1357 73.0869 19.7384C72.6318 20.3411 72.081 20.8182 71.4105 21.1698C70.7399 21.5214 69.9496 21.6971 69.0395 21.6971C68.0577 21.6971 67.1955 21.4711 66.4291 20.994C65.6628 20.5168 65.112 19.8389 64.7766 18.9599H64.7287V21.3455H63.3877V4.01831H64.8485ZM72.7516 13.159C72.6079 12.5061 72.3684 11.9536 72.0571 11.4514C71.7458 10.9492 71.3386 10.5475 70.8357 10.221C70.3328 9.8945 69.734 9.74383 69.0395 9.74383C68.2732 9.74383 67.6026 9.8945 67.0757 10.221C66.5488 10.5475 66.1178 10.9492 65.7825 11.4514C65.4473 11.9536 65.2078 12.5312 65.064 13.159C64.9204 13.812 64.8485 14.4397 64.8485 15.0927C64.8485 15.7456 64.9204 16.3985 65.064 17.0263C65.2078 17.6792 65.4473 18.2317 65.7825 18.7339C66.1178 19.2362 66.5488 19.6379 67.0757 19.9644C67.6026 20.2908 68.2732 20.4416 69.0395 20.4416C69.734 20.4416 70.3328 20.2908 70.8357 19.9644C71.3386 19.6379 71.7458 19.2362 72.0571 18.7339C72.3684 18.2317 72.6079 17.6541 72.7516 17.0263C72.8952 16.3733 72.9671 15.7456 72.9671 15.0927C72.9671 14.4397 72.8952 13.812 72.7516 13.159Z" fill="#ECECEC"/>
<path d="M76.3202 10.7735C76.5597 10.2461 76.895 9.7941 77.326 9.46765C77.7572 9.11608 78.2601 8.86496 78.8108 8.71429C79.3856 8.53851 80.0083 8.46317 80.7267 8.46317C81.2536 8.46317 81.7805 8.5134 82.3074 8.61384C82.8342 8.71429 83.3132 8.91518 83.7204 9.21653C84.1514 9.51787 84.4867 9.91966 84.7502 10.447C85.0136 10.9744 85.1333 11.6524 85.1333 12.5062V19.186C85.1333 19.8138 85.4207 20.1152 85.9955 20.1152C86.1631 20.1152 86.3308 20.09 86.4505 20.0147V21.2953C86.2829 21.3205 86.1392 21.3456 85.9955 21.3707C85.8758 21.3958 85.7081 21.3958 85.4926 21.3958C85.1333 21.3958 84.822 21.3456 84.6064 21.2451C84.3909 21.1447 84.1993 20.994 84.0795 20.7931C83.9599 20.5923 83.864 20.3663 83.8401 20.09C83.7922 19.8138 83.7923 19.5376 83.7923 19.2111H83.7443C83.4809 19.6128 83.2175 19.9895 82.954 20.2909C82.6906 20.6174 82.3792 20.8685 82.0439 21.0945C81.7086 21.2953 81.3255 21.4712 80.8945 21.5716C80.4633 21.6721 79.9604 21.7474 79.3617 21.7474C78.8109 21.7474 78.2841 21.6721 77.805 21.5465C77.326 21.3958 76.895 21.195 76.5357 20.8936C76.1766 20.5923 75.8892 20.2155 75.6737 19.7384C75.458 19.2865 75.3623 18.734 75.3623 18.1062C75.3623 17.2272 75.5539 16.5493 75.9131 16.0469C76.2723 15.5447 76.7752 15.1681 77.374 14.9169C77.9727 14.6658 78.6672 14.4649 79.4335 14.3644C80.1999 14.264 80.9902 14.1636 81.7565 14.0632C82.0679 14.0381 82.3313 13.9878 82.5708 13.9376C82.8103 13.8873 83.0019 13.812 83.1456 13.6865C83.2892 13.5609 83.409 13.4102 83.5049 13.1842C83.6006 12.9833 83.6245 12.707 83.6245 12.3555C83.6245 11.8282 83.5527 11.4012 83.3851 11.0748C83.2175 10.7484 83.0019 10.4722 82.7146 10.2712C82.4272 10.0703 82.0918 9.94477 81.7086 9.86944C81.3255 9.7941 80.9183 9.76899 80.4873 9.76899C79.5533 9.76899 78.8108 9.99496 78.2122 10.4722C77.6134 10.9493 77.3021 11.6775 77.2781 12.707H75.8173C75.9131 11.9537 76.0568 11.3009 76.3202 10.7735ZM83.6245 14.5152C83.5287 14.6909 83.3611 14.8165 83.0977 14.9169C82.8342 15.0174 82.5948 15.0676 82.4032 15.0927C81.7805 15.1931 81.1579 15.3187 80.4873 15.3941C79.8168 15.4945 79.242 15.6201 78.6911 15.7958C78.1403 15.9717 77.7093 16.2228 77.35 16.5743C76.9907 16.9008 76.8231 17.3779 76.8231 18.0057C76.8231 18.4075 76.895 18.734 77.0386 19.0352C77.1824 19.3366 77.374 19.5877 77.6374 19.8138C77.8769 20.0398 78.1643 20.1904 78.4996 20.316C78.8348 20.4415 79.1701 20.4918 79.5054 20.4918C80.0562 20.4918 80.6071 20.4164 81.11 20.2155C81.6129 20.0398 82.0679 19.7636 82.4511 19.4371C82.8342 19.0855 83.1216 18.6838 83.3611 18.2065C83.6006 17.7295 83.6964 17.177 83.6964 16.5493V14.5654C83.6725 14.5152 83.6245 14.5152 83.6245 14.5152Z" fill="#ECECEC"/>
<path d="M94.6409 10.5468C94.0901 10.0195 93.3477 9.74328 92.3657 9.74328C91.6712 9.74328 91.0485 9.89395 90.5217 10.1953C89.9948 10.4966 89.5637 10.8984 89.2045 11.4007C88.8453 11.9029 88.6058 12.4805 88.4142 13.1083C88.2466 13.7611 88.1507 14.4141 88.1507 15.067C88.1507 15.7199 88.2466 16.3728 88.4142 17.0258C88.5819 17.6786 88.8453 18.2311 89.2045 18.7333C89.5637 19.2355 89.9948 19.6374 90.5217 19.9387C91.0485 20.2401 91.6712 20.3907 92.3657 20.3907C92.8208 20.3907 93.2279 20.3154 93.635 20.1145C94.0422 19.9387 94.4014 19.6876 94.7127 19.3611C95.024 19.0347 95.2875 18.6581 95.479 18.2311C95.6707 17.8042 95.8143 17.302 95.8383 16.7997H97.2991C97.1076 18.3316 96.5567 19.5118 95.6946 20.3656C94.8325 21.2194 93.7068 21.6464 92.3418 21.6464C91.4318 21.6464 90.6175 21.4705 89.923 21.119C89.2284 20.7674 88.6297 20.2903 88.1507 19.6876C87.6718 19.0849 87.3126 18.3818 87.073 17.5783C86.8336 16.7746 86.7139 15.9209 86.7139 15.0168C86.7139 14.1127 86.8336 13.2589 87.073 12.4553C87.3126 11.6518 87.6718 10.9487 88.1507 10.346C88.6297 9.74327 89.2284 9.26615 89.923 8.91458C90.6175 8.56301 91.4318 8.38724 92.3418 8.38724C93.635 8.38724 94.7127 8.7388 95.5988 9.46704C96.4849 10.1953 97.0118 11.25 97.1794 12.7065H95.7185C95.5509 11.8275 95.1916 11.0993 94.6409 10.5468Z" fill="#ECECEC"/>
<path d="M100.196 4.01831V14.9169L106.831 8.83981H108.771L103.67 13.4855L109.13 21.3958H107.286L102.568 14.5402L100.196 16.5994V21.3706H98.7363V4.01831H100.196Z" fill="#ECECEC"/>
<path d="M118.134 21.3956V19.1355H118.087C117.703 19.9893 117.128 20.6171 116.411 21.0691C115.692 21.5212 114.854 21.7472 113.967 21.7472C113.201 21.7472 112.555 21.6467 112.027 21.4207C111.501 21.1947 111.07 20.8933 110.735 20.4915C110.399 20.0898 110.16 19.5875 110.016 19.01C109.872 18.4324 109.776 17.7543 109.776 17.0261V8.81448H111.237V17.001C111.261 18.131 111.524 18.9848 111.98 19.5875C112.459 20.1651 113.272 20.4664 114.422 20.4664C115.045 20.4664 115.596 20.3158 116.051 20.0395C116.506 19.7633 116.865 19.3866 117.153 18.9095C117.44 18.4324 117.656 17.905 117.799 17.3023C117.943 16.6996 118.015 16.0718 118.015 15.4441V8.81448H119.476V21.3704H118.134V21.3956Z" fill="#ECECEC"/>
<path d="M122.925 8.8143V11.2H122.972C123.307 10.321 123.858 9.64299 124.625 9.16587C125.392 8.68874 126.253 8.43762 127.235 8.43762C128.145 8.43762 128.936 8.61341 129.606 8.96497C130.277 9.31654 130.852 9.79367 131.282 10.4215C131.738 11.0241 132.073 11.7273 132.288 12.5309C132.504 13.3345 132.623 14.1883 132.623 15.0672C132.623 15.9712 132.504 16.7999 132.288 17.6034C132.073 18.4071 131.738 19.1102 131.282 19.7129C130.828 20.3156 130.277 20.7927 129.606 21.1443C128.936 21.4958 128.145 21.6716 127.235 21.6716C126.804 21.6716 126.373 21.6214 125.942 21.4958C125.511 21.3703 125.104 21.2196 124.745 20.9936C124.385 20.7676 124.05 20.4914 123.763 20.1398C123.475 19.7882 123.26 19.4116 123.092 18.9345H123.044V25.9406H121.583V8.8143H122.925ZM130.947 13.1587C130.803 12.5058 130.564 11.9533 130.253 11.4511C129.942 10.9489 129.534 10.547 129.032 10.2205C128.529 9.89411 127.929 9.74344 127.235 9.74344C126.421 9.74344 125.75 9.89411 125.224 10.1703C124.697 10.4465 124.242 10.8484 123.93 11.3506C123.595 11.8277 123.379 12.4053 123.235 13.0582C123.092 13.7112 123.044 14.3891 123.044 15.0923C123.044 15.7452 123.116 16.3981 123.26 17.026C123.403 17.6788 123.643 18.2313 123.978 18.7335C124.313 19.2358 124.745 19.6375 125.271 19.964C125.799 20.2905 126.469 20.4411 127.235 20.4411C127.929 20.4411 128.529 20.2905 129.032 19.964C129.534 19.6375 129.942 19.2358 130.253 18.7335C130.564 18.2313 130.803 17.6537 130.947 17.026C131.091 16.373 131.163 15.7452 131.163 15.0923C131.163 14.4645 131.091 13.8116 130.947 13.1587Z" fill="#ECECEC"/>
<path d="M54.5273 13.0835C56.539 13.0835 56.8024 11.7023 56.8024 10.4969C56.8024 9.51759 56.6827 8.53821 56.5869 7.55885C56.4672 6.57949 56.3714 5.62523 56.3714 4.64587C56.3714 1.40643 58.0718 0.0503845 60.4666 0.0503845H61.0653V1.984H60.5624C58.886 1.984 58.3352 3.11404 58.3352 4.99743C58.3352 5.80102 58.431 6.65482 58.5268 7.48352C58.6465 8.36244 58.7184 9.19113 58.7184 10.1454C58.7423 12.3804 57.952 13.5103 56.6827 13.9373V14.0127C57.952 14.3893 58.7423 15.5947 58.7184 17.8297C58.7184 18.7839 58.6225 19.6628 58.5268 20.4915C58.407 21.3704 58.3352 22.174 58.3352 23.0278C58.3352 24.9866 58.9818 26.0664 60.5624 26.0664H61.0653V28H60.4666C58.1196 28 56.3714 26.7443 56.3714 23.2036C56.3714 22.2494 56.4912 21.2699 56.5869 20.3409C56.6827 19.4117 56.8024 18.4574 56.8024 17.5032C56.8024 16.4234 56.515 14.9166 54.5273 14.9166V13.0835Z" fill="#ECECEC"/>
<path d="M139.999 14.8663C137.988 14.8663 137.724 16.373 137.724 17.4528C137.724 18.4071 137.844 19.3362 137.94 20.2905C138.059 21.2447 138.156 22.2241 138.156 23.1532C138.156 26.6939 136.383 27.9496 134.06 27.9496H133.462V26.016H133.94C135.521 25.9909 136.192 24.9362 136.192 22.9774C136.192 22.1487 136.072 21.32 136 20.4411C135.88 19.6124 135.785 18.7335 135.785 17.7793C135.785 15.5443 136.574 14.3389 137.821 13.9623V13.8869C136.574 13.46 135.785 12.33 135.785 10.095C135.785 9.14074 135.904 8.31206 136 7.43313C136.072 6.60444 136.192 5.75064 136.192 4.94705C136.192 3.06365 135.593 1.95873 133.965 1.93362H133.462V0H134.012C136.407 0 138.131 1.35605 138.131 4.59549C138.131 5.57485 138.012 6.5291 137.916 7.50847C137.796 8.48783 137.7 9.4672 137.7 10.4466C137.7 11.677 137.988 13.0331 139.976 13.0331V14.8663H139.999Z" fill="#ECECEC"/>
</svg>
