<svg width="136" height="38" viewBox="0 0 136 38" fill="none" xmlns="http://www.w3.org/2000/svg">
<path d="M28.1759 20.7277H15.0989V17.7568H31.5497C31.5933 17.8345 31.6456 17.8777 31.6456 17.9209C31.7614 20.8107 31.2067 23.6884 30.0241 26.3327C29.1205 28.3407 27.7344 30.0989 25.9867 31.4538C24.2391 32.8087 22.1831 33.7191 19.9984 34.1054C13.7215 35.4095 8.36869 33.6822 4.22766 28.7681C1.91238 25.9195 0.719702 22.335 0.871253 18.6809C0.880859 15.0259 2.21954 11.4968 4.64203 8.74015C7.06451 5.98346 10.4086 4.18378 14.0615 3.67086C16.3465 3.27896 18.6904 3.38582 20.9294 3.98397C23.1685 4.58212 25.2488 5.65716 27.0251 7.13404C28.5974 8.50085 29.8474 10.1932 30.6866 12.0913L27.6877 13.1709C27.1995 12.5231 26.72 11.884 26.223 11.245C24.6131 9.08447 22.2585 7.58473 19.6061 7.03041C15.1338 6.11495 9.71125 7.34995 6.7733 11.5213C2.29228 17.869 4.07074 27.1618 11.8907 30.3918C17.601 32.7581 24.9677 30.6077 27.5133 24.0613C27.9833 23.0132 28.2097 21.874 28.1759 20.7277Z" fill="#D3FAFF"/>
<path d="M108.817 33.898V4.1285C109.096 4.1285 109.367 4.07668 109.637 4.1285C113.307 4.1285 116.986 4.1285 120.656 4.30123C124.579 4.32775 128.346 5.82778 131.196 8.4985C133.344 10.5879 134.738 13.3193 135.163 16.2712C135.72 19.1959 135.417 22.2174 134.291 24.9767C133.455 27.0124 132.138 28.819 130.449 30.244C128.76 31.6689 126.75 32.6705 124.588 33.164C122.912 33.5991 121.193 33.8511 119.462 33.9153C116.097 34.0362 112.723 33.9671 109.358 33.9758C109.21 33.9758 109.053 33.9758 108.809 33.9758L108.817 33.898ZM112.296 30.9703C112.549 30.9703 112.706 30.9703 112.854 30.9703C115.051 30.9099 117.213 30.884 119.436 30.7803C121.097 30.7773 122.748 30.515 124.327 30.003C129.514 28.0599 132.783 23.1803 131.684 16.6512C130.769 11.1412 126.558 8.23077 121.729 7.55714C118.808 7.15123 115.827 7.21168 112.871 7.06486C112.678 7.07083 112.485 7.09396 112.296 7.13395V30.9703Z" fill="#D3FAFF"/>
<path d="M59.6217 4.14551H63.0391C63.0391 4.49096 63.1002 4.81051 63.1002 5.13005C63.1002 10.4558 63.1002 15.7902 63.1002 21.1332C63.1383 23.4156 62.6555 25.677 61.6879 27.7487C60.7913 29.7582 59.326 31.4673 57.4693 32.669C55.6126 33.8706 53.4441 34.5135 51.2263 34.5196C49.6433 34.6394 48.0518 34.4606 46.5361 33.9928C44.3316 33.3393 42.3675 32.0631 40.884 30.3205C39.4006 28.5779 38.4624 26.4446 38.1843 24.1819C37.9503 22.1756 37.8775 20.1541 37.9663 18.1364C37.9663 13.7405 37.9663 9.3446 37.9663 4.94005C37.9663 4.6896 37.9663 4.44778 37.9663 4.14551H41.3227V20.3646C41.2655 21.9113 41.4748 23.4563 41.9417 24.9332C43.0227 28.051 45.0104 30.3137 48.3843 30.9787C51.5838 31.6178 54.5479 31.0651 56.9191 28.6469C58.2123 27.2605 59.038 25.5099 59.2817 23.6378C59.4802 22.4964 59.588 21.3413 59.6043 20.1832C59.6043 15.1569 59.6043 10.1219 59.6043 5.08687V4.14551" fill="#D3FAFF"/>
<path d="M85.6188 30.9004H102.872V33.8368H82.3408V4.1709H85.6188V30.9436" fill="#D3FAFF"/>
<path d="M70.8418 4.11914H74.1023V33.8628H70.8767V4.11914" fill="#D3FAFF"/>
<path fill-rule="evenodd" clip-rule="evenodd" d="M126.192 19.1901L118.86 11.6592C119.785 14.0292 120.295 16.538 120.369 19.0778C120.277 21.6857 119.767 24.2625 118.86 26.7124L126.192 19.1901Z" fill="#01FCF7"/>
</svg>
