<svg width="142" height="24" viewBox="0 0 142 24" fill="none" xmlns="http://www.w3.org/2000/svg">
<path d="M140.538 7.07578C140.538 6.54344 140.156 6.18854 139.526 6.18854L138.289 6.21072L138.312 8.91682H138.987V7.98521H139.391L139.976 8.91682H140.763L140.066 7.87431C140.21 7.79536 140.33 7.67953 140.413 7.53901C140.496 7.39849 140.539 7.23846 140.538 7.07578ZM139.391 7.43068H138.964V6.74307H139.459C139.548 6.73344 139.637 6.75803 139.708 6.81173C139.78 6.86542 139.827 6.9441 139.841 7.03142V7.05361C139.839 7.10844 139.826 7.1623 139.802 7.21173C139.778 7.26116 139.743 7.30504 139.701 7.34057C139.659 7.3761 139.609 7.40248 139.556 7.418C139.502 7.43352 139.446 7.43784 139.391 7.43068ZM39.643 19.586C38.4962 19.586 37.7092 18.6987 37.7092 17.39V11.4233H42.4313V7.20887H37.7204L37.6754 2.37338H32.4587L32.5036 18.4769C32.5036 21.7375 34.7073 23.9556 37.9453 23.9556C39.6542 23.9556 41.2732 23.7116 42.5549 23.1349V19.0314C41.6447 19.4481 40.645 19.6385 39.643 19.586ZM52.1003 6.9427C47.2433 6.9427 43.5106 10.6691 43.5106 15.6155C43.5106 20.5176 47.2433 23.9335 52.3926 23.9335C55.2933 23.9335 58.0141 22.9131 59.6781 20.8059L55.6756 19.0092C54.8661 19.7412 53.6293 20.0296 52.5275 20.0296C50.7286 20.0296 48.9297 19.1201 48.6824 17.2569H60.6225C60.8019 16.5912 60.8927 15.9052 60.8923 15.2163C60.8923 10.1368 57.1372 6.9427 52.1115 6.9427H52.1003ZM48.6824 13.9963C48.8398 11.7782 50.4588 10.7579 52.2352 10.7579C54.2364 10.7579 55.743 11.8669 55.743 13.7745V13.9963H48.6824ZM27.5005 19.586C26.3537 19.586 25.5667 18.6987 25.5667 17.39V11.4233H30.2888V7.20887H25.5779L25.533 2.37338H20.3162L20.3612 18.4769C20.3612 21.7375 22.5648 23.9556 25.8028 23.9556C27.5117 23.9556 29.1307 23.7116 30.4124 23.1349V19.0314C29.5029 19.4501 28.5026 19.6406 27.5005 19.586ZM9.17432 6.9427C4.69959 6.9427 0 9.84843 0 15.7043C0 20.5841 3.32794 24 7.53284 24C9.93885 24 11.7602 23.0462 12.952 21.3604L13.1094 23.7116H18.1575V15.9039C18.1575 9.95934 13.7165 6.9427 9.17432 6.9427ZM9.17432 19.4972C6.90323 19.4972 5.26174 17.8336 5.26174 15.4824C5.26174 13.1312 6.88074 11.4677 9.17432 11.4677C11.288 11.4677 13.0419 13.2865 13.0419 15.4824C13.0419 17.6784 11.288 19.4972 9.17432 19.4972ZM139.279 4.96857C137.637 4.99076 136.581 6.03327 136.603 7.58595C136.625 9.13863 137.705 10.159 139.346 10.1368C140.943 10.1146 142.022 9.07209 142 7.49723C141.977 5.92237 140.898 4.94639 139.279 4.96857ZM139.346 9.69316C138.065 9.71534 137.188 8.87246 137.188 7.58595C137.188 6.29945 138.02 5.43438 139.301 5.4122C140.583 5.39002 141.438 6.2329 141.46 7.54159C141.46 8.80591 140.606 9.67098 139.358 9.69316H139.346ZM113.78 7.23105L110.137 17.6562L106.449 7.23105H100.783L107.573 23.6895H112.655L119.446 7.23105H113.78ZM127.294 6.9427C122.437 6.9427 118.704 10.6691 118.704 15.6155C118.704 20.5176 122.437 23.9335 127.586 23.9335C130.487 23.9335 133.208 22.9131 134.872 20.8059L130.869 19.0092C130.06 19.7412 128.823 20.0296 127.721 20.0296C125.922 20.0296 124.123 19.1201 123.876 17.2569H135.816C135.995 16.5912 136.086 15.9052 136.086 15.2163C136.086 10.1368 132.331 6.9427 127.294 6.9427ZM130.936 13.9963H123.876C124.033 11.7782 125.652 10.7579 127.429 10.7579C129.43 10.7579 130.936 11.8669 130.936 13.7745V13.9963ZM96.7576 0C94.9138 0 93.5196 1.21997 93.5196 2.92791C93.5196 4.63586 94.9138 5.90019 96.7576 5.90019C98.6015 5.90019 99.9956 4.65804 99.9956 2.92791C99.9956 1.19778 98.624 0 96.7576 0ZM73.0798 6.92052C72.0255 6.90372 70.9847 7.15636 70.0588 7.65389C69.1328 8.15141 68.3531 8.87687 67.7956 9.7597L67.6157 7.23105H62.5788V23.6895H67.7956V15.061C67.908 12.9981 69.5945 11.4233 71.4383 11.4233C73.507 11.4233 74.4514 12.9538 74.4514 14.8835V23.6673H79.6457V14.085C79.6457 9.91497 77.0711 6.92052 73.0798 6.92052ZM88.9999 19.586C87.8531 19.586 87.0661 18.6987 87.0661 17.39V11.4233H91.7882V7.20887H87.0661L87.0212 2.37338H81.8044L81.8494 18.4769C81.8494 21.7375 84.053 23.9556 87.291 23.9556C88.9999 23.9556 90.6189 23.7116 91.9007 23.1349V19.0314C90.9945 19.4483 89.9983 19.6387 88.9999 19.586ZM94.1268 7.23105V23.6895H99.3885V7.23105C98.6085 7.74098 97.6934 8.01292 96.7576 8.01292C95.8219 8.01292 94.9068 7.74098 94.1268 7.23105Z" fill="#FFB27B"/>
</svg>
