<svg width="120" height="42" viewBox="0 0 120 42" fill="none" xmlns="http://www.w3.org/2000/svg">
<path d="M37.8806 17.9627H26.4851C25.8321 17.9627 25.3423 18.6318 25.5709 19.2519L28.3136 26.3512C28.4442 26.6613 28.183 27.004 27.8565 26.9877L24.3301 26.7592C24.1832 26.7429 24.0199 26.8245 23.9219 26.955L21.1955 30.8229C21.0486 31.0351 20.7547 31.1167 20.5262 30.9698L16.51 28.228C16.363 28.1138 16.1345 28.1138 15.9875 28.228L10.4041 32.0143C10.0449 32.2591 9.57146 31.9163 9.68574 31.5083L11.2367 25.9432C11.302 25.7147 11.1877 25.4699 10.9592 25.3883L8.00417 24.1806C7.7103 24.0501 7.61235 23.7073 7.82458 23.4462L10.4531 20.2148C10.5837 20.0516 10.6 19.8232 10.4694 19.66L8.23273 16.4775C8.03682 16.1838 8.21641 15.7758 8.5919 15.7431L12.004 15.482C12.2489 15.4657 12.4611 15.2535 12.4448 14.9924L12.1836 10.2106C12.1673 9.8679 12.5101 9.6231 12.8366 9.75366L17.0651 11.4999C17.2446 11.5815 17.4732 11.5325 17.5875 11.3693L20.5098 8.12165C20.7384 7.86053 21.1629 7.94213 21.2935 8.25221L23.0403 12.7566C23.2689 13.3114 23.9709 13.5236 24.4607 13.1482L31.3176 8.04005C32.1012 7.46885 31.5951 6.22852 30.6319 6.35908L26.1259 6.96292C25.9137 6.99556 25.7015 6.865 25.6362 6.66916L23.2689 0.58177C23.0077 -0.054713 22.1751 -0.201594 21.7179 0.304329L16.559 5.90212C16.412 6.049 16.2161 6.08164 16.0365 6.01636L9.22861 3.14402C8.62455 2.89922 7.95519 3.30722 7.92254 3.97635L7.67765 10.9777C7.66132 11.2225 7.48174 11.4183 7.23685 11.4346L1.033 11.8426C0.298332 11.8916 -0.0771641 12.7076 0.314658 13.2951L4.44512 19.3662C4.57573 19.5294 4.5594 19.7742 4.41247 19.9374L0.233029 24.7518C-0.191446 25.2251 -0.0118603 25.9758 0.575873 26.2206L5.39202 28.2933C5.60426 28.3912 5.71854 28.6197 5.65324 28.8318L2.58396 40.8271C2.37172 41.6758 3.33495 42.3286 4.03697 41.8226L15.5794 33.5483C15.7263 33.4341 15.9549 33.4178 16.1182 33.5483L21.3751 37.2367C21.8159 37.5468 22.4036 37.4162 22.6975 36.9919L25.979 31.949C26.077 31.8021 26.2566 31.7205 26.4361 31.7531L34.3052 32.6997C34.9419 32.7976 35.5787 32.2591 35.3501 31.6715L32.0849 23.2014C31.987 22.9729 32.0849 22.7281 32.3624 22.5812L38.3377 19.7579C39.203 19.3172 38.8928 17.9627 37.8806 17.9627Z" fill="#A86CFF"/>
<path d="M119.657 17.9789H110.809C110.645 17.9789 110.482 18.1258 110.482 18.3053V22.2221C110.482 22.3853 110.629 22.5485 110.809 22.5485H114.596C114.776 22.5485 114.923 22.6954 114.923 22.8749C114.89 24.8823 114.466 28.5217 110.809 28.5217C107.821 28.5217 106.613 24.915 106.613 20.6717C106.613 15.6451 107.854 12.5443 110.629 12.5443C112.654 12.5443 113.307 14.2579 113.502 14.8781C113.551 15.025 113.666 15.1066 113.813 15.1066H118.417C118.596 15.1066 118.759 14.9434 118.743 14.7639C118.563 12.2506 116.408 7.84415 110.727 7.84415C106.76 7.84415 103.038 10.2595 101.846 16.2327V8.54591C101.846 8.44799 101.764 8.38271 101.682 8.38271H96.8174C96.7194 8.38271 96.6541 8.46431 96.6541 8.54591V22.2874C96.6541 22.4506 96.4255 22.4996 96.3439 22.3527L89.9605 8.48063C89.9278 8.41535 89.8788 8.38271 89.8135 8.38271H85.5035C85.4056 8.38271 85.3402 8.46431 85.3402 8.54591V16.249C83.7403 11.3693 79.3976 7.86047 73.7488 7.86047C67.447 7.86047 62.7778 12.2179 61.7166 17.9952H52.9006C52.8027 17.9952 52.7537 18.0768 52.7537 18.1584V22.4017C52.7537 22.4996 52.8353 22.5649 52.9006 22.5649H57.0148C57.1127 22.5649 57.1617 22.6465 57.1617 22.7117C57.1454 24.6865 56.8025 28.5054 53.0312 28.5054C50.0436 28.5054 48.8518 24.8986 48.8518 20.6554C48.8518 15.6288 50.0926 12.528 52.868 12.528C55.0067 12.528 55.6271 14.4701 55.774 14.976C55.7903 15.0576 55.8556 15.1066 55.9209 15.1066H60.8187C60.9167 15.1066 60.982 15.025 60.9656 14.9434C60.8677 12.4627 58.7453 7.86047 52.9333 7.86047C48.1171 7.86047 43.6602 11.4346 43.6602 20.6228C43.6602 26.955 46.1417 33.1892 53.0149 33.1892C58.1086 33.1892 61.3575 29.2561 62.0758 24.5233C63.6104 29.5662 68.0021 33.1892 73.7488 33.1892C79.2997 33.1892 83.724 29.6641 85.3402 24.7518V32.5364C85.3402 32.6344 85.4219 32.6996 85.5035 32.6996H90.3686C90.4666 32.6996 90.5319 32.618 90.5319 32.5364V19.0234C90.5319 18.8602 90.7605 18.8112 90.8421 18.9581L97.2255 32.618C97.2582 32.6833 97.3072 32.716 97.3725 32.716H101.682C101.78 32.716 101.846 32.6344 101.846 32.5691V24.8497C102.793 29.4846 105.47 33.2382 110.792 33.2382C116.588 33.2382 120 28.13 120 22.5485V18.3706C119.984 18.1095 119.837 17.9789 119.657 17.9789ZM73.7325 28.1137C69.6347 28.1137 66.794 24.9639 66.794 20.5249C66.794 16.0695 69.6347 12.936 73.7325 12.936C77.814 12.936 80.671 16.0858 80.671 20.5249C80.671 24.9639 77.814 28.1137 73.7325 28.1137Z" fill="#E7D9FC"/>
</svg>
