<svg width="140" height="30" viewBox="0 0 140 30" fill="none" xmlns="http://www.w3.org/2000/svg">
<path d="M8.61377 20.9092C7.87432 20.127 7.28935 19.1996 6.89237 18.1801C6.49538 17.1606 6.29418 16.069 6.30028 14.9679C6.29759 13.8668 6.50437 12.7761 6.90851 11.7598C7.31265 10.7434 7.90606 9.82171 8.65402 9.04855C8.97442 8.75004 9.23333 8.38613 9.41488 7.97909C9.59643 7.57205 9.6968 7.13045 9.70986 6.68133C9.72293 6.23222 9.64839 5.78503 9.49083 5.36716C9.33327 4.94929 9.09599 4.56952 8.79353 4.25111C8.49107 3.9327 8.12979 3.68235 7.73181 3.51539C7.33383 3.34843 6.90752 3.26837 6.47899 3.28012C6.05047 3.29187 5.62874 3.39517 5.23963 3.5837C4.85051 3.77223 4.50221 4.04203 4.21604 4.37657C1.52806 7.17743 0.011552 10.9827 6.57247e-05 14.9555C-0.0114206 18.9282 1.48306 22.7431 4.15479 25.561C4.44003 25.895 4.78719 26.1647 5.1751 26.3536C5.56302 26.5424 5.98357 26.6465 6.41111 26.6595C6.83865 26.6724 7.26423 26.5939 7.6619 26.4289C8.05957 26.2638 8.421 26.0156 8.72416 25.6993C9.02732 25.383 9.26585 25.0054 9.42522 24.5893C9.58458 24.1733 9.66144 23.7276 9.65112 23.2794C9.64079 22.8312 9.54348 22.3899 9.36514 21.9824C9.18679 21.5749 8.93114 21.2097 8.61377 20.9092Z" fill="#FFDA00"/>
<path d="M8.65348 9.04834C10.1609 7.48418 12.1984 6.61028 14.3195 6.61819C16.4406 6.62609 18.4722 7.51517 19.9689 9.09053C20.2532 9.42813 20.6003 9.70122 20.9889 9.89302C21.3776 10.0848 21.7995 10.1913 22.2289 10.2058C22.6582 10.2204 23.0859 10.1428 23.4855 9.97771C23.8852 9.81265 24.2484 9.56365 24.5529 9.24602C24.8573 8.92839 25.0966 8.54884 25.256 8.13071C25.4153 7.71258 25.4914 7.2647 25.4795 6.81461C25.4677 6.36452 25.3681 5.92174 25.187 5.51347C25.0058 5.1052 24.7469 4.74008 24.4262 4.44056C23.1082 3.04122 21.5394 1.92858 19.8099 1.16656C18.0805 0.404535 16.2244 0.00813472 14.3484 0.000123895C12.4724 -0.00788693 10.6134 0.37265 8.87805 1.11988C7.14274 1.86711 5.56536 2.96631 4.23649 4.35435C3.91494 4.65133 3.65457 5.01396 3.47135 5.42006C3.28812 5.82615 3.18587 6.26717 3.17088 6.71611C3.15588 7.16506 3.22844 7.61249 3.38412 8.03103C3.5398 8.44956 3.77532 8.83039 4.07627 9.15022C4.37723 9.47005 4.73728 9.72214 5.13439 9.89107C5.53151 10.06 5.95734 10.1422 6.38581 10.1327C6.81429 10.1231 7.2364 10.022 7.62632 9.8356C8.01624 9.64915 8.36575 9.38127 8.65348 9.04834Z" fill="#67B3FF"/>
<path d="M19.9505 20.9512C19.2045 21.7278 18.3198 22.3426 17.3468 22.7603C16.3739 23.178 15.3319 23.3904 14.2805 23.3853C13.2294 23.387 12.1885 23.1688 11.2189 22.7436C10.2492 22.3184 9.37017 21.6947 8.63328 20.909C8.34849 20.5732 8.0013 20.3018 7.61297 20.1115C7.22464 19.9212 6.80334 19.816 6.37487 19.8023C5.94639 19.7886 5.51976 19.8667 5.12109 20.0319C4.72243 20.1971 4.36012 20.4458 4.05634 20.7628C3.75257 21.0798 3.51373 21.4585 3.35444 21.8757C3.19516 22.2928 3.11878 22.7397 3.12998 23.1888C3.14119 23.638 3.23974 24.0801 3.41961 24.4879C3.59948 24.8958 3.85687 25.2609 4.17604 25.5608C5.49634 26.9601 7.06711 28.0724 8.79832 28.8342C10.5295 29.5959 12.3871 29.9921 14.2647 29.9999C16.1422 30.0078 18.0028 29.6271 19.7397 28.8799C21.4767 28.1326 23.0558 27.0334 24.3867 25.6452C24.6808 25.3399 24.9146 24.9768 25.0748 24.5768C25.2349 24.1768 25.3184 23.7476 25.3204 23.3138C25.3223 22.8799 25.2427 22.4499 25.0861 22.0484C24.9295 21.6468 24.699 21.2814 24.4077 20.9732C24.1164 20.665 23.7701 20.42 23.3884 20.252C23.0068 20.0841 22.5974 19.9967 22.1835 19.9946C21.7696 19.9926 21.3593 20.076 20.9762 20.2401C20.5931 20.4043 20.2445 20.6459 19.9505 20.9512Z" fill="#EB5A68"/>
<path d="M8.6534 9.04834C8.2119 9.51057 7.64936 9.82493 7.03715 9.95156C6.42494 10.0782 5.79064 10.0114 5.21472 9.75957C4.6388 9.50778 4.1472 9.08236 3.80228 8.53728C3.45736 7.9922 3.27467 7.35202 3.27737 6.69795C3.28008 6.04388 3.46806 5.40539 3.81748 4.86346C4.1669 4.32154 4.662 3.90061 5.23999 3.65406C5.81797 3.40752 6.4528 3.34647 7.06394 3.47865C7.67508 3.61084 8.23499 3.93031 8.67265 4.39654C9.25572 5.01767 9.5809 5.85521 9.57729 6.72659C9.57369 7.59798 9.24159 8.43253 8.6534 9.04834Z" fill="#47A1FF"/>
<path d="M8.59295 25.5607C8.15127 26.0228 7.58861 26.3369 6.97636 26.4633C6.3641 26.5897 5.72983 26.5226 5.154 26.2705C4.57817 26.0185 4.08673 25.5929 3.74202 25.0477C3.39731 24.5024 3.21486 23.8622 3.21781 23.2081C3.22076 22.5541 3.40899 21.9156 3.7586 21.3739C4.10822 20.8321 4.60348 20.4114 5.18156 20.165C5.75964 19.9187 6.39449 19.858 7.00558 19.9904C7.61667 20.1228 8.17646 20.4425 8.61395 20.9089C9.19679 21.5303 9.52165 22.368 9.51772 23.2394C9.51378 24.1108 9.18137 24.9452 8.59295 25.5607Z" fill="#D5465F"/>
<path d="M38.4438 18.2035C39.3521 17.4845 39.4728 17.8862 40.2393 18.6896C40.6226 19.0913 41.6708 19.7902 40.9848 20.3808C39.5533 21.6062 38.2618 22.1564 36.4348 22.1564C32.2996 22.1363 29.3753 18.9006 29.6098 14.6083C29.7096 12.6859 30.4358 10.8663 31.8691 9.61897C33.1798 8.45602 34.8126 7.94975 36.5276 7.99194C37.3681 7.98933 38.2008 8.1614 38.9776 8.49821C39.5036 8.69732 39.9994 8.97536 40.4493 9.32365C41.3576 10.0574 40.9341 10.4866 40.2271 11.2258C40.0661 11.3946 39.9051 11.5652 39.7633 11.7339C39.4011 12.1136 39.1578 12.3888 38.6748 12.0292C37.7473 11.3524 36.5748 10.9929 35.4671 11.2955C31.8971 12.2457 32.0581 18.9061 36.4366 18.9281C37.1624 18.9181 37.866 18.6641 38.4438 18.2035ZM137.681 22.239C137.538 22.2397 137.396 22.2107 137.263 22.1537C137.131 22.0966 137.01 22.0126 136.909 21.9066C136.808 21.8005 136.727 21.6744 136.673 21.5357C136.618 21.3969 136.59 21.2482 136.59 21.0981L136.652 6.34107C136.651 6.19095 136.679 6.04217 136.733 5.90331C136.788 5.76446 136.868 5.63827 136.969 5.53203C137.07 5.4258 137.19 5.34161 137.323 5.28433C137.455 5.22705 137.597 5.19781 137.74 5.1983H138.911C139.054 5.19781 139.196 5.22711 139.329 5.2845C139.461 5.3419 139.582 5.42625 139.683 5.53268C139.784 5.63911 139.864 5.76551 139.919 5.90458C139.973 6.04365 140 6.19263 139.999 6.3429L139.938 21.0999C139.939 21.2499 139.911 21.3986 139.857 21.5374C139.802 21.6761 139.722 21.8022 139.621 21.9083C139.52 22.0144 139.399 22.0984 139.267 22.1555C139.135 22.2125 138.993 22.2416 138.85 22.2408L137.681 22.239ZM131.556 20.5276C130.285 21.7749 129.074 22.4298 127.279 22.4298C123.649 22.4077 121.913 19.2582 121.913 15.7272L121.934 9.72353C121.934 9.57349 121.962 9.42485 122.016 9.28618C122.071 9.14752 122.151 9.02159 122.253 8.91567C122.354 8.80975 122.475 8.72594 122.607 8.66908C122.74 8.61223 122.881 8.58345 123.025 8.58442H124.195C124.338 8.58369 124.48 8.61271 124.613 8.66979C124.745 8.72687 124.865 8.81088 124.967 8.91697C125.068 9.02306 125.148 9.14913 125.202 9.28788C125.257 9.42664 125.284 9.57533 125.284 9.72536L125.265 15.729C125.265 17.6954 126.273 19.2381 128.25 19.2381C130.228 19.2381 131.437 17.5046 131.456 15.5695V13.4252C131.44 13.3419 131.434 13.2569 131.437 13.172L131.456 9.76755C131.455 9.61751 131.483 9.46882 131.537 9.33007C131.592 9.19132 131.672 9.06525 131.773 8.95916C131.874 8.85307 131.995 8.76905 132.127 8.71198C132.26 8.6549 132.401 8.62588 132.545 8.62661H133.7C133.843 8.62588 133.985 8.6549 134.117 8.71198C134.249 8.76905 134.37 8.85307 134.471 8.95916C134.572 9.06525 134.652 9.19132 134.707 9.33007C134.761 9.46882 134.789 9.61751 134.788 9.76755L134.75 21.0999C134.747 21.3997 134.631 21.6862 134.426 21.8963C134.222 22.1064 133.947 22.2231 133.661 22.2206H132.672C132.391 22.2115 132.125 22.0904 131.926 21.8822C131.727 21.674 131.612 21.3942 131.603 21.0999L131.556 20.5276ZM117.631 8.62661H119.89C120.034 8.62875 120.175 8.6606 120.306 8.72033C120.438 8.78005 120.557 8.86647 120.656 8.97458C120.755 9.0827 120.833 9.21039 120.886 9.35026C120.938 9.49014 120.963 9.63944 120.96 9.78956V10.571C120.957 10.8722 120.842 11.1605 120.639 11.3738C120.437 11.5872 120.162 11.7086 119.875 11.7119H117.61L117.57 21.0357C117.571 21.1858 117.543 21.3346 117.488 21.4734C117.434 21.6123 117.354 21.7385 117.253 21.8447C117.151 21.951 117.031 22.0351 116.899 22.0924C116.766 22.1497 116.625 22.1789 116.481 22.1785H115.312C115.169 22.1789 115.027 22.1497 114.895 22.0925C114.762 22.0352 114.642 21.951 114.54 21.8448C114.439 21.7386 114.359 21.6124 114.304 21.4736C114.249 21.3347 114.222 21.1859 114.222 21.0357L114.262 8.14052C114.262 5.32853 115.795 3.10719 118.539 2.85405C118.62 2.85405 118.679 2.83388 118.76 2.83388C118.921 2.82287 119.083 2.82287 119.245 2.83388H120.295C120.438 2.83602 120.579 2.86781 120.71 2.92742C120.842 2.98703 120.96 3.07328 121.06 3.1812C121.159 3.28913 121.237 3.41659 121.289 3.55625C121.341 3.69592 121.367 3.84503 121.364 3.99499V4.71404C121.362 5.01621 121.247 5.30549 121.043 5.51933C120.839 5.73318 120.564 5.85441 120.275 5.85681H119.428C118.137 5.85681 117.593 6.89136 117.572 8.1607L117.631 8.62661ZM109.523 8.58442H112C112.286 8.58733 112.559 8.70911 112.759 8.92303C112.96 9.13694 113.071 9.42551 113.069 9.72536V10.5068C113.066 10.8066 112.95 11.0931 112.746 11.3032C112.542 11.5133 112.266 11.63 111.98 11.6275H109.502L109.483 17.3322C109.483 18.4328 109.987 19.0656 111.035 19.0656H111.539C111.826 19.069 112.099 19.1912 112.299 19.4054C112.5 19.6196 112.611 19.9084 112.609 20.2084V21.0008C112.605 21.3005 112.489 21.5867 112.285 21.7967C112.081 22.0067 111.806 22.1236 111.52 22.1216H110.572C110.396 22.1253 110.221 22.1179 110.047 22.0996C107.364 21.9162 106.174 20.0929 106.174 17.3432C106.195 13.6434 106.195 9.96565 106.214 6.26586C106.215 6.11723 106.245 5.97034 106.3 5.83358C106.356 5.69682 106.437 5.57286 106.538 5.46879C106.639 5.36472 106.759 5.28256 106.89 5.22702C107.022 5.17149 107.163 5.14365 107.304 5.1451H108.454C108.74 5.14801 109.013 5.26979 109.214 5.4837C109.414 5.69762 109.526 5.98619 109.523 6.28604V8.58442ZM73.6485 8.43584H76.1247C76.4108 8.43875 76.684 8.56053 76.8845 8.77445C77.085 8.98836 77.1963 9.27693 77.1939 9.57678V10.3619C77.1907 10.6616 77.0744 10.9477 76.8704 11.1577C76.6664 11.3678 76.3914 11.4846 76.1054 11.4826H73.6204V17.1891C73.6204 18.2897 74.1244 18.9226 75.1727 18.9226H75.6784C75.82 18.924 75.9599 18.9547 76.0902 19.0128C76.2204 19.0709 76.3385 19.1553 76.4376 19.2613C76.5368 19.3672 76.615 19.4926 76.6679 19.6303C76.7208 19.7679 76.7473 19.9151 76.7459 20.0635V20.8449C76.7432 21.1448 76.627 21.4312 76.4229 21.6413C76.2188 21.8515 75.9435 21.9681 75.6574 21.9657H74.9119C71.986 21.9455 70.292 20.634 70.292 17.1965C70.313 13.4967 70.313 9.81708 70.3322 6.11728C70.3354 5.81727 70.452 5.53083 70.6564 5.32075C70.8607 5.11067 71.1362 4.99407 71.4225 4.99652H72.5722C72.8583 4.99991 73.1314 5.12216 73.3315 5.33642C73.5317 5.55068 73.6425 5.83944 73.6397 6.13929L73.6485 8.43584ZM59.0867 10.0427C60.2767 8.87975 61.5682 8.14052 63.2412 8.14052C66.8725 8.1607 68.7485 11.2588 68.7275 14.8412L68.7082 20.8449C68.7087 20.9951 68.6808 21.1439 68.6262 21.2828C68.5715 21.4217 68.4913 21.5478 68.3899 21.6541C68.2886 21.7603 68.1682 21.8444 68.0357 21.9017C67.9033 21.9589 67.7613 21.9882 67.618 21.9877H66.449C66.3057 21.9882 66.1637 21.9589 66.0312 21.9017C65.8987 21.8444 65.7784 21.7603 65.677 21.6541C65.5757 21.5478 65.4954 21.4217 65.4408 21.2828C65.3862 21.1439 65.3583 20.9951 65.3587 20.8449L65.3797 14.8834C65.3797 12.9171 64.3717 11.3744 62.3942 11.3744C60.4167 11.3744 59.2075 13.0876 59.1882 15.032L59.1672 20.8449C59.1645 21.1448 59.0483 21.4312 58.8442 21.6413C58.6401 21.8515 58.3648 21.9681 58.0788 21.9657H56.929C56.6429 21.9628 56.3697 21.841 56.1692 21.6271C55.9687 21.4132 55.8574 21.1246 55.8598 20.8247C55.879 17.2093 55.879 13.5737 55.9 9.95832V9.47223C55.9009 9.1727 56.0151 8.88577 56.2175 8.67432C56.4199 8.46286 56.694 8.34413 56.9798 8.34413H57.9685C58.2494 8.35288 58.5166 8.47377 58.7153 8.68209C58.9141 8.89041 59.0294 9.17042 59.0377 9.46489L59.0867 10.0427ZM95.0299 10.1894C96.2199 9.02832 97.5096 8.28726 99.1844 8.28726C102.816 8.30928 104.69 11.4166 104.671 14.9898L104.65 21.0008C104.65 21.151 104.623 21.2997 104.568 21.4386C104.514 21.5774 104.434 21.7036 104.332 21.8099C104.231 21.9161 104.111 22.0003 103.979 22.0576C103.846 22.1149 103.704 22.1441 103.561 22.1436H102.392C102.249 22.1441 102.107 22.1149 101.974 22.0576C101.842 22.0003 101.721 21.9162 101.62 21.81C101.519 21.7038 101.439 21.5776 101.384 21.4387C101.329 21.2999 101.301 21.151 101.302 21.0008L101.323 15.0393C101.323 13.073 100.313 11.5303 98.3374 11.5303C96.3616 11.5303 95.1506 13.2417 95.1296 15.1879L95.1016 21.0008C95.0984 21.3008 94.9818 21.5873 94.7775 21.7974C94.5731 22.0074 94.2976 22.124 94.0114 22.1216H92.8616C92.5759 22.1182 92.3031 21.9962 92.103 21.7823C91.9029 21.5685 91.7918 21.2802 91.7941 20.9807L91.8344 9.62631C91.8348 9.47706 91.8635 9.32938 91.9186 9.19177C91.9737 9.05416 92.0543 8.92934 92.1556 8.82449C92.2569 8.71964 92.377 8.63683 92.509 8.58084C92.641 8.52484 92.7823 8.49676 92.9246 8.49821H93.9134C94.1954 8.50797 94.4631 8.63048 94.6616 8.8406C94.8601 9.05072 94.9743 9.33251 94.9809 9.62814L95.0299 10.1894ZM48.1055 8.03413C44.1715 8.01212 41.3891 10.9929 41.3681 15.0944C41.3488 19.2381 44.091 22.1785 48.0653 22.1986C52.0395 22.2188 54.822 19.3023 54.8413 15.1311C54.8623 11.0571 52.0185 8.05431 48.1055 8.03413ZM80.7604 16.5123C81.0422 18.4145 82.7782 19.1959 84.4722 19.2179C85.3214 19.2101 86.1596 19.0158 86.9327 18.6474C87.057 18.5943 87.178 18.5331 87.2949 18.464C87.6992 18.231 88.0614 18.0843 88.4254 18.464C88.6267 18.6749 88.8087 18.8877 89.0099 19.0766C89.2 19.2668 89.3755 19.4722 89.5349 19.6911C90.0791 20.4084 89.6959 20.5789 89.0712 21.0228C87.7394 21.9528 86.0052 22.4169 84.4109 22.4169C80.1357 22.3967 77.3112 19.6655 77.3112 15.1457C77.3322 10.8736 80.1549 8.04147 84.2289 8.06165C88.3852 8.08366 90.7441 10.6425 90.8054 14.9972C90.8246 16.1803 90.8649 16.5618 89.6959 16.5618L80.7604 16.5123ZM48.1055 11.2258C50.1425 11.2258 51.4935 13.0876 51.4935 15.1384C51.4935 17.2735 50.223 18.9904 48.0845 18.9904C45.946 18.9904 44.6965 17.257 44.6965 15.1219C44.6965 12.9868 45.988 11.2258 48.1055 11.2258ZM80.8497 13.5737L87.5469 13.5939C87.3037 11.8385 85.9124 11.1414 84.3199 11.1414C82.7274 11.1414 81.3449 11.9247 80.8497 13.5737Z" fill="#FCED98"/>
</svg>
