<svg width="134" height="32" viewBox="0 0 134 32" fill="none" xmlns="http://www.w3.org/2000/svg">
<path d="M2.43096 7.63969C4.70864 4.01791 8.48242 1.30157 13.1271 0.331451C17.6824 -0.595552 22.4611 0.482359 26.0562 2.81065C25.2523 3.15558 22.3941 1.62494 20.429 7.23008C19.2455 10.6363 16.231 11.3261 11.9883 8.35111C6.02611 4.19037 3.81543 8.28643 2.43096 7.63969ZM8.86204 15.7025C7.83485 13.9994 7.36592 12.6843 6.07077 11.4986C4.82029 10.3776 2.92223 10.4207 1.82805 11.3261C-0.248649 13.0292 -0.315639 16.845 0.443584 19.8201C2.65427 28.3787 11.6756 33.6605 20.563 31.5262C29.4504 29.3919 34.832 20.7255 32.6436 12.1454C32.0184 9.73083 30.9242 7.51034 29.5844 6.36775C27.4407 4.55686 25.7883 5.74256 25.23 7.31631C24.2252 10.1189 24.6271 15.0773 22.6844 18.1385C19.3125 23.4419 12.0776 21.0489 8.86204 15.7025Z" fill="url(#paint0_linear_133_1736)"/>
<path d="M107.003 22.7087H111.268C113.322 22.7087 114.707 21.6739 114.707 19.475C114.707 17.6856 113.032 16.2628 110.843 16.2628H107.003V22.7087ZM107.025 14.7753H110.687C112.697 14.7753 114.215 13.4602 114.215 11.7787C114.215 9.88155 113.143 8.76052 111.134 8.76052H107.025V14.7753ZM111.223 24.2393H105.708C105.551 24.2393 105.417 24.11 105.417 23.9591V8.52338C105.417 7.89819 105.931 7.40235 106.578 7.40235H111.067C113.791 7.40235 115.711 9.10545 115.711 11.8649C115.711 13.3093 114.975 14.5812 113.702 15.422C115.198 16.2628 116.203 17.7072 116.203 19.4534C116.225 22.4069 114.215 24.2393 111.223 24.2393ZM51.222 20.8762C51.222 20.8762 51.4007 20.2726 51.5347 19.9924L56.6483 8.43715C57.0279 7.61794 57.3852 7.3808 57.8764 7.3808H58.457C58.4793 7.3808 58.5017 7.40235 58.5017 7.42391L59.3055 24.1531C59.3055 24.1962 59.2832 24.2178 59.2385 24.2178H57.6978C57.6531 24.2178 57.6308 24.1962 57.6085 24.1531L57.0725 12.5979C57.0502 12.1883 57.0502 11.3475 57.0502 11.3475C57.0502 11.3475 56.7599 12.2098 56.5813 12.5979L51.423 24.0669C51.3337 24.2609 51.0657 24.2609 50.9764 24.0669L45.8182 12.5979C45.6618 12.2098 45.3492 11.3475 45.3492 11.3475C45.3492 11.3475 45.3492 12.1883 45.3269 12.5979L44.791 24.1531C44.791 24.1962 44.7463 24.2178 44.724 24.2178H43.1832C43.1385 24.2178 43.1162 24.1962 43.1162 24.1531L43.9201 7.42391C43.9201 7.40235 43.9424 7.3808 43.9648 7.3808H44.5453C45.0143 7.3808 45.3939 7.61794 45.7735 8.43715L50.9094 19.9924C51.0434 20.2726 51.222 20.8762 51.222 20.8762ZM90.9696 20.8762C90.9696 20.8762 91.1483 20.2726 91.2823 19.9924L96.3959 8.43715C96.7755 7.61794 97.1328 7.3808 97.624 7.3808H98.2046C98.2269 7.3808 98.2493 7.40235 98.2493 7.42391L99.0531 24.1531C99.0531 24.1962 99.0085 24.2393 98.9638 24.2393H97.4454C97.4007 24.2393 97.3784 24.2178 97.3784 24.1746L96.8425 12.6194C96.8201 12.2098 96.8201 11.3691 96.8201 11.3691C96.8201 11.3691 96.5298 12.2314 96.3512 12.6194L91.1929 24.0884C91.1036 24.2824 90.8357 24.2824 90.7463 24.0884L85.5881 12.6194C85.4318 12.2314 85.1192 11.3691 85.1192 11.3691C85.1192 11.3691 85.1192 12.2098 85.0968 12.6194L84.5609 24.1746C84.5609 24.2178 84.5386 24.2393 84.4939 24.2393H82.9531C82.9085 24.2393 82.8861 24.2178 82.8861 24.1746L83.69 7.44547C83.69 7.42391 83.7124 7.40235 83.7347 7.40235H84.3153C84.7842 7.40235 85.1638 7.63949 85.5434 8.45871L90.657 19.9924C90.7687 20.2726 90.9696 20.8762 90.9696 20.8762ZM67.7017 18.1599L66.2279 24.1746C66.2279 24.2178 66.1832 24.2393 66.1609 24.2393H64.6201C64.5754 24.2393 64.5308 24.1962 64.5531 24.1531L67.9696 10.1187C68.3939 8.32936 69.6221 7.40235 71.1182 7.40235H71.2075C72.6813 7.44547 73.8648 8.35092 74.2667 10.1187L77.6832 24.1531C77.7056 24.1962 77.6609 24.2393 77.6162 24.2393H76.0978C76.0531 24.2393 76.0308 24.2178 76.0308 24.1746L74.5347 18.1383H67.7017V18.1599ZM68.1036 16.4999H74.1551L72.6589 10.2696C72.4356 9.40727 71.8997 8.99766 71.2075 8.9761H71.1405C70.4259 8.9761 69.8454 9.38571 69.622 10.2696L68.1036 16.4999ZM122.098 18.548L122.12 7.42391C122.12 7.40235 122.142 7.3808 122.165 7.3808C122.433 7.35924 123.795 7.31612 123.795 8.86831V18.5695C123.795 20.7469 125.157 22.7302 128.06 22.7302C130.941 22.7302 132.325 20.7469 132.325 18.5695V8.86831C132.325 7.31612 133.687 7.35924 133.955 7.3808C133.977 7.3808 134 7.40235 134 7.42391L133.977 18.548C133.977 21.911 131.834 24.2824 128.038 24.2824C124.242 24.2824 122.098 21.911 122.098 18.548Z" fill="#DBFF4D"/>
<defs>
<linearGradient id="paint0_linear_133_1736" x1="2.21415" y1="24.0048" x2="30.4137" y2="7.14075" gradientUnits="userSpaceOnUse">
<stop stop-color="#057472"/>
<stop offset="0.4" stop-color="#4FB645"/>
</linearGradient>
</defs>
</svg>
