<svg width="106" height="40" viewBox="0 0 106 40" fill="none" xmlns="http://www.w3.org/2000/svg">
<path d="M94.1249 5.844C87.576 5.844 82.2468 11.1517 82.2468 17.6767C82.2468 24.2017 87.576 29.5094 94.1249 29.5094C100.672 29.5094 106 24.2017 106 17.6767C106 11.1517 100.672 5.844 94.1249 5.844ZM94.1249 23.9016C90.6807 23.9016 87.8755 21.106 87.8755 17.6767C87.8755 14.2459 90.6807 11.4519 94.1249 11.4519C97.5661 11.4519 100.373 14.2459 100.373 17.6767C100.373 21.1076 97.5676 23.9016 94.1234 23.9016H94.1249ZM59.148 15.2803L57.071 14.2474C56.1692 13.8026 55.6039 13.4583 55.3766 13.2038C55.1598 12.9784 55.0364 12.6804 55.0309 12.369C55.0309 11.9698 55.2122 11.6332 55.5686 11.3711C55.9219 11.0969 56.4243 10.972 57.0618 10.972C58.2278 10.972 59.5198 11.6697 60.9423 13.0759L64.448 9.58257C63.5866 8.41932 62.4601 7.47447 61.1605 6.82511C59.8778 6.18514 58.4607 5.85521 57.0249 5.86228C54.885 5.86228 53.1183 6.48842 51.7418 7.74985C50.3669 9.01127 49.6756 10.5271 49.6756 12.305C49.6756 15.0625 51.496 17.3598 55.1492 19.1834L57.0618 20.1356C58.7102 20.9628 59.5305 21.8053 59.5305 22.6767C59.5305 23.149 59.3016 23.5573 58.8469 23.9199C58.3922 24.284 57.79 24.4561 57.0434 24.4561C56.3521 24.4561 55.5594 24.22 54.6668 23.7401C53.7775 23.2679 52.9862 22.6332 52.3348 21.8693L48.8476 25.6536C50.8139 28.213 53.4363 29.5018 56.733 29.5018C59.211 29.5018 61.1881 28.83 62.6537 27.4954C64.1285 26.1624 64.8659 24.4927 64.8659 22.4954C64.8659 20.9979 64.4572 19.6831 63.6461 18.5664C62.8273 17.4497 61.3248 16.362 59.148 15.2818V15.2803ZM23.8823 26.9317V6.31475H18.2443V7.695C16.3446 6.4841 14.1334 5.84148 11.8751 5.844C5.32765 5.844 0 11.1517 0 17.6767C0 24.2017 5.32765 29.5094 11.8766 29.5094C14.1078 29.5128 16.2939 28.8866 18.1798 27.7041C18.1798 27.8854 18.1706 28.0484 18.1706 28.1581C18.1706 31.5874 15.3654 34.383 11.9227 34.383C10.7521 34.3803 9.60611 34.0497 8.61672 33.4293L5.82846 38.2937C7.66705 39.4059 9.77827 39.9961 11.9319 40C18.4809 40 23.8823 34.6907 23.8823 28.1658C23.8823 27.9129 23.8992 27.1679 23.8823 26.9317ZM11.8766 23.9001C8.43545 23.9001 5.62875 21.106 5.62875 17.6767C5.62875 14.2459 8.43391 11.4519 11.8766 11.4519C15.3193 11.4519 18.1245 14.2459 18.1245 17.6767C18.1245 21.106 15.3193 23.9016 11.8766 23.9016V23.9001ZM46.3404 6.30713H40.6748V17.5564C40.684 19.1545 40.684 21.9135 39.5011 23.0926C38.9358 23.6548 38.3167 24.1636 37.014 24.1636C35.702 24.1636 35.0829 23.6548 34.5191 23.0926C33.3347 21.9119 33.3439 19.1453 33.3516 17.5564V6.30713H27.6875V17.5229C27.6691 19.8355 27.6414 24.1286 30.4834 26.9775C32.1503 28.6472 34.1366 29.5003 37.0048 29.5003C39.8744 29.5003 41.8592 28.6563 43.5261 26.9775C46.3681 24.1286 46.3404 19.8263 46.322 17.5229L46.3404 6.30561V6.30713ZM78.4461 22.8946C77.9914 23.2389 76.8884 24.0021 75.641 23.83C74.6209 23.6929 73.7929 22.9494 73.6654 20.4631V11.135H80.3234V6.28885H73.6654V0H68.0182V1.234H68.009V19.7288C68.009 22.6691 68.7556 29.5003 75.6318 29.5003C79.1113 29.447 81.2237 27.5686 82.1085 26.8342L82.2268 26.7428L78.8379 22.5868C78.8287 22.5945 78.5921 22.7849 78.4461 22.8946Z" fill="#FC3B20"/>
</svg>
