<svg width="128" height="34" viewBox="0 0 128 34" fill="none" xmlns="http://www.w3.org/2000/svg">
<path d="M62.9275 27.0428C60.8505 27.6372 58.6513 26.6755 57.6123 24.7182C56.2561 22.4375 56.3429 19.5383 57.8332 17.3491C59.6802 14.472 63.8943 14.5246 65.7872 17.374C66.5334 18.537 66.9271 19.9048 66.9184 21.3017C66.8816 24.1962 65.304 26.4667 62.9275 27.0428ZM71.8415 18.8466C71.1089 14.6583 67.58 10.5743 61.8024 10.5445C60.5253 10.7173 59.2602 10.9769 58.0159 11.3217C52.6815 13.1634 50.4741 19.1059 52.0258 24.6288C53.1672 28.6923 56.7799 31.9009 62.159 31.7682C68.8074 31.6046 73.0796 25.9175 71.8421 18.8472L71.8415 18.8466ZM128 30.1727C127.208 31.2706 125.921 31.8592 124.605 31.7252C123.701 31.7351 122.799 31.6596 121.907 31.4998C119.692 30.9628 118.464 29.3177 118.444 26.9395C118.416 23.6151 118.44 20.2906 118.433 16.9662C118.431 15.646 118.419 15.646 117.149 15.5797C115.8 15.5096 115.072 14.8483 114.975 13.6042C114.821 12.4063 115.634 11.3063 116.789 11.1472C116.789 11.1472 116.79 11.1472 116.79 11.147C116.814 11.1435 116.838 11.1405 116.863 11.1382C117.355 11.0433 118.094 11.1194 118.283 10.8206C118.547 10.4003 118.413 9.70373 118.433 9.12474C118.449 8.67627 118.421 8.22544 118.441 7.77677C118.453 6.45502 119.496 5.39332 120.771 5.40526H120.773C122.233 5.34342 123.206 6.17659 123.329 7.64822C123.385 8.3176 123.35 8.99482 123.359 9.66831C123.377 11.0891 123.378 11.0715 124.707 11.1178C125.224 11.1122 125.738 11.1885 126.231 11.3444C127.321 11.7305 127.902 12.9589 127.53 14.0883C127.491 14.2063 127.442 14.3207 127.384 14.4301C127.108 15.112 126.469 15.5597 125.756 15.5703C125.279 15.5803 124.802 15.6028 124.326 15.5791C123.669 15.546 123.364 15.8499 123.368 16.5254C123.383 19.3101 123.325 22.0976 123.43 24.8779C123.496 26.5965 124.126 27.1749 125.811 27.2164C126.96 27.2449 127.479 27.9869 128 28.825V30.1727ZM3.58117 22.8351C3.58117 23.1047 3.57476 23.3742 3.58268 23.6432C3.5623 25.1747 3.92113 26.6859 4.62465 28.0327C5.27059 29.4225 6.77256 30.1473 8.21431 29.7646C8.89499 29.6432 9.57113 29.4949 10.2409 29.3198C13.4086 28.4962 16.5906 28.0157 19.8652 28.5731C21.7402 28.8917 23.6293 29.1734 25.5228 29.3055C28.6343 29.5221 29.5568 28.2514 29.8526 26.0729C30.3048 23.0098 30.3184 19.8946 29.893 16.8277C29.6693 15.3239 29.325 13.822 28.0976 12.7591C28.014 12.6079 28.012 12.4228 28.0924 12.2695C29.2051 11.0848 28.8299 9.88707 28.1084 8.72264C27.3152 7.47877 26.2044 6.4879 24.8997 5.86038C22.6022 4.70026 20.1038 4.02852 17.5519 3.8851C14.3938 3.63875 11.2262 4.21461 8.33739 5.56003C7.16971 6.06701 6.17664 6.92698 5.48747 8.02762C4.94705 8.93083 4.6858 10.0506 5.40215 10.7879C6.42373 11.8387 6.16418 12.611 5.43726 13.5717C5.20603 13.9507 5.02746 14.3618 4.90703 14.7925C3.92906 17.3779 3.74257 20.1045 3.58174 22.8357L3.58117 22.8351ZM0 21.2735C0.190837 20.2718 0.389037 19.272 0.570247 18.2684C0.931536 16.2708 1.44629 14.3307 2.63208 12.6652C3.003 12.1437 3.06907 11.7223 2.54563 11.2853C2.38594 11.1331 2.24305 10.9629 2.11941 10.7781C0.820733 9.07113 0.791475 7.49794 2.02937 5.72909C2.84104 4.61025 3.89659 3.70626 5.10957 3.09068C12.3357 -0.781818 19.6846 -1.06554 27.067 2.52402C28.4518 3.25817 29.7201 4.20737 30.8285 5.33853C32.0747 6.56069 32.764 8.2726 32.7255 10.0506C32.7991 11.0523 32.3971 12.0283 31.6479 12.6658C31.4214 12.8536 31.0788 13.0043 31.4742 13.3651C32.7357 14.518 32.9041 16.1266 32.9397 17.68C33.0271 21.4038 32.9924 25.1321 32.9632 28.8576C32.9311 29.664 32.8272 30.4656 32.653 31.2522C32.5094 32.3709 31.6339 33.2352 30.5491 33.3293C29.1819 33.5341 27.799 33.6044 26.419 33.5392C23.7475 33.3304 21.0952 32.8217 18.4233 32.6609C16.6083 32.6027 14.7919 32.6998 12.9922 32.9508C10.631 33.2156 8.29208 33.7083 5.92861 33.9415C2.71778 34.2585 1.52632 33.3314 0.761462 30.0612C0.5089 28.9795 0.458312 27.8488 0.299941 26.7434C0.218397 26.1756 0.101176 25.6138 0 25.0491V21.2735ZM40.1281 21.7364V26.718C40.1281 26.8076 40.1276 26.8976 40.1314 26.987C40.2325 29.363 41.438 30.9517 43.6538 31.5313C45.0442 31.8934 46.5007 31.8813 47.8851 31.4958C49.1883 31.1423 49.7115 30.413 49.6208 29.2183C49.5275 27.9814 48.8351 27.3521 47.4413 27.2383C45.8042 27.1046 45.202 26.4644 45.1924 24.7801C45.1783 22.4019 45.1775 20.0233 45.1903 17.6446C45.2009 15.4034 44.9521 15.5967 47.098 15.5754C48.4451 15.5615 49.2887 14.7659 49.3469 13.5169C49.3744 12.2958 48.4925 11.2571 47.3203 11.1306C46.933 11.0814 46.5417 11.0762 46.1532 11.1151C45.4348 11.1836 45.163 10.9024 45.1717 10.1322C45.2175 9.15116 45.1507 8.16772 44.9729 7.20287C44.6637 5.82673 43.5921 5.22465 42.1909 5.42854C41.0289 5.58449 40.1534 6.60099 40.1351 7.81552C40.1063 8.44244 40.1308 9.07171 40.1266 9.7004C40.1181 10.9975 40.1164 10.9975 38.9099 11.1118C37.6863 11.2278 36.9152 11.8399 36.725 12.8458C36.4233 14.4417 37.259 15.4936 38.8982 15.5803C40.1057 15.6448 40.1159 15.6448 40.1238 16.8895C40.1346 18.5048 40.127 20.1206 40.1281 21.7364ZM105.135 10.7179C103.164 10.5602 101.197 11.0693 99.5286 12.1686C97.5744 13.5467 96.8384 15.4775 97.0825 17.8706C97.2391 19.8118 98.5133 21.4617 100.307 22.0452C101.753 22.6097 103.287 22.9324 104.78 23.3687C105.748 23.5898 106.699 23.8839 107.626 24.2488C108.834 24.8116 108.939 26.2429 107.858 27.0606C107.373 27.4335 106.803 27.6709 106.203 27.7494C105.346 27.8574 104.476 27.8083 103.635 27.604C102.396 27.2191 101.184 26.7483 100.007 26.1954C98.8338 25.6823 97.7682 25.9386 97.1685 26.9634C96.5945 27.9466 96.7969 29.0016 97.8528 29.7718C98.5308 30.25 99.2657 30.6345 100.039 30.9153C102.174 31.6898 104.449 31.9535 106.695 31.6864C108.345 31.5465 109.925 30.9398 111.264 29.9321C114.215 27.6742 114.276 22.0745 110.466 20.2431C109.234 19.7044 107.965 19.2626 106.669 18.9211C105.468 18.5593 104.229 18.3345 103.029 17.9672C102.401 17.8643 101.922 17.3317 101.867 16.6756C101.845 15.9761 102.251 15.3382 102.879 15.0831C103.75 14.5538 104.78 14.3806 105.768 14.5976C107.095 14.9698 108.394 15.45 109.701 15.8967C110.585 16.2162 111.565 15.8579 112.06 15.034C112.534 14.2793 112.364 13.2731 111.671 12.7303C111.184 12.2889 110.634 11.9283 110.04 11.6614C108.487 10.9922 106.816 10.6705 105.135 10.7179Z" fill="#E67A55"/>
<path d="M87.7548 25.0299C87.7548 26.7749 87.4503 27.2378 86.047 27.8378C84.7306 28.453 83.2369 28.5234 81.8724 28.0344C80.6743 27.6562 79.8442 26.5254 79.8123 25.2275C79.8627 23.9332 80.6932 22.8114 81.8864 22.4263C83.2902 21.9141 84.8325 22.0029 86.1731 22.6733C87.2232 23.1405 88.103 23.7974 87.7548 25.0293V25.0299ZM92.7971 23.3505C92.7971 21.555 92.8198 19.7597 92.7924 17.9645C92.7367 14.3317 90.941 11.8995 87.5566 11.0757C84.503 10.3144 81.292 10.621 78.4241 11.9476C77.7625 12.2724 77.1677 12.7278 76.6743 13.2882C76.0253 14.1019 76.1359 15.3067 76.9212 15.9792C77.4595 16.44 78.2027 16.5463 78.8415 16.2535C79.2001 16.1044 79.5176 15.8526 79.8698 15.6845C81.6649 14.7322 83.7593 14.5892 85.6593 15.2891C86.7279 15.6205 87.5203 16.5549 87.701 17.696C87.7855 18.5892 87.7991 19.4883 87.7412 20.3841C87.7329 20.8995 87.4778 20.8684 87.1681 20.5951C87.0743 20.5017 86.9757 20.4141 86.8723 20.3327C84.3852 18.5063 81.1674 18.132 78.3516 19.3416C76.8211 19.9313 75.6378 21.2181 75.1425 22.8306C73.9208 26.2575 75.6102 30.0623 78.9164 31.3287C79.6007 31.5909 80.3236 31.7294 81.0528 31.7383C83.2926 31.8339 85.3545 31.354 87.0879 29.8027C87.5252 29.4106 87.7436 29.4961 87.9084 30.0126C88.1157 30.7167 88.6695 31.2526 89.3615 31.4185C91.2799 31.9455 92.7537 30.8026 92.7903 28.7365C92.8222 26.9418 92.7971 25.1457 92.7971 23.3505ZM40.1275 21.7364C40.1269 20.1206 40.1345 18.5047 40.1243 16.8889C40.1163 15.6448 40.1056 15.6448 38.8986 15.5808C37.2589 15.4936 36.4232 14.4416 36.7249 12.8457C36.9151 11.8398 37.6862 11.2272 38.9098 11.1111C40.1169 10.9975 40.1178 10.9975 40.1265 9.70036C40.1307 9.07226 40.1061 8.4424 40.135 7.81547C40.1535 6.60114 41.029 5.58503 42.1908 5.42908C43.592 5.22461 44.6636 5.82668 44.9728 7.20283C45.1506 8.16768 45.2174 9.15111 45.1716 10.1322C45.1629 10.9024 45.4347 11.1835 46.1531 11.1156C46.5416 11.0765 46.9329 11.0814 47.3202 11.1305C48.4928 11.2569 49.3747 12.2953 49.3471 13.5169C49.2886 14.7659 48.445 15.5609 47.0984 15.5753C44.952 15.5975 45.2002 15.4033 45.1908 17.6446C45.18 20.0233 45.1804 22.4021 45.1917 24.7806C45.2025 26.4644 45.8041 27.1046 47.4412 27.2388C48.8345 27.3521 49.5274 27.9814 49.6207 29.2182C49.7114 30.413 49.1882 31.1417 47.885 31.4958C46.5006 31.8813 45.0441 31.8934 43.6537 31.5312C41.4379 30.9517 40.2324 29.363 40.1313 26.987C40.1275 26.8976 40.128 26.808 40.128 26.718L40.1275 21.7364ZM105.135 10.7178C106.816 10.6705 108.487 10.9922 110.04 11.6614C110.634 11.9284 111.184 12.2893 111.671 12.7309C112.364 13.2737 112.533 14.2794 112.06 15.0339C111.565 15.8579 110.585 16.2162 109.701 15.8966C108.394 15.4499 107.094 14.9697 105.767 14.5976C104.78 14.3806 103.75 14.5539 102.879 15.0836C102.251 15.3388 101.845 15.9763 101.867 16.6756C101.922 17.3317 102.401 17.8643 103.029 17.9672C104.228 18.3345 105.468 18.5593 106.669 18.9211C107.965 19.2625 109.234 19.7044 110.466 20.243C114.276 22.0745 114.215 27.6742 111.264 29.932C109.925 30.9397 108.345 31.5467 106.695 31.6864C104.449 31.9535 102.173 31.6897 100.039 30.9153C99.2652 30.6345 98.5302 30.25 97.8527 29.7718C96.7968 29.0016 96.5944 27.9466 97.1685 26.9633C97.7676 25.938 98.8337 25.6823 100.006 26.1949C101.184 26.7479 102.396 27.2189 103.634 27.6041C104.476 27.8082 105.346 27.8573 106.203 27.7493C106.803 27.6709 107.373 27.4337 107.858 27.0606C108.938 26.2429 108.834 24.8115 107.625 24.2488C106.699 23.8839 105.748 23.5898 104.781 23.3687C103.287 22.9323 101.753 22.6097 100.307 22.0452C98.5132 21.4617 97.2391 19.8118 97.0824 17.8705C96.8383 15.4769 97.5743 13.5468 99.5285 12.1685C101.197 11.0693 103.164 10.5603 105.135 10.7178Z" fill="#E67A55"/>
</svg>
