<svg width="122" height="36" viewBox="0 0 122 36" fill="none" xmlns="http://www.w3.org/2000/svg">
<path d="M6.46289 4.79028V35.5659H33.0921V4.79028H6.46289ZM31.0328 33.594H8.4512V6.8326H31.0328V33.594Z" fill="#00E4BC"/>
<path d="M54.7511 35.9854C53.5439 35.9854 52.3367 35.7741 51.1296 35.3516C50.0644 34.929 49.1412 34.3656 48.2891 33.5909C47.508 32.8163 46.8689 31.9007 46.4428 30.8444C46.0167 29.7176 45.8037 28.5204 45.8037 27.3936C45.8037 26.1963 46.0167 24.9991 46.4428 23.8723C46.8689 22.816 47.437 21.9004 48.2891 21.1258C49.0702 20.3511 50.0644 19.7173 51.1296 19.3651C52.2657 18.9426 53.5439 18.7313 54.7511 18.7313C55.9583 18.7313 57.1655 18.9426 58.3017 19.3651C59.4379 19.7877 60.432 20.4919 61.2842 21.337L61.4972 21.5483L58.6567 24.0836L58.5147 23.8723C58.0176 23.3794 57.4496 22.9568 56.8105 22.6047C56.1714 22.323 55.3902 22.1821 54.6801 22.1821C53.97 22.1821 53.2599 22.323 52.5498 22.6047C51.9817 22.8864 51.4846 23.2385 51.0585 23.7315C50.6325 24.2245 50.3484 24.8583 50.1354 25.4217C49.9224 26.0555 49.8513 26.7597 49.8513 27.464C49.8513 28.1682 49.9934 28.8021 50.2064 29.4359C50.4194 30.0697 50.7745 30.5627 51.2006 31.0556C51.6266 31.5486 52.1947 31.9007 52.7628 32.112C53.4019 32.3937 54.112 32.5346 54.8221 32.5346C55.5322 32.5346 56.2424 32.3937 56.9525 32.112C57.5916 31.8303 58.1597 31.4078 58.5857 30.8444L58.7988 30.6331L61.4262 33.1684L61.2131 33.3797C60.432 34.2952 59.3669 34.929 58.2307 35.3516C57.1655 35.7741 55.9583 35.9854 54.7511 35.9854Z" fill="#ECECEC"/>
<path d="M70.8708 35.9891C69.5926 35.9891 68.3854 35.7779 67.2492 35.3553C66.1841 34.9328 65.2609 34.2989 64.4798 33.5243C63.6987 32.7496 63.1306 31.7637 62.7045 30.7777C62.2785 29.7213 62.0654 28.5241 62.0654 27.3973C62.0654 26.2001 62.2785 25.0733 62.7045 23.9465C63.1306 22.8901 63.7697 21.9746 64.5508 21.2C65.3319 20.4253 66.3261 19.7915 67.3203 19.3689C68.4564 18.9464 69.6636 18.6647 70.8708 18.7351C72.22 18.6647 73.4982 18.9464 74.7054 19.5098C75.6996 20.0027 76.5517 20.707 77.2618 21.5521C77.9009 22.3972 78.398 23.3127 78.7531 24.3691C79.0371 25.355 79.1791 26.4114 79.1791 27.4677V28.8058H66.0421V28.8762C66.1131 29.3692 66.2551 29.8622 66.4681 30.2847C66.7522 30.8481 67.1782 31.2707 67.6043 31.6228C68.1014 32.0454 68.6695 32.3271 69.3086 32.5383C69.9477 32.7496 70.5868 32.8904 71.2969 32.8904C72.149 32.8904 72.9301 32.6792 73.6403 32.2566C74.3504 31.8341 74.9895 31.2707 75.5576 30.5664L75.7706 30.2847L78.611 32.3975L78.398 32.6087C76.5517 34.8623 74.0663 35.9891 70.8708 35.9891ZM70.7998 21.6225C68.8825 21.6225 67.1072 22.6789 66.3261 24.4395C66.1841 24.862 66.0421 25.2142 66.0421 25.6367V25.7071H75.2735V25.6367C75.2025 25.1437 75.1315 24.6508 74.9895 24.2282C74.6344 23.1718 73.8533 22.3267 72.7881 21.9746C72.149 21.7634 71.5099 21.6225 70.7998 21.6225Z" fill="#ECECEC"/>
<path d="M115.183 35.9857C113.905 35.9857 112.627 35.7744 111.491 35.3519C110.355 34.8589 109.36 34.0842 108.579 33.0279L108.366 32.7462L111.207 30.563L111.349 30.7743C111.846 31.2673 112.414 31.6898 112.982 32.0419C113.621 32.394 114.402 32.6053 115.112 32.5349C115.467 32.5349 115.893 32.4645 116.248 32.394C116.604 32.3236 116.959 32.2532 117.243 32.0419C117.527 31.9011 117.74 31.6898 117.882 31.4785C118.024 31.2673 118.095 31.056 118.095 30.7743C118.095 30.4222 117.953 30.1405 117.74 29.8588C117.456 29.5771 117.172 29.3658 116.817 29.2249C116.39 29.0841 116.035 28.9432 115.609 28.8728C115.183 28.8024 114.757 28.6615 114.402 28.5911C113.692 28.4503 113.053 28.239 112.485 28.0277C111.917 27.8164 111.349 27.5347 110.781 27.1826C110.284 26.8305 109.857 26.3375 109.573 25.7741C109.289 25.1403 109.076 24.4361 109.147 23.7318C109.147 22.9571 109.36 22.112 109.715 21.4078C110.07 20.774 110.639 20.2106 111.207 19.788C111.846 19.3655 112.556 19.0134 113.337 18.8021C114.118 18.5908 114.899 18.5204 115.68 18.5204C116.817 18.5204 117.953 18.7317 119.018 19.1542C120.083 19.5768 121.006 20.3514 121.574 21.2669L121.716 21.5486L118.734 23.6614L118.592 23.3797C118.237 22.9571 117.811 22.605 117.314 22.3233C116.746 22.0416 116.106 21.9008 115.467 21.9008C114.828 21.9008 114.26 22.0416 113.692 22.3233C113.266 22.5346 112.982 22.9571 113.053 23.3797C113.053 23.7318 113.195 24.0839 113.408 24.2952C113.692 24.5769 114.047 24.7882 114.402 24.929C114.828 25.0699 115.254 25.2107 115.68 25.2812C116.177 25.3516 116.604 25.422 116.959 25.4924C117.598 25.6333 118.237 25.8446 118.876 26.0558C119.444 26.2671 120.012 26.6192 120.509 26.9713C120.935 27.3235 121.361 27.8164 121.574 28.3798C121.858 29.0137 122 29.7179 122 30.3517C122 31.1968 121.787 32.0419 121.361 32.8166C120.935 33.4504 120.367 34.0138 119.728 34.5068C119.018 34.9293 118.308 35.2815 117.527 35.4223C116.817 35.8449 115.964 35.9857 115.183 35.9857Z" fill="#ECECEC"/>
<path d="M43.8154 12.5367H40.0518V35.5656H43.8154V12.5367Z" fill="#ECECEC"/>
<path d="M97.9976 35.9865C97.0034 36.0569 96.0093 35.8456 95.0861 35.4935C94.447 35.2118 93.8789 34.7188 93.5239 34.085C93.1688 33.5216 92.9558 32.8878 92.9558 32.254C92.8848 31.6201 92.8848 30.9863 92.8848 30.2821V15.5633L96.6484 14.8591V19.0846H101.122V22.3241H96.5773V29.2257C96.5773 29.6483 96.5773 30.1412 96.5773 30.5638C96.5773 30.9159 96.6484 31.268 96.7904 31.6201C96.9324 31.9018 97.1454 32.1835 97.3585 32.3244C97.7135 32.5357 98.1396 32.6061 98.5657 32.6061C98.9207 32.6061 99.2758 32.6061 99.6308 32.5357C99.9859 32.4652 100.27 32.3948 100.625 32.1835L101.051 31.9018V35.3527L100.909 35.4231C100.412 35.6343 99.9149 35.8456 99.3468 35.8456C98.9917 35.916 98.4947 35.9865 97.9976 35.9865Z" fill="#ECECEC"/>
<path d="M81.2383 35.5634V19.084L85.0019 18.3798V20.9151L85.0729 20.7742C85.1439 20.6334 85.2859 20.5629 85.3569 20.4925C85.712 20.1404 86.1381 19.7883 86.5641 19.577C87.0612 19.2953 87.5583 19.084 88.0554 18.9432C88.5524 18.8023 89.1205 18.7319 89.6886 18.7319C89.9727 18.7319 90.2567 18.7319 90.5408 18.8023L90.4697 22.6757C90.3277 22.6757 90.1857 22.6052 90.1147 22.6052C89.9017 22.5348 89.6176 22.5348 89.4046 22.5348C88.1974 22.4644 86.9902 22.8869 86.1381 23.6616C85.3569 24.4363 85.0019 25.6335 85.0019 27.3237V35.6338L81.2383 35.5634Z" fill="#ECECEC"/>
<path d="M103.31 16.4986V13.3295L107.073 12.6252V16.4986H103.31Z" fill="#ECECEC"/>
<path d="M107.073 19.0348H103.31V35.5142H107.073V19.0348Z" fill="#ECECEC"/>
<path d="M25.9901 0L0 5.49313L6.46202 35.5645L32.4521 30.0713L25.9901 0ZM2.34337 7.04247L24.4989 2.32401L30.1088 28.522L8.02427 33.17L2.34337 7.04247Z" fill="url(#paint0_linear_133_1802)"/>
<defs>
<linearGradient id="paint0_linear_133_1802" x1="3.21513" y1="37.5923" x2="27.5761" y2="6.69487" gradientUnits="userSpaceOnUse">
<stop stop-color="#00FFFF"/>
<stop offset="0.032" stop-color="#03EDF9"/>
<stop offset="0.156" stop-color="#11ADE5"/>
<stop offset="0.269" stop-color="#1C7AD6"/>
<stop offset="0.366" stop-color="#2456CB"/>
<stop offset="0.445" stop-color="#2940C4"/>
<stop offset="0.496" stop-color="#2B38C2"/>
<stop offset="1" stop-color="#90278E"/>
</linearGradient>
</defs>
</svg>
