<svg width="140" height="32" viewBox="0 0 140 32" fill="none" xmlns="http://www.w3.org/2000/svg">
<path d="M13.153 7.33778C13.0725 7.22289 12.9809 7.16229 12.8788 7.16229C12.7948 7.16229 12.7184 7.20269 12.6688 7.23741C11.8953 7.89519 10.8371 10.6797 9.96973 14.3499L10.7374 14.3593C12.2541 14.3776 13.8197 14.3972 15.3679 14.4231C14.9601 12.742 14.574 11.3015 14.2205 10.1381C13.7036 8.43808 13.3548 7.67677 13.153 7.33778Z" fill="#F9147B"/>
<path d="M14.8746 0.261963C6.8526 0.261963 0.349609 7.29929 0.349609 15.9804C0.349609 24.6616 6.8526 31.6989 14.8746 31.6989C22.8966 31.6989 29.3996 24.6616 29.3996 15.9804C29.3996 7.29929 22.8966 0.261963 14.8746 0.261963ZM25.3192 16.2658C25.318 16.267 25.3168 16.2676 25.3157 16.2689C25.2999 16.2828 25.2842 16.2954 25.2673 16.308C25.262 16.3118 25.2568 16.3163 25.2509 16.32C25.2398 16.3276 25.2282 16.3352 25.2171 16.3421C25.2066 16.3491 25.1961 16.3554 25.1856 16.3617C25.185 16.3623 25.1844 16.3623 25.1838 16.363C25.0771 16.4236 24.9552 16.4583 24.8263 16.4583C24.8158 16.4583 17.9459 16.4583 17.9459 16.4583C18.0007 16.7051 18.0608 16.9854 18.1261 17.2903C18.5029 19.0521 19.5051 23.733 20.5691 23.733L20.5901 23.7336L20.6018 23.7317H20.6222C21.4534 23.7317 21.8775 22.4313 22.8073 19.5818L22.8184 19.5471C22.9678 19.0894 23.1363 18.573 23.3189 18.027L23.3656 17.8875H23.3662C23.4134 17.7511 23.5348 17.6539 23.6777 17.6539C23.8614 17.6539 24.0108 17.8155 24.0108 18.0144C24.0108 18.0503 24.0055 18.0851 23.9968 18.1179L23.9583 18.258C23.8614 18.597 23.7582 19.0591 23.6392 19.5938C23.085 22.0791 22.2479 25.8338 20.1001 25.8338H20.0843C18.6966 25.8218 17.8659 23.4211 17.5113 22.396C16.848 20.4788 16.3464 18.436 15.8622 16.4577H9.52835L8.21352 21.0116L8.19427 20.9952C8.0741 21.1997 7.86294 21.331 7.63019 21.331C7.26327 21.331 6.96286 21.0078 6.96111 20.6107L6.96227 20.5861L7.0416 20.071C7.22302 18.9006 7.4406 17.6861 7.6891 16.4583H5.01511L5.00519 16.4476C4.51986 16.3718 4.14711 15.9085 4.14711 15.3681C4.14711 14.8385 4.49361 14.3871 4.97077 14.2956C5.01452 14.2893 5.10319 14.2811 5.28344 14.2811C5.32194 14.2811 5.36511 14.2811 5.41352 14.2823C6.26111 14.2981 7.1606 14.3126 8.14702 14.3265C9.54294 8.18811 11.1599 5.07219 12.9537 5.06335C14.8781 5.06335 16.3061 9.8054 17.4488 14.4446L17.4535 14.4629C19.8014 14.514 22.3039 14.5879 24.737 14.7766L24.8391 14.7867C24.8782 14.7873 24.9167 14.7918 24.954 14.7981L24.968 14.7993C24.9721 14.8 24.9762 14.8012 24.9803 14.8025C24.9826 14.8031 24.9843 14.8037 24.9867 14.8037C25.3408 14.8808 25.6033 15.2166 25.6033 15.6206C25.6033 15.8794 25.4924 16.1124 25.3192 16.2658Z" fill="#F9147B"/>
<path d="M37.4598 19.9132L36.3083 22.9925H32.9629L39.3282 6.91357H42.2828L48.626 22.9931H45.3021L44.1506 19.9138H37.4598V19.9132ZM40.7836 10.9802L38.6113 16.8339H42.9991L40.7836 10.9802Z" fill="#FF9CC9"/>
<path d="M67.4807 16.8105V22.9931H64.4614V17.0927C64.4614 15.3062 63.6575 14.3423 62.2459 14.3423C61.6159 14.3423 60.9205 14.6478 60.2906 15.5884C60.3343 15.988 60.3775 16.3876 60.3775 16.8105V22.9931H57.3581V17.0927C57.3581 15.3062 56.5543 14.3423 55.1205 14.3423C54.5342 14.3423 53.882 14.7185 53.2742 15.6117V22.9931H50.2549V11.7326H53.2742V12.4144C53.9258 11.756 54.6211 11.3798 55.8374 11.3798C57.1627 11.3798 58.3352 11.9441 59.1612 12.9781C60.269 11.8734 61.312 11.3798 62.9412 11.3798C65.4822 11.3798 67.4807 13.5191 67.4807 16.8105Z" fill="#FF9CC9"/>
<path d="M80.7538 17.3742C80.7538 20.6416 78.4514 23.2273 75.5837 23.2273C74.4106 23.2273 73.4329 22.8984 72.6297 22.3341V28.4226H69.6104V11.732H72.6297V12.3904C73.4335 11.826 74.4112 11.4972 75.5837 11.4972C78.4508 11.4978 80.7538 14.0601 80.7538 17.3742ZM77.7776 17.3742C77.7776 15.7052 76.6483 14.2476 75.0838 14.2476C74.193 14.2476 73.3023 14.5765 72.6291 15.5638V19.1607C73.3023 20.1246 74.193 20.4535 75.0838 20.4535C76.6477 20.4542 77.7776 19.0199 77.7776 17.3742Z" fill="#FF9CC9"/>
<path d="M85.4666 22.9925H82.4473V6.30249H85.4666V22.9925Z" fill="#FF9CC9"/>
<path d="M88.1826 7.76009C88.1826 6.65538 88.9865 5.83221 90.0073 5.83221C91.0065 5.83221 91.8104 6.65475 91.8104 7.76009C91.8104 8.84144 91.0065 9.64062 90.0073 9.64062C88.9865 9.64062 88.1826 8.84144 88.1826 7.76009ZM91.528 11.7326V22.9931H88.5087V11.7326H91.528Z" fill="#FF9CC9"/>
<path d="M102.497 22.8283C101.237 23.2513 100.672 23.3453 99.6948 23.3453C97.1748 23.3453 95.524 21.4175 95.524 18.5029V14.4831H93.3301V11.7326H95.524V7.71277H98.5217V11.7326H102.279V14.4831H98.5217V18.4796C98.5217 19.749 99.2386 20.3368 100.346 20.3368C100.911 20.3368 101.519 20.196 102.106 20.0312L102.497 22.8283Z" fill="#FF9CC9"/>
<path d="M114.619 22.9925H111.599V22.1933C110.752 22.9218 109.796 23.3454 108.623 23.3454C105.886 23.3454 104.062 21.206 104.062 17.9386V11.7326H107.081V17.6331C107.081 19.4195 107.906 20.3835 109.319 20.3835C110.079 20.3835 110.904 19.8898 111.599 18.9732V11.7326H114.619V22.9925Z" fill="#FF9CC9"/>
<path d="M127.435 22.9925H124.416V22.334C123.612 22.8984 122.634 23.2273 121.461 23.2273C118.594 23.2273 116.27 20.665 116.27 17.3502C116.27 14.0828 118.594 11.4965 121.461 11.4965C122.634 11.4965 123.612 11.8254 124.416 12.3898V6.30249H127.435V22.9925ZM124.415 19.1613V15.5644C123.742 14.6004 122.851 14.2716 121.96 14.2716C120.375 14.2716 119.267 15.7058 119.267 17.3509C119.267 19.0199 120.374 20.4775 121.96 20.4775C122.851 20.4775 123.742 20.1486 124.415 19.1613Z" fill="#FF9CC9"/>
<path d="M139.687 18.1974H132.019C132.258 19.5136 133.062 20.5482 134.713 20.5482C135.56 20.5482 136.147 20.2661 136.472 19.7017H139.622C139.058 21.8644 137.102 23.3454 134.648 23.3454C131.302 23.3454 129.043 20.7363 129.043 17.3742C129.043 13.8953 131.281 11.3798 134.561 11.3798C137.537 11.3798 139.752 13.6599 139.752 17.1394C139.752 17.6097 139.731 17.8679 139.687 18.1974ZM132.041 16.2695H136.755C136.581 14.8593 135.799 14.0835 134.582 14.0835C133.127 14.0835 132.323 15.0001 132.041 16.2695Z" fill="#FF9CC9"/>
</svg>
