<svg width="157" height="21" viewBox="0 0 157 21" fill="none" xmlns="http://www.w3.org/2000/svg">
<path d="M0 10.5519V10.4827C0 4.7397 4.28339 0 10.2594 0C13.541 0 15.6136 1.07249 17.479 2.62932C17.7208 2.8369 17.9281 3.14827 17.9281 3.56343C17.9281 4.18616 17.3754 4.70511 16.7536 4.70511C16.4427 4.70511 16.1663 4.56672 15.9936 4.42834C14.4392 3.04448 12.6774 2.11038 10.1903 2.11038C5.69967 2.11038 2.34895 5.7776 2.34895 10.4135V10.4827C2.34895 15.1878 5.73421 18.855 10.1903 18.855C12.712 18.855 14.4737 17.9901 16.2009 16.3987C16.3736 16.2257 16.6499 16.0873 16.9263 16.0873C17.5135 16.0873 18.0317 16.6063 18.0317 17.1944C18.0317 17.5404 17.859 17.8171 17.6517 17.9901C15.6482 19.8237 13.4719 20.9654 10.1212 20.9654C4.31793 21 0 16.3641 0 10.5519Z" fill="#ECECEC"/>
<path d="M21.3477 10.5519V10.4827C21.3477 4.91268 25.562 0 31.7107 0C37.8594 0 42.0046 4.84349 42.0046 10.4481V10.5173C42.0046 16.1219 37.8249 21 31.6416 21C25.4929 21 21.3477 16.1565 21.3477 10.5519ZM39.6557 10.5519V10.4827C39.6557 5.88138 36.305 2.11038 31.6761 2.11038C27.0473 2.11038 23.7312 5.81219 23.7312 10.4135V10.4827C23.7312 15.084 27.0819 18.855 31.7107 18.855C36.3395 18.855 39.6557 15.1532 39.6557 10.5519Z" fill="#ECECEC"/>
<path d="M47.4277 1.34925C47.4277 0.726516 47.9459 0.172974 48.5677 0.172974C49.1895 0.172974 49.7421 0.691919 49.7421 1.34925V9.34101H61.4178V1.34925C61.4178 0.726516 61.936 0.172974 62.5923 0.172974C63.2141 0.172974 63.7322 0.691919 63.7322 1.34925V19.6161C63.7322 20.2389 63.2141 20.7924 62.5923 20.7924C61.9705 20.7924 61.4178 20.2735 61.4178 19.6161V11.5206H49.7421V19.6507C49.7421 20.2735 49.224 20.827 48.5677 20.827C47.9459 20.827 47.4277 20.3081 47.4277 19.6507V1.34925Z" fill="#ECECEC"/>
<path d="M69.9854 19.4778V1.52225C69.9854 0.89952 70.5035 0.345978 71.1253 0.345978H83.6991C84.2863 0.345978 84.7354 0.795731 84.7354 1.38387C84.7354 1.97201 84.2863 2.42176 83.6991 2.42176H72.2652V9.34103H82.3865C82.9737 9.34103 83.4228 9.82538 83.4228 10.3789C83.4228 10.9671 82.9737 11.4168 82.3865 11.4168H72.2652V18.5091H83.8373C84.4245 18.5091 84.8736 18.9588 84.8736 19.547C84.8736 20.1351 84.4245 20.5849 83.8373 20.5849H71.0907C70.5035 20.6195 69.9854 20.1005 69.9854 19.4778Z" fill="#ECECEC"/>
<path d="M112.508 1.34925C112.508 0.726516 113.026 0.172974 113.648 0.172974C114.27 0.172974 114.822 0.691919 114.822 1.34925V19.6161C114.822 20.2389 114.304 20.7924 113.648 20.7924C113.026 20.7924 112.508 20.2735 112.508 19.6161V1.34925Z" fill="#ECECEC"/>
<path d="M126.671 2.45636H120.798C120.211 2.45636 119.728 2.0066 119.728 1.41847C119.728 0.830327 120.211 0.345978 120.798 0.345978H134.858C135.445 0.345978 135.928 0.830327 135.928 1.41847C135.928 2.0066 135.445 2.45636 134.858 2.45636H128.985V19.6162C128.985 20.2389 128.467 20.7924 127.845 20.7924C127.223 20.7924 126.671 20.2735 126.671 19.6162V2.45636Z" fill="#ECECEC"/>
<path d="M146.879 12.6623L139.349 2.11037C139.21 1.8682 139.072 1.62602 139.072 1.31465C139.072 0.691919 139.625 0.172974 140.247 0.172974C140.73 0.172974 141.041 0.449745 141.352 0.864901L148.054 10.5173L154.79 0.864901C155.066 0.449745 155.377 0.172974 155.86 0.172974C156.482 0.172974 157 0.691919 157 1.31465C157 1.59143 156.828 1.93739 156.689 2.14497L149.193 12.5931V19.6161C149.193 20.2389 148.675 20.7578 148.019 20.7578C147.397 20.7578 146.845 20.2389 146.845 19.6161V12.6623H146.879Z" fill="#ECECEC"/>
<path d="M100.487 20.8616H91.2636C90.6418 20.8616 90.1582 20.3773 90.1582 19.7545C90.1582 19.1318 90.6418 18.6475 91.2636 18.6475H100.487C103.285 18.6475 105.53 16.3641 105.53 13.5964C105.53 10.7941 103.25 8.54531 100.487 8.54531H96.376C95.7542 8.54531 95.2706 8.06097 95.2706 7.43823C95.2706 6.8155 95.7542 6.33115 96.376 6.33115H100.452C104.459 6.33115 107.706 9.58321 107.706 13.5964C107.706 17.6096 104.459 20.8616 100.487 20.8616Z" fill="#A5FB0A"/>
<path d="M99.6232 14.7727H95.5471C91.5401 14.7727 88.293 11.5206 88.293 7.50743C88.293 3.49425 91.5401 0.242188 95.5471 0.242188H104.77C105.392 0.242188 105.876 0.726537 105.876 1.34927C105.876 1.97201 105.392 2.45636 104.77 2.45636H95.5471C92.7491 2.45636 90.5037 4.73972 90.5037 7.50743C90.5037 10.3097 92.7836 12.5585 95.5471 12.5585H99.6232C100.245 12.5585 100.729 13.0428 100.729 13.6656C100.694 14.2883 100.21 14.7727 99.6232 14.7727Z" fill="#A5FB0A"/>
</svg>
