<svg width="478" height="343" viewBox="0 0 478 343" fill="none" xmlns="http://www.w3.org/2000/svg">
<path d="M0 16.1712C0 7.24009 7.61451 0 17.0075 0H460.993C470.386 0 478 7.2401 478 16.1712V326.829C478 335.76 470.386 343 460.993 343H17.0075C7.61451 343 0 335.76 0 326.829V16.1712Z" fill="url(#paint0_linear_300_2913)"/>
<path fill-rule="evenodd" clip-rule="evenodd" d="M460.993 1.70223H17.0075C8.60325 1.70223 1.79026 8.18021 1.79026 16.1712V326.829C1.79026 334.82 8.60324 341.298 17.0075 341.298H460.993C469.397 341.298 476.21 334.82 476.21 326.829V16.1712C476.21 8.18022 469.397 1.70223 460.993 1.70223ZM17.0075 0C7.61451 0 0 7.24009 0 16.1712V326.829C0 335.76 7.61451 343 17.0075 343H460.993C470.385 343 478 335.76 478 326.829V16.1712C478 7.2401 470.385 0 460.993 0H17.0075Z" fill="url(#paint1_linear_300_2913)"/>
<path d="M11 35.5C11 25.835 19.2092 18 29.3357 18H441.664C451.791 18 460 25.835 460 35.5V35.5C460 45.165 451.791 53 441.664 53H29.3356C19.2091 53 11 45.165 11 35.5V35.5Z" fill="url(#paint2_linear_300_2913)"/>
<path d="M64.5625 35C64.5625 38.3137 61.8762 41 58.5625 41C55.2488 41 52.5625 38.3137 52.5625 35C52.5625 31.6863 55.2488 29 58.5625 29C61.8762 29 64.5625 31.6863 64.5625 35Z" fill="#8CFEE3" fill-opacity="0.9"/>
<path d="M86.0762 35C86.0762 38.3137 83.3899 41 80.0762 41C76.7625 41 74.0762 38.3137 74.0762 35C74.0762 31.6863 76.7625 29 80.0762 29C83.3899 29 86.0762 31.6863 86.0762 35Z" fill="#FF8DA9" fill-opacity="0.9"/>
<path d="M43.0508 35C43.0508 38.3137 40.3645 41 37.0508 41C33.7371 41 31.0508 38.3137 31.0508 35C31.0508 31.6863 33.7371 29 37.0508 29C40.3645 29 43.0508 31.6863 43.0508 35Z" fill="#FED280"/>
<rect x="357" y="79" width="100" height="100" rx="16" fill="url(#paint3_linear_300_2913)"/>
<path d="M394.782 124.428C394.782 125.117 394.857 125.676 394.987 126.085C395.136 126.495 395.322 126.942 395.583 127.426C395.676 127.575 395.714 127.724 395.714 127.855C395.714 128.041 395.602 128.227 395.36 128.414L394.186 129.196C394.019 129.308 393.851 129.363 393.702 129.363C393.516 129.363 393.33 129.27 393.143 129.103C392.883 128.823 392.659 128.525 392.473 128.227C392.287 127.911 392.1 127.557 391.895 127.128C390.443 128.842 388.617 129.699 386.42 129.699C384.855 129.699 383.607 129.252 382.695 128.358C381.782 127.464 381.316 126.272 381.316 124.782C381.316 123.199 381.875 121.913 383.011 120.945C384.147 119.976 385.656 119.492 387.574 119.492C388.208 119.492 388.86 119.548 389.549 119.641C390.238 119.734 390.946 119.883 391.691 120.051V118.691C391.691 117.276 391.393 116.289 390.815 115.711C390.219 115.134 389.213 114.855 387.779 114.855C387.127 114.855 386.457 114.929 385.768 115.097C385.079 115.264 384.408 115.469 383.756 115.73C383.458 115.86 383.235 115.935 383.104 115.972C382.974 116.009 382.881 116.028 382.806 116.028C382.546 116.028 382.415 115.842 382.415 115.451V114.538C382.415 114.24 382.453 114.016 382.546 113.886C382.639 113.756 382.806 113.625 383.067 113.495C383.719 113.16 384.501 112.88 385.414 112.657C386.327 112.415 387.295 112.303 388.319 112.303C390.536 112.303 392.156 112.806 393.199 113.812C394.224 114.817 394.745 116.345 394.745 118.393V124.428H394.782ZM387.221 127.259C387.835 127.259 388.468 127.147 389.139 126.924C389.809 126.7 390.405 126.29 390.908 125.732C391.206 125.378 391.43 124.987 391.542 124.54C391.653 124.093 391.728 123.552 391.728 122.919V122.137C391.188 122.007 390.61 121.895 390.014 121.82C389.418 121.746 388.841 121.709 388.264 121.709C387.016 121.709 386.103 121.951 385.488 122.454C384.874 122.956 384.576 123.664 384.576 124.595C384.576 125.471 384.799 126.123 385.265 126.57C385.712 127.035 386.364 127.259 387.221 127.259ZM402.176 129.27C401.841 129.27 401.618 129.214 401.469 129.084C401.32 128.972 401.189 128.712 401.078 128.358L396.701 113.961C396.589 113.588 396.533 113.346 396.533 113.216C396.533 112.918 396.682 112.75 396.98 112.75H398.805C399.159 112.75 399.401 112.806 399.532 112.936C399.681 113.048 399.792 113.309 399.904 113.663L403.033 125.992L405.939 113.663C406.032 113.29 406.144 113.048 406.293 112.936C406.442 112.824 406.702 112.75 407.038 112.75H408.528C408.881 112.75 409.124 112.806 409.273 112.936C409.422 113.048 409.552 113.309 409.626 113.663L412.569 126.141L415.791 113.663C415.903 113.29 416.033 113.048 416.164 112.936C416.313 112.824 416.555 112.75 416.89 112.75H418.622C418.92 112.75 419.088 112.899 419.088 113.216C419.088 113.309 419.069 113.402 419.051 113.514C419.032 113.625 418.995 113.774 418.92 113.979L414.432 128.376C414.32 128.749 414.19 128.991 414.041 129.103C413.892 129.214 413.649 129.289 413.333 129.289H411.731C411.377 129.289 411.135 129.233 410.986 129.103C410.837 128.972 410.707 128.73 410.632 128.358L407.745 116.345L404.877 128.339C404.784 128.712 404.672 128.954 404.523 129.084C404.374 129.214 404.113 129.27 403.778 129.27H402.176ZM426.11 129.773C425.141 129.773 424.173 129.661 423.241 129.438C422.31 129.214 421.584 128.972 421.099 128.693C420.801 128.525 420.597 128.339 420.522 128.171C420.448 128.004 420.41 127.818 420.41 127.65V126.7C420.41 126.309 420.559 126.123 420.839 126.123C420.95 126.123 421.062 126.141 421.174 126.179C421.286 126.216 421.453 126.29 421.64 126.365C422.273 126.644 422.962 126.868 423.688 127.017C424.433 127.166 425.16 127.24 425.905 127.24C427.078 127.24 427.991 127.035 428.624 126.626C429.257 126.216 429.592 125.62 429.592 124.856C429.592 124.335 429.425 123.906 429.09 123.552C428.754 123.199 428.121 122.882 427.208 122.584L424.508 121.746C423.148 121.317 422.142 120.684 421.528 119.846C420.913 119.027 420.597 118.114 420.597 117.145C420.597 116.363 420.764 115.674 421.099 115.078C421.435 114.482 421.882 113.961 422.44 113.551C422.999 113.122 423.632 112.806 424.377 112.582C425.122 112.359 425.905 112.266 426.724 112.266C427.134 112.266 427.562 112.284 427.972 112.34C428.4 112.396 428.792 112.471 429.183 112.545C429.555 112.638 429.909 112.731 430.244 112.843C430.58 112.955 430.84 113.067 431.027 113.178C431.287 113.327 431.474 113.476 431.585 113.644C431.697 113.793 431.753 113.998 431.753 114.259V115.134C431.753 115.525 431.604 115.73 431.325 115.73C431.176 115.73 430.933 115.655 430.617 115.506C429.555 115.022 428.363 114.78 427.041 114.78C425.979 114.78 425.141 114.948 424.564 115.302C423.986 115.655 423.688 116.196 423.688 116.959C423.688 117.481 423.875 117.928 424.247 118.282C424.62 118.635 425.309 118.989 426.296 119.306L428.941 120.144C430.282 120.572 431.25 121.168 431.827 121.932C432.405 122.696 432.684 123.571 432.684 124.54C432.684 125.34 432.517 126.067 432.2 126.7C431.865 127.333 431.418 127.892 430.84 128.339C430.263 128.805 429.574 129.14 428.773 129.382C427.935 129.643 427.059 129.773 426.11 129.773Z" fill="white"/>
<path d="M429.629 138.825C423.501 143.351 414.598 145.753 406.943 145.753C396.215 145.753 386.549 141.786 379.248 135.193C378.671 134.672 379.192 133.964 379.881 134.374C387.778 138.955 397.519 141.73 407.595 141.73C414.393 141.73 421.862 140.315 428.735 137.409C429.759 136.944 430.634 138.08 429.629 138.825ZM432.18 135.919C431.398 134.914 427.003 135.435 425.01 135.677C424.414 135.752 424.321 135.23 424.861 134.839C428.362 132.381 434.117 133.088 434.788 133.908C435.458 134.746 434.602 140.501 431.324 143.258C430.821 143.686 430.336 143.463 430.56 142.904C431.305 141.06 432.963 136.907 432.18 135.919Z" fill="#FF9900"/>
<rect x="24" y="95" width="100" height="100" rx="16" fill="url(#paint4_linear_300_2913)"/>
<path fill-rule="evenodd" clip-rule="evenodd" d="M41.9785 123.611L74.5003 112.024L107.897 123.405L102.49 166.433L74.5003 181.934L46.9482 166.639L41.9785 123.611Z" fill="#E23237"/>
<path fill-rule="evenodd" clip-rule="evenodd" d="M107.897 123.405L74.5 112.024V181.934L102.49 166.459L107.897 123.405Z" fill="#B52E31"/>
<path fill-rule="evenodd" clip-rule="evenodd" d="M74.552 120.187L54.2871 165.274L61.8575 165.145L65.9259 154.974H74.5778H74.6035H84.1051L88.5598 165.274L95.7955 165.403L74.552 120.187ZM74.6035 134.632L81.4529 148.949H74.8868H74.552H68.5781L74.6035 134.632Z" fill="white"/>
<rect x="24" y="217" width="100" height="100" rx="16" fill="url(#paint5_linear_300_2913)"/>
<g clip-path="url(#clip0_300_2913)">
<path d="M69.9648 230.112C68.6759 231.224 67.7409 232.538 67.7409 236.455C67.7409 247.095 81.1603 279.064 90.3088 279.064C91.3356 279.076 92.3582 278.931 93.3414 278.634L93.2915 278.648L93.0753 278.995C85.1907 291.559 75.6862 300.812 69.9374 300.997L69.7626 301C57.1266 301 39.4362 263.319 39.4362 246.69C39.3267 244.606 39.8462 242.537 40.9273 240.751C45.3246 235.52 58.643 231.527 69.9648 230.112ZM87.3772 229C98.9518 229 110.526 230.87 110.526 237.39C110.526 250.633 102.136 266.706 97.8904 266.706C90.3088 266.706 80.7307 245.427 80.7307 234.787C80.7307 229.994 82.5555 229.023 87.2525 229L87.3772 229Z" fill="#F49700"/>
</g>
<rect x="135" y="79" width="100" height="100" rx="16" fill="url(#paint6_linear_300_2913)"/>
<g clip-path="url(#clip1_300_2913)">
<path d="M215.924 122.557L215.834 122.328L207.133 99.6262C206.957 99.1809 206.644 98.8029 206.239 98.5461C205.832 98.289 205.355 98.1646 204.874 98.1902C204.393 98.2158 203.932 98.3901 203.554 98.689C203.18 98.989 202.91 99.3996 202.783 99.8621L196.901 117.865H173.102L167.22 99.8621C167.092 99.3996 166.823 98.989 166.448 98.689C166.072 98.3881 165.611 98.2125 165.13 98.1869C164.649 98.1612 164.172 98.2868 163.767 98.5461C163.36 98.8018 163.046 99.1801 162.869 99.6262L154.159 122.358L154.069 122.584C152.818 125.858 152.665 129.449 153.631 132.818C154.597 136.187 156.631 139.151 159.426 141.265L159.459 141.288L159.536 141.348L172.806 151.281L179.366 156.25L183.355 159.271C183.823 159.625 184.394 159.816 184.981 159.816C185.568 159.816 186.14 159.625 186.608 159.271L190.596 156.25L197.16 151.281L210.507 141.288L210.543 141.261C213.348 139.15 215.39 136.183 216.36 132.809C217.331 129.435 217.178 125.837 215.924 122.557Z" fill="#E24329"/>
<path d="M215.923 122.557L215.833 122.328C211.59 123.203 207.591 125.001 204.122 127.596L185.016 142.076C191.529 147.001 197.199 151.281 197.199 151.281L210.546 141.288L210.582 141.261C213.38 139.145 215.414 136.175 216.378 132.802C217.341 129.428 217.181 125.833 215.923 122.557Z" fill="#FC6D26"/>
<path d="M172.816 151.281L179.367 156.25L183.355 159.271C183.823 159.625 184.394 159.816 184.982 159.816C185.569 159.816 186.14 159.625 186.608 159.271L190.596 156.25L197.16 151.281C197.16 151.281 191.49 147.001 184.977 142.076L172.816 151.281Z" fill="black"/>
<path d="M165.87 127.609C162.402 125.013 158.402 123.216 154.159 122.345L154.069 122.571C152.815 125.846 152.66 129.441 153.626 132.812C154.592 136.184 156.628 139.15 159.426 141.265L159.459 141.288L159.536 141.348L172.806 151.281L185.016 142.076L165.87 127.609Z" fill="#FC6D26"/>
</g>
<rect x="246" y="95" width="100" height="100" rx="16" fill="url(#paint7_linear_300_2913)"/>
<path d="M307.249 113.302C306.25 113.889 304.577 115.574 302.58 118.008V118.158L304.328 121.391L304.415 121.453C305.701 119.618 306.999 117.958 308.322 116.547C308.422 116.435 308.472 116.385 308.472 116.385C308.422 116.435 308.372 116.498 308.322 116.547C307.898 117.022 306.599 118.52 304.652 121.515L304.877 121.565C304.877 121.565 309.433 121.116 311.63 120.742L311.755 120.629C312.454 116.71 311.068 114.912 311.068 114.912C311.068 114.912 309.321 112.091 307.249 113.302Z" fill="url(#paint8_linear_300_2913)"/>
<path d="M299.024 130.378C299.585 129.342 300.147 128.318 300.709 127.332C301.296 126.309 301.895 125.31 302.506 124.349C302.544 124.299 302.581 124.237 302.606 124.174C303.205 123.226 303.805 122.327 304.416 121.453L302.581 117.995C302.444 118.158 302.307 118.332 302.169 118.507C301.645 119.169 301.096 119.868 300.534 120.617C299.898 121.465 299.248 122.364 298.587 123.313C297.975 124.187 297.351 125.11 296.739 126.047C296.215 126.858 295.678 127.682 295.154 128.543C295.129 128.58 295.117 128.605 295.092 128.643V128.78L297.376 133.311L297.476 133.349C297.988 132.35 298.5 131.352 299.024 130.378Z" fill="url(#paint9_linear_300_2913)"/>
<path d="M289.075 152.559C289.486 151.486 289.923 150.4 290.36 149.302C290.785 148.253 291.209 147.192 291.658 146.131C292.095 145.07 292.557 144.009 293.019 142.935C293.493 141.85 293.968 140.764 294.455 139.69C294.941 138.629 295.428 137.568 295.927 136.519C296.102 136.145 296.289 135.758 296.477 135.384C296.789 134.735 297.113 134.085 297.425 133.449C297.438 133.411 297.463 133.386 297.475 133.349L295.091 128.643C295.054 128.705 295.016 128.768 294.979 128.83C294.43 129.742 293.868 130.665 293.331 131.614C292.782 132.575 292.245 133.549 291.721 134.535C291.271 135.371 290.847 136.207 290.423 137.056C290.335 137.231 290.26 137.393 290.173 137.568C289.649 138.642 289.187 139.665 288.763 140.664C288.288 141.787 287.864 142.861 287.489 143.884C287.24 144.558 287.027 145.195 286.815 145.819C286.653 146.343 286.491 146.88 286.341 147.404C285.979 148.652 285.679 149.888 285.43 151.136L285.467 151.286L287.751 155.83L287.826 155.867C288.138 155.019 288.463 154.17 288.8 153.296C288.887 153.046 288.987 152.809 289.075 152.559Z" fill="url(#paint10_linear_300_2913)"/>
<path d="M285.405 151.299C285.105 152.809 284.893 154.319 284.781 155.817C284.781 155.867 284.768 155.917 284.768 155.979C284.019 154.781 282.022 153.62 282.022 153.62C283.458 155.692 284.544 157.752 284.706 159.774C283.944 159.936 282.896 159.699 281.673 159.262C282.933 160.423 283.882 160.748 284.257 160.835C283.096 160.91 281.885 161.709 280.662 162.62C282.447 161.896 283.882 161.609 284.918 161.834C283.283 166.465 281.648 171.583 280 177C280.499 176.85 280.799 176.513 280.974 176.051C281.261 175.065 283.208 168.624 286.241 160.149C286.329 159.911 286.416 159.662 286.503 159.425C286.528 159.362 286.553 159.287 286.578 159.225C286.903 158.339 287.227 157.427 287.577 156.504C287.652 156.291 287.739 156.079 287.814 155.867V155.855L285.43 151.136C285.43 151.199 285.417 151.249 285.405 151.299Z" fill="url(#paint11_linear_300_2913)"/>
<path d="M304.653 121.528C304.116 122.352 303.53 123.288 302.893 124.349C302.856 124.399 302.831 124.461 302.793 124.511C302.244 125.435 301.67 126.433 301.058 127.544C300.534 128.493 299.985 129.517 299.41 130.628C298.911 131.589 298.399 132.6 297.875 133.686L297.987 133.736L303.792 133.112L303.929 133.012C305.689 132.2 306.475 131.464 307.237 130.403C307.437 130.116 307.649 129.804 307.848 129.492C308.473 128.518 309.084 127.457 309.621 126.396C310.145 125.372 310.607 124.349 310.969 123.438C311.194 122.851 311.381 122.314 311.506 121.84C311.618 121.416 311.706 121.016 311.768 120.642C309.421 121.054 306.538 121.44 304.653 121.528Z" fill="url(#paint12_linear_300_2913)"/>
<path d="M297.65 134.173C297.45 134.597 297.238 135.034 297.026 135.471C296.801 135.945 296.564 136.444 296.34 136.944C296.227 137.193 296.102 137.456 295.99 137.705C295.628 138.479 295.279 139.278 294.904 140.102C294.455 141.113 293.993 142.174 293.531 143.26C293.082 144.308 292.632 145.382 292.183 146.505C291.746 147.566 291.309 148.665 290.872 149.788C290.473 150.799 290.073 151.823 289.674 152.896C289.649 152.946 289.636 152.996 289.611 153.046C289.212 154.107 288.822 155.186 288.411 156.297C288.398 156.322 288.376 156.387 288.363 156.412L288.449 156.431L290.186 156.245L290.284 156.204C290.246 156.192 290.223 156.142 290.186 156.129C292.482 155.842 295.541 154.12 297.525 151.998C298.437 151.024 299.26 149.863 300.034 148.515C300.609 147.504 301.133 146.393 301.645 145.157C302.094 144.084 302.518 142.91 302.93 141.65C302.406 141.924 301.794 142.136 301.133 142.274C301.02 142.299 300.896 142.324 300.771 142.349C300.646 142.374 300.521 142.386 300.409 142.411C302.556 141.587 303.904 139.989 304.89 138.042C304.328 138.429 303.405 138.928 302.306 139.178C302.156 139.216 302.007 139.241 301.844 139.266C301.807 139.266 301.769 139.278 301.732 139.278C302.481 138.966 303.105 138.616 303.654 138.204C303.767 138.117 303.879 138.03 303.991 137.93C304.154 137.78 304.316 137.63 304.466 137.481C304.565 137.381 304.653 137.281 304.753 137.168C304.965 136.919 305.165 136.644 305.352 136.345C305.414 136.257 305.464 136.157 305.527 136.07C305.602 135.933 305.664 135.795 305.726 135.658C306.026 135.059 306.263 134.522 306.45 134.048C306.55 133.811 306.625 133.598 306.7 133.386C306.725 133.311 306.75 133.224 306.787 133.149C306.862 132.924 306.925 132.725 306.975 132.537C307.049 132.275 307.087 132.063 307.112 131.913C307.037 131.976 306.962 132.026 306.862 132.088C306.213 132.475 305.102 132.825 304.203 132.987L305.976 132.787L304.203 132.987C304.079 133.012 303.991 133.024 303.891 133.049C303.9 133.041 301.898 133.253 297.886 133.684C297.861 133.709 297.713 134.023 297.65 134.173Z" fill="url(#paint13_linear_300_2913)"/>
<path d="M288.176 156.878C287.864 157.74 287.54 158.626 287.228 159.525C287.228 159.537 287.215 159.55 287.215 159.562C287.165 159.687 287.128 159.812 287.078 159.949C286.866 160.561 286.678 161.097 286.254 162.346C286.953 162.67 287.515 163.507 288.051 164.468C288.001 163.482 287.59 162.545 286.803 161.834C290.261 161.984 293.244 161.11 294.779 158.588C294.917 158.364 295.042 158.127 295.154 157.877C294.455 158.763 293.581 159.138 291.958 159.05H291.946H291.958C294.368 157.977 295.566 156.941 296.639 155.231C296.889 154.819 297.139 154.382 297.388 153.895C295.279 156.054 292.845 156.666 290.286 156.204L288.363 156.416C288.301 156.554 288.239 156.716 288.176 156.878Z" fill="url(#paint14_linear_300_2913)"/>
<rect x="135" y="201" width="100" height="100" rx="16" fill="url(#paint15_linear_300_2913)"/>
<path d="M158.844 273.116L159.28 272.506L179.899 233.382L179.942 232.968L170.853 215.895C170.091 214.465 167.948 214.826 167.698 216.427L158.844 273.116Z" fill="#FFC24A"/>
<path d="M159.102 272.651L159.431 272.008L179.834 233.294L170.768 216.152C170.014 214.737 168.101 215.097 167.853 216.682L159.102 272.651Z" fill="#FFA712"/>
<path d="M186.568 245.882L193.336 238.951L186.566 226.028C185.924 224.804 184.129 224.801 183.494 226.028L179.877 232.925V233.513L186.568 245.882Z" fill="#F4BD62"/>
<path d="M186.447 245.593L193.026 238.855L186.447 226.327C185.822 225.137 184.304 225.013 183.686 226.205L180.05 233.21L179.941 233.568L186.447 245.593Z" fill="#FFA50E"/>
<path d="M158.844 273.116L159.041 272.917L159.759 272.626L186.143 246.34L186.477 245.43L179.896 232.888L158.844 273.116Z" fill="#F6820C"/>
<path d="M187.413 286.373L211.291 273.056L204.473 231.061C204.259 229.747 202.647 229.228 201.707 230.17L158.844 273.116L182.585 286.371C184.085 287.209 185.913 287.209 187.413 286.373Z" fill="#FDE068"/>
<path d="M211.078 272.944L204.311 231.268C204.1 229.964 202.759 229.425 201.826 230.359L159.109 273.034L182.59 286.159C184.079 286.99 185.892 286.99 187.382 286.16L211.078 272.944Z" fill="#FCCA3F"/>
<path d="M187.413 285.98C185.913 286.817 184.085 286.817 182.585 285.979L159.035 272.914L158.844 273.116L182.585 286.371C184.085 287.209 185.913 287.21 187.413 286.373L211.291 273.056L211.233 272.696L187.413 285.98Z" fill="#EEAB37"/>
<rect x="246" y="217" width="100" height="100" rx="16" fill="url(#paint16_linear_300_2913)"/>
<path d="M261.337 234.656C260.655 234.648 260.005 234.941 259.56 235.457C259.115 235.973 258.921 236.66 259.03 237.332L268.823 296.781C269.074 298.283 270.368 299.387 271.891 299.399H318.871C320.013 299.414 320.995 298.59 321.177 297.462L330.97 237.344C331.079 236.671 330.885 235.985 330.44 235.468C329.995 234.952 329.345 234.659 328.663 234.668L261.337 234.656ZM302.572 277.622H287.578L283.517 256.41H306.206L302.572 277.622Z" fill="#2684FF"/>
<path d="M327.797 256.38H306.164L302.533 277.575H287.551L269.859 298.574C270.42 299.059 271.135 299.329 271.876 299.335H318.83C319.972 299.35 320.953 298.526 321.135 297.399L327.797 256.38Z" fill="url(#paint17_linear_300_2913)"/>
<rect x="357" y="201" width="100" height="100" rx="16" fill="url(#paint18_linear_300_2913)"/>
<g clip-path="url(#clip2_300_2913)">
<path fill-rule="evenodd" clip-rule="evenodd" d="M395.845 221C395.543 221.003 395.23 221.076 394.944 221.234C394.038 221.736 393.706 222.901 394.208 223.807L396.254 227.502C391.324 230.552 388.057 235.763 388.057 241.71C388.057 241.735 388.057 241.772 388.057 241.809C388.057 241.822 388.057 241.829 388.057 241.844C388.057 241.864 388.057 241.892 388.057 241.897V242.815C387.11 241.725 385.718 241.037 384.163 241.037C381.314 241.037 379 243.351 379 246.2V262.103C379 264.953 381.314 267.266 384.163 267.266C385.718 267.266 387.11 266.578 388.057 265.489V267.716C388.057 270.72 390.514 273.177 393.518 273.177H394.903V280.252C394.903 283.101 397.217 285.415 400.066 285.415C402.915 285.415 405.229 283.101 405.229 280.252V273.177H407.626V280.252C407.626 283.101 409.94 285.415 412.789 285.415C415.638 285.415 417.952 283.101 417.952 280.252V273.177H419.337C422.341 273.177 424.798 270.72 424.798 267.716V265.489C425.745 266.578 427.137 267.266 428.692 267.266C431.542 267.266 433.855 264.953 433.855 262.103V246.2C433.855 243.351 431.542 241.037 428.692 241.037C427.137 241.037 425.745 241.725 424.798 242.815V241.914V241.897C424.798 241.869 424.798 241.841 424.798 241.844C424.799 241.788 424.798 241.743 424.798 241.71C424.798 235.764 421.524 230.558 416.595 227.508L418.647 223.807C419.149 222.901 418.817 221.736 417.911 221.234C417.625 221.076 417.312 221.003 417.01 221C416.341 220.994 415.684 221.346 415.338 221.971L413.192 225.847C411.094 225.073 408.811 224.649 406.428 224.649C404.046 224.649 401.759 225.069 399.663 225.841L397.517 221.971C397.171 221.346 396.514 220.994 395.845 221V221Z" fill="white"/>
<path fill-rule="evenodd" clip-rule="evenodd" d="M384.164 242.382C382.038 242.382 380.346 244.074 380.346 246.2V262.103C380.346 264.229 382.038 265.921 384.164 265.921C386.29 265.921 387.982 264.229 387.982 262.103V246.2C387.982 244.074 386.29 242.382 384.164 242.382ZM428.694 242.382C426.568 242.382 424.876 244.074 424.876 246.2V262.103C424.876 264.229 426.568 265.921 428.694 265.921C430.82 265.921 432.512 264.229 432.512 262.103V246.2C432.512 244.074 430.82 242.382 428.694 242.382Z" fill="#A4C639"/>
<path fill-rule="evenodd" clip-rule="evenodd" d="M400.068 260.53C397.942 260.53 396.25 262.222 396.25 264.348V280.252C396.25 282.378 397.942 284.07 400.068 284.07C402.194 284.07 403.886 282.378 403.886 280.252V264.348C403.886 262.222 402.194 260.53 400.068 260.53ZM412.79 260.53C410.664 260.53 408.972 262.222 408.972 264.348V280.252C408.972 282.378 410.664 284.07 412.79 284.07C414.916 284.07 416.608 282.378 416.608 280.252V264.348C416.608 262.222 414.916 260.53 412.79 260.53Z" fill="#A4C639"/>
<path fill-rule="evenodd" clip-rule="evenodd" d="M395.857 222.345C395.767 222.346 395.683 222.369 395.6 222.415C395.328 222.566 395.238 222.879 395.39 223.152L398.079 228.01C392.904 230.703 389.409 235.82 389.402 241.692H423.454C423.447 235.82 419.952 230.703 414.778 228.01L417.467 223.152C417.618 222.879 417.529 222.566 417.257 222.415C417.174 222.369 417.09 222.346 416.999 222.345C416.806 222.343 416.623 222.439 416.52 222.625L413.795 227.537C411.567 226.548 409.067 225.993 406.428 225.993C403.79 225.993 401.29 226.548 399.061 227.537L396.337 222.625C396.234 222.439 396.05 222.343 395.857 222.345ZM389.402 243.037V267.716C389.402 269.997 391.238 271.832 393.519 271.832H419.338C421.619 271.832 423.454 269.997 423.454 267.716V243.037H389.402Z" fill="#A4C639"/>
<path fill-rule="evenodd" clip-rule="evenodd" d="M398.569 232.618C397.792 232.618 397.148 233.261 397.148 234.038C397.148 234.816 397.792 235.459 398.569 235.459C399.347 235.459 399.99 234.816 399.99 234.038C399.99 233.261 399.347 232.618 398.569 232.618ZM414.286 232.618C413.509 232.618 412.865 233.261 412.865 234.038C412.865 234.816 413.509 235.459 414.286 235.459C415.063 235.459 415.707 234.816 415.707 234.038C415.707 233.261 415.063 232.618 414.286 232.618Z" fill="white"/>
</g>
<defs>
<linearGradient id="paint0_linear_300_2913" x1="0" y1="0" x2="627.528" y2="495.994" gradientUnits="userSpaceOnUse">
<stop stop-color="white" stop-opacity="0.16"/>
<stop offset="1" stop-color="#C4C4C4" stop-opacity="0"/>
</linearGradient>
<linearGradient id="paint1_linear_300_2913" x1="239" y1="1.27298e-05" x2="565.67" y2="247.854" gradientUnits="userSpaceOnUse">
<stop stop-color="white" stop-opacity="0.17"/>
<stop offset="1" stop-opacity="0"/>
</linearGradient>
<linearGradient id="paint2_linear_300_2913" x1="235.5" y1="18" x2="297.833" y2="219.344" gradientUnits="userSpaceOnUse">
<stop stop-color="white" stop-opacity="0.15"/>
<stop offset="1" stop-color="#C4C4C4" stop-opacity="0"/>
</linearGradient>
<linearGradient id="paint3_linear_300_2913" x1="407" y1="179" x2="397.046" y2="81.2685" gradientUnits="userSpaceOnUse">
<stop stop-color="#19314A"/>
<stop offset="1" stop-color="#3A4E64"/>
<stop offset="1" stop-color="#3A4E64"/>
</linearGradient>
<linearGradient id="paint4_linear_300_2913" x1="74" y1="195" x2="64.0456" y2="97.2685" gradientUnits="userSpaceOnUse">
<stop stop-color="#19314A"/>
<stop offset="1" stop-color="#3A4E64"/>
<stop offset="1" stop-color="#3A4E64"/>
</linearGradient>
<linearGradient id="paint5_linear_300_2913" x1="74" y1="317" x2="64.0456" y2="219.269" gradientUnits="userSpaceOnUse">
<stop stop-color="#19314A"/>
<stop offset="1" stop-color="#3A4E64"/>
<stop offset="1" stop-color="#3A4E64"/>
</linearGradient>
<linearGradient id="paint6_linear_300_2913" x1="185" y1="179" x2="175.046" y2="81.2685" gradientUnits="userSpaceOnUse">
<stop stop-color="#19314A"/>
<stop offset="1" stop-color="#3A4E64"/>
<stop offset="1" stop-color="#3A4E64"/>
</linearGradient>
<linearGradient id="paint7_linear_300_2913" x1="296" y1="195" x2="286.046" y2="97.2685" gradientUnits="userSpaceOnUse">
<stop stop-color="#19314A"/>
<stop offset="1" stop-color="#3A4E64"/>
<stop offset="1" stop-color="#3A4E64"/>
</linearGradient>
<linearGradient id="paint8_linear_300_2913" x1="304.114" y1="118.474" x2="317.353" y2="114.067" gradientUnits="userSpaceOnUse">
<stop stop-color="#F69923"/>
<stop offset="0.3123" stop-color="#F79A23"/>
<stop offset="0.8383" stop-color="#E97826"/>
</linearGradient>
<linearGradient id="paint9_linear_300_2913" x1="274.797" y1="178.591" x2="320.017" y2="142.822" gradientUnits="userSpaceOnUse">
<stop offset="0.3233" stop-color="#9E2064"/>
<stop offset="0.6302" stop-color="#C92037"/>
<stop offset="0.7514" stop-color="#CD2335"/>
<stop offset="1" stop-color="#E97826"/>
</linearGradient>
<linearGradient id="paint10_linear_300_2913" x1="275.788" y1="175.038" x2="319.825" y2="156.55" gradientUnits="userSpaceOnUse">
<stop offset="0.3233" stop-color="#9E2064"/>
<stop offset="0.6302" stop-color="#C92037"/>
<stop offset="0.7514" stop-color="#CD2335"/>
<stop offset="1" stop-color="#E97826"/>
</linearGradient>
<linearGradient id="paint11_linear_300_2913" x1="278.569" y1="171.144" x2="298.156" y2="167.31" gradientUnits="userSpaceOnUse">
<stop stop-color="#282662"/>
<stop offset="0.0954839" stop-color="#662E8D"/>
<stop offset="0.7882" stop-color="#9F2064"/>
<stop offset="0.9487" stop-color="#CD2032"/>
</linearGradient>
<linearGradient id="paint12_linear_300_2913" x1="279.844" y1="181.361" x2="304.508" y2="121.816" gradientUnits="userSpaceOnUse">
<stop offset="0.3233" stop-color="#9E2064"/>
<stop offset="0.6302" stop-color="#C92037"/>
<stop offset="0.7514" stop-color="#CD2335"/>
<stop offset="1" stop-color="#E97826"/>
</linearGradient>
<linearGradient id="paint13_linear_300_2913" x1="281.824" y1="177.935" x2="320.948" y2="128.824" gradientUnits="userSpaceOnUse">
<stop offset="0.3233" stop-color="#9E2064"/>
<stop offset="0.6302" stop-color="#C92037"/>
<stop offset="0.7514" stop-color="#CD2335"/>
<stop offset="1" stop-color="#E97826"/>
</linearGradient>
<linearGradient id="paint14_linear_300_2913" x1="283.958" y1="174.254" x2="298.843" y2="138.85" gradientUnits="userSpaceOnUse">
<stop stop-color="#282662"/>
<stop offset="0.0954839" stop-color="#662E8D"/>
<stop offset="0.7882" stop-color="#9F2064"/>
<stop offset="0.9487" stop-color="#CD2032"/>
</linearGradient>
<linearGradient id="paint15_linear_300_2913" x1="185" y1="301" x2="175.046" y2="203.269" gradientUnits="userSpaceOnUse">
<stop stop-color="#19314A"/>
<stop offset="1" stop-color="#3A4E64"/>
<stop offset="1" stop-color="#3A4E64"/>
</linearGradient>
<linearGradient id="paint16_linear_300_2913" x1="296" y1="317" x2="286.046" y2="219.269" gradientUnits="userSpaceOnUse">
<stop stop-color="#19314A"/>
<stop offset="1" stop-color="#3A4E64"/>
<stop offset="1" stop-color="#3A4E64"/>
</linearGradient>
<linearGradient id="paint17_linear_300_2913" x1="332.799" y1="262.316" x2="307.809" y2="297.798" gradientUnits="userSpaceOnUse">
<stop offset="0.18" stop-color="#0052CC"/>
<stop offset="1" stop-color="#2684FF"/>
</linearGradient>
<linearGradient id="paint18_linear_300_2913" x1="407" y1="301" x2="397.046" y2="203.269" gradientUnits="userSpaceOnUse">
<stop stop-color="#19314A"/>
<stop offset="1" stop-color="#3A4E64"/>
<stop offset="1" stop-color="#3A4E64"/>
</linearGradient>
<clipPath id="clip0_300_2913">
<rect width="72" height="72" fill="white" transform="translate(39 229)"/>
</clipPath>
<clipPath id="clip1_300_2913">
<rect width="64" height="64" fill="white" transform="translate(153 97)"/>
</clipPath>
<clipPath id="clip2_300_2913">
<rect width="64" height="64" fill="white" transform="translate(374 221)"/>
</clipPath>
</defs>
</svg>
