<svg width="639" height="360" viewBox="0 0 639 360" fill="none" xmlns="http://www.w3.org/2000/svg">
<path d="M81 16.9727C81 7.59893 88.6225 0 98.0253 0H542.475C551.877 0 559.5 7.59894 559.5 16.9727V343.027C559.5 352.401 551.877 360 542.475 360H98.0253C88.6225 360 81 352.401 81 343.027V16.9727Z" fill="url(#paint0_linear_146_1555)"/>
<path fill-rule="evenodd" clip-rule="evenodd" d="M542.225 1.7866H97.7753C89.3622 1.7866 82.5421 8.58564 82.5421 16.9727V343.027C82.5421 351.414 89.3622 358.213 97.7753 358.213H542.225C550.638 358.213 557.458 351.414 557.458 343.027V16.9727C557.458 8.58565 550.638 1.7866 542.225 1.7866ZM97.7753 0C88.3725 0 80.75 7.59893 80.75 16.9727V343.027C80.75 352.401 88.3725 360 97.7753 360H542.225C551.627 360 559.25 352.401 559.25 343.027V16.9727C559.25 7.59894 551.627 0 542.225 0H97.7753Z" fill="url(#paint1_linear_146_1555)"/>
<path d="M365.699 280.946C365.699 277.244 368.71 274.243 372.425 274.243H391.761C395.475 274.243 398.486 277.244 398.486 280.946V300.217C398.486 303.919 395.475 306.92 391.761 306.92H372.425C368.71 306.92 365.699 303.919 365.699 300.217V280.946Z" fill="#51CB9C"/>
<path d="M377.263 296.866L371.583 290.568L377.263 284.298H379.974L374.27 290.568L379.974 296.866H377.263Z" fill="white"/>
<path d="M384.186 284.298H386.896L392.6 290.568L386.896 296.866H384.186L389.89 290.568L384.186 284.298Z" fill="white"/>
<path d="M259.066 103.18C259.066 99.4776 262.078 96.4766 265.792 96.4766H285.128C288.842 96.4766 291.853 99.4776 291.853 103.18V122.45C291.853 126.152 288.842 129.153 285.128 129.153H265.792C262.078 129.153 259.066 126.152 259.066 122.45V103.18Z" fill="#1ABCFE"/>
<path fill-rule="evenodd" clip-rule="evenodd" d="M278.349 108.802L275.687 104.742H267.7V122.337H283.673V108.802H278.349ZM281.572 110.897H277.212L274.549 106.837H269.802V120.243H281.572V110.897Z" fill="white"/>
<path d="M426.631 139.804C426.631 136.102 429.642 133.101 433.356 133.101H452.692C456.407 133.101 459.418 136.102 459.418 139.804V159.075C459.418 162.777 456.407 165.778 452.692 165.778H433.356C429.642 165.778 426.631 162.777 426.631 159.075V139.804Z" fill="#FFC04A"/>
<path d="M435.039 148.595C436.399 148.342 437.079 147.644 437.079 146.501C437.079 145.996 437.013 145.133 436.879 143.91C436.746 142.608 436.679 141.664 436.679 141.079C436.679 140.122 436.946 139.391 437.479 138.886C438.026 138.381 438.753 138.129 439.659 138.129H440.82V139.704H439.999C439.479 139.704 439.093 139.823 438.839 140.063C438.586 140.288 438.459 140.667 438.459 141.199C438.459 141.584 438.486 142.063 438.539 142.634C438.593 143.192 438.626 143.571 438.639 143.77C438.773 145.046 438.839 145.976 438.839 146.561C438.839 147.266 438.659 147.857 438.299 148.335C437.953 148.801 437.413 149.113 436.679 149.272V149.312C437.413 149.472 437.953 149.791 438.299 150.269C438.659 150.747 438.839 151.339 438.839 152.043C438.839 152.628 438.773 153.558 438.639 154.834C438.626 155.033 438.593 155.419 438.539 155.99C438.486 156.548 438.459 157.02 438.459 157.406C438.459 157.937 438.586 158.316 438.839 158.542C439.093 158.781 439.479 158.901 439.999 158.901H440.82V160.475H439.659C438.753 160.475 438.026 160.223 437.479 159.718C436.946 159.213 436.679 158.482 436.679 157.525C436.679 156.94 436.746 155.997 436.879 154.694C437.013 153.472 437.079 152.608 437.079 152.103C437.079 150.96 436.399 150.262 435.039 150.01V148.595Z" fill="#1C1E53"/>
<path d="M451.255 150.01C449.895 150.262 449.215 150.96 449.215 152.103C449.215 152.608 449.282 153.472 449.415 154.694C449.548 155.997 449.615 156.94 449.615 157.525C449.615 158.482 449.342 159.213 448.795 159.718C448.262 160.223 447.541 160.475 446.635 160.475H445.475V158.901H446.295C446.815 158.901 447.201 158.781 447.455 158.542C447.708 158.316 447.835 157.937 447.835 157.406C447.835 157.02 447.808 156.548 447.755 155.99C447.701 155.419 447.668 155.033 447.655 154.834C447.521 153.558 447.455 152.628 447.455 152.043C447.455 151.339 447.628 150.747 447.975 150.269C448.335 149.791 448.882 149.472 449.615 149.312V149.272C448.882 149.113 448.335 148.801 447.975 148.335C447.628 147.857 447.455 147.266 447.455 146.561C447.455 145.976 447.521 145.046 447.655 143.77C447.668 143.571 447.701 143.192 447.755 142.634C447.808 142.063 447.835 141.584 447.835 141.199C447.835 140.667 447.708 140.288 447.455 140.063C447.201 139.823 446.815 139.704 446.295 139.704H445.475V138.129H446.635C447.541 138.129 448.262 138.381 448.795 138.886C449.342 139.391 449.615 140.122 449.615 141.079C449.615 141.664 449.548 142.608 449.415 143.91C449.282 145.133 449.215 145.996 449.215 146.501C449.215 147.644 449.895 148.342 451.255 148.595V150.01Z" fill="#1C1E53"/>
<path fill-rule="evenodd" clip-rule="evenodd" d="M183.798 92.01H11.7528C6.80397 92.01 2.79213 96.0094 2.79213 100.943V211.712C2.79213 216.646 6.80397 220.645 11.7528 220.645H183.798C188.747 220.645 192.758 216.646 192.758 211.712V100.943C192.758 96.0094 188.747 92.01 183.798 92.01ZM11.7528 90.2234C5.8142 90.2234 1 95.0227 1 100.943V211.712C1 217.632 5.8142 222.432 11.7528 222.432H183.798C189.736 222.432 194.551 217.632 194.551 211.712V100.943C194.551 95.0227 189.736 90.2234 183.798 90.2234H11.7528Z" fill="url(#paint2_linear_146_1555)"/>
<path d="M91.5039 33.4989C91.5039 23.3851 99.7282 15.1863 109.873 15.1863H522.96C533.105 15.1863 541.33 23.3851 541.33 33.4989C541.33 43.6127 533.105 51.8116 522.96 51.8116H109.873C99.7281 51.8116 91.5039 43.6127 91.5039 33.4989Z" fill="url(#paint3_linear_146_1555)"/>
<path d="M466.955 199.206C466.955 193.286 471.769 188.487 477.708 188.487H628.247C634.186 188.487 639 193.286 639 199.206V309.975C639 315.896 634.186 320.695 628.247 320.695H477.708C471.769 320.695 466.955 315.896 466.955 309.975V199.206Z" fill="url(#paint4_linear_146_1555)"/>
<path fill-rule="evenodd" clip-rule="evenodd" d="M628.247 190.273H477.708C472.759 190.273 468.747 194.273 468.747 199.206V309.975C468.747 314.909 472.759 318.908 477.708 318.908H628.247C633.196 318.908 637.208 314.909 637.208 309.975V199.206C637.208 194.273 633.196 190.273 628.247 190.273ZM477.708 188.487C471.769 188.487 466.955 193.286 466.955 199.206V309.975C466.955 315.896 471.769 320.695 477.708 320.695H628.247C634.186 320.695 639 315.896 639 309.975V199.206C639 193.286 634.186 188.487 628.247 188.487H477.708Z" fill="url(#paint5_linear_146_1555)"/>
<path d="M482.885 209.925C482.885 207.952 484.489 206.352 486.469 206.352H619.485C621.465 206.352 623.07 207.952 623.07 209.925C623.07 211.899 621.465 213.498 619.485 213.498H486.469C484.489 213.498 482.885 211.899 482.885 209.925Z" fill="url(#paint6_linear_146_1555)"/>
<path d="M482.885 227.792C482.885 225.818 484.489 224.219 486.469 224.219H529.48C531.46 224.219 533.065 225.818 533.065 227.792C533.065 229.765 531.46 231.365 529.48 231.365H486.469C484.489 231.365 482.885 229.765 482.885 227.792Z" fill="url(#paint7_linear_146_1555)"/>
<path d="M539.437 227.792C539.437 225.818 541.041 224.219 543.021 224.219H559.747C561.727 224.219 563.332 225.818 563.332 227.792C563.332 229.765 561.727 231.365 559.747 231.365H543.021C541.041 231.365 539.437 229.765 539.437 227.792Z" fill="url(#paint8_linear_146_1555)"/>
<path d="M482.885 299.256C482.885 297.282 484.489 295.683 486.469 295.683H529.48C531.46 295.683 533.065 297.282 533.065 299.256C533.065 301.229 531.46 302.829 529.48 302.829H486.469C484.489 302.829 482.885 301.229 482.885 299.256Z" fill="url(#paint9_linear_146_1555)"/>
<path d="M539.437 299.256C539.437 297.282 541.041 295.683 543.021 295.683H559.747C561.727 295.683 563.332 297.282 563.332 299.256C563.332 301.229 561.727 302.829 559.747 302.829H543.021C541.041 302.829 539.437 301.229 539.437 299.256Z" fill="url(#paint10_linear_146_1555)"/>
<path d="M511.56 263.524C511.56 261.55 513.164 259.951 515.144 259.951H527.091C529.071 259.951 530.676 261.55 530.676 263.524C530.676 265.497 529.071 267.097 527.091 267.097H515.144C513.164 267.097 511.56 265.497 511.56 263.524Z" fill="url(#paint11_linear_146_1555)"/>
<path d="M537.845 263.524C537.845 261.55 539.449 259.951 541.429 259.951H592.405C594.385 259.951 595.99 261.55 595.99 263.524C595.99 265.497 594.385 267.097 592.405 267.097H541.429C539.449 267.097 537.845 265.497 537.845 263.524Z" fill="url(#paint12_linear_146_1555)"/>
<path d="M482.885 263.524C482.885 261.55 484.489 259.951 486.469 259.951H503.196C505.175 259.951 506.78 261.55 506.78 263.524C506.78 265.497 505.175 267.097 503.196 267.097H486.469C484.489 267.097 482.885 265.497 482.885 263.524Z" fill="url(#paint13_linear_146_1555)"/>
<path d="M482.885 245.657C482.885 243.684 484.489 242.084 486.469 242.084H544.614C546.593 242.084 548.198 243.684 548.198 245.657C548.198 247.631 546.593 249.231 544.614 249.231H486.469C484.489 249.231 482.885 247.631 482.885 245.657Z" fill="url(#paint14_linear_146_1555)"/>
<path d="M553.774 245.657C553.774 243.684 555.379 242.084 557.359 242.084H584.44C586.419 242.084 588.024 243.684 588.024 245.657C588.024 247.631 586.419 249.231 584.44 249.231H557.359C555.379 249.231 553.774 247.631 553.774 245.657Z" fill="url(#paint15_linear_146_1555)"/>
<path d="M482.885 281.389C482.885 279.416 484.489 277.816 486.469 277.816H544.614C546.593 277.816 548.198 279.416 548.198 281.389C548.198 283.363 546.593 284.963 544.614 284.963H486.469C484.489 284.963 482.885 283.363 482.885 281.389Z" fill="url(#paint16_linear_146_1555)"/>
<path d="M124.343 33.7001C124.343 37.083 121.591 39.8254 118.197 39.8254C114.802 39.8254 112.051 37.083 112.051 33.7001C112.051 30.3171 114.802 27.5747 118.197 27.5747C121.591 27.5747 124.343 30.3171 124.343 33.7001Z" fill="#FED280"/>
<path d="M145.855 33.7001C145.855 37.083 143.103 39.8254 139.709 39.8254C136.314 39.8254 133.562 37.083 133.562 33.7001C133.562 30.3171 136.314 27.5747 139.709 27.5747C143.103 27.5747 145.855 30.3171 145.855 33.7001Z" fill="#8CFEE3" fill-opacity="0.9"/>
<path d="M167.368 33.7001C167.368 37.083 164.617 39.8254 161.222 39.8254C157.828 39.8254 155.076 37.083 155.076 33.7001C155.076 30.3171 157.828 27.5747 161.222 27.5747C164.617 27.5747 167.368 30.3171 167.368 33.7001Z" fill="#FF8DA9" fill-opacity="0.9"/>
<path fill-rule="evenodd" clip-rule="evenodd" d="M193.43 152.754C193.43 152.138 193.931 151.638 194.55 151.638H328.08V177.935C328.08 178.551 327.578 179.051 326.96 179.051C326.341 179.051 325.84 178.551 325.84 177.935V153.871H194.55C193.931 153.871 193.43 153.371 193.43 152.754Z" fill="url(#paint17_linear_146_1555)"/>
<path fill-rule="evenodd" clip-rule="evenodd" d="M468.075 254.59C468.075 255.207 467.574 255.707 466.955 255.707L326.256 255.707L326.256 230.407C326.256 229.79 326.758 229.29 327.376 229.29C327.995 229.29 328.497 229.79 328.497 230.407L328.497 253.474L466.955 253.474C467.574 253.474 468.075 253.974 468.075 254.59Z" fill="url(#paint18_linear_146_1555)"/>
<g filter="url(#filter0_d_146_1555)">
<path fill-rule="evenodd" clip-rule="evenodd" d="M325.056 198.938C325.05 199.154 325.089 199.257 325.287 199.258H330.06C330.924 199.322 331.697 199.537 332.351 199.955C332.805 200.246 333.137 200.591 333.387 200.974C333.83 201.654 334.081 202.634 334.217 203.425C334.275 203.767 334.302 204.087 334.24 204.235C334.21 204.305 334.166 204.352 334.107 204.374C333.779 204.498 333.432 204.072 333.247 203.868C332.367 202.896 331.088 202.494 329.579 202.418H325.216C325.06 202.444 325.004 202.553 325.02 202.721V203.881C325.011 204.267 324.805 204.398 324.397 204.268L320.64 201.484L320.27 201.211L320.176 201.141C319.874 200.884 319.998 200.651 320.269 200.449L320.556 200.236L324.156 197.561C324.595 197.234 325.056 197.147 325.056 197.851V198.938ZM329.236 210.775C329.242 210.559 329.203 210.455 329.005 210.455H324.232C323.368 210.391 322.595 210.176 321.941 209.757C321.484 209.465 321.151 209.117 320.901 208.732C320.448 208.034 320.153 206.898 320.044 206.083C320.01 205.823 320.002 205.596 320.052 205.478C320.082 205.408 320.126 205.361 320.185 205.338C320.513 205.214 320.86 205.641 321.045 205.845C321.925 206.817 323.205 207.219 324.713 207.294H329.076C329.232 207.269 329.288 207.16 329.272 206.992V205.832C329.281 205.446 329.487 205.315 329.895 205.445L333.652 208.228L334.022 208.502L334.116 208.572C334.418 208.829 334.294 209.062 334.023 209.263L333.736 209.477L330.137 212.152C329.697 212.478 329.237 212.566 329.237 211.862L329.236 210.775Z" fill="#88F1DB"/>
</g>
<path d="M346 204.367C346 214.823 337.496 223.305 327 223.305C316.504 223.305 308 214.823 308 204.367C308 193.911 316.504 185.429 327 185.429C337.496 185.429 346 193.911 346 204.367Z" stroke="white" stroke-width="2"/>
<path d="M249.211 152.754C249.211 157.688 245.2 161.687 240.251 161.687C235.302 161.687 231.29 157.688 231.29 152.754C231.29 147.82 235.302 143.821 240.251 143.821C245.2 143.821 249.211 147.82 249.211 152.754Z" fill="#383A68"/>
<path fill-rule="evenodd" clip-rule="evenodd" d="M240.251 159.9C244.21 159.9 247.419 156.701 247.419 152.754C247.419 148.807 244.21 145.608 240.251 145.608C236.292 145.608 233.082 148.807 233.082 152.754C233.082 156.701 236.292 159.9 240.251 159.9ZM240.251 161.687C245.2 161.687 249.211 157.688 249.211 152.754C249.211 147.82 245.2 143.821 240.251 143.821C235.302 143.821 231.29 147.82 231.29 152.754C231.29 157.688 235.302 161.687 240.251 161.687Z" fill="#63648A"/>
<path d="M444.552 254.591C444.552 259.525 440.54 263.524 435.592 263.524C430.643 263.524 426.631 259.525 426.631 254.591C426.631 249.657 430.643 245.658 435.592 245.658C440.54 245.658 444.552 249.657 444.552 254.591Z" fill="#383A68"/>
<path fill-rule="evenodd" clip-rule="evenodd" d="M435.592 261.737C439.551 261.737 442.76 258.538 442.76 254.591C442.76 250.644 439.551 247.445 435.592 247.445C431.632 247.445 428.423 250.644 428.423 254.591C428.423 258.538 431.632 261.737 435.592 261.737ZM435.592 263.524C440.54 263.524 444.552 259.525 444.552 254.591C444.552 249.657 440.54 245.658 435.592 245.658C430.643 245.658 426.631 249.657 426.631 254.591C426.631 259.525 430.643 263.524 435.592 263.524Z" fill="#63648A"/>
<path fill-rule="evenodd" clip-rule="evenodd" d="M155.065 183.824H149.007V181.311H155.065V183.824Z" fill="white"/>
<path d="M0 101.439C0 95.5183 4.8142 90.719 10.7528 90.719H182.798C188.736 90.719 193.551 95.5183 193.551 101.439V212.208C193.551 218.128 188.736 222.927 182.798 222.927H10.7528C4.8142 222.927 0 218.128 0 212.208V101.439Z" fill="url(#paint19_linear_146_1555)"/>
<path d="M21.5059 125.558C21.5059 122.598 23.913 120.198 26.8823 120.198H77.062C80.0313 120.198 82.4384 122.598 82.4384 125.558V182.729C82.4384 185.689 80.0313 188.089 77.062 188.089H26.8823C23.913 188.089 21.5059 185.689 21.5059 182.729V125.558Z" fill="white" fill-opacity="0.17"/>
<path d="M94.0859 125.111C94.0859 122.398 96.2924 120.198 99.0143 120.198H162.635C165.357 120.198 167.563 122.398 167.563 125.111C167.563 127.825 165.357 130.024 162.635 130.024H99.0143C96.2924 130.024 94.0859 127.825 94.0859 125.111Z" fill="white" fill-opacity="0.6"/>
<path d="M94.0859 143.87C94.0859 141.157 96.2924 138.957 99.0143 138.957H162.635C165.357 138.957 167.563 141.157 167.563 143.87C167.563 146.584 165.357 148.784 162.635 148.784H99.0143C96.2924 148.784 94.0859 146.584 94.0859 143.87Z" fill="white" fill-opacity="0.26"/>
<path d="M94.0859 175.135C94.0859 166.008 101.508 158.609 110.663 158.609H111.559C120.715 158.609 128.136 166.008 128.136 175.135C128.136 184.263 120.715 191.661 111.559 191.661H110.663C101.508 191.661 94.0859 184.263 94.0859 175.135Z" fill="#767799"/>
<path d="M48.1911 152.989C46.5011 150.792 43.1424 150.938 41.6496 153.274L29.8131 171.798C28.1117 174.46 30.024 177.952 33.1837 177.952H70.8961C74.1648 177.952 76.0536 174.244 74.1317 171.6L67.4551 162.415C65.9739 160.377 63.0005 160.199 61.2871 162.046L61.1531 162.19C59.4697 164.005 56.5588 163.871 55.0499 161.908L48.1911 152.989Z" fill="white"/>
<path d="M71.479 140.09C71.479 143.296 68.8713 145.896 65.6545 145.896C62.4378 145.896 59.8301 143.296 59.8301 140.09C59.8301 136.883 62.4378 134.283 65.6545 134.283C68.8713 134.283 71.479 136.883 71.479 140.09Z" fill="#C4C5DC"/>
<path d="M134.41 165.312C134.41 161.61 137.421 158.609 141.136 158.609H160.472C164.186 158.609 167.197 161.61 167.197 165.312V184.583C167.197 188.285 164.186 191.286 160.472 191.286H141.136C137.421 191.286 134.41 188.285 134.41 184.583V165.312Z" fill="#767799"/>
<path fill-rule="evenodd" clip-rule="evenodd" d="M142.396 167.407H159.21V171.451H156.688V169.921H144.919V171.451H142.396V167.407Z" fill="white"/>
<path fill-rule="evenodd" clip-rule="evenodd" d="M149.699 183.204L149.854 168.805L152.376 168.832L152.22 183.231L149.699 183.204Z" fill="white"/>
<defs>
<filter id="filter0_d_146_1555" x="306" y="187.316" width="42.292" height="43.0813" filterUnits="userSpaceOnUse" color-interpolation-filters="sRGB">
<feFlood flood-opacity="0" result="BackgroundImageFix"/>
<feColorMatrix in="SourceAlpha" type="matrix" values="0 0 0 0 0 0 0 0 0 0 0 0 0 0 0 0 0 0 127 0" result="hardAlpha"/>
<feOffset dy="4"/>
<feGaussianBlur stdDeviation="7"/>
<feComposite in2="hardAlpha" operator="out"/>
<feColorMatrix type="matrix" values="0 0 0 0 0.533333 0 0 0 0 0.945098 0 0 0 0 0.858824 0 0 0 1 0"/>
<feBlend mode="normal" in2="BackgroundImageFix" result="effect1_dropShadow_146_1555"/>
<feBlend mode="normal" in="SourceGraphic" in2="effect1_dropShadow_146_1555" result="shape"/>
</filter>
<linearGradient id="paint0_linear_146_1555" x1="81" y1="0" x2="731.784" y2="490.598" gradientUnits="userSpaceOnUse">
<stop stop-color="white" stop-opacity="0.16"/>
<stop offset="1" stop-color="#C4C4C4" stop-opacity="0"/>
</linearGradient>
<linearGradient id="paint1_linear_146_1555" x1="320" y1="1.33608e-05" x2="658.17" y2="244.719" gradientUnits="userSpaceOnUse">
<stop stop-color="white" stop-opacity="0.17"/>
<stop offset="1" stop-opacity="0"/>
</linearGradient>
<linearGradient id="paint2_linear_146_1555" x1="97.7753" y1="90.2234" x2="179.691" y2="426.625" gradientUnits="userSpaceOnUse">
<stop stop-color="white" stop-opacity="0.17"/>
<stop offset="1" stop-opacity="0"/>
</linearGradient>
<linearGradient id="paint3_linear_146_1555" x1="316.417" y1="15.1863" x2="384.01" y2="224.217" gradientUnits="userSpaceOnUse">
<stop stop-color="white" stop-opacity="0.15"/>
<stop offset="1" stop-color="#C4C4C4" stop-opacity="0"/>
</linearGradient>
<linearGradient id="paint4_linear_146_1555" x1="552.978" y1="188.487" x2="598.877" y2="380.261" gradientUnits="userSpaceOnUse">
<stop stop-color="white" stop-opacity="0.16"/>
<stop offset="1" stop-color="#C4C4C4" stop-opacity="0"/>
</linearGradient>
<linearGradient id="paint5_linear_146_1555" x1="552.978" y1="188.487" x2="643.783" y2="519.96" gradientUnits="userSpaceOnUse">
<stop stop-color="white" stop-opacity="0.17"/>
<stop offset="1" stop-opacity="0"/>
</linearGradient>
<linearGradient id="paint6_linear_146_1555" x1="552.977" y1="206.352" x2="561.739" y2="249.629" gradientUnits="userSpaceOnUse">
<stop stop-color="white" stop-opacity="0.56"/>
<stop offset="1" stop-color="#C4C4C4" stop-opacity="0"/>
</linearGradient>
<linearGradient id="paint7_linear_146_1555" x1="507.975" y1="224.219" x2="527.28" y2="258.35" gradientUnits="userSpaceOnUse">
<stop stop-color="#F9C746" stop-opacity="0.52"/>
<stop offset="1" stop-color="#C4C4C4" stop-opacity="0"/>
</linearGradient>
<linearGradient id="paint8_linear_146_1555" x1="551.384" y1="224.219" x2="573.58" y2="242.906" gradientUnits="userSpaceOnUse">
<stop stop-color="#84EBE5" stop-opacity="0.62"/>
<stop offset="1" stop-color="#C4C4C4" stop-opacity="0"/>
</linearGradient>
<linearGradient id="paint9_linear_146_1555" x1="507.975" y1="295.683" x2="527.28" y2="329.815" gradientUnits="userSpaceOnUse">
<stop stop-color="white" stop-opacity="0.56"/>
<stop offset="1" stop-color="#C4C4C4" stop-opacity="0"/>
</linearGradient>
<linearGradient id="paint10_linear_146_1555" x1="551.384" y1="295.683" x2="573.58" y2="314.37" gradientUnits="userSpaceOnUse">
<stop stop-color="#F47D9E"/>
<stop offset="1" stop-color="#C4C4C4" stop-opacity="0"/>
</linearGradient>
<linearGradient id="paint11_linear_146_1555" x1="521.118" y1="259.951" x2="541.992" y2="274.01" gradientUnits="userSpaceOnUse">
<stop stop-color="#F2C87D"/>
<stop offset="1" stop-color="#C4C4C4" stop-opacity="0"/>
</linearGradient>
<linearGradient id="paint12_linear_146_1555" x1="566.917" y1="259.951" x2="584.676" y2="296.333" gradientUnits="userSpaceOnUse">
<stop stop-color="white" stop-opacity="0.62"/>
<stop offset="1" stop-color="#C4C4C4" stop-opacity="0"/>
</linearGradient>
<linearGradient id="paint13_linear_146_1555" x1="489.257" y1="258.164" x2="525.93" y2="263.358" gradientUnits="userSpaceOnUse">
<stop stop-color="#F37D9D"/>
<stop offset="1" stop-color="#C4C4C4" stop-opacity="0"/>
</linearGradient>
<linearGradient id="paint14_linear_146_1555" x1="515.541" y1="242.084" x2="532.009" y2="279.979" gradientUnits="userSpaceOnUse">
<stop stop-color="white" stop-opacity="0.58"/>
<stop offset="1" stop-color="#C4C4C4" stop-opacity="0"/>
</linearGradient>
<linearGradient id="paint15_linear_146_1555" x1="570.899" y1="242.084" x2="593.033" y2="268.794" gradientUnits="userSpaceOnUse">
<stop stop-color="white" stop-opacity="0.45"/>
<stop offset="1" stop-color="#C4C4C4" stop-opacity="0"/>
</linearGradient>
<linearGradient id="paint16_linear_146_1555" x1="515.541" y1="277.816" x2="532.009" y2="315.711" gradientUnits="userSpaceOnUse">
<stop stop-color="#70D1E7"/>
<stop offset="1" stop-color="#C4C4C4" stop-opacity="0"/>
</linearGradient>
<linearGradient id="paint17_linear_146_1555" x1="315.831" y1="146.587" x2="136.21" y2="200.966" gradientUnits="userSpaceOnUse">
<stop stop-color="#767799"/>
<stop offset="1" stop-color="#767799" stop-opacity="0"/>
</linearGradient>
<linearGradient id="paint18_linear_146_1555" x1="339.205" y1="260.758" x2="526.683" y2="200.973" gradientUnits="userSpaceOnUse">
<stop stop-color="#767799"/>
<stop offset="1" stop-color="#767799" stop-opacity="0"/>
</linearGradient>
<linearGradient id="paint19_linear_146_1555" x1="96.7753" y1="90.719" x2="138.044" y2="284.7" gradientUnits="userSpaceOnUse">
<stop stop-color="white" stop-opacity="0.16"/>
<stop offset="1" stop-color="#C4C4C4" stop-opacity="0"/>
</linearGradient>
</defs>
</svg>
