<svg width="415" height="286" viewBox="0 0 415 286" fill="none" xmlns="http://www.w3.org/2000/svg">
<path d="M173.479 266.646C173.479 266.646 127.596 266.646 112.555 266.646C97.514 266.646 94.641 270.195 100.978 272.814C107.316 275.434 76.9805 274.166 71.826 278.814C66.587 283.461 79.938 285.236 94.3875 285.236C108.837 285.236 198.914 285.236 210.49 285.236C222.067 285.236 219.194 276.786 212.265 275.687C205.336 274.589 223.503 276.11 230.432 273.659C237.361 271.209 232.376 266.646 173.479 266.646Z" fill="#99ADF9"/>
<path d="M262.373 282.109C260.599 284.56 254.684 285.151 244.628 284.898C237.023 284.644 229.08 284.053 229.08 280.504C229.08 276.955 248.431 277.377 255.191 278.138C261.021 278.814 263.387 280.673 262.373 282.109Z" fill="#C5D3FF"/>
<path d="M87.2889 270.279C86.1059 272.053 82.0499 272.56 74.9519 272.56C69.6284 272.56 64.0514 272.307 63.8824 269.856C63.7134 267.321 77.3179 267.237 82.1344 267.659C86.1904 267.997 87.9649 269.18 87.2889 270.279Z" fill="#C5D3FF"/>
<path d="M384.812 264.533H354.645C352.279 264.533 350.336 262.589 350.336 260.223V229.043C350.336 226.677 352.279 224.733 354.645 224.733H384.812C387.178 224.733 389.121 226.677 389.121 229.043V260.223C389.121 262.589 387.178 264.533 384.812 264.533Z" fill="#C5DFFF"/>
<path d="M383.376 263.096H354.392C352.111 263.096 350.252 261.237 350.252 258.956V228.874C350.252 226.592 352.111 224.733 354.392 224.733H383.376C385.657 224.733 387.516 226.592 387.516 228.874V258.956C387.516 261.237 385.657 263.096 383.376 263.096Z" fill="#E1ECFF"/>
<path d="M369.18 256.421C375.9 256.421 381.348 250.973 381.348 244.253C381.348 237.533 375.9 232.085 369.18 232.085C362.46 232.085 357.012 237.533 357.012 244.253C357.012 250.973 362.46 256.421 369.18 256.421Z" fill="#C5DFFF"/>
<path d="M364.364 249.745C363.942 249.745 363.604 249.407 363.604 248.985V239.605C363.604 239.183 363.942 238.845 364.364 238.845C364.786 238.845 365.124 239.183 365.124 239.605V248.985C365.124 249.407 364.786 249.745 364.364 249.745Z" fill="#2F5681"/>
<path d="M373.151 249.745C372.729 249.745 372.391 249.407 372.391 248.985V239.605C372.391 239.183 372.729 238.845 373.151 238.845C373.574 238.845 373.912 239.183 373.912 239.605V248.985C373.912 249.407 373.574 249.745 373.151 249.745Z" fill="#2F5681"/>
<path d="M295.496 211.805C294.905 211.805 294.313 211.805 293.722 211.72C280.624 210.791 271.667 206.312 256.626 183.413C251.387 175.47 247.838 167.358 244.374 159.499C238.459 146.064 233.389 134.403 221.897 128.995C204.236 120.714 186.914 134.403 186.745 134.572C185.984 135.163 184.886 135.079 184.294 134.318C183.703 133.558 183.787 132.459 184.548 131.868C185.308 131.276 203.729 116.658 223.333 125.868C236.008 131.783 241.585 144.543 247.5 158.063C250.88 165.837 254.429 173.864 259.499 181.469C273.78 203.101 281.976 207.326 293.975 208.256C302.932 208.932 307.749 203.524 312.396 198.2C314.086 196.341 315.607 194.567 317.382 193.046C324.226 187.215 331.409 186.117 331.747 186.117C332.676 185.948 333.606 186.624 333.69 187.553C333.859 188.483 333.183 189.412 332.254 189.497C332.169 189.497 325.747 190.511 319.663 195.665C318.058 197.017 316.621 198.707 315.016 200.482C310.284 205.89 305.045 211.805 295.496 211.805Z" fill="#2F5681"/>
<path d="M344.676 180.286L351.774 174.287C352.534 173.695 353.548 173.78 354.14 174.54C354.647 175.216 354.562 176.146 353.886 176.737L346.704 183.075L344.676 180.286Z" fill="#2F5681"/>
<path d="M340.283 175.216L347.381 169.217C348.142 168.625 349.156 168.71 349.747 169.47C350.254 170.146 350.17 171.076 349.494 171.667L342.311 178.005L340.283 175.216Z" fill="#2F5681"/>
<path d="M349.662 183.413C349.662 183.413 346.873 186.708 342.564 190.511C338.254 194.229 332.677 193.553 330.142 190.68C329.973 190.511 329.889 190.342 329.72 190.173C327.523 187.131 327.438 182.99 330.734 180.033C334.198 176.822 339.944 172.259 339.944 172.259L346.873 180.286L349.662 183.413Z" fill="#E1ECFF"/>
<path d="M349.663 183.413C349.663 183.413 346.874 186.708 342.565 190.511C338.255 194.229 332.678 193.553 330.143 190.68C329.974 190.511 329.89 190.342 329.721 190.173C331.749 190.173 335.213 189.75 338.34 187.638C340.959 185.863 344.339 182.737 346.79 180.286L349.663 183.413Z" fill="#C5DFFF"/>
<path d="M220.376 248.14C220.291 248.14 220.122 248.14 220.038 248.14C214.292 248.055 199.335 236.817 195.533 231.578C191.646 226.339 188.181 219.663 192.913 215.354C193.843 214.509 195.195 213.917 196.716 213.664C198.997 213.241 201.786 213.748 204.152 215.269C208.208 217.889 219.615 231.155 222.826 236.817C225.953 242.394 225.868 248.055 220.376 248.14Z" fill="#2F5681"/>
<path d="M220.375 248.14C221.22 247.633 221.811 246.788 222.318 245.098C223.163 242.14 220.206 236.225 210.488 224.902C204.658 218.058 199.672 215.016 196.715 213.664C198.996 213.241 201.785 213.748 204.151 215.269C208.207 217.889 219.614 231.155 222.825 236.817C225.952 242.394 225.867 248.055 220.375 248.14Z" fill="#384D89"/>
<path d="M191.815 218.987C192.66 216.621 197.561 217.044 201.786 221.184C206.011 225.325 212.433 233.521 210.828 237.07C209.222 240.619 203.138 237.746 198.153 232.845C193.167 227.944 190.463 222.79 191.815 218.987Z" fill="#142966"/>
<path d="M202.462 229.55C202.293 232.254 201.279 233.944 201.279 233.944C201.279 233.944 178.548 244.76 150.072 224.902C121.088 204.707 121.004 179.526 121.004 179.272C135.876 164.738 152.607 180.709 152.607 180.709C152.607 180.709 153.621 189.75 158.184 198.876C160.803 204.115 164.606 209.439 170.014 212.988C183.534 221.86 197.561 219.156 197.561 219.156C197.561 219.156 200.265 220.001 201.87 225.156C202.462 226.677 202.631 228.282 202.462 229.55Z" fill="#E1ECFF"/>
<path d="M202.462 229.55C202.293 232.254 201.279 233.944 201.279 233.944C201.279 233.944 178.548 244.76 150.072 224.902C121.088 204.707 121.004 179.526 121.004 179.272C135.876 164.738 152.607 180.709 152.607 180.709C152.607 180.709 153.621 189.75 158.184 198.876C155.902 200.566 153.029 202.341 150.832 203.017C146.185 204.369 141.199 204.369 141.199 204.369C141.199 204.369 155.48 225.747 176.605 229.634C188.012 231.578 196.8 230.733 202.462 229.55Z" fill="#C5DFFF"/>
<path d="M170.605 233.859C170.183 233.859 169.76 233.606 169.591 233.099C169.338 232.507 169.676 231.916 170.267 231.662C170.352 231.662 174.915 229.888 176.267 226.17C177.703 222.367 176.52 219.325 176.52 219.325C176.267 218.734 176.605 218.142 177.112 217.889C177.703 217.635 178.295 217.973 178.548 218.48C178.633 218.649 179.985 222.367 178.295 226.93C176.52 231.662 171.197 233.606 170.943 233.69C170.859 233.859 170.69 233.859 170.605 233.859Z" fill="#C5DFFF"/>
<path d="M151.001 225.156C150.409 225.156 149.902 224.733 149.902 224.142C149.902 223.55 150.325 223.043 150.916 222.959C151.001 222.959 156.916 222.536 159.873 218.649C162.831 214.762 162.662 210.791 162.662 210.706C162.577 210.115 163.084 209.523 163.676 209.523C164.267 209.439 164.859 209.946 164.859 210.537C164.859 210.706 165.197 215.354 161.648 220.001C158.014 224.649 151.339 225.071 151.001 225.156Z" fill="#C5DFFF"/>
<path d="M110.948 209.186C110.61 209.946 110.187 210.707 109.596 211.467C108.497 212.904 107.23 213.749 106.047 214.34C104.357 215.185 103.005 215.354 103.005 215.354C103.005 215.354 91.0905 203.778 80.697 183.16C70.3035 162.626 69.543 138.966 69.543 138.966C70.4725 138.459 71.402 138.037 72.247 137.699C75.458 136.431 78.4155 136.347 80.866 136.685C84.584 137.192 86.95 138.797 86.95 138.797C86.95 138.797 87.626 158.401 94.555 176.062C101.484 193.807 111.624 204.285 111.624 204.285C111.624 204.285 112.046 206.566 110.948 209.186Z" fill="#E1ECFF"/>
<path d="M110.949 209.186C107.231 205.89 100.133 198.37 93.2882 183.836C85.0917 166.429 81.7962 144.036 80.9512 136.685C84.6692 137.192 87.0352 138.797 87.0352 138.797C87.0352 138.797 87.7112 158.401 94.6402 176.062C101.569 193.807 111.709 204.285 111.709 204.285C111.709 204.285 112.047 206.566 110.949 209.186Z" fill="#F8FBFF"/>
<path d="M106.047 214.34C104.357 215.185 103.005 215.354 103.005 215.354C103.005 215.354 91.0905 203.778 80.697 183.16C70.3035 162.626 69.543 138.966 69.543 138.966C70.4725 138.459 71.402 138.036 72.247 137.698C72.8385 145.303 75.627 170.316 87.457 189.92C95.569 203.271 102.075 210.538 106.047 214.34Z" fill="#C5DFFF"/>
<path d="M129.622 226.508C129.622 226.508 125.228 229.128 120.074 227.945C114.919 226.762 112.976 225.072 112.976 225.072C112.976 225.072 111.286 222.536 112.553 221.1C112.638 221.015 112.638 221.015 112.722 220.931C114.328 219.494 116.525 219.241 116.525 219.241C116.525 219.241 119.567 221.607 121.764 222.367C123.961 223.128 127.848 222.368 129.284 223.297C129.96 223.72 130.045 224.48 129.96 225.156C129.96 225.917 129.622 226.508 129.622 226.508Z" fill="#E1ECFF"/>
<path d="M129.622 226.508C129.622 226.508 125.228 229.128 120.074 227.945C114.919 226.762 112.976 225.072 112.976 225.072C112.976 225.072 111.286 222.537 112.553 221.1C114.074 222.537 117.708 225.663 121.933 226.17C125.397 226.593 128.27 225.832 129.96 225.156C129.96 225.917 129.622 226.508 129.622 226.508Z" fill="#C5DFFF"/>
<path d="M128.018 224.142C123.624 224.818 120.497 223.635 118.131 222.368C115.765 221.1 114.836 219.495 114.836 219.495C114.836 219.495 114.836 217.551 116.103 216.537C116.779 215.946 117.878 215.692 119.568 216.199C119.568 216.199 122.863 219.072 128.356 217.129C133.848 215.185 133.51 214.002 134.693 213.664C135.538 213.411 136.637 214.678 136.89 216.115C137.059 216.791 136.975 217.467 136.721 218.058C135.792 219.917 132.412 223.382 128.018 224.142Z" fill="#E1ECFF"/>
<path d="M128.018 224.142C123.624 224.818 120.497 223.635 118.131 222.368C115.765 221.1 114.836 219.495 114.836 219.495C114.836 219.495 114.836 217.551 116.103 216.537C118.131 218.565 122.525 222.199 127.342 221.269C132.074 220.34 135.454 217.551 136.975 216.115C137.144 216.791 137.059 217.466 136.806 218.058C135.792 219.917 132.412 223.382 128.018 224.142Z" fill="#C5DFFF"/>
<path d="M127.088 218.565C122.863 219.241 119.906 218.058 117.709 216.875C115.427 215.692 114.582 214.171 114.582 214.171C114.582 214.171 114.582 212.312 115.765 211.298C116.441 210.707 117.455 210.453 119.061 210.96C119.061 210.96 122.187 213.664 127.426 211.805C132.665 209.946 132.327 208.848 133.426 208.51C134.186 208.256 135.285 209.524 135.538 210.876C135.707 211.467 135.623 212.143 135.369 212.735C134.44 214.594 131.229 217.889 127.088 218.565Z" fill="#E1ECFF"/>
<path d="M127.088 218.565C122.863 219.241 119.906 218.058 117.709 216.875C115.427 215.692 114.582 214.171 114.582 214.171C114.582 214.171 114.582 212.312 115.765 211.298C117.624 213.242 121.849 216.706 126.412 215.777C130.891 214.847 134.102 212.228 135.538 210.876C135.707 211.467 135.623 212.143 135.369 212.735C134.44 214.594 131.229 217.889 127.088 218.565Z" fill="#C5DFFF"/>
<path d="M126.496 214.34C122.863 215.523 119.99 214.931 117.877 214.171C115.68 213.41 114.751 212.227 114.751 212.227C114.751 212.227 114.497 210.537 115.511 209.523C116.018 208.932 116.948 208.594 118.469 208.763C118.469 208.763 121.595 210.706 126.074 208.425C130.552 206.059 130.13 205.129 131.059 204.622C131.735 204.284 132.834 205.214 133.256 206.397C133.425 206.904 133.51 207.495 133.341 208.087C132.665 209.777 130.13 213.157 126.496 214.34Z" fill="#E1ECFF"/>
<path d="M126.496 214.34C122.863 215.523 119.99 214.931 117.877 214.171C115.68 213.41 114.751 212.227 114.751 212.227C114.751 212.227 114.497 210.537 115.511 209.523C117.455 210.96 121.595 213.495 125.567 212.058C129.538 210.622 132.073 207.833 133.172 206.397C133.341 206.904 133.425 207.495 133.256 208.087C132.665 209.777 130.13 213.157 126.496 214.34Z" fill="#C5DFFF"/>
<path d="M123.539 210.284C123.539 210.284 123.285 211.721 122.694 213.664C122.018 215.861 121.004 218.565 119.483 220.678C118.807 221.523 118.131 222.283 117.455 222.875C115.173 224.987 113.061 225.41 113.061 225.41C113.061 225.41 106.554 219.157 104.695 217.044C102.836 215.016 101.315 212.819 101.315 212.819C101.315 212.819 100.808 210.453 101.315 207.918C101.569 206.566 102.076 205.13 103.09 204.031C103.597 203.524 104.188 203.102 104.695 202.764C107.484 201.327 110.695 202.426 110.695 202.426C110.695 202.426 116.948 206.313 119.736 207.834C122.525 209.355 123.539 210.284 123.539 210.284Z" fill="#E1ECFF"/>
<path d="M123.539 210.284C123.539 210.284 123.285 211.721 122.694 213.664C121.426 212.988 119.145 211.552 116.103 209.355C112.131 206.566 106.47 203.693 104.695 202.764C107.484 201.327 110.695 202.426 110.695 202.426C110.695 202.426 116.948 206.313 119.736 207.834C122.525 209.355 123.539 210.284 123.539 210.284Z" fill="#F8FBFF"/>
<path d="M117.455 222.79C115.173 224.818 113.061 225.325 113.061 225.325C113.061 225.325 106.554 218.987 104.695 216.959C102.836 214.932 101.315 212.735 101.315 212.735C101.315 212.735 100.808 210.368 101.315 207.833C103.935 210.791 110.948 218.396 115.849 221.607C116.441 222.114 117.032 222.452 117.455 222.79Z" fill="#C5DFFF"/>
<path d="M93.2882 201.158C92.0207 201.074 91.2602 200.651 91.1757 200.651C90.6687 200.398 90.4997 199.722 90.7532 199.215C91.0067 198.708 91.5982 198.454 92.1052 198.708C92.1897 198.792 94.5557 199.891 97.6822 197.863C100.809 195.835 101.316 193.3 101.316 193.215C101.4 192.624 101.907 192.201 102.499 192.37C103.006 192.455 103.428 193.046 103.344 193.638C103.344 193.807 102.752 197.187 98.7807 199.806C96.4992 201.074 94.6402 201.243 93.2882 201.158Z" fill="#C5DFFF"/>
<path d="M84.247 184.174C82.4725 184.005 81.2895 183.413 81.205 183.413C80.698 183.16 80.529 182.484 80.7825 181.977C81.036 181.47 81.6275 181.216 82.05 181.47C82.1345 181.554 85.092 182.991 88.979 181.216C92.7815 179.526 93.4575 177.076 93.4575 176.907C93.6265 176.315 94.1335 175.977 94.6405 176.146C95.1475 176.315 95.4855 176.907 95.3165 177.498C95.3165 177.667 94.387 181.047 89.655 183.244C87.5425 184.174 85.6835 184.343 84.247 184.174Z" fill="#C5DFFF"/>
<path d="M77.8246 165.161C75.3741 164.992 74.1066 163.978 74.0221 163.894C73.5996 163.556 73.5151 162.88 73.8531 162.373C74.1911 161.866 74.7826 161.781 75.2896 162.204C75.3741 162.204 77.2331 163.64 81.3736 162.795C86.6126 161.697 88.0491 159.669 88.1336 159.584C88.4716 159.077 89.0631 158.992 89.5701 159.33C89.9926 159.668 90.0771 160.345 89.7391 160.852C89.5701 161.105 87.7111 163.556 81.7961 164.908C80.1906 165.246 78.9231 165.246 77.8246 165.161Z" fill="#C5DFFF"/>
<path d="M90.3293 151.05C90.3293 151.05 85.2593 153.669 78.0768 153.585C74.5278 153.5 72.0773 152.824 70.4718 152.064C68.7818 151.303 68.0213 150.543 68.0213 150.543C68.0213 150.543 68.1058 149.022 67.8523 144.036C67.0073 128.319 74.1053 126.291 78.7528 126.122C79.8513 126.122 81.0343 126.291 82.0483 126.629C85.4283 127.812 88.3013 130.854 89.3998 134.572C90.8363 139.727 90.3293 151.05 90.3293 151.05Z" fill="#2F5681"/>
<path d="M79.9363 135.84C74.6128 138.713 72.4158 136.854 72.4158 136.854C72.4158 136.854 71.1483 141.163 70.5568 149.698C70.4723 150.543 70.4723 151.388 70.3878 152.064C68.6978 151.303 67.9373 150.543 67.9373 150.543C67.9373 150.543 68.0218 149.022 67.7683 144.036C66.9233 128.319 74.0213 126.291 78.6688 126.122C79.7673 126.122 80.9503 126.291 81.9643 126.629C83.3163 128.911 84.8373 133.22 79.9363 135.84Z" fill="#384D89"/>
<path d="M187.842 162.203C187.588 163.555 187.335 164.823 186.997 166.09C184.969 173.949 181.42 180.286 176.434 184.427C162.154 196.341 142.55 202.679 117.369 186.37C97.2575 173.357 78.752 143.867 72.0765 132.459C70.3865 129.586 69.457 127.812 69.457 127.812C69.457 127.812 81.0335 127.22 99.2855 118.855C106.806 115.39 115.51 110.574 125.058 103.983C141.536 92.4909 151.084 81.7594 156.577 73.3939C163.083 63.5919 164.013 57.1699 164.013 57.1699C164.013 57.1699 165.618 60.1274 168.407 66.6339C171.787 74.6614 176.857 88.0124 182.603 107.785C188.771 129.079 190.461 147.923 187.842 162.203Z" fill="#E1ECFF"/>
<path d="M168.407 66.634C166.464 70.521 163.76 75.084 160.211 80.0695C153.282 89.5335 142.973 100.434 127.763 110.236C118.383 116.32 110.018 120.714 102.666 123.925C87.6251 130.6 77.2316 132.121 71.9926 132.375C70.3026 129.502 69.373 127.727 69.373 127.727C69.373 127.727 80.9495 127.136 99.2015 118.77C106.722 115.306 115.426 110.489 124.974 103.898C141.452 92.4065 151 81.675 156.493 73.3095C162.999 63.5075 163.929 57.0854 163.929 57.0854C163.929 57.0854 165.703 60.212 168.407 66.634Z" fill="#2F5681"/>
<path d="M186.997 166.09C184.969 173.949 181.42 180.286 176.434 184.427C162.154 196.341 142.55 202.679 117.369 186.37C97.2575 173.357 78.752 143.867 72.0765 132.459C70.3865 129.586 69.457 127.812 69.457 127.812C69.457 127.812 81.0335 127.22 99.2855 118.855C106.468 130.009 122.354 153.077 137.987 166.682C156.154 182.568 176.857 173.188 186.997 166.09Z" fill="#C5DFFF"/>
<path d="M102.666 124.009C87.6251 130.685 77.2316 132.206 71.9926 132.459C70.3026 129.586 69.373 127.812 69.373 127.812C69.373 127.812 80.9496 127.22 99.2016 118.855C100.216 120.376 101.399 122.15 102.666 124.009Z" fill="#142966"/>
<path d="M185.477 154.007C183.364 145.304 180.491 134.319 176.858 122.658C171.027 103.73 164.436 89.111 160.803 82.7735C165.873 75.084 166.802 71.9575 166.802 71.9575C166.802 71.9575 168.07 74.3235 170.267 79.3935C172.886 85.6465 176.858 96.1245 181.336 111.588C186.237 128.15 187.589 142.853 185.477 154.007Z" fill="#F8FBFF"/>
<path d="M168.406 66.634C166.463 70.521 163.759 75.084 160.21 80.0695C158.858 77.45 157.675 75.1685 156.576 73.3095C163.083 63.5075 164.012 57.0854 164.012 57.0854C164.012 57.0854 165.702 60.212 168.406 66.634Z" fill="#384D89"/>
<path d="M141.959 161.105C141.959 161.105 134.354 166.851 118.89 173.273C114.581 175.047 110.356 176.568 106.553 177.836C106.215 177.498 105.877 177.16 105.539 176.822C94.7234 166.428 85.0059 152.993 78.4149 142.853C77.9924 142.261 77.6544 141.67 77.3164 141.163C77.9924 140.994 89.3154 138.121 103.089 131.952C117.369 125.615 121.003 122.742 121.003 122.742L141.959 161.105Z" fill="#E1ECFF"/>
<path d="M139.593 161.021C139.593 161.021 132.748 166.513 118.214 172.259C113.736 174.034 109.257 175.555 105.455 176.822C94.6386 166.429 84.9211 152.993 78.3301 142.853L79.6821 142.515C79.6821 142.515 90.3291 139.811 103.511 133.981C116.693 128.066 120.411 126.122 120.411 126.122L139.593 161.021Z" fill="#2F5681"/>
<path d="M101.905 164.316C101.652 164.316 101.314 164.232 101.145 164.063L91.8497 155.782L91.2582 157.556C91.0047 158.148 90.4132 158.486 89.8217 158.232C89.2302 157.979 88.8922 157.387 89.1457 156.796L90.3287 153.416C90.4977 153.078 90.7512 152.74 91.0892 152.655C91.4272 152.571 91.8497 152.655 92.1877 152.909L100.384 160.176L99.9617 156.88C99.8772 156.373 100.131 155.866 100.638 155.697L128.607 143.614C129.199 143.36 129.875 143.614 130.128 144.205C130.382 144.797 130.128 145.473 129.537 145.726L102.328 157.472L103.088 162.964C103.173 163.471 102.919 163.894 102.497 164.147C102.243 164.232 102.074 164.316 101.905 164.316Z" fill="#FFCE94"/>
<path d="M164.014 57.1699C164.014 57.1699 162.746 66.2114 153.029 78.8019C147.452 86.0689 139.002 94.5189 126.327 103.138C105.54 117.334 89.1466 123.333 79.3446 125.953C72.9226 127.643 69.3736 127.812 69.3736 127.812C69.3736 127.812 48.1641 91.6459 51.6286 58.8599C52.5581 50.3254 55.1776 43.2274 59.1491 37.3969C62.0221 33.0874 65.5711 29.5384 69.6271 26.5809C81.3726 18.1309 97.1741 15.1734 112.553 17.0324C140.607 20.4969 164.014 57.1699 164.014 57.1699Z" fill="#FEC272"/>
<path d="M164.013 57.1699C164.013 57.1699 163.422 61.2259 160.211 67.6479C158.605 70.8589 156.324 74.6614 153.028 78.8864C147.451 86.1534 139.001 94.6034 126.326 103.222C103.934 118.432 86.611 124.263 77.2315 126.544C72.1615 127.727 69.373 127.896 69.373 127.896C69.373 127.643 69.4575 108.208 101.061 83.5339C132.833 58.6064 164.013 57.1699 164.013 57.1699Z" fill="#FCAD4F"/>
<path d="M160.211 67.6479C158.606 70.8589 156.324 74.6615 153.029 78.8865C147.452 86.1535 139.002 94.6035 126.327 103.222C103.934 118.432 86.6119 124.263 77.2324 126.544C80.7814 118.432 88.5554 106.433 106.047 92.7445C127.51 75.929 148.719 69.8449 160.211 67.6479Z" fill="#F99D3A"/>
<path d="M164.014 57.1699C164.014 57.1699 162.746 66.2114 153.029 78.8019C147.621 69.5069 142.804 63.6764 142.804 63.6764C142.804 63.6764 130.383 74.9149 120.243 66.8874C110.103 58.7754 117.708 43.9034 117.708 43.9034C117.708 43.9034 107.483 32.9184 90.837 29.3694C82.556 27.5949 75.0355 26.8344 69.543 26.5809C81.2885 18.1309 97.09 15.1734 112.469 17.0324C140.607 20.4969 164.014 57.1699 164.014 57.1699Z" fill="#FFDBB3"/>
<path d="M79.4286 125.953C73.0066 127.643 69.4576 127.812 69.4576 127.812C69.4576 127.812 48.2481 91.646 51.7126 58.86C52.6421 50.3255 55.2616 43.2275 59.2331 37.397C58.3036 47.1145 57.5431 69.5915 65.3171 93.843C69.2041 106.18 74.4431 117.165 79.4286 125.953Z" fill="#FFDBB3"/>
<path d="M175.929 273.152C175.929 273.659 175.929 274.166 175.844 274.757C175.506 279.743 160.212 280.672 149.565 281.179C139.087 281.686 128.017 278.729 131.82 275.264C131.904 275.18 131.904 275.18 131.989 275.095C134.693 272.814 139.932 270.194 145.762 268.082C149.142 266.814 152.607 265.8 156.071 264.955C160.634 263.857 169.929 261.66 172.971 263.941C173.563 264.364 174.07 265.04 174.492 265.8C175.422 267.575 175.929 270.194 175.929 273.152Z" fill="#2F5681"/>
<path d="M175.929 273.152C175.929 273.659 175.929 274.166 175.844 274.757C175.506 279.743 160.212 280.672 149.565 281.179C139.087 281.686 128.017 278.729 131.82 275.264C134.101 276.616 139.087 278.222 149.48 277.799C163.676 277.208 172.295 274.842 175.929 273.152Z" fill="#384D89"/>
<path d="M174.408 265.8C173.732 266.476 172.633 267.152 171.366 267.828C167.31 269.856 154.973 272.053 147.452 270.786C144.157 270.194 144.41 269.18 145.678 268.082C149.058 266.814 152.522 265.8 155.987 264.955C160.55 263.857 169.845 261.66 172.887 263.941C173.478 264.364 173.985 265.04 174.408 265.8Z" fill="#142966"/>
<path d="M155.395 225.24C158.775 246.872 171.112 263.434 171.112 263.434C171.112 263.434 169.929 265.124 167.563 266.645C166.549 267.321 165.366 267.828 163.929 268.335C161.732 269.011 159.366 269.011 157.338 268.842C154.888 268.589 153.113 268.082 153.113 268.082C153.113 268.082 132.073 240.957 129.453 210.03C126.834 179.103 143.48 163.555 143.48 163.555C143.48 163.555 143.649 163.471 143.818 163.302C145.508 162.203 152.944 158.147 161.901 163.217C162.577 163.555 163.169 163.978 163.676 164.316C170.52 168.794 171.534 173.357 171.534 173.357C171.534 173.357 166.887 177.413 163.422 183.497C159.958 189.412 152.015 203.608 155.395 225.24Z" fill="#E1ECFF"/>
<path d="M155.395 225.24C158.775 246.872 171.112 263.434 171.112 263.434C171.112 263.434 169.929 265.124 167.563 266.645C161.395 258.111 146.607 232.254 147.114 207.664C147.537 185.187 159.198 169.555 163.761 164.316C170.605 168.794 171.619 173.357 171.619 173.357C171.619 173.357 166.972 177.413 163.507 183.497C159.958 189.412 152.015 203.608 155.395 225.24Z" fill="#C5DFFF"/>
<path d="M157.254 268.758C154.804 268.505 153.029 267.998 153.029 267.998C153.029 267.998 131.989 240.873 129.369 209.946C126.75 179.019 143.396 163.471 143.396 163.471C143.396 163.471 143.565 163.387 143.734 163.218C140.523 169.809 133.341 186.878 134.017 206.144C134.862 230.902 145.593 249.999 153.114 262.167C154.55 264.618 155.987 266.815 157.254 268.758Z" fill="#F8FBFF"/>
<path d="M141.199 246.788C140.945 246.788 140.607 246.703 140.438 246.45C140.016 246.027 139.931 245.267 140.354 244.844C140.438 244.76 142.889 242.225 147.79 240.704C152.775 239.183 158.268 240.873 158.521 240.957C159.113 241.126 159.451 241.802 159.282 242.394C159.113 242.985 158.437 243.323 157.845 243.154C157.761 243.154 152.775 241.633 148.466 242.901C144.156 244.253 142.044 246.365 142.044 246.45C141.875 246.703 141.537 246.788 141.199 246.788Z" fill="#C5DFFF"/>
<path d="M132.495 219.748C132.072 219.748 131.734 219.579 131.481 219.156C131.143 218.565 131.312 217.889 131.903 217.551C132.072 217.466 137.058 214.593 142.719 214.34C148.465 214.002 153.282 217.297 153.451 217.466C153.958 217.804 154.127 218.565 153.704 219.072C153.366 219.579 152.606 219.748 152.099 219.325C152.014 219.325 147.789 216.368 142.804 216.621C137.649 216.875 133.086 219.494 133.002 219.579C132.917 219.748 132.664 219.748 132.495 219.748Z" fill="#C5DFFF"/>
<path d="M155.649 197.44C155.395 197.44 155.057 197.355 154.888 197.102C154.804 197.017 148.551 191.356 142.298 190.595C136.214 189.835 132.496 192.454 132.496 192.539C131.989 192.877 131.228 192.792 130.89 192.285C130.552 191.778 130.637 191.018 131.144 190.68C131.313 190.511 135.622 187.384 142.636 188.314C149.565 189.243 156.156 195.158 156.494 195.412C157.001 195.834 157.001 196.595 156.578 197.017C156.24 197.271 155.902 197.44 155.649 197.44Z" fill="#C5DFFF"/>
<path d="M229.42 173.442C229.42 173.442 227.814 178.935 222.744 182.23C217.674 185.526 214.801 185.864 214.801 185.864C214.801 185.864 211.506 185.357 211.506 183.244C211.506 183.16 211.506 183.075 211.506 182.991C211.675 180.709 213.28 178.681 213.28 178.681C213.28 178.681 217.59 177.921 219.956 176.738C222.322 175.555 224.857 171.752 226.716 171.33C227.645 171.161 228.237 171.583 228.744 172.175C229.251 172.766 229.42 173.442 229.42 173.442Z" fill="#E1ECFF"/>
<path d="M229.42 173.442C229.42 173.442 227.814 178.935 222.744 182.23C217.674 185.526 214.801 185.864 214.801 185.864C214.801 185.864 211.506 185.357 211.506 183.244C213.787 183.075 219.195 182.399 222.998 179.357C226.124 176.907 227.899 173.949 228.744 172.09C229.251 172.766 229.42 173.442 229.42 173.442Z" fill="#C5DFFF"/>
<path d="M226.293 173.019C223.251 177.16 219.786 178.765 216.913 179.779C214.04 180.793 212.097 180.371 212.097 180.371C212.097 180.371 210.576 178.934 210.829 177.16C210.914 176.146 211.59 175.047 213.364 174.033C213.364 174.033 218.181 173.442 221.223 167.527C224.265 161.612 222.997 161.02 223.758 159.837C224.265 158.992 226.124 159.077 227.391 159.837C227.983 160.175 228.49 160.767 228.659 161.443C229.419 163.555 229.335 168.879 226.293 173.019Z" fill="#E1ECFF"/>
<path d="M226.293 173.019C223.251 177.16 219.786 178.765 216.913 179.779C214.04 180.793 212.097 180.371 212.097 180.371C212.097 180.371 210.576 178.934 210.829 177.16C213.956 176.991 220.378 176.146 223.504 171.498C226.631 166.935 227.307 162.119 227.391 159.837C227.983 160.175 228.49 160.767 228.659 161.443C229.419 163.555 229.335 168.879 226.293 173.019Z" fill="#C5DFFF"/>
<path d="M220.631 170.4C217.758 174.287 214.463 175.892 211.674 176.822C208.97 177.751 207.111 177.329 207.111 177.329C207.111 177.329 205.675 175.977 205.928 174.287C206.013 173.357 206.689 172.259 208.379 171.329C208.379 171.329 212.942 170.822 215.815 165.161C218.688 159.584 217.505 158.992 218.181 157.809C218.688 157.049 220.378 157.049 221.645 157.809C222.237 158.147 222.659 158.654 222.913 159.33C223.589 161.443 223.504 166.513 220.631 170.4Z" fill="#E1ECFF"/>
<path d="M220.631 170.4C217.758 174.287 214.463 175.892 211.674 176.822C208.97 177.751 207.111 177.329 207.111 177.329C207.111 177.329 205.675 175.977 205.928 174.287C208.886 174.118 214.97 173.357 218.012 168.963C220.969 164.654 221.561 160.091 221.73 157.894C222.321 158.232 222.744 158.739 222.997 159.415C223.589 161.443 223.504 166.513 220.631 170.4Z" fill="#C5DFFF"/>
<path d="M218.349 177.92C218.433 180.371 217.842 182.399 217.166 183.92C216.236 185.863 215.222 186.877 215.222 186.877C215.222 186.877 193.844 194.398 171.367 175.639C159.79 166.006 150.495 153.415 144.242 143.529C138.327 134.149 135.032 127.136 135.032 127.136C135.032 127.136 133.257 121.643 136.553 116.911C137.567 115.39 139.088 113.954 141.454 112.771C145.425 110.743 148.721 110.574 151.34 111.25C155.734 112.348 158.185 115.644 158.185 115.644C158.185 115.644 161.48 122.911 166.381 131.868C172.127 142.261 180.07 154.936 187.675 160.851C201.787 171.836 213.532 167.611 213.532 167.611C213.532 167.611 214.8 168.879 216.067 170.822C216.997 172.597 218.264 175.132 218.349 177.92Z" fill="#E1ECFF"/>
<path d="M166.128 131.699C164.354 134.487 160.889 138.628 154.467 140.994C150.327 142.599 146.693 143.191 144.074 143.444C138.159 134.065 134.863 127.051 134.863 127.051C134.863 127.051 131.821 117.503 141.201 112.602C151.763 107.109 157.932 115.475 157.932 115.475C157.932 115.475 161.227 122.826 166.128 131.699Z" fill="#C5DFFF"/>
<path d="M217.082 183.835C216.152 185.779 215.138 186.793 215.138 186.793C215.138 186.793 193.76 194.313 171.283 175.554C159.706 165.921 150.411 153.331 144.158 143.444C138.243 134.065 134.948 127.051 134.948 127.051C134.948 127.051 133.173 121.559 136.469 116.827C139.257 123.164 151.172 149.021 166.297 163.893C183.62 180.878 192.999 182.99 209.646 183.666C212.35 183.751 214.885 183.835 217.082 183.835Z" fill="#C5DFFF"/>
<path d="M215.814 170.738C211.505 172.005 205.505 172.935 199.252 170.991C187.591 167.358 178.043 160.006 168.663 145.895C160.974 134.234 153.538 116.996 151.172 111.165C155.566 112.264 158.016 115.559 158.016 115.559C158.016 115.559 161.312 122.826 166.213 131.783C171.959 142.177 179.902 154.852 187.507 160.767C201.618 171.752 213.364 167.527 213.364 167.527C213.364 167.527 214.547 168.71 215.814 170.738Z" fill="#F8FBFF"/>
<path d="M157.255 157.472C155.143 157.472 153.791 156.965 153.706 156.965C153.115 156.711 152.777 156.035 153.03 155.444C153.284 154.852 153.96 154.514 154.551 154.768C154.72 154.852 158.692 156.204 164.015 153.331C169.339 150.373 170.606 145.135 170.606 145.135C170.775 144.543 171.367 144.121 171.958 144.29C172.55 144.459 172.972 145.05 172.803 145.642C172.719 145.895 171.367 151.895 165.029 155.359C162.072 157.049 159.283 157.472 157.255 157.472Z" fill="#C5DFFF"/>
<path d="M173.396 176.4C172.72 176.4 172.213 175.893 172.213 175.217C172.213 174.541 172.72 174.034 173.396 174.034C173.48 174.034 178.719 173.949 181.677 170.316C184.719 166.598 184.127 161.359 184.127 161.274C184.043 160.598 184.55 160.091 185.141 160.007C185.733 159.922 186.324 160.429 186.409 161.021C186.409 161.274 187.085 167.274 183.451 171.752C179.818 176.4 173.649 176.4 173.396 176.4Z" fill="#C5DFFF"/>
<path d="M191.984 186.286C191.562 186.286 191.055 186.033 190.886 185.526C190.632 184.934 190.97 184.258 191.562 184.005C191.646 184.005 196.378 182.061 197.646 176.907C198.913 171.668 197.139 168.626 197.054 168.541C196.716 168.034 196.885 167.274 197.392 166.936C197.899 166.598 198.66 166.767 198.998 167.274C199.082 167.443 201.448 171.245 199.843 177.414C198.237 183.751 192.576 186.033 192.322 186.117C192.238 186.286 192.153 186.286 191.984 186.286Z" fill="#C5DFFF"/>
<path d="M166.804 121.559C166.804 121.559 166.635 122.573 166.043 124.094C164.86 126.967 162.072 131.699 155.734 135.839C145.932 142.177 137.229 139.473 137.229 139.473C137.229 139.473 130.976 131.276 129.708 119.953C128.948 113.447 133.257 108.377 138.834 105.926C142.975 104.152 147.791 103.814 151.678 105.504C160.889 109.644 166.804 121.559 166.804 121.559Z" fill="#2F5681"/>
<path d="M166.805 121.559C166.805 121.559 166.636 122.573 166.044 124.094C166.044 124.009 165.96 124.009 165.96 123.925C158.101 113.531 151.933 111.419 151.933 111.419C151.933 111.419 149.651 116.827 142.131 113.7C136.892 111.588 137.821 107.87 138.92 105.926C143.06 104.152 147.877 103.814 151.764 105.504C160.89 109.644 166.805 121.559 166.805 121.559Z" fill="#384D89"/>
<path d="M64.1366 76.8584C62.5311 76.6049 61.0101 77.6189 60.6721 79.1399C59.9116 82.3509 58.7286 87.8434 58.2216 92.0684C57.7991 95.6174 57.6301 98.5749 57.5456 100.603C57.4611 102.039 58.5596 103.391 59.9961 103.645C61.6861 103.898 63.2071 102.715 63.3761 101.025C63.5451 98.4059 63.9676 94.4344 64.8971 89.8714C65.7421 85.5619 66.3336 82.5199 66.7561 80.4919C67.0096 78.8019 65.8266 77.1964 64.1366 76.8584Z" fill="white"/>
<path d="M49.5178 85.8998C49.9403 84.2098 51.7148 83.2803 53.3203 84.0408C55.8553 85.1393 59.5733 86.7448 63.1223 88.0123C66.7558 89.2798 70.1358 90.5473 72.2483 91.3923C73.6848 91.8993 74.4453 93.4203 74.1073 94.9413C73.6848 96.5468 71.9948 97.5608 70.3893 97.0538C67.6008 96.2933 63.2068 94.8568 58.5593 92.9133C54.4188 91.1388 52.0528 89.7868 50.6163 88.9418C49.6868 88.2658 49.2643 87.0828 49.5178 85.8998Z" fill="white"/>
<path d="M100.47 56.2402C98.4425 55.9022 96.499 57.2542 95.992 59.2822C95.0625 63.5072 93.7105 70.6052 93.119 76.1822C92.6965 80.8297 92.443 84.6323 92.443 87.2518C92.3585 89.1953 93.795 90.8008 95.654 91.0543C97.851 91.3923 99.7945 89.7868 99.9635 87.5897C100.132 84.2097 100.639 79.0552 101.569 73.1402C102.498 67.4787 103.259 63.5072 103.681 60.8877C104.188 58.6907 102.667 56.5782 100.47 56.2402Z" fill="white"/>
<path d="M81.712 68.4082C82.219 66.2112 84.585 65.0282 86.613 65.8732C89.9085 67.2252 94.725 69.1687 99.3725 70.7742C104.105 72.3797 108.499 73.9007 111.287 74.9147C113.146 75.5907 114.245 77.5341 113.738 79.4776C113.231 81.5901 111.034 82.9422 108.921 82.3507C105.288 81.4212 99.626 79.7312 93.542 77.2807C88.134 75.0837 85.0075 73.3936 83.233 72.2951C82.05 71.3656 81.374 69.8447 81.712 68.4082Z" fill="white"/>
<path d="M386.504 217.72C386.504 217.72 390.813 218.987 393.94 222.621C397.066 226.339 397.489 232.338 397.489 232.338L414.558 224.395C414.558 224.395 405.939 227.691 403.066 221.945C400.193 216.199 409.741 207.073 409.741 207.073C409.741 207.073 399.179 215.692 395.038 214.424C390.898 213.157 390.222 208.002 390.222 208.002L386.504 217.72Z" fill="#F8CF61"/>
<path d="M370.364 215.776L373.406 215.861L378.138 181.216L367.406 179.188L370.364 215.776Z" fill="#D2E9FF"/>
<path d="M377.799 215.946L384.897 183.498L395.121 188.483L379.658 216.791L377.799 215.946Z" fill="#D2E9FF"/>
<path d="M39.6298 52.1844L37.8553 56.0714L0.759766 44.6639L5.74526 30.0454L39.6298 52.1844Z" fill="#FEC272"/>
<path d="M45.2075 39.3403L41.912 44.0723L0 12.1313L11.5765 0.0478516L45.2075 39.3403Z" fill="#FEC272"/>
</svg>
