<svg width="150" height="32" viewBox="0 0 150 32" fill="none" xmlns="http://www.w3.org/2000/svg">
<path d="M60.255 26.625L58.4416 18.0085C57.8071 15.136 57.2629 12.2342 56.8394 9.36161H56.7784C56.3549 12.2342 55.8107 15.136 55.2067 18.0085L53.3921 26.625H46.4389L42.085 5.09918H47.1638L48.6147 12.8687C49.1589 15.8315 49.6421 18.8847 50.0058 21.878H50.0668C50.5501 18.8847 51.1248 15.8621 51.7899 12.8687L53.4824 5.09918H60.1634L61.8559 12.8687C62.521 15.8621 63.0957 18.8847 63.5484 21.878H63.6095C64.0024 18.8847 64.4869 15.8315 65.0298 12.8687L66.4502 5.09918H71.5596L67.2056 26.625H60.2524H60.255Z" fill="#07E0FE"/>
<path d="M73.6465 9.06024V5.09918H78.6655V9.06024H73.6465ZM73.6465 26.625V11.2665H78.6655V26.625H73.6465Z" fill="#07E0FE"/>
<path d="M95.3846 15.9231H90.6084C90.6084 14.532 89.8226 13.9585 88.5522 13.9585C87.404 13.9585 86.7682 14.4124 86.7682 15.1678C86.7682 16.1049 87.5845 16.3771 89.9128 16.9811C92.7854 17.7364 95.9288 18.5833 95.9288 22.1807C95.9288 25.1435 93.2686 27.1082 88.7938 27.1082C84.319 27.1082 81.4478 25.3546 81.4478 21.6364H86.496C86.496 23.0568 87.2514 23.8134 88.8536 23.8134C90.1239 23.8134 90.789 23.2997 90.789 22.5431C90.789 21.4241 89.7908 21.1227 87.2514 20.4577C84.6217 19.7926 81.8102 19.097 81.8102 15.5899C81.8102 12.8089 84.1982 10.7833 88.5827 10.7833C92.9672 10.7833 95.3846 12.4758 95.3846 15.9231Z" fill="#07E0FE"/>
<path d="M103.819 12.8089C104.816 11.5691 106.268 10.8736 107.96 10.8736C111.407 10.8736 113.584 13.02 113.584 17.1922V26.625H108.564V17.7364C108.564 15.7413 107.748 14.7736 106.328 14.7736C104.787 14.7736 103.758 16.0134 103.758 18.6736V26.625H98.7388V5.09918H103.758V12.8089H103.819Z" fill="#07E0FE"/>
<path d="M123.473 26.625V5.09918H128.703V26.625H123.473Z" fill="#07E0FE"/>
<path d="M142.851 9.54345V26.625H137.621V9.54345H131.03V5.09918H149.442V9.54345H142.851Z" fill="#07E0FE"/>
<path d="M34.5178 10.988L35.2146 6.53861C35.8046 2.73268 34.8929 0 29.4263 0H27.6041L26.9072 4.44935H27.4972C29.266 4.44935 29.3729 5.1462 29.0511 7.07522L28.3543 11.4699C27.9258 14.2039 28.8362 15.1677 31.3553 15.7044L31.3019 16.0261C28.7294 16.1863 27.3892 17.7949 27.014 20.1537L26.2638 24.9782C25.9955 26.6936 25.1918 27.4972 22.9411 27.4972H19.5917L24.013 0H17.9564L13.535 27.496H10.4526C7.66525 27.496 7.29013 26.7457 7.61184 24.6552L8.30868 20.4207C8.73721 17.9551 7.88015 16.4546 5.30769 16.1329L5.3611 15.8112C7.98697 15.436 9.32724 14.0958 9.75577 11.3084L10.3992 7.07395C10.7209 5.03684 11.4712 4.44808 12.9717 4.44808H13.6151L14.3107 0H12.3816C6.96841 0 5.09152 2.35883 4.55617 6.00326L3.80592 10.988C3.53761 12.7568 2.84077 13.4002 0.750248 13.5604L0 18.3849C1.87562 18.4917 2.51905 19.0817 2.25075 20.7971L1.5539 25.2999C0.857063 29.6412 2.25075 32 7.87888 32H24.6552C29.2114 32 31.6236 30.1244 32.2124 25.8365L32.9092 20.7984C33.1241 19.083 34.1414 18.3862 36.0183 18.3862L36.7685 13.5617C34.678 13.4015 34.2495 12.758 34.5178 10.9892V10.988Z" fill="#07E0FE"/>
</svg>
