<svg width="111" height="28" viewBox="0 0 111 28" fill="none" xmlns="http://www.w3.org/2000/svg">
<g clip-path="url(#clip0_541_1838)">
<path d="M29.9414 27.9168C30.0476 27.5499 30.131 27.1603 30.2675 26.7896C30.6466 25.7531 31.0447 24.7242 31.4429 23.6953C31.8978 22.5188 32.3718 21.3462 32.8154 20.166C33.2628 18.9706 33.6761 17.7601 34.1235 16.5648C34.5633 15.3997 35.0372 14.2497 35.4808 13.0884C35.8448 12.1314 36.1898 11.1668 36.5462 10.2022C37.206 8.40913 37.8695 6.6161 38.533 4.82307C39.0904 3.31753 39.6439 1.81199 40.2164 0.310237C40.2657 0.185405 40.4515 0.0265295 40.5728 0.0265295C42.8895 0.0151812 45.2099 0.0265295 47.5265 0.034095C47.572 0.034095 47.6137 0.0757054 47.7199 0.124881C47.2611 1.30132 46.7834 2.47019 46.3473 3.65042C45.8203 5.07273 45.335 6.51397 44.8042 7.93628C44.4554 8.88198 44.0535 9.80875 43.6895 10.7469C43.4089 11.4694 43.1511 12.1957 42.8857 12.922C42.5293 13.8979 42.1842 14.8814 41.8165 15.8536C41.4563 16.8144 41.0695 17.7601 40.7093 18.7209C40.3491 19.6855 40.0155 20.6615 39.6553 21.6261C39.2723 22.6512 38.8742 23.665 38.4837 24.6864C38.0932 25.7077 37.7102 26.7328 37.3045 27.7504C37.2628 27.8563 37.0998 27.9887 36.9936 27.9887C34.6922 28.0001 32.3907 27.9925 30.0893 27.9887C30.0589 27.9887 30.0286 27.9584 29.9414 27.913V27.9168Z" fill="white"/>
<path d="M6.40768 17.238C4.27684 11.5261 2.1498 5.81789 0 0.0529587C0.197159 0.0378276 0.360195 0.0113483 0.523231 0.0113483C2.85881 0.0113483 5.19439 0.0226966 7.52618 0C7.88258 0 8.0532 0.117266 8.15557 0.423669C8.52335 1.5131 8.89871 2.59876 9.2627 3.68819C9.52052 4.47122 9.67597 5.29965 10.04 6.02594C10.3774 6.69927 10.0589 7.22129 9.89588 7.78114C9.64185 8.64739 9.30441 9.49095 8.99729 10.3421C8.70534 11.1478 8.39065 11.946 8.11387 12.7555C7.82192 13.599 7.57168 14.4577 7.27973 15.3013C7.05224 15.9633 6.78304 16.6139 6.5328 17.2683L6.40389 17.2418L6.40768 17.238Z" fill="white"/>
<path d="M25.8731 17.2758C23.8825 11.5524 21.8882 5.82913 19.8711 0.0339355H27.2456C27.4959 0.722398 27.7575 1.44869 28.0153 2.1712C28.22 2.74239 28.421 3.31737 28.6181 3.89235C28.9101 4.74726 29.1148 5.63999 29.5016 6.44572C29.9603 7.40654 29.3954 8.14039 29.1338 8.94234C28.7926 9.97882 28.3907 11.0002 28.0115 12.0253C27.6703 12.9445 27.3214 13.8599 26.9726 14.7754C26.6579 15.6038 26.3356 16.4284 26.0172 17.2568L25.8807 17.2758H25.8731Z" fill="white"/>
<path d="M10.4725 27.928C12.3607 22.2312 14.2337 16.576 16.1485 10.8035C16.3077 10.9359 16.4935 11.0153 16.5314 11.1364C17.047 12.7402 17.5248 14.3555 18.0442 15.9594C18.484 17.3212 18.9694 18.6716 19.4319 20.0258C19.6063 20.5365 19.8528 21.0358 19.9172 21.5616C19.9589 21.8945 19.739 22.2652 19.6253 22.617C19.3333 23.5135 19.0338 24.4063 18.7457 25.299C18.484 26.1047 18.2452 26.9142 17.9608 27.7086C17.9153 27.8372 17.6764 27.9848 17.5286 27.9848C15.2461 27.9999 12.9598 27.9886 10.6773 27.9848C10.628 27.9848 10.5787 27.9583 10.4688 27.9242L10.4725 27.928Z" fill="white"/>
<path d="M49.373 7.26675C49.373 5.83308 50.6129 4.72852 52.0802 4.72852C53.5475 4.72852 54.7873 5.83686 54.7873 7.26675C54.7873 8.69663 53.5816 9.83903 52.0802 9.83903C50.5788 9.83903 49.373 8.70041 49.373 7.26675ZM49.9607 12.5399H54.2338V27.7088H49.9607V12.5361V12.5399Z" fill="white"/>
<path d="M57.5967 22.8252H61.6081C61.6081 23.7028 62.3588 24.6485 63.8603 24.6485C65.1001 24.6485 66.048 24.1265 66.048 23.2489C66.048 22.5983 65.5248 22.2729 64.3835 21.9779L62.3626 21.4899C58.446 20.4496 57.9265 18.267 57.9265 16.6707C57.9265 14.3254 60.3721 12.1465 63.8982 12.1465C66.6698 12.1465 69.9343 13.5121 69.9002 17.0943H65.8205C65.8205 16.0843 64.9712 15.5321 63.9627 15.5321C62.9541 15.5321 62.1996 16.02 62.1996 16.8031C62.1996 17.518 62.8517 17.8774 63.701 18.1043L66.2148 18.755C69.8698 19.7309 70.3248 22.0081 70.3248 23.2451C70.3248 26.434 67.0641 27.9963 63.9323 27.9963C60.8005 27.9963 57.6346 26.173 57.6043 22.8214L57.5967 22.8252Z" fill="white"/>
<path d="M88.589 19.3715V27.7049H84.316V19.8292C84.316 17.4196 82.879 16.3453 81.4116 16.3453C79.9443 16.3453 77.9879 17.1586 77.9879 19.9275V27.7087H73.7148V4.43335H77.9879V14.9154C78.64 12.9937 81.0856 12.1502 82.5567 12.1502C86.5378 12.1502 88.6269 14.8208 88.5928 19.3753L88.589 19.3715Z" fill="white"/>
<path d="M92.1113 7.26675C92.1113 5.83308 93.3512 4.72852 94.8185 4.72852C96.2858 4.72852 97.5256 5.83686 97.5256 7.26675C97.5256 8.69663 96.3199 9.83903 94.8185 9.83903C93.317 9.83903 92.1113 8.70041 92.1113 7.26675ZM92.699 12.5399H96.9721V27.7088H92.699V12.5361V12.5399Z" fill="white"/>
<path d="M110.25 15.827H107.019V27.7087H102.746V15.827H99.9746V12.5398H102.746V6.97534H107.019V12.5398H110.25V15.827Z" fill="white"/>
</g>
<defs>
<clipPath id="clip0_541_1838">
<rect width="110.25" height="28" fill="white"/>
</clipPath>
</defs>
</svg>
