<svg width="114" height="30" viewBox="0 0 114 30" fill="none" xmlns="http://www.w3.org/2000/svg">
<path d="M35.98 4.43L29.575 29H22.33L18.41 12.83L14.35 29H7.105L0.875 4.43H7.28L10.815 22.315L15.19 4.43H21.77L25.97 22.315L29.54 4.43H35.98ZM41.9915 7.44C40.9415 7.44 40.0782 7.13667 39.4015 6.53C38.7482 5.9 38.4215 5.13 38.4215 4.22C38.4215 3.28667 38.7482 2.51667 39.4015 1.91C40.0782 1.28 40.9415 0.964998 41.9915 0.964998C43.0182 0.964998 43.8582 1.28 44.5115 1.91C45.1882 2.51667 45.5265 3.28667 45.5265 4.22C45.5265 5.13 45.1882 5.9 44.5115 6.53C43.8582 7.13667 43.0182 7.44 41.9915 7.44ZM44.9665 9.47V29H38.9815V9.47H44.9665ZM57.2488 29.28C55.5455 29.28 54.0288 28.9883 52.6988 28.405C51.3688 27.8217 50.3188 27.0283 49.5488 26.025C48.7788 24.9983 48.3471 23.855 48.2538 22.595H54.1688C54.2388 23.2717 54.5538 23.82 55.1138 24.24C55.6738 24.66 56.3621 24.87 57.1788 24.87C57.9255 24.87 58.4971 24.73 58.8938 24.45C59.3138 24.1467 59.5238 23.7617 59.5238 23.295C59.5238 22.735 59.2321 22.3267 58.6488 22.07C58.0655 21.79 57.1205 21.4867 55.8138 21.16C54.4138 20.8333 53.2471 20.495 52.3138 20.145C51.3805 19.7717 50.5755 19.2 49.8988 18.43C49.2221 17.6367 48.8838 16.575 48.8838 15.245C48.8838 14.125 49.1871 13.11 49.7938 12.2C50.4238 11.2667 51.3338 10.5317 52.5238 9.995C53.7371 9.45833 55.1721 9.19 56.8288 9.19C59.2788 9.19 61.2038 9.79667 62.6038 11.01C64.0271 12.2233 64.8438 13.8333 65.0538 15.84H59.5238C59.4305 15.1633 59.1271 14.6267 58.6138 14.23C58.1238 13.8333 57.4705 13.635 56.6538 13.635C55.9538 13.635 55.4171 13.775 55.0438 14.055C54.6705 14.3117 54.4838 14.6733 54.4838 15.14C54.4838 15.7 54.7755 16.12 55.3588 16.4C55.9655 16.68 56.8988 16.96 58.1588 17.24C59.6055 17.6133 60.7838 17.9867 61.6938 18.36C62.6038 18.71 63.3971 19.2933 64.0738 20.11C64.7738 20.9033 65.1355 21.9767 65.1588 23.33C65.1588 24.4733 64.8321 25.5 64.1788 26.41C63.5488 27.2967 62.6271 27.9967 61.4138 28.51C60.2238 29.0233 58.8355 29.28 57.2488 29.28ZM80.8254 9.26C83.0654 9.26 84.8621 10.0067 86.2154 11.5C87.5687 12.97 88.2454 15 88.2454 17.59V29H82.2954V18.395C82.2954 17.0883 81.9571 16.0733 81.2804 15.35C80.6037 14.6267 79.6937 14.265 78.5504 14.265C77.4071 14.265 76.4971 14.6267 75.8204 15.35C75.1437 16.0733 74.8054 17.0883 74.8054 18.395V29H68.8204V3.1H74.8054V12.095C75.4121 11.2317 76.2404 10.5433 77.2904 10.03C78.3404 9.51667 79.5187 9.26 80.8254 9.26ZM95.4144 7.44C94.3644 7.44 93.501 7.13667 92.8244 6.53C92.171 5.9 91.8444 5.13 91.8444 4.22C91.8444 3.28667 92.171 2.51667 92.8244 1.91C93.501 1.28 94.3644 0.964998 95.4144 0.964998C96.441 0.964998 97.281 1.28 97.9344 1.91C98.611 2.51667 98.9494 3.28667 98.9494 4.22C98.9494 5.13 98.611 5.9 97.9344 6.53C97.281 7.13667 96.441 7.44 95.4144 7.44ZM98.3894 9.47V29H92.4044V9.47H98.3894ZM113.612 23.925V29H110.567C108.397 29 106.705 28.475 105.492 27.425C104.278 26.3517 103.672 24.6133 103.672 22.21V14.44H101.292V9.47H103.672V4.71H109.657V9.47H113.577V14.44H109.657V22.28C109.657 22.8633 109.797 23.2833 110.077 23.54C110.357 23.7967 110.823 23.925 111.477 23.925H113.612Z" fill="white"/>
</svg>
