<svg width="32" height="32" viewBox="0 0 32 32" fill="none" xmlns="http://www.w3.org/2000/svg">
<path d="M0 6.5641C0 2.93885 2.93885 0 6.5641 0H25.4359C29.0612 0 32 2.93885 32 6.5641V25.4359C32 29.0611 29.0612 32 25.4359 32H6.5641C2.93885 32 0 29.0611 0 25.4359V6.5641Z" fill="#FD6D55"/>
<path d="M22.4196 13.21C21.808 11.8058 20.7526 10.641 19.4154 9.89416C18.0782 9.14732 16.5329 8.85967 15.0165 9.07533C13.5001 9.29098 12.0963 9.99803 11.0204 11.0881C9.94438 12.1781 9.25561 13.591 9.05965 15.11C8.10623 15.3383 7.26987 15.9088 6.70938 16.7132C6.1489 17.5175 5.90333 18.4997 6.01931 19.4732C6.13529 20.4467 6.60474 21.3437 7.33851 21.9939C8.07229 22.644 9.01928 23.0021 9.99965 23H20.9996C22.199 22.9967 23.3572 22.5624 24.263 21.7763C25.1689 20.9902 25.7619 19.9047 25.9341 18.7177C26.1063 17.5308 25.846 16.3215 25.2009 15.3105C24.5557 14.2994 23.5686 13.5539 22.4196 13.21ZM20.9996 21H9.99965C9.46921 21 8.96051 20.7893 8.58543 20.4142C8.21036 20.0391 7.99965 19.5304 7.99965 19C7.99965 18.4696 8.21036 17.9609 8.58543 17.5858C8.96051 17.2107 9.46921 17 9.99965 17C10.2649 17 10.5192 16.8946 10.7068 16.7071C10.8943 16.5196 10.9996 16.2652 10.9996 16C11.0022 14.8173 11.4239 13.6738 12.1899 12.7726C12.9559 11.8714 14.0165 11.271 15.1834 11.0779C16.3503 10.8848 17.5478 11.1116 18.5632 11.718C19.5787 12.3244 20.3463 13.2711 20.7296 14.39C20.7883 14.56 20.8917 14.711 21.029 14.8271C21.1663 14.9433 21.3323 15.0203 21.5096 15.05C22.2426 15.1853 22.899 15.5885 23.351 16.1813C23.8029 16.774 24.018 17.5138 23.9543 18.2564C23.8907 18.999 23.5528 19.6914 23.0066 20.1986C22.4604 20.7058 21.745 20.9915 20.9996 21Z" fill="white"/>
</svg>
