<svg width="32" height="32" viewBox="0 0 32 32" fill="none" xmlns="http://www.w3.org/2000/svg">
<path d="M0 6.5641C0 2.93885 2.93885 0 6.5641 0H25.4359C29.0612 0 32 2.93885 32 6.5641V25.4359C32 29.0611 29.0612 32 25.4359 32H6.5641C2.93885 32 0 29.0611 0 25.4359V6.5641Z" fill="#FB78FF"/>
<g clip-path="url(#clip0_307_2665)">
<path d="M11 8V24H21V8H11ZM10 6H22C22.2652 6 22.5196 6.10536 22.7071 6.29289C22.8946 6.48043 23 6.73478 23 7V25C23 25.2652 22.8946 25.5196 22.7071 25.7071C22.5196 25.8946 22.2652 26 22 26H10C9.73478 26 9.48043 25.8946 9.29289 25.7071C9.10536 25.5196 9 25.2652 9 25V7C9 6.73478 9.10536 6.48043 9.29289 6.29289C9.48043 6.10536 9.73478 6 10 6ZM16 21C16.2652 21 16.5196 21.1054 16.7071 21.2929C16.8946 21.4804 17 21.7348 17 22C17 22.2652 16.8946 22.5196 16.7071 22.7071C16.5196 22.8946 16.2652 23 16 23C15.7348 23 15.4804 22.8946 15.2929 22.7071C15.1054 22.5196 15 22.2652 15 22C15 21.7348 15.1054 21.4804 15.2929 21.2929C15.4804 21.1054 15.7348 21 16 21Z" fill="white"/>
</g>
<defs>
<clipPath id="clip0_307_2665">
<rect width="24" height="24" fill="white" transform="translate(4 4)"/>
</clipPath>
</defs>
</svg>
