<svg width="12" height="11" viewBox="0 0 12 11" fill="none" xmlns="http://www.w3.org/2000/svg">
<path d="M6.293 1.12994C6.48053 0.942474 6.73484 0.837158 7 0.837158C7.26516 0.837158 7.51947 0.942474 7.707 1.12994L11.707 5.12994C11.8945 5.31747 11.9998 5.57178 11.9998 5.83694C11.9998 6.10211 11.8945 6.35642 11.707 6.54394L7.707 10.5439C7.5184 10.7261 7.2658 10.8269 7.0036 10.8246C6.7414 10.8223 6.49059 10.7172 6.30518 10.5318C6.11977 10.3464 6.0146 10.0955 6.01233 9.83335C6.01005 9.57115 6.11084 9.31855 6.293 9.12994L8.586 6.83694H1C0.734784 6.83694 0.48043 6.73159 0.292893 6.54405C0.105357 6.35651 0 6.10216 0 5.83694C0 5.57173 0.105357 5.31737 0.292893 5.12984C0.48043 4.9423 0.734784 4.83694 1 4.83694H8.586L6.293 2.54394C6.10553 2.35642 6.00021 2.10211 6.00021 1.83694C6.00021 1.57178 6.10553 1.31747 6.293 1.12994Z" fill="white"/>
</svg>
