<svg width="12" height="11" viewBox="0 0 12 11" fill="none" xmlns="http://www.w3.org/2000/svg">
<path d="M5.707 1.12994C5.51947 0.942474 5.26516 0.837158 5 0.837158C4.73484 0.837158 4.48053 0.942474 4.293 1.12994L0.293 5.12994C0.105529 5.31747 0.000213623 5.57178 0.000213623 5.83694C0.000213623 6.10211 0.105529 6.35642 0.293 6.54394L4.293 10.5439C4.4816 10.7261 4.7342 10.8269 4.9964 10.8246C5.2586 10.8223 5.50941 10.7172 5.69482 10.5318C5.88023 10.3464 5.9854 10.0955 5.98767 9.83335C5.98995 9.57115 5.88916 9.31855 5.707 9.12994L3.414 6.83694H11C11.2652 6.83694 11.5196 6.73159 11.7071 6.54405C11.8946 6.35651 12 6.10216 12 5.83694C12 5.57173 11.8946 5.31737 11.7071 5.12984C11.5196 4.9423 11.2652 4.83694 11 4.83694H3.414L5.707 2.54394C5.89447 2.35642 5.99979 2.10211 5.99979 1.83694C5.99979 1.57178 5.89447 1.31747 5.707 1.12994Z" fill="white"/>
</svg>
