<svg width="16" height="17" viewBox="0 0 16 17" fill="none" xmlns="http://www.w3.org/2000/svg">
<path d="M7.25 1.75C7.25 1.19772 7.69772 0.75 8.25 0.75C8.80229 0.75 9.25 1.19772 9.25 1.75L7.25 1.75ZM9.25 14.25C9.25 14.8023 8.80229 15.25 8.25 15.25C7.69772 15.25 7.25 14.8023 7.25 14.25L9.25 14.25ZM9.25 1.75L9.25 14.25L7.25 14.25L7.25 1.75L9.25 1.75Z" fill="#001A37"/>
<path d="M1.04289 9.45711C0.652369 9.06658 0.652369 8.43342 1.04289 8.04289C1.43342 7.65237 2.06658 7.65237 2.45711 8.04289L1.04289 9.45711ZM14.0429 8.04289C14.4334 7.65237 15.0666 7.65237 15.4571 8.04289C15.8476 8.43342 15.8476 9.06658 15.4571 9.45711L14.0429 8.04289ZM2.45711 8.04289L8.67426 14.2601L7.26005 15.6743L1.04289 9.45711L2.45711 8.04289ZM7.82574 14.2601L14.0429 8.04289L15.4571 9.45711L9.23995 15.6743L7.82574 14.2601ZM8.67426 14.2601C8.43995 14.0257 8.06005 14.0257 7.82574 14.2601L9.23995 15.6743C8.69322 16.221 7.80678 16.221 7.26005 15.6743L8.67426 14.2601Z" fill="#001A37"/>
</svg>
