<svg width="164" height="36" viewBox="0 0 164 36" fill="none" xmlns="http://www.w3.org/2000/svg">
<path d="M68.4906 30.2687L66.4291 20.4755C65.7068 17.212 65.0898 13.9106 64.6073 10.6472H64.54C64.0575 13.9135 63.4405 17.212 62.7533 20.4755L60.6918 30.2687H52.7876L47.8398 5.79883H53.6122L55.2615 14.63C55.8814 17.9987 56.4312 21.4697 56.8435 24.8706H56.9108C57.4605 21.4697 58.1126 18.0308 58.87 14.63L60.7941 5.79883H68.3883L70.3124 14.63C71.0698 18.0308 71.7219 21.4697 72.2366 24.8706H72.3038C72.7512 21.4697 73.301 17.9987 73.918 14.63L75.5321 5.79883H81.3396L76.3919 30.2687H68.4877H68.4906Z" fill="#07E0FE"/>
<path d="M83.7139 10.2992V5.7959H89.419V10.2992H83.7139ZM83.7139 30.2657V12.8082H89.419V30.2657H83.7139Z" fill="#07E0FE"/>
<path d="M108.421 18.1009H102.99C102.99 16.5189 102.095 15.8668 100.654 15.8668C99.3467 15.8668 98.6273 16.3814 98.6273 17.2412C98.6273 18.3056 99.5543 18.6155 102.201 19.3027C105.464 20.1624 109.04 21.1245 109.04 25.2126C109.04 28.5813 106.017 30.8154 100.929 30.8154C95.8406 30.8154 92.5771 28.821 92.5771 24.5956H98.3174C98.3174 26.2097 99.1771 27.0694 100.999 27.0694C102.443 27.0694 103.198 26.4846 103.198 25.6249C103.198 24.3528 102.063 24.0107 99.1771 23.2533C96.1886 22.496 92.9924 21.7064 92.9924 17.7207C92.9924 14.5597 95.7061 12.2554 100.692 12.2554C105.678 12.2554 108.423 14.1795 108.423 18.098L108.421 18.1009Z" fill="#07E0FE"/>
<path d="M118.01 14.5627C119.144 13.1532 120.794 12.3637 122.718 12.3637C126.636 12.3637 129.11 14.8025 129.11 19.5456V30.2687H123.405V20.1655C123.405 17.8963 122.478 16.7968 120.861 16.7968C119.109 16.7968 117.94 18.2063 117.94 21.2299V30.2687H112.234V5.79883H117.94V14.5627H118.007H118.01Z" fill="#07E0FE"/>
<path d="M133.642 30.2687V5.79883H139.587V30.2687H133.642Z" fill="#07E0FE"/>
<path d="M155.67 10.8519V30.2687H149.725V10.8519H142.233V5.79883H163.162V10.8519H155.67Z" fill="#07E0FE"/>
<path d="M38.8921 12.3636C39.1932 10.5535 39.9184 8.20242 40.0968 7.35732C40.8805 3.01486 39.433 0 33.2834 0H30.0872L29.2421 5.12615C30.0258 5.06474 30.6282 5.00625 31.0522 5.00625C32.7395 5.00625 33.5232 5.67005 33.2834 7.35732C32.9822 9.04459 32.257 11.3372 32.0172 12.9046C31.4733 15.9808 32.4997 17.0657 35.3333 17.6681L35.2719 18.0307C32.3769 18.0307 30.8709 19.8408 30.3884 22.6744C30.0872 24.5429 29.9673 26.6542 29.786 28.1017C29.5463 30.0317 28.5199 30.9353 25.9875 30.9353H21.9608L27.1952 0.00292421H20.3818L15.1474 30.9353H11.6969C8.5621 30.9353 7.83689 30.0902 8.31939 27.7391C8.62058 26.2302 9.10308 24.5429 9.40427 22.9755C9.94818 20.2005 8.92178 18.5132 6.02681 18.1506L6.08821 17.788C9.04167 17.3669 10.5506 16.0393 11.0945 12.9046C11.3343 11.3372 11.4571 9.04459 11.7583 7.35732C11.9981 5.67005 13.0245 5.00625 14.7117 5.00625C15.3141 5.00625 15.9779 5.06766 16.5218 5.12615L17.3669 0.00292421H14.1093C8.02112 0.00292421 5.72854 2.65519 5.00626 6.75786C4.76647 8.20534 4.76647 10.5564 4.46235 12.3665C4.04126 14.355 3.25757 15.0802 0.903582 15.2615L0 20.6859C2.11128 20.8058 2.89497 21.4696 2.59378 23.3996C2.29258 25.0283 1.56738 27.4408 1.26618 29.0667C0.482495 33.8916 2.41248 36 8.7434 36H27.859C32.9851 36 35.6374 33.8887 36.4211 29.0667C36.7223 27.4379 36.7837 25.0254 37.0235 23.3996C37.3247 21.4696 38.4096 20.6859 40.5208 20.6859L41.4244 15.2585C39.0734 15.0772 38.5294 14.355 38.8921 12.3636Z" fill="#07E0FE"/>
</svg>
