<svg width="22" height="21" viewBox="0 0 22 21" fill="none" xmlns="http://www.w3.org/2000/svg">
<path d="M13.6 8.00003H20C20.5304 8.00003 21.0391 8.21074 21.4142 8.58581C21.7893 8.96089 22 9.46959 22 10V12.104C22.0003 12.3654 21.9493 12.6243 21.85 12.866L18.755 20.381C18.6795 20.5642 18.5513 20.7209 18.3866 20.8311C18.2219 20.9413 18.0282 21.0001 17.83 21H1C0.734784 21 0.48043 20.8947 0.292893 20.7071C0.105357 20.5196 0 20.2652 0 20V10C0 9.73481 0.105357 9.48046 0.292893 9.29292C0.48043 9.10538 0.734784 9.00003 1 9.00003H4.482C4.6421 9.00007 4.79986 8.96167 4.94203 8.88806C5.0842 8.81445 5.20662 8.70778 5.299 8.57703L10.752 0.850026C10.8209 0.752339 10.9226 0.682586 11.0385 0.653416C11.1545 0.624246 11.277 0.637589 11.384 0.691026L13.198 1.59803C13.7085 1.85319 14.1163 2.27534 14.3537 2.79434C14.5911 3.31334 14.6438 3.89795 14.503 4.45103L13.6 8.00003ZM6 10.588V19H17.16L20 12.104V10H13.6C13.2954 9.99998 12.9948 9.93036 12.7212 9.79648C12.4476 9.6626 12.2082 9.468 12.0213 9.22751C11.8343 8.98703 11.7048 8.70702 11.6425 8.40885C11.5803 8.11068 11.5869 7.80223 11.662 7.50703L12.565 3.95903C12.5933 3.84835 12.5828 3.73134 12.5353 3.62745C12.4878 3.52357 12.4062 3.43907 12.304 3.38803L11.643 3.05803L6.933 9.73003C6.683 10.084 6.363 10.374 6 10.588ZM4 11H2V19H4V11Z" fill="#07E0FE"/>
</svg>
