<svg width="48" height="48" viewBox="0 0 48 48" fill="none" xmlns="http://www.w3.org/2000/svg">
<path d="M13.878 29.8788L5.60645 38.1506L9.84845 42.3925L18.12 34.1206L13.878 29.8788Z" fill="#F55376"/>
<path d="M13.8786 27.051L12.4766 28.465V28.478L13.8786 29.879L15.8776 27.879L20.1196 32.121L18.1206 34.12L19.5356 35.535L28.5096 26.511L21.4406 19.441L13.8786 27.051Z" fill="#F55376"/>
<path d="M15.8786 27.8788L13.8789 29.8785L18.1209 34.1204L20.1206 32.1207L15.8786 27.8788Z" fill="#3DD9EB"/>
<path d="M15.8786 27.8788L13.8789 29.8785L18.1209 34.1204L20.1206 32.1207L15.8786 27.8788Z" fill="#FF698A"/>
<path d="M20.0498 18.05L21.4408 19.441L23.7148 17.152L30.7858 24.223L28.5098 26.511L28.5348 26.536L29.9498 27.95L42.8658 15.034L32.9658 5.13403L20.0498 18.05Z" fill="#F55376"/>
<path d="M23.7154 17.152L21.4414 19.441L28.5104 26.511L30.7864 24.223L23.7154 17.152Z" fill="#3DD9EB"/>
<path d="M23.7154 17.152L21.4414 19.441L28.5104 26.511L30.7864 24.223L23.7154 17.152Z" fill="#FF698A"/>
<path d="M45.9857 13.9121L34.0097 1.93506L31.8887 4.05706L32.9657 5.13406L34.0497 4.05006L43.9497 13.9501L42.8657 15.0341L43.8647 16.0331L45.9857 13.9121Z" fill="#F55376"/>
<path d="M34.0488 4.051L32.9648 5.13501L42.8652 15.035L43.9492 13.951L34.0488 4.051Z" fill="#3DD9EB"/>
<path d="M34.0488 4.051L32.9648 5.13501L42.8652 15.035L43.9492 13.951L34.0488 4.051Z" fill="#FF698A"/>
<path d="M4.37778 39.379L5.60678 38.15L4.67178 37.215L2.55078 39.336L8.64978 45.436L10.7718 43.314L9.84878 42.392L8.61978 43.621L4.37778 39.379Z" fill="#F55376"/>
<path d="M5.60686 38.1496L4.37793 39.3785L8.61993 43.6204L9.84886 42.3914L5.60686 38.1496Z" fill="#3DD9EB"/>
<path d="M5.60686 38.1496L4.37793 39.3785L8.61993 43.6204L9.84886 42.3914L5.60686 38.1496Z" fill="#FF698A"/>
</svg>
