<svg width="64" height="64" viewBox="0 0 64 64" fill="none" xmlns="http://www.w3.org/2000/svg">
<rect width="64" height="64" rx="8" fill="#001A37"/>
<rect width="64" height="64" rx="8" fill="white" fill-opacity="0.1"/>
<g clip-path="url(#clip0_412_1850)">
<path d="M21.044 19.768L32 17.3334L42.956 19.768C43.2521 19.8339 43.5169 19.9987 43.7067 20.2352C43.8965 20.4718 43.9999 20.7661 44 21.0694V34.3854C43.9999 35.7024 43.6747 36.9989 43.0532 38.1601C42.4317 39.3212 41.5332 40.3109 40.4373 41.0414L32 46.6667L23.5627 41.0414C22.467 40.311 21.5686 39.3215 20.9471 38.1606C20.3256 36.9998 20.0003 35.7035 20 34.3867V21.0694C20.0001 20.7661 20.1035 20.4718 20.2933 20.2352C20.4831 19.9987 20.7479 19.8339 21.044 19.768ZM30.6667 29.3334H26.6667V32H30.6667V36H33.3333V32H37.3333V29.3334H33.3333V25.3334H30.6667V29.3334Z" fill="url(#paint0_linear_412_1850)"/>
</g>
<defs>
<linearGradient id="paint0_linear_412_1850" x1="18.5989" y1="15.9547" x2="45.5444" y2="17.6659" gradientUnits="userSpaceOnUse">
<stop stop-color="#00DEFD"/>
<stop offset="1" stop-color="#FB78FF"/>
</linearGradient>
<clipPath id="clip0_412_1850">
<rect width="32" height="32" fill="white" transform="translate(16 16)"/>
</clipPath>
</defs>
</svg>
