<svg width="20" height="21" viewBox="0 0 20 21" fill="none" xmlns="http://www.w3.org/2000/svg">
<path d="M3.463 2.66861C5.27756 1.09627 7.59899 0.232256 10 0.235605C15.523 0.235605 20 4.71261 20 10.2356C20 12.3716 19.33 14.3516 18.19 15.9756L15 10.2356H18C18.0001 8.66723 17.5392 7.13341 16.6747 5.82486C15.8101 4.51631 14.5799 3.49076 13.1372 2.87573C11.6944 2.26069 10.1027 2.08331 8.55996 2.36562C7.0172 2.64794 5.59145 3.3775 4.46 4.46361L3.463 2.66861ZM16.537 17.8026C14.7224 19.3749 12.401 20.239 10 20.2356C4.477 20.2356 0 15.7586 0 10.2356C0 8.09961 0.67 6.11961 1.81 4.49561L5 10.2356H2C1.99987 11.804 2.46075 13.3378 3.32534 14.6463C4.18992 15.9549 5.42007 16.9804 6.86282 17.5955C8.30557 18.2105 9.89729 18.3879 11.44 18.1056C12.9828 17.8233 14.4085 17.0937 15.54 16.0076L16.537 17.8026Z" fill="#001A37"/>
</svg>
