<svg width="64" height="64" viewBox="0 0 64 64" fill="none" xmlns="http://www.w3.org/2000/svg">
<rect width="64" height="64" rx="8" fill="#001A37"/>
<rect width="64" height="64" rx="8" fill="white" fill-opacity="0.1"/>
<g clip-path="url(#clip0_412_1840)">
<path d="M41.3333 29.3333H42.6667C43.0203 29.3333 43.3594 29.4738 43.6095 29.7238C43.8595 29.9739 44 30.313 44 30.6666V44C44 44.3536 43.8595 44.6927 43.6095 44.9428C43.3594 45.1928 43.0203 45.3333 42.6667 45.3333H21.3333C20.9797 45.3333 20.6406 45.1928 20.3905 44.9428C20.1405 44.6927 20 44.3536 20 44V30.6666C20 30.313 20.1405 29.9739 20.3905 29.7238C20.6406 29.4738 20.9797 29.3333 21.3333 29.3333H22.6667V28C22.6667 26.7743 22.9081 25.5606 23.3771 24.4282C23.8462 23.2959 24.5337 22.267 25.4003 21.4003C26.267 20.5336 27.2959 19.8461 28.4283 19.3771C29.5607 18.908 30.7743 18.6666 32 18.6666C33.2257 18.6666 34.4393 18.908 35.5717 19.3771C36.7041 19.8461 37.733 20.5336 38.5997 21.4003C39.4663 22.267 40.1538 23.2959 40.6229 24.4282C41.0919 25.5606 41.3333 26.7743 41.3333 28V29.3333ZM38.6667 29.3333V28C38.6667 26.2318 37.9643 24.5362 36.714 23.2859C35.4638 22.0357 33.7681 21.3333 32 21.3333C30.2319 21.3333 28.5362 22.0357 27.286 23.2859C26.0357 24.5362 25.3333 26.2318 25.3333 28V29.3333H38.6667ZM30.6667 34.6666V40H33.3333V34.6666H30.6667Z" fill="url(#paint0_linear_412_1840)"/>
</g>
<defs>
<linearGradient id="paint0_linear_412_1840" x1="18.5989" y1="17.4133" x2="45.5217" y2="19.294" gradientUnits="userSpaceOnUse">
<stop stop-color="#00DEFD"/>
<stop offset="1" stop-color="#FB78FF"/>
</linearGradient>
<clipPath id="clip0_412_1840">
<rect width="32" height="32" fill="white" transform="translate(16 16)"/>
</clipPath>
</defs>
</svg>
