<svg width="64" height="64" viewBox="0 0 64 64" fill="none" xmlns="http://www.w3.org/2000/svg">
<rect width="64" height="64" rx="8" fill="#001A37"/>
<rect width="64" height="64" rx="8" fill="white" fill-opacity="0.1"/>
<g clip-path="url(#clip0_412_1860)">
<path d="M44.2386 33.0587L44.256 33.0774L32 45.3334L19.744 33.0774L19.7613 33.0587C18.338 31.3994 17.5944 29.2636 17.6794 27.0792C17.7644 24.8948 18.6718 22.8232 20.2196 21.2796C21.7675 19.7359 23.8416 18.8342 26.0262 18.7552C28.2108 18.6761 30.3446 19.4256 32 20.8534C33.6553 19.4256 35.7891 18.6761 37.9737 18.7552C40.1584 18.8342 42.2324 19.7359 43.7803 21.2796C45.3282 22.8232 46.2355 24.8948 46.3205 27.0792C46.4055 29.2636 45.6619 31.3994 44.2386 33.0587Z" fill="url(#paint0_linear_412_1860)"/>
</g>
<defs>
<linearGradient id="paint0_linear_412_1860" x1="16" y1="17.5" x2="48.0762" y2="20.1836" gradientUnits="userSpaceOnUse">
<stop stop-color="#00DEFD"/>
<stop offset="1" stop-color="#FB78FF"/>
</linearGradient>
<clipPath id="clip0_412_1860">
<rect width="32" height="32" fill="white" transform="translate(16 16)"/>
</clipPath>
</defs>
</svg>
