<svg width="48" height="48" viewBox="0 0 48 48" fill="none" xmlns="http://www.w3.org/2000/svg">
<path d="M21 8C10.5 8 2 16.5 2 27C2 37.5 10.5 46 21 46C31.5 46 40 37.5 40 27C40 16.5 31.5 8 21 8Z" fill="#FA91AD"/>
<path d="M21 7C10 7 1 16 1 27C1 38 10 47 21 47C32 47 41 38 41 27C41 16 32 7 21 7ZM21 43C12.2 43 5 35.8 5 27C5 18.2 12.2 11 21 11C29.8 11 37 18.2 37 27C37 35.8 29.8 43 21 43Z" fill="#F55376"/>
<path d="M21 15C14.4 15 9 20.4 9 27C9 33.6 14.4 39 21 39C27.6 39 33 33.6 33 27C33 20.4 27.6 15 21 15ZM21 35C16.6 35 13 31.4 13 27C13 22.6 16.6 19 21 19C25.4 19 29 22.6 29 27C29 31.4 25.4 35 21 35Z" fill="#F55376"/>
<path d="M25 27C25 29.2 23.2 31 21 31C18.8 31 17 29.2 17 27C17 24.8 18.8 23 21 23C23.2 23 25 24.8 25 27Z" fill="#F55376"/>
<path d="M44.1002 11L39.1002 8.9L37.0002 4L31.0002 10L32.2002 13L18.7002 26.6L21.5002 29.4L35.1002 15.8L38.0002 17.1L44.1002 11Z" fill="#6C19FF"/>
<path d="M27.9996 17.3L25.0996 20.2001C26.2996 20.9001 27.1996 21.9 27.8996 23L30.7996 20.1C29.9996 19 29.0996 18 27.9996 17.3Z" fill="#2201C5"/>
<path d="M21.5002 29.4L24.9002 26C24.6002 24.6 23.5002 23.5 22.1002 23.1L18.7002 26.5L21.5002 29.4Z" fill="#2201C5"/>
<path d="M31.2004 9.80005L31.0004 10L32.3004 13L30.9004 14.4C32.0004 15.2 32.9004 16.2 33.7004 17.2L35.1004 15.8L38.1004 17.1L38.3004 16.9C36.5004 14 34.1004 11.5 31.2004 9.80005Z" fill="#2201C5"/>
</svg>
