<svg width="48" height="48" viewBox="0 0 48 48" fill="none" xmlns="http://www.w3.org/2000/svg">
<path d="M48 48H0V1.33333C0 0.533333 0.533333 0 1.33333 0H46.6667C47.4667 0 48 0.533333 48 1.33333V48Z" fill="white"/>
<path d="M2.66602 9.33325H45.3327V45.3333H2.66602V9.33325Z" fill="#004799"/>
<path d="M12.6673 27.1999L17.334 29.9999V33.3333L9.33398 28.3999V25.5999L17.334 21.3333V24.6666L12.6673 27.1999ZM22.6673 35.9999H20.0007L25.334 17.3333H28.0007L22.6673 35.9999ZM35.334 27.3333L30.6673 24.6666V21.3333L38.6673 25.8666V28.6666L30.6673 33.3333V29.9999L35.334 27.3333Z" fill="#07E0FE"/>
<path d="M9.99935 2.66675C9.46892 2.66675 8.96021 2.87746 8.58513 3.25253C8.21006 3.62761 7.99935 4.13632 7.99935 4.66675C7.99935 5.19718 8.21006 5.70589 8.58513 6.08096C8.96021 6.45603 9.46892 6.66675 9.99935 6.66675C10.5298 6.66675 11.0385 6.45603 11.4136 6.08096C11.7886 5.70589 11.9993 5.19718 11.9993 4.66675C11.9993 4.13632 11.7886 3.62761 11.4136 3.25253C11.0385 2.87746 10.5298 2.66675 9.99935 2.66675ZM4.66602 2.66675C4.13558 2.66675 3.62687 2.87746 3.2518 3.25253C2.87673 3.62761 2.66602 4.13632 2.66602 4.66675C2.66602 5.19718 2.87673 5.70589 3.2518 6.08096C3.62687 6.45603 4.13558 6.66675 4.66602 6.66675C5.19645 6.66675 5.70516 6.45603 6.08023 6.08096C6.4553 5.70589 6.66602 5.19718 6.66602 4.66675C6.66602 4.13632 6.4553 3.62761 6.08023 3.25253C5.70516 2.87746 5.19645 2.66675 4.66602 2.66675Z" fill="#90A4AE"/>
</svg>
