<svg width="64" height="64" viewBox="0 0 64 64" fill="none" xmlns="http://www.w3.org/2000/svg">
<path d="M58.6663 23.9999V18.6666H45.333V5.33325H39.9997V18.6666H34.6663V5.33325H29.333V18.6666H23.9997V5.33325H18.6663V18.6666H5.33301V23.9999H18.6663V29.3333H5.33301V34.6666H18.6663V39.9999H5.33301V45.3332H18.6663V58.6666H23.9997V45.3332H29.333V58.6666H34.6663V45.3332H39.9997V58.6666H45.333V45.3332H58.6663V39.9999H45.333V34.6666H58.6663V29.3333H45.333V23.9999H58.6663Z" fill="#FB78FF"/>
<path d="M10.667 16.0001V48.0001C10.667 50.9334 13.067 53.3334 16.0003 53.3334H48.0003C50.9337 53.3334 53.3337 50.9334 53.3337 48.0001V16.0001C53.3337 13.0667 50.9337 10.6667 48.0003 10.6667H16.0003C13.067 10.6667 10.667 13.0667 10.667 16.0001Z" fill="#07E0FE"/>
<path d="M41.3333 41.3334H22.6667C21.2 41.3334 20 40.1334 20 38.6667V25.3334C20 23.8667 21.2 22.6667 22.6667 22.6667H41.3333C42.8 22.6667 44 23.8667 44 25.3334V38.6667C44 40.1334 42.8 41.3334 41.3333 41.3334Z" fill="#004799"/>
</svg>
