<svg width="64" height="64" viewBox="0 0 64 64" fill="none" xmlns="http://www.w3.org/2000/svg">
<path d="M52.0003 41.3333C51.2643 41.3333 50.667 40.7373 50.667 40C50.667 31.54 45.3123 23.9626 37.343 21.14C36.6483 20.8946 36.2843 20.132 36.5323 19.4386C36.779 18.7453 37.5403 18.3826 38.2323 18.628C47.2657 21.824 53.3337 30.4133 53.3337 40C53.3337 40.7373 52.7377 41.3333 52.0003 41.3333ZM12.0003 41.3333C11.263 41.3333 10.667 40.7373 10.667 40C10.667 30.564 16.6083 22.0213 25.451 18.7426C26.1417 18.484 26.9097 18.8373 27.1643 19.5293C27.4203 20.22 27.0697 20.9866 26.3777 21.2426C18.5763 24.136 13.3337 31.6733 13.3337 40C13.3337 40.7373 12.7377 41.3333 12.0003 41.3333Z" fill="#004799"/>
<path d="M52.0003 41.3333C51.2643 41.3333 50.667 40.7373 50.667 40C50.667 31.54 45.3123 23.9626 37.343 21.14C36.6483 20.8946 36.2843 20.132 36.5323 19.4386C36.779 18.7453 37.5403 18.3826 38.2323 18.628C47.2657 21.824 53.3337 30.4133 53.3337 40C53.3337 40.7373 52.7377 41.3333 52.0003 41.3333ZM12.0003 41.3333C11.263 41.3333 10.667 40.7373 10.667 40C10.667 30.564 16.6083 22.0213 25.451 18.7426C26.1417 18.484 26.9097 18.8373 27.1643 19.5293C27.4203 20.22 27.0697 20.9866 26.3777 21.2426C18.5763 24.136 13.3337 31.6733 13.3337 40C13.3337 40.7373 12.7377 41.3333 12.0003 41.3333Z" fill="white" fill-opacity="0.25"/>
<path d="M59.5557 19.9999H38.6663C37.929 19.9999 37.333 19.4039 37.333 18.6666C37.333 17.9293 37.929 17.3333 38.6663 17.3333H59.5557C60.2943 17.3333 60.889 17.9293 60.889 18.6666C60.889 19.4039 60.2943 19.9999 59.5557 19.9999ZM25.333 19.9999H6.66634C5.92901 19.9999 5.33301 19.4039 5.33301 18.6666C5.33301 17.9293 5.92901 17.3333 6.66634 17.3333H25.333C26.0703 17.3333 26.6663 17.9293 26.6663 18.6666C26.6663 19.4039 26.0703 19.9999 25.333 19.9999Z" fill="#004799"/>
<path d="M59.5557 19.9999H38.6663C37.929 19.9999 37.333 19.4039 37.333 18.6666C37.333 17.9293 37.929 17.3333 38.6663 17.3333H59.5557C60.2943 17.3333 60.889 17.9293 60.889 18.6666C60.889 19.4039 60.2943 19.9999 59.5557 19.9999ZM25.333 19.9999H6.66634C5.92901 19.9999 5.33301 19.4039 5.33301 18.6666C5.33301 17.9293 5.92901 17.3333 6.66634 17.3333H25.333C26.0703 17.3333 26.6663 17.9293 26.6663 18.6666C26.6663 19.4039 26.0703 19.9999 25.333 19.9999Z" fill="white" fill-opacity="0.25"/>
<path d="M57.3337 14.6667C56.8084 14.6667 56.2882 14.7702 55.8029 14.9712C55.3176 15.1722 54.8767 15.4669 54.5052 15.8383C54.1338 16.2098 53.8392 16.6507 53.6381 17.136C53.4371 17.6213 53.3337 18.1415 53.3337 18.6667C53.3337 19.192 53.4371 19.7122 53.6381 20.1975C53.8392 20.6828 54.1338 21.1237 54.5052 21.4952C54.8767 21.8666 55.3176 22.1612 55.8029 22.3623C56.2882 22.5633 56.8084 22.6667 57.3337 22.6667C57.8589 22.6667 58.3791 22.5633 58.8644 22.3623C59.3497 22.1612 59.7906 21.8666 60.1621 21.4952C60.5335 21.1237 60.8282 20.6828 61.0292 20.1975C61.2302 19.7122 61.3337 19.192 61.3337 18.6667C61.3337 18.1415 61.2302 17.6213 61.0292 17.136C60.8282 16.6507 60.5335 16.2098 60.1621 15.8383C59.7906 15.4669 59.3497 15.1722 58.8644 14.9712C58.3791 14.7702 57.8589 14.6667 57.3337 14.6667ZM6.66699 14.6667C6.1417 14.6667 5.62156 14.7702 5.13626 14.9712C4.65096 15.1722 4.21 15.4669 3.83857 15.8383C3.46713 16.2098 3.17249 16.6507 2.97147 17.136C2.77046 17.6213 2.66699 18.1415 2.66699 18.6667C2.66699 19.192 2.77046 19.7122 2.97147 20.1975C3.17249 20.6828 3.46713 21.1237 3.83857 21.4952C4.21 21.8666 4.65096 22.1612 5.13626 22.3623C5.62156 22.5633 6.1417 22.6667 6.66699 22.6667C7.19228 22.6667 7.71242 22.5633 8.19773 22.3623C8.68303 22.1612 9.12398 21.8666 9.49542 21.4952C9.86685 21.1237 10.1615 20.6828 10.3625 20.1975C10.5635 19.7122 10.667 19.192 10.667 18.6667C10.667 18.1415 10.5635 17.6213 10.3625 17.136C10.1615 16.6507 9.86685 16.2098 9.49542 15.8383C9.12398 15.4669 8.68303 15.1722 8.19773 14.9712C7.71242 14.7702 7.19228 14.6667 6.66699 14.6667Z" fill="#FB78FF"/>
<path d="M58.6663 53.3333H43.9997V38.6667H58.6663V53.3333ZM19.9997 53.3333H5.33301V38.6667H19.9997V53.3333ZM38.6663 26.556H23.9997V12H38.6663V26.556Z" fill="#07E0FE"/>
</svg>
