<svg width="64" height="64" viewBox="0 0 64 64" fill="none" xmlns="http://www.w3.org/2000/svg">
<path d="M31.9997 58.6666C46.7273 58.6666 58.6663 46.7275 58.6663 31.9999C58.6663 17.2723 46.7273 5.33325 31.9997 5.33325C17.2721 5.33325 5.33301 17.2723 5.33301 31.9999C5.33301 46.7275 17.2721 58.6666 31.9997 58.6666Z" fill="#07E0FE"/>
<path d="M31.9997 58.6666C46.7273 58.6666 58.6663 46.7275 58.6663 31.9999C58.6663 17.2723 46.7273 5.33325 31.9997 5.33325C17.2721 5.33325 5.33301 17.2723 5.33301 31.9999C5.33301 46.7275 17.2721 58.6666 31.9997 58.6666Z" fill="white" fill-opacity="0.15"/>
<path d="M38.6667 42.6667C37.1947 42.6667 36 41.472 36 40V22.6667C36 21.1947 37.1947 20 38.6667 20C40.1387 20 41.3333 21.1947 41.3333 22.6667V40C41.3333 41.472 40.1387 42.6667 38.6667 42.6667Z" fill="#004799"/>
<path d="M30.6667 42.6666C29.1947 42.6666 28 41.4719 28 39.9999V31.9999C28 30.5279 29.1947 29.3333 30.6667 29.3333C32.1387 29.3333 33.3333 30.5279 33.3333 31.9999V39.9999C33.3333 41.4719 32.1387 42.6666 30.6667 42.6666Z" fill="#004799"/>
<path d="M22.6667 42.6667C21.1947 42.6667 20 41.472 20 40V38.6667C20 37.1947 21.1947 36 22.6667 36C24.1387 36 25.3333 37.1947 25.3333 38.6667V40C25.3333 41.472 24.1387 42.6667 22.6667 42.6667Z" fill="#004799"/>
</svg>
