<svg width="64" height="64" viewBox="0 0 64 64" fill="none" xmlns="http://www.w3.org/2000/svg">
<path d="M58.6663 32.6667C58.6663 30.32 57.3063 28.32 55.3463 27.3334C55.7463 26.52 55.9997 25.6267 55.9997 24.6667C55.9997 21.4534 53.4663 18.8534 50.293 18.6934C50.8263 17.2134 50.9063 15.5067 49.7463 13.6134C49.2397 12.7867 48.5463 12.0934 47.7197 11.5867C45.8263 10.4267 44.1197 10.5067 42.6397 11.04C42.4797 7.86671 39.8797 5.33337 36.6663 5.33337C35.5197 5.33337 34.453 5.66671 33.5463 6.22671C33.4797 6.26671 33.3997 6.30671 33.333 6.33337C32.9197 6.56004 32.453 6.66671 31.9997 6.66671C31.5463 6.66671 31.0797 6.56004 30.6663 6.33337C30.5997 6.30671 30.5197 6.26671 30.453 6.22671C29.5463 5.66671 28.4797 5.33337 27.333 5.33337C24.1197 5.33337 21.5197 7.86671 21.3597 11.04C19.8797 10.5067 18.173 10.4267 16.2797 11.5867C15.453 12.0934 14.7597 12.7867 14.253 13.6134C13.093 15.5067 13.173 17.2134 13.7063 18.6934C10.533 18.8534 7.99967 21.4534 7.99967 24.6667C7.99967 25.6267 8.25301 26.52 8.65301 27.3334C6.69301 28.32 5.33301 30.32 5.33301 32.6667C5.33301 34.5867 6.25301 36.28 7.65301 37.3734C7.03967 38.32 6.66634 39.4534 6.66634 40.6667C6.66634 42.84 7.82634 44.72 9.55967 45.7734C9.42634 46.28 9.33301 46.7867 9.33301 47.3334C9.33301 50.6534 12.013 53.3334 15.333 53.3334C15.773 53.3334 16.1997 53.28 16.613 53.1867C17.8797 56.4 21.013 58.6667 24.6663 58.6667C26.7863 58.6667 28.7197 57.9067 30.2263 56.64C30.3597 56.52 30.5063 56.4267 30.6663 56.3467C31.0797 56.1067 31.533 56 31.9997 56C32.4663 56 32.9197 56.1067 33.333 56.3467C33.493 56.4267 33.6397 56.52 33.773 56.64C35.2797 57.9067 37.213 58.6667 39.333 58.6667C42.9863 58.6667 46.1197 56.4 47.3863 53.1867C47.7997 53.28 48.2263 53.3334 48.6663 53.3334C51.9863 53.3334 54.6663 50.6534 54.6663 47.3334C54.6663 46.7867 54.573 46.28 54.4397 45.7734C56.173 44.72 57.333 42.84 57.333 40.6667C57.333 39.4534 56.9597 38.32 56.3463 37.3734C57.7463 36.28 58.6663 34.5867 58.6663 32.6667Z" fill="#004799"/>
<path d="M58.6663 32.6667C58.6663 30.32 57.3063 28.32 55.3463 27.3334C55.7463 26.52 55.9997 25.6267 55.9997 24.6667C55.9997 21.4534 53.4663 18.8534 50.293 18.6934C50.8263 17.2134 50.9063 15.5067 49.7463 13.6134C49.2397 12.7867 48.5463 12.0934 47.7197 11.5867C45.8263 10.4267 44.1197 10.5067 42.6397 11.04C42.4797 7.86671 39.8797 5.33337 36.6663 5.33337C35.5197 5.33337 34.453 5.66671 33.5463 6.22671C33.4797 6.26671 33.3997 6.30671 33.333 6.33337C32.9197 6.56004 32.453 6.66671 31.9997 6.66671C31.5463 6.66671 31.0797 6.56004 30.6663 6.33337C30.5997 6.30671 30.5197 6.26671 30.453 6.22671C29.5463 5.66671 28.4797 5.33337 27.333 5.33337C24.1197 5.33337 21.5197 7.86671 21.3597 11.04C19.8797 10.5067 18.173 10.4267 16.2797 11.5867C15.453 12.0934 14.7597 12.7867 14.253 13.6134C13.093 15.5067 13.173 17.2134 13.7063 18.6934C10.533 18.8534 7.99967 21.4534 7.99967 24.6667C7.99967 25.6267 8.25301 26.52 8.65301 27.3334C6.69301 28.32 5.33301 30.32 5.33301 32.6667C5.33301 34.5867 6.25301 36.28 7.65301 37.3734C7.03967 38.32 6.66634 39.4534 6.66634 40.6667C6.66634 42.84 7.82634 44.72 9.55967 45.7734C9.42634 46.28 9.33301 46.7867 9.33301 47.3334C9.33301 50.6534 12.013 53.3334 15.333 53.3334C15.773 53.3334 16.1997 53.28 16.613 53.1867C17.8797 56.4 21.013 58.6667 24.6663 58.6667C26.7863 58.6667 28.7197 57.9067 30.2263 56.64C30.3597 56.52 30.5063 56.4267 30.6663 56.3467C31.0797 56.1067 31.533 56 31.9997 56C32.4663 56 32.9197 56.1067 33.333 56.3467C33.493 56.4267 33.6397 56.52 33.773 56.64C35.2797 57.9067 37.213 58.6667 39.333 58.6667C42.9863 58.6667 46.1197 56.4 47.3863 53.1867C47.7997 53.28 48.2263 53.3334 48.6663 53.3334C51.9863 53.3334 54.6663 50.6534 54.6663 47.3334C54.6663 46.7867 54.573 46.28 54.4397 45.7734C56.173 44.72 57.333 42.84 57.333 40.6667C57.333 39.4534 56.9597 38.32 56.3463 37.3734C57.7463 36.28 58.6663 34.5867 58.6663 32.6667Z" fill="white" fill-opacity="0.25"/>
<path d="M21.333 16H42.6663V18.6667H21.333V16ZM26.6663 49.3333H23.9997V44H13.333V36H15.9997V41.3333H26.6663V49.3333Z" fill="#F8CF61"/>
<path d="M21.333 16H42.6663V18.6667H21.333V16ZM26.6663 49.3333H23.9997V44H13.333V36H15.9997V41.3333H26.6663V49.3333Z" fill="white" fill-opacity="0.45"/>
<path d="M21.3333 14.6666C20.6261 14.6666 19.9478 14.9476 19.4477 15.4477C18.9476 15.9478 18.6667 16.626 18.6667 17.3333C18.6667 18.0405 18.9476 18.7188 19.4477 19.2189C19.9478 19.719 20.6261 20 21.3333 20C22.0406 20 22.7189 19.719 23.219 19.2189C23.719 18.7188 24 18.0405 24 17.3333C24 16.626 23.719 15.9478 23.219 15.4477C22.7189 14.9476 22.0406 14.6666 21.3333 14.6666ZM14.6667 33.3333C13.9594 33.3333 13.2811 33.6142 12.781 34.1143C12.281 34.6144 12 35.2927 12 36C12 36.7072 12.281 37.3855 12.781 37.8856C13.2811 38.3857 13.9594 38.6666 14.6667 38.6666C15.3739 38.6666 16.0522 38.3857 16.5523 37.8856C17.0524 37.3855 17.3333 36.7072 17.3333 36C17.3333 35.2927 17.0524 34.6144 16.5523 34.1143C16.0522 33.6142 15.3739 33.3333 14.6667 33.3333ZM25.3333 46.6666C24.6261 46.6666 23.9478 46.9476 23.4477 47.4477C22.9476 47.9478 22.6667 48.626 22.6667 49.3333C22.6667 50.0405 22.9476 50.7188 23.4477 51.2189C23.9478 51.719 24.6261 52 25.3333 52C26.0406 52 26.7189 51.719 27.219 51.2189C27.719 50.7188 28 50.0405 28 49.3333C28 48.626 27.719 47.9478 27.219 47.4477C26.7189 46.9476 26.0406 46.6666 25.3333 46.6666Z" fill="#07E0FE"/>
<path d="M39.9997 49.3333H37.333V41.3333H47.9997V36H50.6663V44H39.9997V49.3333Z" fill="#F8CF61"/>
<path d="M39.9997 49.3333H37.333V41.3333H47.9997V36H50.6663V44H39.9997V49.3333Z" fill="white" fill-opacity="0.45"/>
<path d="M49.3333 33.3333C48.6261 33.3333 47.9478 33.6142 47.4477 34.1143C46.9476 34.6144 46.6667 35.2927 46.6667 36C46.6667 36.7072 46.9476 37.3855 47.4477 37.8856C47.9478 38.3857 48.6261 38.6666 49.3333 38.6666C50.0406 38.6666 50.7189 38.3857 51.219 37.8856C51.7191 37.3855 52 36.7072 52 36C52 35.2927 51.7191 34.6144 51.219 34.1143C50.7189 33.6142 50.0406 33.3333 49.3333 33.3333ZM38.6667 46.6666C37.9594 46.6666 37.2811 46.9476 36.781 47.4477C36.281 47.9478 36 48.626 36 49.3333C36 50.0405 36.281 50.7188 36.781 51.2189C37.2811 51.719 37.9594 52 38.6667 52C39.3739 52 40.0522 51.719 40.5523 51.2189C41.0524 50.7188 41.3333 50.0405 41.3333 49.3333C41.3333 48.626 41.0524 47.9478 40.5523 47.4477C40.0522 46.9476 39.3739 46.6666 38.6667 46.6666ZM41.3333 14.6666C40.6261 14.6666 39.9478 14.9476 39.4477 15.4477C38.9476 15.9478 38.6667 16.626 38.6667 17.3333C38.6667 18.0405 38.9476 18.7188 39.4477 19.2189C39.9478 19.719 40.6261 20 41.3333 20C42.0406 20 42.7189 19.719 43.219 19.2189C43.7191 18.7188 44 18.0405 44 17.3333C44 16.626 43.7191 15.9478 43.219 15.4477C42.7189 14.9476 42.0406 14.6666 41.3333 14.6666Z" fill="#07E0FE"/>
<path d="M26.6663 34.6667H23.9997V28H17.333V25.3334H26.6663V34.6667Z" fill="#F8CF61"/>
<path d="M26.6663 34.6667H23.9997V28H17.333V25.3334H26.6663V34.6667Z" fill="white" fill-opacity="0.45"/>
<path d="M25.3337 32C24.6264 32 23.9481 32.281 23.448 32.781C22.9479 33.2811 22.667 33.9594 22.667 34.6667C22.667 35.3739 22.9479 36.0522 23.448 36.5523C23.9481 37.0524 24.6264 37.3333 25.3337 37.3333C26.0409 37.3333 26.7192 37.0524 27.2193 36.5523C27.7194 36.0522 28.0003 35.3739 28.0003 34.6667C28.0003 33.9594 27.7194 33.2811 27.2193 32.781C26.7192 32.281 26.0409 32 25.3337 32ZM17.3337 24C16.6264 24 15.9481 24.281 15.448 24.781C14.9479 25.2811 14.667 25.9594 14.667 26.6667C14.667 27.3739 14.9479 28.0522 15.448 28.5523C15.9481 29.0524 16.6264 29.3333 17.3337 29.3333C18.0409 29.3333 18.7192 29.0524 19.2193 28.5523C19.7194 28.0522 20.0003 27.3739 20.0003 26.6667C20.0003 25.9594 19.7194 25.2811 19.2193 24.781C18.7192 24.281 18.0409 24 17.3337 24Z" fill="#07E0FE"/>
<path d="M39.9997 34.6667H37.333V25.3334H46.6663V28H39.9997V34.6667Z" fill="#F8CF61"/>
<path d="M39.9997 34.6667H37.333V25.3334H46.6663V28H39.9997V34.6667Z" fill="white" fill-opacity="0.45"/>
<path d="M38.6667 32C37.9594 32 37.2811 32.281 36.781 32.781C36.281 33.2811 36 33.9594 36 34.6667C36 35.3739 36.281 36.0522 36.781 36.5523C37.2811 37.0524 37.9594 37.3333 38.6667 37.3333C39.3739 37.3333 40.0522 37.0524 40.5523 36.5523C41.0524 36.0522 41.3333 35.3739 41.3333 34.6667C41.3333 33.9594 41.0524 33.2811 40.5523 32.781C40.0522 32.281 39.3739 32 38.6667 32ZM46.6667 24C45.9594 24 45.2811 24.281 44.781 24.781C44.2809 25.2811 44 25.9594 44 26.6667C44 27.3739 44.2809 28.0522 44.781 28.5523C45.2811 29.0524 45.9594 29.3333 46.6667 29.3333C47.3739 29.3333 48.0522 29.0524 48.5523 28.5523C49.0524 28.0522 49.3333 27.3739 49.3333 26.6667C49.3333 25.9594 49.0524 25.2811 48.5523 24.781C48.0522 24.281 47.3739 24 46.6667 24Z" fill="#07E0FE"/>
</svg>
