<svg width="64" height="64" viewBox="0 0 64 64" fill="none" xmlns="http://www.w3.org/2000/svg">
<path d="M49.2 18.4L46.8 13.6L10 32L46.8 50.4L49.2 45.6L22 32L49.2 18.4Z" fill="#004799"/>
<path d="M49.2 18.4L46.8 13.6L10 32L46.8 50.4L49.2 45.6L22 32L49.2 18.4Z" fill="white" fill-opacity="0.25"/>
<path d="M8 28C8 25.7909 9.79086 24 12 24H20C22.2091 24 24 25.7909 24 28V36C24 38.2091 22.2091 40 20 40H12C9.79086 40 8 38.2091 8 36V28Z" fill="#07E0FE"/>
<path d="M40 12C40 9.79086 41.7909 8 44 8H52C54.2091 8 56 9.79086 56 12V20C56 22.2091 54.2091 24 52 24H44C41.7909 24 40 22.2091 40 20V12ZM40 44C40 41.7909 41.7909 40 44 40H52C54.2091 40 56 41.7909 56 44V52C56 54.2091 54.2091 56 52 56H44C41.7909 56 40 54.2091 40 52V44Z" fill="#07E0FE"/>
</svg>
