<svg width="64" height="64" viewBox="0 0 64 64" fill="none" xmlns="http://www.w3.org/2000/svg">
<path d="M17.333 5.33325H47.9997V58.6666H17.333V5.33325Z" fill="#07E0FE"/>
<path d="M20 8H45.3333V13.3333H20V8ZM20 16H45.3333V21.3333H20V16ZM20 24H45.3333V29.3333H20V24ZM20 32H45.3333V37.3333H20V32Z" fill="#004799"/>
<path d="M33.3337 48C32.6264 48 31.9481 48.2809 31.448 48.781C30.9479 49.2811 30.667 49.9594 30.667 50.6667C30.667 51.3739 30.9479 52.0522 31.448 52.5523C31.9481 53.0524 32.6264 53.3333 33.3337 53.3333C34.0409 53.3333 34.7192 53.0524 35.2193 52.5523C35.7194 52.0522 36.0003 51.3739 36.0003 50.6667C36.0003 49.9594 35.7194 49.2811 35.2193 48.781C34.7192 48.2809 34.0409 48 33.3337 48Z" fill="white"/>
<path d="M41.3333 9.33325C40.9797 9.33325 40.6406 9.47373 40.3905 9.72378C40.1405 9.97382 40 10.313 40 10.6666C40 11.0202 40.1405 11.3593 40.3905 11.6094C40.6406 11.8594 40.9797 11.9999 41.3333 11.9999C41.687 11.9999 42.0261 11.8594 42.2761 11.6094C42.5262 11.3593 42.6667 11.0202 42.6667 10.6666C42.6667 10.313 42.5262 9.97382 42.2761 9.72378C42.0261 9.47373 41.687 9.33325 41.3333 9.33325ZM41.3333 17.3333C40.9797 17.3333 40.6406 17.4737 40.3905 17.7238C40.1405 17.9738 40 18.313 40 18.6666C40 19.0202 40.1405 19.3593 40.3905 19.6094C40.6406 19.8594 40.9797 19.9999 41.3333 19.9999C41.687 19.9999 42.0261 19.8594 42.2761 19.6094C42.5262 19.3593 42.6667 19.0202 42.6667 18.6666C42.6667 18.313 42.5262 17.9738 42.2761 17.7238C42.0261 17.4737 41.687 17.3333 41.3333 17.3333ZM41.3333 25.3333C40.9797 25.3333 40.6406 25.4737 40.3905 25.7238C40.1405 25.9738 40 26.313 40 26.6666C40 27.0202 40.1405 27.3593 40.3905 27.6094C40.6406 27.8594 40.9797 27.9999 41.3333 27.9999C41.687 27.9999 42.0261 27.8594 42.2761 27.6094C42.5262 27.3593 42.6667 27.0202 42.6667 26.6666C42.6667 26.313 42.5262 25.9738 42.2761 25.7238C42.0261 25.4737 41.687 25.3333 41.3333 25.3333ZM41.3333 33.3333C40.9797 33.3333 40.6406 33.4737 40.3905 33.7238C40.1405 33.9738 40 34.313 40 34.6666C40 35.0202 40.1405 35.3593 40.3905 35.6094C40.6406 35.8594 40.9797 35.9999 41.3333 35.9999C41.687 35.9999 42.0261 35.8594 42.2761 35.6094C42.5262 35.3593 42.6667 35.0202 42.6667 34.6666C42.6667 34.313 42.5262 33.9738 42.2761 33.7238C42.0261 33.4737 41.687 33.3333 41.3333 33.3333Z" fill="#76FF03"/>
</svg>
