<svg width="64" height="64" viewBox="0 0 64 64" fill="none" xmlns="http://www.w3.org/2000/svg">
<path d="M13.3333 13.3334H38.6667V21.3334H13.3333V13.3334ZM12 57.3334H52V54.6667C52 53.2 50.8 52 49.3333 52H14.6667C13.2 52 12 53.2 12 54.6667V57.3334Z" fill="#07E0FE"/>
<path d="M13.3333 13.3334H38.6667V21.3334H13.3333V13.3334ZM12 57.3334H52V54.6667C52 53.2 50.8 52 49.3333 52H14.6667C13.2 52 12 53.2 12 54.6667V57.3334Z" fill="white" fill-opacity="0.15"/>
<path d="M46.4 21.8666L39.7333 17.3333L46.4 12.8L52 16.2666L54.6667 12L46.2667 6.66663L30.8 17.3333L46.2667 28L54.6667 22.6666L52 18.4L46.4 21.8666ZM21.3333 14.6666H12L24 52H33.3333L21.3333 14.6666Z" fill="#07E0FE"/>
<path d="M30.133 41.2C29.5997 40.4 28.7997 40 27.8663 40H25.333C24.3997 40 23.5997 40.4 23.0663 41.2L15.9997 52H37.333L30.133 41.2ZM26.6663 48C25.1997 48 23.9997 46.8 23.9997 45.3334C23.9997 43.8667 25.1997 42.6667 26.6663 42.6667C28.133 42.6667 29.333 43.8667 29.333 45.3334C29.333 46.8 28.133 48 26.6663 48ZM17.333 9.33337C12.933 9.33337 9.33301 12.9334 9.33301 17.3334C9.33301 21.7334 12.933 25.3334 17.333 25.3334C21.733 25.3334 25.333 21.7334 25.333 17.3334C25.333 12.9334 21.733 9.33337 17.333 9.33337ZM17.333 20C15.8663 20 14.6663 18.8 14.6663 17.3334C14.6663 15.8667 15.8663 14.6667 17.333 14.6667C18.7997 14.6667 19.9997 15.8667 19.9997 17.3334C19.9997 18.8 18.7997 20 17.333 20ZM39.9997 24H35.9997C34.533 24 33.333 22.8 33.333 21.3334V13.3334C33.333 11.8667 34.533 10.6667 35.9997 10.6667H39.9997V24Z" fill="#F8CF61"/>
</svg>
