<svg width="64" height="64" viewBox="0 0 64 64" fill="none" xmlns="http://www.w3.org/2000/svg">
<g clip-path="url(#clip0_453_1854)">
<path d="M31.7367 42.4503L21.2864 32L31.7367 21.5497V0L1.89133 29.8453C1.31998 30.4168 0.999023 31.1919 0.999023 32C0.999023 32.8081 1.31998 33.5832 1.89133 34.1547L31.7367 64C31.7367 64 36.3081 60.9524 36.3081 53.3333C36.0716 49.2901 34.4584 45.4496 31.7367 42.4503Z" fill="#07E0FE"/>
<path d="M23.1456 29.9601L23.3451 30.1629L32.1 21.5503L32.2778 -0.162106L15.8687 15.9789C17.0499 21.1882 19.5565 26.0041 23.1456 29.9601Z" fill="#059DB2"/>
<path d="M25.3859 27.8566L25.5382 28.0114L32.1043 21.552L32.2821 -0.161925L18.5555 13.3386C19.365 18.7413 21.7396 23.7885 25.3859 27.8566Z" fill="#05A8BF"/>
<path d="M32.0996 21.5504L32.2775 -0.161977L21.4423 10.4972C21.6308 16.2031 23.8583 21.6525 27.7207 25.8567L32.0996 21.5504Z" fill="#0EC1DA"/>
<path d="M24.5136 10.5223C24.4539 17.8089 29.6391 23.4173 29.9101 23.7035L32.1003 21.5504L32.2781 -0.16198L24.8142 7.18066C24.6216 8.28429 24.521 9.40203 24.5136 10.5223Z" fill="#07D5F1"/>
<path d="M32.0001 21.5497L42.4489 32L32.0001 42.4503V64L61.8439 34.1547C62.4153 33.5832 62.7362 32.8081 62.7362 32C62.7362 31.1919 62.4153 30.4168 61.8439 29.8453L32.0001 0C32.0001 0 27.4287 3.04762 27.4287 10.6667C27.6652 14.7099 29.2784 18.5504 32.0001 21.5497Z" fill="#07E0FE"/>
<path d="M42.4849 32.1525L42.2917 31.951L34.0543 40.7493L34.1836 62.6257L49.6228 46.1367C48.4237 40.905 45.965 36.0881 42.4849 32.1525Z" fill="#059DB2"/>
<path d="M40.3766 34.3027L40.2291 34.1489L34.0511 40.7477L34.1804 62.6256L47.0957 48.8339C46.2487 43.4022 43.9128 38.3505 40.3766 34.3027Z" fill="#05A8BF"/>
<path d="M34.0554 40.7494L34.1846 62.6258L44.3794 51.7368C44.1208 45.991 41.9198 40.5321 38.1755 36.3502L34.0554 40.7494Z" fill="#0EC1DA"/>
<path d="M41.4467 51.7541C41.4033 44.4125 36.3771 38.8344 36.1146 38.5498L34.0538 40.7494L34.1831 62.6258L41.2058 55.1249C41.3745 54.0103 41.4551 52.8829 41.4467 51.7541Z" fill="#07D5F1"/>
</g>
<defs>
<clipPath id="clip0_453_1854">
<rect width="64" height="64" fill="white"/>
</clipPath>
</defs>
</svg>
