<?xml version="1.0" encoding="UTF-8"?>
<svg width="50px" height="50px" viewBox="0 0 50 50" version="1.1" xmlns="http://www.w3.org/2000/svg" xmlns:xlink="http://www.w3.org/1999/xlink">
    <title>Group</title>
    <g id="Page-1" stroke="none" stroke-width="1" fill="none" fill-rule="evenodd">
        <g id="Group">
            <circle id="Oval" fill="#2FD2F2" cx="25" cy="25" r="25"></circle>
            <g id="logo" transform="translate(8.000000, 15.000000)" fill="#001937" fill-rule="nonzero">
                <path d="M21,19.9442884 C21.0776556,19.681964 21.1386394,19.4034096 21.2384509,19.1383682 C21.5156566,18.3972963 21.8067554,17.6616582 22.0979273,16.92602 C22.4305594,16.0848515 22.7771578,15.2464714 23.1015271,14.4026575 C23.4286751,13.547976 23.7308884,12.6824983 24.0580364,11.8278883 C24.3796271,10.9948705 24.7261524,10.1726489 25.0505217,9.342348 C25.3166859,8.65811659 25.5689569,7.96845137 25.8295638,7.27878615 C26.3120229,5.9967853 26.7971876,4.71481305 27.2823523,3.4328408 C27.6899345,2.35641682 28.0946649,1.27999283 28.5132885,0.206276457 C28.5493377,0.117024654 28.6851984,0.00343258811 28.7738954,0.00343258811 C30.4679135,-0.00468116663 32.1646371,0.00343258811 33.858582,0.0088417341 C33.8918525,0.0088417341 33.9223444,0.0385921443 34,0.0737514861 C33.6645161,0.91487637 33.3152122,1.7505896 32.996327,2.59442496 C32.6109739,3.61134155 32.2561127,4.64179262 31.867981,5.6587092 C31.6129313,6.33486139 31.3190539,6.99747909 31.0528897,7.66823322 C30.8477093,8.18480291 30.6592007,8.7040895 30.4651349,9.2233761 C30.2045279,9.92112054 29.9521838,10.6242988 29.6833141,11.3193978 C29.4199286,12.0063461 29.1370926,12.6824983 28.873707,13.3694466 C28.6103215,14.0591119 28.3663864,14.7569278 28.1030008,15.446593 C27.8229434,16.1795143 27.5318446,16.9043563 27.2463031,17.6346321 C26.9607616,18.3648364 26.6807042,19.0977576 26.3840481,19.8253165 C26.3535563,19.9010324 26.2343674,19.9956952 26.1567118,19.9956952 C24.4738814,20.0038459 22.7909779,19.9984121 21.1081475,19.9956952 C21.0859184,19.9956952 21.0637624,19.9740314 21,19.9415715 L21,19.9442884 Z" id="Path"></path>
                <path d="M4.40217499,11.9789441 C2.93825505,8.00965932 1.47694576,4.0429388 0,0.0368017929 C0.135451274,0.0262869651 0.247459521,0.00788610344 0.359467767,0.00788610344 C1.96404656,0.00788610344 3.56862605,0.0157722069 5.17060174,0 C5.41545404,0 5.53267261,0.0814898977 5.60300238,0.294413926 C5.85567292,1.05147583 6.11355102,1.8059172 6.36361777,2.56297841 C6.54074409,3.10711767 6.64754063,3.68280607 6.89763486,4.18751585 C7.12943386,4.65542294 6.91061945,5.01818245 6.7986222,5.40723059 C6.62409967,6.00920067 6.39227318,6.59540314 6.18127701,7.18688001 C5.98070285,7.74677299 5.76450597,8.30145411 5.57435384,8.86398777 C5.37377969,9.45014854 5.20186095,10.046872 5.00128679,10.6331023 C4.84499765,11.093136 4.6600531,11.5452477 4.48813436,12 L4.3995712,11.9815848 L4.40217499,11.9789441 Z" id="Path"></path>
                <path d="M18.2852577,12 C16.8640258,8.0166257 15.4401522,4.03334187 14,0 L19.2651837,0 C19.4438908,0.479156416 19.6306658,0.984641423 19.8147277,1.48749423 C19.9608777,1.88503129 20.104386,2.2852061 20.2451098,2.68538092 C20.4535895,3.28038154 20.5997395,3.90170413 20.8759037,4.46247643 C21.2034025,5.13118834 20.8000799,5.64193356 20.613305,6.20007506 C20.3696979,6.92144484 20.0827527,7.63230531 19.8120146,8.34575483 C19.5684075,8.98550003 19.3193028,9.6226005 19.0702695,10.2597706 C18.8455826,10.8363207 18.6154696,11.4102262 18.388141,11.9867764 L18.2906839,12 L18.2852577,12 Z" id="Path"></path>
                <path d="M7.0027397,19.9550144 C8.40087534,15.9779449 9.78775599,12.0299174 11.2055878,8 C11.323469,8.09243154 11.4610464,8.14786254 11.4891098,8.23240528 C11.8708907,9.35205561 12.2246823,10.4797344 12.6092769,11.5994545 C12.934931,12.550159 13.2943501,13.4929048 13.6368126,14.4383035 C13.7659487,14.7948352 13.948472,15.1434082 13.9961576,15.5104815 C14.0270347,15.7428868 13.8642077,16.0016811 13.7800175,16.2472809 C13.5638033,16.8731486 13.3420357,17.4964331 13.1287093,18.1196479 C12.934931,18.6821259 12.7581093,19.2472568 12.5475226,19.8018461 C12.5138317,19.8916248 12.3369359,19.9946678 12.227496,19.9946678 C10.5373972,20.0052094 8.84448462,19.9973206 7.15438581,19.9946678 C7.11788115,19.9946678 7.0813765,19.9761675 7,19.9523615 L7.0027397,19.9550144 Z" id="Path"></path>
            </g>
        </g>
    </g>
</svg>