<?xml version="1.0" encoding="UTF-8"?>
<svg width="1280px" height="269px" viewBox="0 0 1280 269" version="1.1" xmlns="http://www.w3.org/2000/svg" xmlns:xlink="http://www.w3.org/1999/xlink">
    <title>build1</title>
    <g id="Page-1" stroke="none" stroke-width="1" fill="none" fill-rule="evenodd">
        <g id="build1">
            <path d="M0,77 L53,58 C107,39 213,0 320,0 C427,0 533,39 640,77 C747,115 853,154 960,173 C1067,192 1173,192 1227,192 L1280,192 L1280,269 L1227,269 C1173,269 1067,269 960,269 C853,269 747,269 640,269 C533,269 427,269 320,269 C213,269 107,269 53,269 L0,269 L0,77 Z" id="Path" fill="#07E0FE"></path>
            <path d="M0,77 L53,58 C107,39 213,0 320,0 C427,0 533,39 640,77 C747,115 853,154 960,173 C1067,192 1173,192 1227,192 L1280,192 L1280,269 L1227,269 C1173,269 1067,269 960,269 C853,269 747,269 640,269 C533,269 427,269 320,269 C213,269 107,269 53,269 L0,269 L0,77 Z" id="Path" fill-opacity="0.15" fill="#FFFFFF"></path>
            <path d="M0,77 L53,58 C107,39 213,0 320,0 C427,0 533,39 640,77 C747,115 853,154 960,173 C1067,192 1173,192 1227,192 L1280,192 L1280,269 L1227,269 C1173,269 1067,269 960,269 C853,269 747,269 640,269 C533,269 427,269 320,269 C213,269 107,269 53,269 L0,269 L0,77 Z" id="Path"></path>
        </g>
    </g>
</svg>