<?xml version="1.0" encoding="UTF-8"?>
<svg width="1513px" height="363px" viewBox="0 0 1513 363" version="1.1" xmlns="http://www.w3.org/2000/svg" xmlns:xlink="http://www.w3.org/1999/xlink">
    <title>build2</title>
    <g id="Page-1" stroke="none" stroke-width="1" fill="none" fill-rule="evenodd">
        <g id="build2">
            <path d="M0,90.75 L63.0417,105.875 C126.0833,121 252.1667,151.25 378.25,173.937 C504.333,196.625 630.417,211.75 756.5,189.062 C882.583,166.375 1008.667,105.875 1134.75,68.0625 C1260.83,30.25 1386.92,15.125 1449.96,7.5625 L1513,0 L1513,363 L1449.96,363 C1386.92,363 1260.83,363 1134.75,363 C1008.667,363 882.583,363 756.5,363 C630.417,363 504.333,363 378.25,363 C252.1667,363 126.0833,363 63.0417,363 L0,363 L0,90.75 Z" id="Path" fill="#07E0FE"></path>
            <path d="M0,90.75 L63.0417,105.875 C126.0833,121 252.1667,151.25 378.25,173.937 C504.333,196.625 630.417,211.75 756.5,189.062 C882.583,166.375 1008.667,105.875 1134.75,68.0625 C1260.83,30.25 1386.92,15.125 1449.96,7.5625 L1513,0 L1513,363 L1449.96,363 C1386.92,363 1260.83,363 1134.75,363 C1008.667,363 882.583,363 756.5,363 C630.417,363 504.333,363 378.25,363 C252.1667,363 126.0833,363 63.0417,363 L0,363 L0,90.75 Z" id="Path" fill-opacity="0.25" fill="#FFFFFF"></path>
            <path d="M0,90.75 L63.0417,105.875 C126.0833,121 252.1667,151.25 378.25,173.937 C504.333,196.625 630.417,211.75 756.5,189.062 C882.583,166.375 1008.667,105.875 1134.75,68.0625 C1260.83,30.25 1386.92,15.125 1449.96,7.5625 L1513,0 L1513,363 L1449.96,363 C1386.92,363 1260.83,363 1134.75,363 C1008.667,363 882.583,363 756.5,363 C630.417,363 504.333,363 378.25,363 C252.1667,363 126.0833,363 63.0417,363 L0,363 L0,90.75 Z" id="Path"></path>
        </g>
    </g>
</svg>