<svg width="1600" height="1008" viewBox="0 0 1600 1008" fill="none" xmlns="http://www.w3.org/2000/svg">
<path d="M1485.17 330.656C1434.29 216.992 1147.88 187.131 944.397 222.564C709.904 263.412 642.18 381.12 457.136 379.551C288.28 378.154 258.401 279.35 135.306 283.486C22.1789 287.291 -139.931 377.02 -366.621 725.332" stroke="url(#paint0_linear_411_2200)" stroke-width="3" stroke-miterlimit="10"/>
<path d="M-350.397 735.754C-126.322 392.364 35.4144 300.272 149.561 293.516C234.174 288.577 275.937 332.018 348.436 359.341C384.741 373.574 427.428 381.336 472.665 381.93C620.853 383.943 694.539 312.622 842.377 262.678C880.045 249.875 919.36 239.723 959.513 232.429C1163.45 194.961 1444.81 215.335 1499.02 324" stroke="url(#paint1_linear_411_2200)" stroke-width="3" stroke-miterlimit="10"/>
<path d="M-334.146 746.132C-112.682 407.687 48.5858 313.27 163.523 303.621C248.011 296.533 291.2 337.334 363.441 362.697C400.379 376.096 442.934 383.508 487.863 384.369C634.076 387.154 708.874 321.506 857.474 272.615C895.228 260.14 934.391 250.005 974.336 242.37C1178.83 203.249 1455.03 213.733 1512.56 317.398" stroke="url(#paint2_linear_411_2200)" stroke-width="3" stroke-miterlimit="10"/>
<path d="M-317.936 756.476C-99.1358 423.049 61.7662 326.312 177.615 313.687C262.053 304.478 306.527 342.62 378.613 366.028C416.11 378.592 458.505 385.668 503.095 386.804C647.466 390.338 723.071 330.394 872.604 282.55C910.451 270.346 949.503 260.198 989.28 252.231C1194.26 211.238 1465.34 212.056 1526.19 310.721" stroke="url(#paint3_linear_411_2200)" stroke-width="3" stroke-miterlimit="10"/>
<path d="M-301.704 766.919C-85.5272 438.38 74.8843 339.386 191.744 323.769C276.036 312.477 321.961 347.932 393.848 369.328C431.929 381.064 474.238 387.807 518.559 389.202C661.088 393.486 737.605 339.25 888.133 292.421C926.004 280.557 964.865 270.438 1004.37 262.153C1209.86 219.284 1475.84 210.457 1540.04 304.115" stroke="url(#paint4_linear_411_2200)" stroke-width="3" stroke-miterlimit="10"/>
<path d="M-285.611 777.346C-71.9495 453.723 87.7049 350.474 205.87 333.839C290.206 321.908 337.368 353.11 409.021 372.668C447.664 383.547 489.886 389.955 533.925 391.624C674.611 396.657 751.973 348.141 903.267 302.387C941.181 290.805 979.902 280.685 1019.19 272.088C1225.18 227.261 1486.06 208.851 1553.59 297.528" stroke="url(#paint5_linear_411_2200)" stroke-width="3" stroke-miterlimit="10"/>
<path d="M-269.213 787.72C-58.3292 469.08 101.159 365.694 219.948 343.813C303.899 328.616 352.871 358.399 424.236 376.024C463.4 386.046 505.54 392.126 549.3 394.067C688.143 399.849 766.445 357.016 918.538 312.331C956.504 301.056 995.093 290.947 1034.15 282.043C1240.66 235.34 1496.41 207.204 1567.27 290.94" stroke="url(#paint6_linear_411_2200)" stroke-width="3" stroke-miterlimit="10"/>
<path d="M-252.983 798.123C-44.8141 484.434 114.241 378.743 234.104 354.007C317.825 336.658 368.402 363.495 439.442 379.34C479.094 388.496 521.169 394.239 564.656 396.431C701.628 402.988 780.878 365.877 933.792 322.195C969.377 312.057 1007.46 301.673 1049.09 291.897C1256.13 243.253 1506.77 205.621 1580.94 284.314" stroke="url(#paint7_linear_411_2200)" stroke-width="3" stroke-miterlimit="10"/>
<path d="M-236.749 808.526C-31.1257 499.787 127.371 392.023 248.195 364.052C331.757 344.728 383.973 368.615 454.712 382.634C494.853 390.914 536.89 396.342 580.122 398.827C715.251 406.132 795.371 374.695 949.158 332.113C984.959 322.193 1022.95 311.866 1064.18 301.8C1271.46 251.284 1517.13 204.03 1594.62 277.699" stroke="url(#paint8_linear_411_2200)" stroke-width="3" stroke-miterlimit="10"/>
<path d="M-220.481 818.903C-17.503 515.131 140.498 405.264 262.344 374.195C345.719 352.922 399.722 373.751 469.833 386.019C510.41 393.423 552.406 398.543 595.373 401.325C728.691 409.373 809.722 383.644 964.321 342.025C1000.17 332.35 1038.19 322.018 1079.03 311.682C1287.02 259.111 1527.46 202.32 1608.28 271.006" stroke="url(#paint9_linear_411_2200)" stroke-width="3" stroke-miterlimit="10"/>
<path d="M-204.243 829.307C-3.91398 530.484 153.633 418.551 276.381 384.301C359.571 361.101 415.221 378.851 484.985 389.406C525.987 395.906 567.967 400.706 610.679 403.779C742.121 412.582 824.059 392.54 979.543 352.082C1015.62 342.665 1053.53 332.331 1093.94 321.75C1302.42 267.164 1537.74 200.862 1621.94 264.533" stroke="url(#paint10_linear_411_2200)" stroke-width="3" stroke-miterlimit="10"/>
<path d="M-188.002 839.71C9.71463 545.855 166.835 431.832 290.586 394.384C373.629 369.271 430.95 383.898 500.235 392.762C540.061 397.848 580.806 402.887 626.12 406.217C755.715 415.747 838.568 401.433 994.878 362.021C1031.1 352.853 1068.95 342.51 1109.03 331.668C1317.99 275.067 1548.22 199.251 1635.72 257.945" stroke="url(#paint11_linear_411_2200)" stroke-width="3" stroke-miterlimit="10"/>
<path d="M-171.754 850.113C23.3616 561.291 179.819 445.198 304.7 404.51C387.592 377.466 446.676 388.911 515.456 396.13C556.044 400.394 596.822 405.09 641.499 408.673C769.263 419.012 852.976 410.328 1010.15 371.976C1046.53 363.078 1084.34 352.721 1123.92 341.627C1333.32 282.977 1558.51 197.685 1649.33 251.396" stroke="url(#paint12_linear_411_2200)" stroke-width="3" stroke-miterlimit="10"/>
<path d="M-155.57 860.528C36.9494 576.592 193.176 458.527 318.817 414.642C401.57 385.728 462.4 393.911 530.684 399.527C572.058 402.923 612.84 407.301 656.752 411.18C782.692 422.2 867.261 419.293 1025.43 381.98C1062 373.305 1099.7 362.945 1138.89 351.622C1348.76 290.879 1568.87 196.119 1663.01 244.848" stroke="url(#paint13_linear_411_2200)" stroke-width="3" stroke-miterlimit="10"/>
<path d="M-139.219 870.894C50.5869 591.953 206.312 471.944 332.966 424.757C415.61 393.948 478.148 398.855 545.872 402.9C588.028 405.406 628.889 409.497 672.264 413.612C796.293 425.39 881.835 428.155 1040.7 391.931C1078.96 382.949 1116.73 372.792 1153.87 361.499C1364.16 298.777 1579.33 194.593 1676.68 238.295" stroke="url(#paint14_linear_411_2200)" stroke-width="3" stroke-miterlimit="10"/>
<path d="M-122.96 881.297C64.2316 607.338 219.704 485.261 346.985 434.902C429.522 402.22 493.793 403.806 561.133 406.292C604.067 407.889 644.94 411.703 687.648 416.097C809.867 428.617 896.285 437.089 1055.91 401.923C1094.2 393.256 1131.89 383.11 1168.78 371.546C1379.53 306.564 1589.59 193.075 1690.38 231.692" stroke="url(#paint15_linear_411_2200)" stroke-width="3" stroke-miterlimit="10"/>
<path d="M-106.692 891.701C77.8481 622.713 233.133 498.729 361.244 445.018C443.617 410.516 509.638 408.694 576.331 409.687C620.038 410.355 660.935 413.954 703.007 418.6C823.347 431.872 910.704 446.018 1071.26 411.903C1109.56 403.526 1147.19 393.367 1183.81 381.519C1394.9 314.513 1599.95 191.58 1704.08 225.276" stroke="url(#paint16_linear_411_2200)" stroke-width="3" stroke-miterlimit="10"/>
<path d="M-90.2452 902.098C91.6497 638.324 246.404 512.389 375.484 455.418C457.843 419.047 525.472 413.823 591.625 413.368C636.227 413.045 677.045 416.443 718.48 421.359C836.959 435.329 925.193 455.209 1086.6 422.173C1124.91 414.077 1162.47 403.912 1198.83 391.8C1410.29 322.693 1610.32 190.451 1717.76 219.153" stroke="url(#paint17_linear_411_2200)" stroke-width="3" stroke-miterlimit="10"/>
<path d="M-73.8182 912.501C105.261 653.777 259.893 526.058 389.78 465.881C472.067 427.697 541.294 419.036 606.985 417.185C652.261 415.971 693.259 419.084 733.987 424.26C850.619 439.008 939.747 464.527 1101.96 432.514C1140.28 424.699 1177.78 414.525 1213.86 402.151C1425.68 330.927 1620.89 189.467 1731.47 213.148" stroke="url(#paint18_linear_411_2200)" stroke-width="3" stroke-miterlimit="10"/>
<path d="M-57.3851 922.904C119.197 669.276 273.422 539.72 404.018 476.21C486.296 436.184 557.079 424.055 622.3 420.769C668.312 418.467 709.326 421.511 749.455 426.971C864.2 442.46 954.225 473.629 1117.29 442.734C1155.62 435.212 1193.06 425.027 1228.87 412.382C1441.01 338.99 1631.08 188.294 1745.14 207.007" stroke="url(#paint19_linear_411_2200)" stroke-width="3" stroke-miterlimit="10"/>
<path d="M-40.9158 933.282C133.004 684.766 286.978 553.473 418.176 486.61C500.419 444.79 572.716 429.163 637.48 424.506C684.232 421.137 725.32 424.061 764.767 429.734C877.695 445.974 968.621 482.806 1132.5 452.971C1170.84 445.718 1208.24 435.52 1243.79 422.624C1456.04 346.93 1641.33 187.264 1758.76 200.952" stroke="url(#paint20_linear_411_2200)" stroke-width="3" stroke-miterlimit="10"/>
<path d="M-24.5092 943.691C253.421 548.614 485.232 443.839 652.957 428.195C836.051 411.114 925.668 502.01 1147.98 463.217C1408.76 417.687 1631.38 184.7 1772.51 194.907" stroke="url(#paint21_linear_411_2200)" stroke-width="3" stroke-miterlimit="10"/>
<defs>
<linearGradient id="paint0_linear_411_2200" x1="497.335" y1="221.175" x2="555.702" y2="571.795" gradientUnits="userSpaceOnUse">
<stop stop-color="#19314B"/>
<stop offset="1" stop-color="#19314B" stop-opacity="0"/>
</linearGradient>
<linearGradient id="paint1_linear_411_2200" x1="514.065" y1="231.457" x2="572.441" y2="582.13" gradientUnits="userSpaceOnUse">
<stop stop-color="#19314B"/>
<stop offset="1" stop-color="#19314B" stop-opacity="0"/>
</linearGradient>
<linearGradient id="paint2_linear_411_2200" x1="530.642" y1="241.665" x2="589.037" y2="592.451" gradientUnits="userSpaceOnUse">
<stop stop-color="#19314B"/>
<stop offset="1" stop-color="#19314B" stop-opacity="0"/>
</linearGradient>
<linearGradient id="paint3_linear_411_2200" x1="547.227" y1="251.735" x2="605.656" y2="602.727" gradientUnits="userSpaceOnUse">
<stop stop-color="#19314B"/>
<stop offset="1" stop-color="#19314B" stop-opacity="0"/>
</linearGradient>
<linearGradient id="paint4_linear_411_2200" x1="563.887" y1="261.677" x2="622.385" y2="613.089" gradientUnits="userSpaceOnUse">
<stop stop-color="#19314B"/>
<stop offset="1" stop-color="#19314B" stop-opacity="0"/>
</linearGradient>
<linearGradient id="paint5_linear_411_2200" x1="580.284" y1="271.427" x2="638.883" y2="623.452" gradientUnits="userSpaceOnUse">
<stop stop-color="#19314B"/>
<stop offset="1" stop-color="#19314B" stop-opacity="0"/>
</linearGradient>
<linearGradient id="paint6_linear_411_2200" x1="596.882" y1="281.041" x2="655.598" y2="633.777" gradientUnits="userSpaceOnUse">
<stop stop-color="#19314B"/>
<stop offset="1" stop-color="#19314B" stop-opacity="0"/>
</linearGradient>
<linearGradient id="paint7_linear_411_2200" x1="613.39" y1="290.644" x2="672.227" y2="644.119" gradientUnits="userSpaceOnUse">
<stop stop-color="#19314B"/>
<stop offset="1" stop-color="#19314B" stop-opacity="0"/>
</linearGradient>
<linearGradient id="paint8_linear_411_2200" x1="629.834" y1="299.934" x2="688.845" y2="654.465" gradientUnits="userSpaceOnUse">
<stop stop-color="#19314B"/>
<stop offset="1" stop-color="#19314B" stop-opacity="0"/>
</linearGradient>
<linearGradient id="paint9_linear_411_2200" x1="646.284" y1="309.144" x2="705.476" y2="664.789" gradientUnits="userSpaceOnUse">
<stop stop-color="#19314B"/>
<stop offset="1" stop-color="#19314B" stop-opacity="0"/>
</linearGradient>
<linearGradient id="paint10_linear_411_2200" x1="662.646" y1="318.112" x2="722.066" y2="675.144" gradientUnits="userSpaceOnUse">
<stop stop-color="#19314B"/>
<stop offset="1" stop-color="#19314B" stop-opacity="0"/>
</linearGradient>
<linearGradient id="paint11_linear_411_2200" x1="679.033" y1="326.859" x2="738.715" y2="685.49" gradientUnits="userSpaceOnUse">
<stop stop-color="#19314B"/>
<stop offset="1" stop-color="#19314B" stop-opacity="0"/>
</linearGradient>
<linearGradient id="paint12_linear_411_2200" x1="695.292" y1="335.387" x2="755.275" y2="695.854" gradientUnits="userSpaceOnUse">
<stop stop-color="#19314B"/>
<stop offset="1" stop-color="#19314B" stop-opacity="0"/>
</linearGradient>
<linearGradient id="paint13_linear_411_2200" x1="711.501" y1="343.664" x2="771.826" y2="706.222" gradientUnits="userSpaceOnUse">
<stop stop-color="#19314B"/>
<stop offset="1" stop-color="#19314B" stop-opacity="0"/>
</linearGradient>
<linearGradient id="paint14_linear_411_2200" x1="727.724" y1="351.585" x2="788.444" y2="716.561" gradientUnits="userSpaceOnUse">
<stop stop-color="#19314B"/>
<stop offset="1" stop-color="#19314B" stop-opacity="0"/>
</linearGradient>
<linearGradient id="paint15_linear_411_2200" x1="743.843" y1="359.165" x2="805.02" y2="726.932" gradientUnits="userSpaceOnUse">
<stop stop-color="#19314B"/>
<stop offset="1" stop-color="#19314B" stop-opacity="0"/>
</linearGradient>
<linearGradient id="paint16_linear_411_2200" x1="759.87" y1="366.354" x2="821.568" y2="737.311" gradientUnits="userSpaceOnUse">
<stop stop-color="#19314B"/>
<stop offset="1" stop-color="#19314B" stop-opacity="0"/>
</linearGradient>
<linearGradient id="paint17_linear_411_2200" x1="773.965" y1="363.802" x2="837.799" y2="747.837" gradientUnits="userSpaceOnUse">
<stop stop-color="#19314B"/>
<stop offset="1" stop-color="#19314B" stop-opacity="0"/>
</linearGradient>
<linearGradient id="paint18_linear_411_2200" x1="787.872" y1="360.396" x2="853.983" y2="758.376" gradientUnits="userSpaceOnUse">
<stop stop-color="#19314B"/>
<stop offset="1" stop-color="#19314B" stop-opacity="0"/>
</linearGradient>
<linearGradient id="paint19_linear_411_2200" x1="801.653" y1="356.379" x2="870.142" y2="768.92" gradientUnits="userSpaceOnUse">
<stop stop-color="#19314B"/>
<stop offset="1" stop-color="#19314B" stop-opacity="0"/>
</linearGradient>
<linearGradient id="paint20_linear_411_2200" x1="815.364" y1="352.079" x2="886.271" y2="779.447" gradientUnits="userSpaceOnUse">
<stop stop-color="#19314B"/>
<stop offset="1" stop-color="#19314B" stop-opacity="0"/>
</linearGradient>
<linearGradient id="paint21_linear_411_2200" x1="829.044" y1="347.478" x2="902.421" y2="789.988" gradientUnits="userSpaceOnUse">
<stop stop-color="#19314B"/>
<stop offset="1" stop-color="#19314B" stop-opacity="0"/>
</linearGradient>
</defs>
</svg>
