<svg width="1600" height="856" viewBox="0 0 1600 856" fill="none" xmlns="http://www.w3.org/2000/svg">
<path d="M0 148.701C260.04 247.823 400.21 378.552 481.051 485.498C548.441 574.659 547.245 611.132 618.803 677.653C774.09 822.002 1071.56 921.544 1215.73 797.496C1286.75 736.389 1260.48 658.951 1294.45 512.356C1325.01 380.484 1404.02 199.113 1624.61 2" stroke="url(#paint0_linear_411_2551)" stroke-width="3" stroke-miterlimit="10"/>
<path d="M0.519531 180.682C253.451 265.869 392.22 388.853 473.019 488.94C541.004 573.179 546.532 606.865 622.539 672.243C781.984 809.392 1061.35 904.876 1205.72 789.131C1280.08 729.517 1263.17 653.404 1302.97 507.239C1338.01 378.557 1418.64 200.287 1635.43 4.94202" stroke="url(#paint1_linear_411_2551)" stroke-width="3" stroke-miterlimit="10"/>
<path d="M1.04004 212.657C246.859 283.915 384.334 399.185 465.001 492.383C533.722 571.779 545.697 602.603 626.289 666.833C789.542 796.942 1051.58 888.43 1195.73 780.771C1273.6 722.606 1265.75 647.932 1311.51 502.126C1350.9 376.665 1433.27 201.474 1646.28 7.90607" stroke="url(#paint2_linear_411_2551)" stroke-width="3" stroke-miterlimit="10"/>
<path d="M1.56055 244.637C240.267 301.965 376.584 409.549 456.984 495.852C526.53 570.463 544.727 598.372 630.059 661.419C796.796 784.669 1042.23 872.231 1185.75 772.406C1267.3 715.694 1268.22 642.523 1320.07 497.009C1363.61 374.799 1447.93 202.662 1657.11 10.8568" stroke="url(#paint3_linear_411_2551)" stroke-width="3" stroke-miterlimit="10"/>
<path d="M2.08203 276.613C233.699 320.002 368.994 419.912 448.967 499.272C519.461 569.218 543.677 594.18 633.783 656.009C803.712 772.578 1033.23 856.299 1175.73 764.041C1261.11 708.769 1270.51 637.148 1328.58 491.891C1376.14 372.943 1462.54 203.845 1667.91 13.8297" stroke="url(#paint4_linear_411_2551)" stroke-width="3" stroke-miterlimit="10"/>
<path d="M2.60254 308.588C227.088 338.048 361.577 430.279 440.95 502.715C512.54 568.049 542.458 590.051 637.534 650.595C810.398 760.687 1024.59 840.637 1165.74 755.68C1255.11 701.884 1272.64 631.8 1337.12 486.774C1388.54 371.082 1477.17 205.032 1678.74 16.7584" stroke="url(#paint5_linear_411_2551)" stroke-width="3" stroke-miterlimit="10"/>
<path d="M3.12207 340.564C220.495 356.071 354.365 440.603 432.932 506.158C505.779 566.941 541.159 585.993 641.279 645.185C816.868 748.99 1016.26 825.258 1155.74 747.315C1249.25 695.061 1274.67 626.453 1345.66 481.661C1400.79 369.204 1491.83 206.22 1689.57 19.7136" stroke="url(#paint6_linear_411_2551)" stroke-width="3" stroke-miterlimit="10"/>
<path d="M3.66113 372.544C213.922 374.135 347.397 450.877 424.933 509.6C499.224 565.869 539.804 582.023 645.044 639.776C823.164 737.492 1008.24 810.159 1145.76 738.95C1243.55 688.322 1276.54 621.096 1354.22 476.544C1412.89 367.303 1506.44 207.42 1700.4 22.6643" stroke="url(#paint7_linear_411_2551)" stroke-width="3" stroke-miterlimit="10"/>
<path d="M4.16309 404.52C207.311 392.181 340.636 461.054 416.897 513.047C492.852 564.814 538.294 578.177 648.777 634.361C829.288 726.19 1000.42 795.343 1135.75 730.59C1237.96 681.694 1278.22 615.695 1362.73 471.426C1424.87 365.362 1521.07 208.59 1711.25 25.6151" stroke="url(#paint8_linear_411_2551)" stroke-width="3" stroke-miterlimit="10"/>
<path d="M4.68262 436.482C200.723 410.213 334.142 471.085 408.878 516.477C486.676 563.724 536.746 574.376 652.522 628.938C835.274 715.06 992.802 780.784 1125.75 722.211C1232.49 675.189 1279.77 610.228 1371.27 466.296C1436.72 363.36 1535.71 209.764 1722.05 28.5526" stroke="url(#paint9_linear_411_2551)" stroke-width="3" stroke-miterlimit="10"/>
<path d="M5.20508 468.475C194.156 428.272 327.903 480.974 400.867 519.932C480.752 562.59 535.145 570.738 656.275 623.537C841.184 704.139 985.363 766.522 1115.76 713.864C1227.15 668.88 1281.16 604.712 1379.81 461.192C1448.45 361.33 1550.35 210.965 1732.89 31.5255" stroke="url(#paint10_linear_411_2551)" stroke-width="3" stroke-miterlimit="10"/>
<path d="M5.72461 500.451C187.539 446.314 321.901 490.637 392.849 523.375C475.05 561.31 533.507 567.211 660.02 618.128C847.021 693.377 978.058 752.499 1105.76 705.499C1221.9 662.757 1282.41 599.094 1388.35 456.079C1460.08 359.226 1564.98 212.148 1743.71 34.4719" stroke="url(#paint11_linear_411_2551)" stroke-width="3" stroke-miterlimit="10"/>
<path d="M6.24609 532.431C180.948 464.359 316.107 500.052 384.833 526.822C469.565 559.826 531.792 563.804 663.772 612.718C852.812 682.779 970.848 738.724 1095.77 697.134C1216.74 656.86 1283.53 593.374 1396.89 450.961C1471.63 357.055 1579.61 213.335 1754.54 37.4227" stroke="url(#paint12_linear_411_2551)" stroke-width="3" stroke-miterlimit="10"/>
<path d="M6.7666 564.407C174.361 482.405 310.485 509.193 376.815 530.265C464.272 558.049 530.067 560.526 667.509 607.304C858.56 672.327 963.693 725.158 1085.77 688.774C1211.67 651.224 1284.51 587.53 1405.42 445.844C1483.11 354.808 1594.25 214.509 1765.37 40.3867" stroke="url(#paint13_linear_411_2551)" stroke-width="3" stroke-miterlimit="10"/>
<path d="M7.28516 596.382C167.767 500.447 304.974 518.036 368.777 533.707C459.098 555.887 528.302 557.371 671.249 601.894C864.302 662.022 956.565 711.853 1075.76 680.409C1206.64 645.881 1285.37 581.558 1413.94 440.713C1494.5 352.474 1608.86 215.692 1776.18 43.3109" stroke="url(#paint14_linear_411_2551)" stroke-width="3" stroke-miterlimit="10"/>
<path d="M7.80566 628.362C161.198 518.492 299.512 526.578 360.778 537.15C454.035 553.242 526.563 554.345 675.014 596.48C870.06 651.862 949.466 698.734 1065.78 672.048C1201.68 640.861 1286.15 575.461 1422.5 435.614C1505.89 350.086 1623.51 216.893 1787.03 46.2795" stroke="url(#paint15_linear_411_2551)" stroke-width="3" stroke-miterlimit="10"/>
<path d="M8.34961 660.338C154.606 536.538 294.683 550.849 352.784 540.597C447.818 523.823 524.828 551.447 678.788 591.07C875.85 641.796 942.321 685.81 1055.79 663.683C1196.72 636.213 1286.82 569.183 1431.04 430.496C1517.22 347.618 1638.15 218.08 1797.86 49.2479" stroke="url(#paint16_linear_411_2551)" stroke-width="3" stroke-miterlimit="10"/>
<path d="M8.84766 692.314C147.996 554.584 289.742 556.033 344.744 544.039C441.147 523.021 523.047 548.669 682.512 585.66C881.66 631.871 935.092 673.076 1045.79 655.318C1191.75 631.933 1287.41 562.772 1439.58 425.37C1528.53 345.057 1652.78 219.254 1808.68 52.1721" stroke="url(#paint17_linear_411_2551)" stroke-width="3" stroke-miterlimit="10"/>
<path d="M9.36816 724.294C141.404 572.625 284.154 560.707 336.727 547.482C434.864 522.799 521.299 546.015 686.263 580.268C887.503 622.031 927.773 660.489 1035.79 646.98C1186.73 628.101 1287.93 556.223 1448.12 420.284C1539.82 342.46 1667.42 220.464 1819.51 55.1539" stroke="url(#paint18_linear_411_2551)" stroke-width="3" stroke-miterlimit="10"/>
<path d="M9.8877 756.269C134.811 590.671 276.224 558.222 328.713 550.924C432.102 536.583 519.577 543.472 690.013 574.85C893.405 612.275 920.327 648.03 1025.8 638.606C1181.64 624.667 1288.4 549.462 1456.66 415.144C1551.12 339.736 1682.06 221.638 1830.34 58.0825" stroke="url(#paint19_linear_411_2551)" stroke-width="3" stroke-miterlimit="10"/>
<path d="M10.4082 788.245C128.219 608.717 269.688 565.745 320.691 554.371C425.552 530.991 517.866 541.044 693.754 569.435C899.345 602.607 912.712 635.708 1015.8 630.241C1176.44 621.725 1288.83 542.604 1465.19 410.04C1562.4 336.967 1696.69 222.834 1841.17 61.0466" stroke="url(#paint20_linear_411_2551)" stroke-width="3" stroke-miterlimit="10"/>
<path d="M10.9287 820.225C121.631 626.763 262.707 573.277 312.674 557.814C418.402 525.081 516.187 538.723 697.505 564.017C905.356 593.011 904.92 623.484 1005.81 621.872C1171.08 619.213 1289.23 535.559 1473.73 404.919C1573.71 334.135 1711.32 224.008 1852 63.9885" stroke="url(#paint21_linear_411_2551)" stroke-width="3" stroke-miterlimit="10"/>
<defs>
<linearGradient id="paint0_linear_411_2551" x1="812.306" y1="2" x2="812.306" y2="853.756" gradientUnits="userSpaceOnUse">
<stop stop-color="#19314B"/>
<stop offset="1" stop-color="#19314B" stop-opacity="0"/>
</linearGradient>
<linearGradient id="paint1_linear_411_2551" x1="817.974" y1="4.94202" x2="817.974" y2="840.934" gradientUnits="userSpaceOnUse">
<stop stop-color="#19314B"/>
<stop offset="1" stop-color="#19314B" stop-opacity="0"/>
</linearGradient>
<linearGradient id="paint2_linear_411_2551" x1="823.659" y1="7.90607" x2="823.659" y2="828.262" gradientUnits="userSpaceOnUse">
<stop stop-color="#19314B"/>
<stop offset="1" stop-color="#19314B" stop-opacity="0"/>
</linearGradient>
<linearGradient id="paint3_linear_411_2551" x1="829.335" y1="10.8568" x2="829.335" y2="815.756" gradientUnits="userSpaceOnUse">
<stop stop-color="#19314B"/>
<stop offset="1" stop-color="#19314B" stop-opacity="0"/>
</linearGradient>
<linearGradient id="paint4_linear_411_2551" x1="834.997" y1="13.8297" x2="834.997" y2="803.424" gradientUnits="userSpaceOnUse">
<stop stop-color="#19314B"/>
<stop offset="1" stop-color="#19314B" stop-opacity="0"/>
</linearGradient>
<linearGradient id="paint5_linear_411_2551" x1="840.673" y1="16.7584" x2="840.673" y2="791.276" gradientUnits="userSpaceOnUse">
<stop stop-color="#19314B"/>
<stop offset="1" stop-color="#19314B" stop-opacity="0"/>
</linearGradient>
<linearGradient id="paint6_linear_411_2551" x1="846.345" y1="19.7136" x2="846.345" y2="779.312" gradientUnits="userSpaceOnUse">
<stop stop-color="#19314B"/>
<stop offset="1" stop-color="#19314B" stop-opacity="0"/>
</linearGradient>
<linearGradient id="paint7_linear_411_2551" x1="852.03" y1="22.6643" x2="852.03" y2="767.534" gradientUnits="userSpaceOnUse">
<stop stop-color="#19314B"/>
<stop offset="1" stop-color="#19314B" stop-opacity="0"/>
</linearGradient>
<linearGradient id="paint8_linear_411_2551" x1="857.708" y1="25.6151" x2="857.708" y2="755.946" gradientUnits="userSpaceOnUse">
<stop stop-color="#19314B"/>
<stop offset="1" stop-color="#19314B" stop-opacity="0"/>
</linearGradient>
<linearGradient id="paint9_linear_411_2551" x1="863.369" y1="28.5526" x2="863.369" y2="744.524" gradientUnits="userSpaceOnUse">
<stop stop-color="#19314B"/>
<stop offset="1" stop-color="#19314B" stop-opacity="0"/>
</linearGradient>
<linearGradient id="paint10_linear_411_2551" x1="869.046" y1="31.5255" x2="869.046" y2="733.312" gradientUnits="userSpaceOnUse">
<stop stop-color="#19314B"/>
<stop offset="1" stop-color="#19314B" stop-opacity="0"/>
</linearGradient>
<linearGradient id="paint11_linear_411_2551" x1="874.719" y1="34.4719" x2="874.719" y2="722.259" gradientUnits="userSpaceOnUse">
<stop stop-color="#19314B"/>
<stop offset="1" stop-color="#19314B" stop-opacity="0"/>
</linearGradient>
<linearGradient id="paint12_linear_411_2551" x1="880.395" y1="37.4227" x2="880.395" y2="711.38" gradientUnits="userSpaceOnUse">
<stop stop-color="#19314B"/>
<stop offset="1" stop-color="#19314B" stop-opacity="0"/>
</linearGradient>
<linearGradient id="paint13_linear_411_2551" x1="886.068" y1="40.3867" x2="886.068" y2="700.661" gradientUnits="userSpaceOnUse">
<stop stop-color="#19314B"/>
<stop offset="1" stop-color="#19314B" stop-opacity="0"/>
</linearGradient>
<linearGradient id="paint14_linear_411_2551" x1="891.733" y1="43.3109" x2="891.733" y2="690.125" gradientUnits="userSpaceOnUse">
<stop stop-color="#19314B"/>
<stop offset="1" stop-color="#19314B" stop-opacity="0"/>
</linearGradient>
<linearGradient id="paint15_linear_411_2551" x1="897.415" y1="46.2795" x2="897.415" y2="679.753" gradientUnits="userSpaceOnUse">
<stop stop-color="#19314B"/>
<stop offset="1" stop-color="#19314B" stop-opacity="0"/>
</linearGradient>
<linearGradient id="paint16_linear_411_2551" x1="903.103" y1="49.2479" x2="903.103" y2="669.55" gradientUnits="userSpaceOnUse">
<stop stop-color="#19314B"/>
<stop offset="1" stop-color="#19314B" stop-opacity="0"/>
</linearGradient>
<linearGradient id="paint17_linear_411_2551" x1="908.765" y1="52.1721" x2="908.765" y2="692.314" gradientUnits="userSpaceOnUse">
<stop stop-color="#19314B"/>
<stop offset="1" stop-color="#19314B" stop-opacity="0"/>
</linearGradient>
<linearGradient id="paint18_linear_411_2551" x1="914.441" y1="55.1539" x2="914.441" y2="724.294" gradientUnits="userSpaceOnUse">
<stop stop-color="#19314B"/>
<stop offset="1" stop-color="#19314B" stop-opacity="0"/>
</linearGradient>
<linearGradient id="paint19_linear_411_2551" x1="920.116" y1="58.0825" x2="920.116" y2="756.269" gradientUnits="userSpaceOnUse">
<stop stop-color="#19314B"/>
<stop offset="1" stop-color="#19314B" stop-opacity="0"/>
</linearGradient>
<linearGradient id="paint20_linear_411_2551" x1="925.789" y1="61.0466" x2="925.789" y2="788.245" gradientUnits="userSpaceOnUse">
<stop stop-color="#19314B"/>
<stop offset="1" stop-color="#19314B" stop-opacity="0"/>
</linearGradient>
<linearGradient id="paint21_linear_411_2551" x1="931.464" y1="63.9885" x2="931.464" y2="820.225" gradientUnits="userSpaceOnUse">
<stop stop-color="#19314B"/>
<stop offset="1" stop-color="#19314B" stop-opacity="0"/>
</linearGradient>
</defs>
</svg>
