<svg width="32" height="33" viewBox="0 0 32 33" fill="none" xmlns="http://www.w3.org/2000/svg">
<g clip-path="url(#clip0_354_1891)">
<path fill-rule="evenodd" clip-rule="evenodd" d="M9.82648 0.710739C9.65043 0.712169 9.4677 0.748336 9.30122 0.826923C8.77253 1.07649 8.57862 1.65506 8.87146 2.10495L10.0652 3.94065C7.18915 5.45611 5.28331 8.04455 5.28331 10.9988C5.28331 11.0112 5.28327 11.0299 5.28331 11.0482C5.28332 11.0547 5.28324 11.0584 5.28331 11.0656C5.28331 11.0753 5.28331 11.0894 5.28331 11.0918V11.5478C4.73093 11.0066 3.91895 10.6648 3.01172 10.6648C1.34965 10.6648 0 11.8141 0 13.2296V21.1301C0 22.5455 1.34965 23.6948 3.01172 23.6948C3.91895 23.6948 4.73093 23.3531 5.28331 22.8118V23.9185C5.28331 25.4105 6.71696 26.6314 8.46898 26.6314H9.27734V30.1459C9.27734 31.5613 10.627 32.7107 12.2891 32.7107C13.9511 32.7107 15.3008 31.5613 15.3008 30.1459V26.6314H16.6992V30.1459C16.6992 31.5613 18.0489 32.7107 19.7109 32.7107C21.373 32.7107 22.7227 31.5613 22.7227 30.1459V26.6314H23.531C25.283 26.6314 26.7167 25.4105 26.7167 23.9185V22.8118C27.2691 23.3531 28.0811 23.6948 28.9883 23.6948C30.6504 23.6948 32 22.5455 32 21.1301V13.2296C32 11.8141 30.6504 10.6648 28.9883 10.6648C28.0811 10.6648 27.2691 11.0066 26.7167 11.5478V11.1005V11.0918C26.7168 11.0778 26.7167 11.0639 26.7167 11.0656C26.7169 11.0378 26.7167 11.0156 26.7167 10.9988C26.7167 8.04507 24.8066 5.45912 21.9314 3.94356L23.1285 2.10494C23.4214 1.65506 23.2275 1.07649 22.6988 0.82692C22.5323 0.748334 22.3496 0.712168 22.1735 0.710736C21.7831 0.707554 21.3999 0.882775 21.198 1.1929L19.9463 3.11865C18.7223 2.734 17.3905 2.52321 16 2.52321C14.6109 2.52321 13.2767 2.73184 12.0537 3.11574L10.802 1.1929C10.6001 0.882774 10.2169 0.707561 9.82648 0.710736V0.710739Z" fill="white"/>
<path fill-rule="evenodd" clip-rule="evenodd" d="M3.0124 11.3328C1.77209 11.3328 0.785156 12.1732 0.785156 13.2295V21.13C0.785156 22.1862 1.77209 23.0267 3.0124 23.0267C4.25271 23.0267 5.23964 22.1862 5.23964 21.13V13.2295C5.23964 12.1732 4.25271 11.3328 3.0124 11.3328ZM28.9889 11.3328C27.7486 11.3328 26.7617 12.1732 26.7617 13.2295V21.13C26.7617 22.1862 27.7486 23.0267 28.9889 23.0267C30.2292 23.0267 31.2162 22.1862 31.2162 21.13V13.2295C31.2162 12.1732 30.2292 11.3328 28.9889 11.3328Z" fill="#A4C639"/>
<path fill-rule="evenodd" clip-rule="evenodd" d="M12.2888 20.3486C11.0485 20.3486 10.0615 21.1891 10.0615 22.2453V30.1458C10.0615 31.2021 11.0485 32.0425 12.2888 32.0425C13.5291 32.0425 14.516 31.2021 14.516 30.1458V22.2453C14.516 21.1891 13.5291 20.3486 12.2888 20.3486ZM19.711 20.3486C18.4707 20.3486 17.4837 21.1891 17.4837 22.2453V30.1458C17.4837 31.2021 18.4707 32.0425 19.711 32.0425C20.9513 32.0425 21.9382 31.2021 21.9382 30.1458V22.2453C21.9382 21.1891 20.9513 20.3486 19.711 20.3486Z" fill="#A4C639"/>
<path fill-rule="evenodd" clip-rule="evenodd" d="M9.83387 1.37868C9.78122 1.37913 9.73216 1.3907 9.68379 1.41353C9.52497 1.4885 9.47275 1.64392 9.56101 1.77951L11.13 4.19323C8.11136 5.5308 6.07245 8.07271 6.06836 10.99H25.9328C25.9287 8.07271 23.8898 5.5308 20.8712 4.19323L22.4401 1.77951C22.5284 1.64392 22.4762 1.4885 22.3173 1.41353C22.269 1.3907 22.2199 1.3791 22.1673 1.37868C22.0546 1.37775 21.9477 1.42571 21.8876 1.5181L20.2982 3.95796C18.9979 3.46682 17.5396 3.19115 16.0006 3.19115C14.4616 3.19115 13.0032 3.46682 11.703 3.95796L10.1136 1.5181C10.0534 1.42571 9.94658 1.37775 9.83387 1.37868ZM6.06836 11.6581V23.9184C6.06836 25.0513 7.13929 25.9632 8.46955 25.9632H23.5316C24.8619 25.9632 25.9328 25.0513 25.9328 23.9184V11.6581H6.06836Z" fill="#A4C639"/>
<path fill-rule="evenodd" clip-rule="evenodd" d="M11.4157 6.48218C10.9623 6.48218 10.5869 6.80183 10.5869 7.188C10.5869 7.57416 10.9623 7.89381 11.4157 7.89381C11.8692 7.89381 12.2446 7.57416 12.2446 7.188C12.2446 6.80183 11.8692 6.48218 11.4157 6.48218ZM20.5842 6.48218C20.1307 6.48218 19.7554 6.80183 19.7554 7.188C19.7554 7.57416 20.1307 7.89381 20.5842 7.89381C21.0377 7.89381 21.413 7.57416 21.413 7.188C21.413 6.80183 21.0377 6.48218 20.5842 6.48218Z" fill="white"/>
</g>
<defs>
<clipPath id="clip0_354_1891">
<rect width="32" height="32" fill="white" transform="translate(0 0.669922)"/>
</clipPath>
</defs>
</svg>
