<svg width="32" height="32" viewBox="0 0 32 32" fill="none" xmlns="http://www.w3.org/2000/svg">
<path d="M19.9199 6.91999C20.4239 6.33903 20.8083 5.66422 21.0508 4.93431C21.2934 4.20439 21.3893 3.43376 21.3332 2.66666C19.7857 2.79157 18.3492 3.5194 17.3332 4.69332C16.8467 5.25596 16.478 5.9105 16.249 6.61818C16.0199 7.32587 15.9352 8.07232 15.9999 8.81332C16.7547 8.81961 17.5009 8.65212 18.1807 8.3238C18.8604 7.99549 19.4555 7.51516 19.9199 6.91999ZM23.2799 16.84C23.2888 15.8183 23.5579 14.8157 24.0618 13.9269C24.5657 13.0381 25.2878 12.2923 26.1599 11.76C25.6095 10.967 24.8819 10.3131 24.0349 9.85022C23.1878 9.38734 22.2445 9.12819 21.2799 9.09332C19.1999 8.87999 17.2799 10.3067 16.1732 10.3067C15.0665 10.3067 13.5065 9.11999 11.7732 9.14666C10.6401 9.18398 9.53591 9.51436 8.56848 10.1056C7.60105 10.6968 6.80336 11.5286 6.25322 12.52C3.90655 16.6 5.65322 22.6667 7.99988 25.96C9.06655 27.5733 10.3999 29.4 12.1599 29.3333C13.9199 29.2667 14.4932 28.24 16.5332 28.24C18.5732 28.24 19.1999 29.3333 20.9332 29.2933C22.6665 29.2533 23.8932 27.64 25.0132 26.0267C25.8066 24.8554 26.4264 23.5754 26.8532 22.2267C25.7965 21.776 24.895 21.0257 24.2599 20.0684C23.6249 19.1111 23.2842 17.9888 23.2799 16.84Z" fill="#F8F6FD"/>
</svg>
