<svg width="48" height="49" viewBox="0 0 48 49" fill="none" xmlns="http://www.w3.org/2000/svg">
<path d="M13.5266 20.5809C13.5266 21.1716 13.5904 21.6505 13.7022 22.0018C13.8299 22.353 13.9895 22.7361 14.213 23.1512C14.2928 23.2789 14.3248 23.4066 14.3248 23.5184C14.3248 23.678 14.229 23.8377 14.0215 23.9973L13.0157 24.6678C12.872 24.7636 12.7283 24.8115 12.6006 24.8115C12.441 24.8115 12.2813 24.7317 12.1217 24.588C11.8982 24.3485 11.7066 24.0931 11.547 23.8377C11.3873 23.5663 11.2277 23.2629 11.0521 22.8958C9.80688 24.3645 8.24238 25.0988 6.35859 25.0988C5.01759 25.0988 3.94798 24.7157 3.16573 23.9494C2.38348 23.1831 1.98438 22.1614 1.98438 20.8843C1.98438 19.5273 2.4633 18.4258 3.43713 17.5956C4.41095 16.7655 5.70406 16.3504 7.34838 16.3504C7.89116 16.3504 8.44991 16.3983 9.04059 16.4781C9.63127 16.5579 10.2379 16.6856 10.8765 16.8293V15.6639C10.8765 14.4506 10.6211 13.6045 10.1262 13.1096C9.61531 12.6148 8.75324 12.3753 7.52399 12.3753C6.96524 12.3753 6.39052 12.4391 5.79984 12.5828C5.20916 12.7265 4.63445 12.9021 4.0757 13.1256C3.82027 13.2374 3.6287 13.3012 3.51695 13.3331C3.4052 13.3651 3.32538 13.381 3.26152 13.381C3.03802 13.381 2.92627 13.2214 2.92627 12.8861V12.1039C2.92627 11.8485 2.9582 11.6569 3.03802 11.5451C3.11784 11.4334 3.26152 11.3216 3.48502 11.2099C4.04377 10.9225 4.71427 10.6831 5.49652 10.4915C6.27877 10.284 7.10891 10.1882 7.98695 10.1882C9.8867 10.1882 11.2756 10.6192 12.1696 11.4813C13.0476 12.3434 13.4946 13.6524 13.4946 15.4085V20.5809H13.5266ZM7.04506 23.0075C7.57188 23.0075 8.11466 22.9117 8.68938 22.7201C9.26409 22.5286 9.77495 22.1774 10.206 21.6984C10.4614 21.3951 10.653 21.0599 10.7488 20.6767C10.8446 20.2936 10.9084 19.8306 10.9084 19.2878V18.6173C10.4455 18.5056 9.95056 18.4098 9.4397 18.3459C8.92884 18.2821 8.43395 18.2501 7.93906 18.2501C6.86945 18.2501 6.0872 18.4577 5.56038 18.8887C5.03356 19.3198 4.77813 19.9264 4.77813 20.7246C4.77813 21.4749 4.9697 22.0337 5.36881 22.4168C5.75195 22.8159 6.3107 23.0075 7.04506 23.0075ZM19.8644 24.7317C19.577 24.7317 19.3855 24.6838 19.2577 24.572C19.13 24.4762 19.0183 24.2527 18.9225 23.9494L15.1709 11.609C15.0751 11.2897 15.0272 11.0822 15.0272 10.9704C15.0272 10.715 15.1549 10.5713 15.4103 10.5713H16.9748C17.2782 10.5713 17.4857 10.6192 17.5975 10.731C17.7252 10.8268 17.821 11.0503 17.9167 11.3536L20.5987 21.9219L23.0892 11.3536C23.169 11.0343 23.2648 10.8268 23.3925 10.731C23.5202 10.6352 23.7437 10.5713 24.0311 10.5713H25.3082C25.6115 10.5713 25.8191 10.6192 25.9468 10.731C26.0745 10.8268 26.1863 11.0503 26.2501 11.3536L28.7725 22.0497L31.5343 11.3536C31.6301 11.0343 31.7418 10.8268 31.8536 10.731C31.9813 10.6352 32.1888 10.5713 32.4762 10.5713H33.9609C34.2163 10.5713 34.36 10.699 34.36 10.9704C34.36 11.0503 34.344 11.1301 34.328 11.2259C34.3121 11.3216 34.2802 11.4494 34.2163 11.625L30.3689 23.9654C30.2731 24.2847 30.1614 24.4922 30.0336 24.588C29.9059 24.6838 29.6984 24.7476 29.427 24.7476H28.0541C27.7508 24.7476 27.5432 24.6997 27.4155 24.588C27.2878 24.4762 27.176 24.2687 27.1122 23.9494L24.6377 13.6524L22.1792 23.9334C22.0994 24.2527 22.0036 24.4603 21.8759 24.572C21.7482 24.6838 21.5247 24.7317 21.2373 24.7317H19.8644ZM40.3785 25.1627C39.5484 25.1627 38.7182 25.0669 37.92 24.8753C37.1218 24.6838 36.4992 24.4762 36.0841 24.2368C35.8287 24.0931 35.6531 23.9334 35.5892 23.7898C35.5254 23.6461 35.4934 23.4864 35.4934 23.3428V22.5286C35.4934 22.1933 35.6212 22.0337 35.8606 22.0337C35.9564 22.0337 36.0522 22.0497 36.148 22.0816C36.2438 22.1135 36.3874 22.1774 36.5471 22.2412C37.0899 22.4807 37.6805 22.6723 38.3032 22.8C38.9417 22.9277 39.5643 22.9915 40.2029 22.9915C41.2087 22.9915 41.9909 22.8159 42.5337 22.4647C43.0765 22.1135 43.3638 21.6027 43.3638 20.9481C43.3638 20.5011 43.2202 20.1339 42.9328 19.8306C42.6454 19.5273 42.1027 19.2559 41.3204 19.0005L39.0056 18.2821C37.8402 17.9149 36.9781 17.3721 36.4513 16.6537C35.9245 15.9513 35.6531 15.169 35.6531 14.3389C35.6531 13.6684 35.7968 13.0777 36.0841 12.5669C36.3715 12.056 36.7546 11.609 37.2335 11.2578C37.7125 10.8906 38.2553 10.6192 38.8938 10.4276C39.5324 10.2361 40.2029 10.1562 40.9053 10.1562C41.2565 10.1562 41.6237 10.1722 41.9749 10.2201C42.3421 10.268 42.6774 10.3319 43.0126 10.3957C43.3319 10.4755 43.6352 10.5554 43.9226 10.6511C44.2099 10.7469 44.4334 10.8427 44.5931 10.9385C44.8166 11.0662 44.9762 11.1939 45.072 11.3376C45.1678 11.4653 45.2157 11.6409 45.2157 11.8644V12.6148C45.2157 12.95 45.088 13.1256 44.8485 13.1256C44.7208 13.1256 44.5133 13.0618 44.2419 12.934C43.3319 12.519 42.3102 12.3114 41.1767 12.3114C40.2668 12.3114 39.5484 12.4551 39.0535 12.7584C38.5586 13.0618 38.3032 13.5247 38.3032 14.1793C38.3032 14.6263 38.4628 15.0094 38.7821 15.3127C39.1014 15.616 39.692 15.9194 40.5382 16.1908L42.8051 16.9091C43.9545 17.2763 44.7847 17.7872 45.2796 18.4417C45.7744 19.0963 46.0139 19.8466 46.0139 20.6767C46.0139 21.3632 45.8702 21.9858 45.5988 22.5286C45.3115 23.0714 44.9283 23.5503 44.4334 23.9334C43.9385 24.3325 43.3479 24.6199 42.6614 24.8274C41.943 25.0509 41.1927 25.1627 40.3785 25.1627Z" fill="white"/>
<path d="M43.3961 32.9214C38.1438 36.8007 30.5129 38.8601 23.9516 38.8601C14.7561 38.8601 6.47065 35.4597 0.212647 29.8083C-0.282246 29.3613 0.164754 28.7547 0.755433 29.1059C7.52429 33.0331 15.8736 35.4118 24.5103 35.4118C30.3373 35.4118 36.739 34.1985 42.6298 31.7081C43.5078 31.309 44.2581 32.2828 43.3961 32.9214ZM45.5832 30.4309C44.9127 29.5689 41.1451 30.0159 39.4369 30.2234C38.9261 30.2873 38.8462 29.8403 39.3092 29.505C42.3105 27.3977 47.2435 28.0044 47.8182 28.7068C48.3929 29.4252 47.6585 34.3582 44.8488 36.7209C44.4178 37.0881 44.0027 36.8965 44.1943 36.4176C44.8329 34.8371 46.2537 31.2771 45.5832 30.4309Z" fill="#FF9900"/>
</svg>
