<svg width="32" height="32" viewBox="0 0 32 32" fill="none" xmlns="http://www.w3.org/2000/svg">
<path d="M10.6679 0.937864H20.137L10.3072 30.0626C10.1 30.6763 9.52454 31.0896 8.87686 31.0896H1.50757C1.02204 31.0896 0.566204 30.8558 0.282999 30.4615C-0.000206947 30.0671 -0.0761057 29.5604 0.0791011 29.1004L9.23725 1.96485C9.44433 1.35092 10.02 0.9375 10.6679 0.9375V0.937864Z" fill="url(#paint0_linear_354_1934)"/>
<path d="M24.4282 20.4728H9.41255C9.12687 20.4725 8.87009 20.647 8.76528 20.9128C8.66047 21.1786 8.72898 21.4814 8.93797 21.6762L18.5867 30.682C18.8676 30.944 19.2375 31.0896 19.6217 31.0896H28.1242L24.4282 20.4728Z" fill="#0078D4"/>
<path d="M10.6679 0.937847C10.0123 0.935342 9.43126 1.35959 9.234 1.98485L0.0904011 29.0756C-0.075303 29.5375 -0.00551811 30.0512 0.277407 30.4521C0.560333 30.853 1.0209 31.0909 1.5116 31.0896H9.07108C9.64428 30.9872 10.118 30.5843 10.3112 30.035L12.1346 24.6611L18.6478 30.7361C18.9208 30.9619 19.2631 31.0867 19.6173 31.0896H28.0882L24.373 20.4728L13.5427 20.4753L20.1712 0.937847H10.6679Z" fill="url(#paint1_linear_354_1934)"/>
<path d="M22.7619 1.9634C22.5551 1.35046 21.9803 0.937866 21.3334 0.937866H10.7803C11.4271 0.937866 12.0019 1.35053 12.2087 1.9634L21.3673 29.1C21.5226 29.5601 21.4468 30.0669 21.1636 30.4615C20.8803 30.856 20.4244 31.09 19.9388 31.09H30.4923C30.9779 31.09 31.4337 30.8558 31.7168 30.4613C31.9999 30.0668 32.0757 29.5601 31.9204 29.1L22.7619 1.9634Z" fill="url(#paint2_linear_354_1934)"/>
<defs>
<linearGradient id="paint0_linear_354_1934" x1="11.8751" y1="3.17222" x2="2.60132" y2="30.5694" gradientUnits="userSpaceOnUse">
<stop stop-color="#114A8B"/>
<stop offset="1" stop-color="#0669BC"/>
</linearGradient>
<linearGradient id="paint1_linear_354_1934" x1="16.7747" y1="16.7111" x2="14.7701" y2="17.3889" gradientUnits="userSpaceOnUse">
<stop stop-opacity="0.3"/>
<stop offset="0.071" stop-opacity="0.2"/>
<stop offset="0.321" stop-opacity="0.1"/>
<stop offset="0.623" stop-opacity="0.05"/>
<stop offset="1" stop-opacity="0"/>
</linearGradient>
<linearGradient id="paint2_linear_354_1934" x1="18.6906" y1="2.32488" x2="28.8124" y2="29.2912" gradientUnits="userSpaceOnUse">
<stop stop-color="#3CCBF4"/>
<stop offset="1" stop-color="#2892DF"/>
</linearGradient>
</defs>
</svg>
