<svg width="32" height="32" viewBox="0 0 32 32" fill="none" xmlns="http://www.w3.org/2000/svg">
<path d="M6.64651 3.25C4.82061 3.25 3.46956 4.8481 3.53003 6.58125C3.58807 8.24634 3.51268 10.4028 2.96976 12.1615C2.42522 13.9253 1.50427 15.0425 0 15.186V16.8055C1.50427 16.949 2.42522 18.0663 2.96976 19.8301C3.51268 21.5887 3.58807 23.7452 3.53003 25.4103C3.46956 27.1432 4.82061 28.7415 6.64678 28.7415H25.3559C27.1818 28.7415 28.5326 27.1434 28.4721 25.4103C28.4141 23.7452 28.4895 21.5887 29.0324 19.8301C29.5772 18.0663 30.4957 16.949 32 16.8055V15.186C30.4957 15.0425 29.5772 13.9253 29.0324 12.1615C28.4895 10.4031 28.4141 8.24634 28.4721 6.58125C28.5326 4.84837 27.1818 3.25 25.3559 3.25H6.64624H6.64651ZM21.6949 18.9417C21.6949 21.3281 19.9148 22.7754 16.9608 22.7754H11.9322C11.6327 22.7754 11.3898 22.5326 11.3898 22.2331V9.75847C11.3898 9.45893 11.6327 9.2161 11.9322 9.2161H16.9321C19.3953 9.2161 21.0118 10.5503 21.0118 12.5989C21.0118 14.0367 19.9243 15.324 18.5388 15.5494V15.6245C20.4249 15.8314 21.6949 17.1375 21.6949 18.9417ZM16.4125 10.9354H13.5452V14.9853H15.9601C17.827 14.9853 18.8564 14.2336 18.8564 12.8899C18.8564 11.6307 17.9713 10.9354 16.4125 10.9354ZM13.5452 16.5924V21.0556H16.518C18.4616 21.0556 19.4913 20.2756 19.4913 18.8099C19.4913 17.3438 18.4328 16.5921 16.393 16.5921H13.5452V16.5924Z" fill="#7E13F8"/>
</svg>
