<svg width="48" height="49" viewBox="0 0 48 49" fill="none" xmlns="http://www.w3.org/2000/svg">
<g clip-path="url(#clip0_299_2504)">
<path d="M24 48.5C37.2548 48.5 48 37.7548 48 24.5C48 11.2452 37.2548 0.5 24 0.5C10.7452 0.5 0 11.2452 0 24.5C0 37.7548 10.7452 48.5 24 48.5Z" fill="#05930C"/>
<path d="M7.29424 7.2688L41.2005 41.2376C36.8405 45.7175 30.7452 48.5001 24 48.5001C10.7452 48.5001 0 37.7549 0 24.5001C0 17.739 2.79574 11.6309 7.29424 7.2688Z" fill="white" fill-opacity="0.1"/>
<path d="M22.8216 33.1625C21.1889 33.9569 19.3861 34.3381 17.5716 34.2725C15.1457 34.3788 12.7919 33.4329 11.1141 31.6775C9.447 29.8087 8.57748 27.3617 8.69161 24.86C8.57426 22.149 9.55901 19.5059 11.4216 17.5325C13.2424 15.6697 15.7633 14.6597 18.3666 14.75C19.8873 14.692 21.4037 14.9473 22.8216 15.5V17.8625C21.4464 17.0982 19.8948 16.7077 18.3216 16.73C16.3399 16.6643 14.4263 17.4571 13.0716 18.905C11.6672 20.5059 10.941 22.5905 11.0466 24.7175C10.9427 26.7276 11.6199 28.7001 12.9366 30.2225C14.2141 31.596 16.0273 32.3438 17.9016 32.27C19.6299 32.313 21.3361 31.8741 22.8291 31.0025L22.8216 33.1625ZM39.5691 20.345L39.2691 21.74H35.8191L34.9941 25.7H38.6991L38.3466 27.095H34.7166L33.5541 32.345H31.8966L33.0291 27.095H29.7291L28.6191 32.345H26.9991L28.1091 27.095H24.6291L24.8916 25.7H28.3866L29.1891 21.7475H25.5366L25.8141 20.3525H29.4666L30.5766 15.05H32.2491L31.1391 20.3525H34.4616L35.5941 15.05H37.2141L36.1041 20.3525L39.5691 20.345ZM34.1916 21.74H30.8616L29.9991 25.7H33.3441L34.1916 21.74Z" fill="white"/>
</g>
<defs>
<clipPath id="clip0_299_2504">
<rect width="48" height="48" fill="white" transform="translate(0 0.5)"/>
</clipPath>
</defs>
</svg>
