<svg width="48" height="48" viewBox="0 0 48 48" fill="none" xmlns="http://www.w3.org/2000/svg">
<path fill-rule="evenodd" clip-rule="evenodd" d="M6.66435 43.2015L2.8125 0H45.1382L41.2822 43.1944L23.9497 48L6.66435 43.2015Z" fill="#0071BC"/>
<path fill-rule="evenodd" clip-rule="evenodd" d="M24.0117 44.3246L37.9998 40.4765L41.2772 3.5979H24.0117V44.3246Z" fill="#29ABE2"/>
<path fill-rule="evenodd" clip-rule="evenodd" d="M11.6289 19.4699L12.0929 24.7607L24.0104 19.4699V14.1707L11.6289 19.4699Z" fill="#B3B3B3"/>
<path fill-rule="evenodd" clip-rule="evenodd" d="M37.2108 8.51392L24.0117 14.1706V19.4699L36.7557 13.8046L37.2108 8.51392Z" fill="#E6E6E6"/>
<path fill-rule="evenodd" clip-rule="evenodd" d="M24.01 33.3129L23.9691 33.319L18.0588 31.7318L17.6727 27.5117H12.3535L13.0958 35.8255L23.9679 38.8359L24.01 38.8259V33.3129Z" fill="#E6E6E6"/>
<path fill-rule="evenodd" clip-rule="evenodd" d="M24.0117 19.4697V24.7604H30.4825L29.8944 31.6776L24.0117 33.3173V38.8299L34.8477 35.8196L36.2746 19.4697H24.0117Z" fill="#CCD1D7"/>
<path fill-rule="evenodd" clip-rule="evenodd" d="M24.0104 19.4697H11.6289L12.0929 24.7604H24.0104V19.4697Z" fill="#E6E6E6"/>
<path fill-rule="evenodd" clip-rule="evenodd" d="M24.0117 13.8046V8.51392H23.9579H10.6895L11.159 13.8046H24.0117Z" fill="#E6E6E6"/>
<path fill-rule="evenodd" clip-rule="evenodd" d="M24.0117 8.51392V13.7383V13.8046H36.7557L37.2108 8.51392H24.0117Z" fill="#CCD1D7"/>
</svg>
