<svg width="32" height="32" viewBox="0 0 32 32" fill="none" xmlns="http://www.w3.org/2000/svg">
<path d="M24.9443 8.99982L25.6349 9.4998C26.8358 10.4685 27.5264 11.5622 27.6765 12.8122C28.9676 12.5622 30.6189 12.7497 31.3395 13.2496L32 13.6559L31.8799 13.9059C31.6697 14.3746 31.6097 14.4996 31.5797 14.5621C30.4087 16.9057 28.0969 16.937 27.016 16.9057C24.2838 23.7492 18.4591 27.5303 10.5928 27.5303C6.95983 27.5303 4.19761 26.3741 2.33611 24.093C-0.125871 21.0931 -0.125871 17.187 0.0842979 15.937L0.144346 15.687H21.8518C22.9927 15.687 23.8634 15.3746 24.2838 15.1246C23.8334 14.4371 23.6833 13.6559 23.6533 13.2184C23.5632 11.9684 23.8634 10.656 24.4639 9.71854L24.9443 8.99982ZM5.78889 11.9372V15.0621H2.48623V11.9372H5.78889ZM9.69203 11.9372V15.0621H6.38938V11.9372H9.69203ZM13.5952 11.9372V15.0621H10.2925V11.9372H13.5952ZM17.4983 11.9372V15.0621H14.1957V11.9372H17.4983ZM21.4015 11.9372V15.0621H18.0988V11.9372H21.4015ZM17.4983 8.18735V11.3122H14.1957V8.18735H17.4983ZM13.5952 8.18735V11.3122H10.2925V8.18735H13.5952ZM9.69203 8.18735V11.3122H6.38938V8.18735H9.69203ZM17.4983 4.4375V7.56237H14.1957V4.4375H17.4983Z" fill="#2396ED"/>
</svg>
