<svg width="32" height="32" viewBox="0 0 32 32" fill="none" xmlns="http://www.w3.org/2000/svg">
<path d="M16.0004 2.99561C12.8343 2.99574 9.77165 4.12242 7.36032 6.17407C4.94899 8.22571 3.34636 11.0684 2.83921 14.1936C2.33205 17.3187 2.95345 20.5224 4.59223 23.2313C6.231 25.9402 8.78021 27.9776 11.7837 28.9789C12.4504 29.0956 12.7004 28.6956 12.7004 28.3456C12.7004 28.0289 12.6837 26.9789 12.6837 25.8623C9.3337 26.4789 8.46703 25.0456 8.20036 24.2956C7.90446 23.5662 7.4354 22.9198 6.8337 22.4123C6.36703 22.1623 5.70036 21.5456 6.81702 21.529C7.2434 21.5752 7.65234 21.7236 8.0092 21.9615C8.36606 22.1994 8.66032 22.5198 8.86703 22.8956C9.04939 23.2232 9.2946 23.5116 9.58861 23.7443C9.88263 23.9769 10.2197 24.1493 10.5804 24.2515C10.9411 24.3537 11.3185 24.3837 11.6909 24.3397C12.0632 24.2958 12.4233 24.1789 12.7503 23.9956C12.8081 23.3178 13.1101 22.684 13.6004 22.2123C10.6337 21.879 7.5337 20.7289 7.5337 15.629C7.51496 14.3038 8.00394 13.0217 8.90036 12.0456C8.49274 10.8939 8.54043 9.63002 9.0337 8.51231C9.0337 8.51231 10.1503 8.1623 12.7004 9.87898C14.8821 9.27894 17.1853 9.27894 19.367 9.87898C21.917 8.14565 23.0337 8.51231 23.0337 8.51231C23.527 9.63001 23.5747 10.8939 23.167 12.0456C24.0661 13.0201 24.5556 14.3033 24.5337 15.629C24.5337 20.7456 21.417 21.879 18.4504 22.2123C18.7686 22.5348 19.0136 22.922 19.1689 23.3477C19.3242 23.7733 19.3861 24.2273 19.3504 24.679C19.3504 26.4623 19.3337 27.8956 19.3337 28.3456C19.3337 28.6957 19.5837 29.1123 20.2504 28.979C23.2486 27.9695 25.7905 25.9273 27.4222 23.217C29.054 20.5067 29.6695 17.3047 29.1589 14.1826C28.6482 11.0605 27.0446 8.22143 24.6343 6.17229C22.224 4.12314 19.164 2.99725 16.0004 2.99561Z" fill="white"/>
</svg>
