<svg width="48" height="48" viewBox="0 0 48 48" fill="none" xmlns="http://www.w3.org/2000/svg">
<g clip-path="url(#clip0_300_2574)">
<path d="M47.1937 19.168L47.1265 18.9961L40.601 1.96962C40.4684 1.63569 40.2337 1.35218 39.9305 1.15954C39.625 0.966714 39.2672 0.873462 38.9065 0.892661C38.5457 0.911859 38.1998 1.04256 37.9165 1.26672C37.6358 1.49177 37.4335 1.7997 37.3382 2.14659L32.9264 15.6486H15.0773L10.6656 2.14659C10.5704 1.7997 10.368 1.49177 10.0874 1.26672C9.80525 1.04105 9.45956 0.909369 9.09882 0.890147C8.73807 0.870924 8.38035 0.96513 8.07587 1.15954C7.77132 1.35139 7.53566 1.63507 7.40288 1.96962L0.869948 19.0185L0.802649 19.188C-0.135153 21.6435 -0.250429 24.337 0.474155 26.8636C1.19874 29.3902 2.72402 31.6134 4.82061 33.1986L4.84554 33.216L4.90287 33.2608L14.8556 40.711L19.7758 44.4375L22.7669 46.7031C23.1182 46.9686 23.5466 47.1123 23.987 47.1123C24.4273 47.1123 24.8557 46.9686 25.2071 46.7031L28.1981 44.4375L33.1208 40.711L43.1309 33.216L43.1582 33.196C45.262 31.6123 46.7933 29.3874 47.5213 26.8567C48.2494 24.3262 48.1343 21.6276 47.1937 19.168Z" fill="#E24329"/>
<path d="M47.1923 19.168L47.1251 18.9961C43.9425 19.6519 40.9436 21.0007 38.3414 22.9466L24.0117 33.8066C28.8971 37.5007 33.1494 40.711 33.1494 40.711L43.1594 33.2159L43.1868 33.196C45.2853 31.6084 46.8107 29.3815 47.5332 26.8513C48.2558 24.3209 48.1361 21.6244 47.1923 19.168Z" fill="#FC6D26"/>
<path d="M14.8613 40.711L19.7741 44.4374L22.7651 46.703C23.1166 46.9685 23.5448 47.1122 23.9852 47.1122C24.4256 47.1122 24.854 46.9685 25.2053 46.703L28.1963 44.4374L33.1192 40.711C33.1192 40.711 28.8668 37.5007 23.9815 33.8066L14.8613 40.711Z" fill="#FCA326"/>
<path d="M9.65269 22.9567C7.05114 21.01 4.05184 19.6619 0.868999 19.0085L0.8017 19.178C-0.138511 21.6347 -0.255054 24.3304 0.469618 26.8591C1.19429 29.3878 2.72094 31.6126 4.81966 33.1985L4.84459 33.2159L4.90192 33.2608L14.8546 40.711L24.0121 33.8066L9.65269 22.9567Z" fill="#FC6D26"/>
</g>
<defs>
<clipPath id="clip0_300_2574">
<rect width="48" height="48" fill="white"/>
</clipPath>
</defs>
</svg>
