<svg width="48" height="48" viewBox="0 0 48 48" fill="none" xmlns="http://www.w3.org/2000/svg">
<path fill-rule="evenodd" clip-rule="evenodd" d="M6.66424 43.2018L2.8125 0H45.1365L41.2806 43.195L23.9486 48L6.66424 43.2018Z" fill="#E44D26"/>
<path fill-rule="evenodd" clip-rule="evenodd" d="M23.9746 44.3273L37.9798 40.4446L41.2748 3.53247H23.9746V44.3273Z" fill="#F16529"/>
<path d="M16.9623 19.5554H23.9737V24.8538H12.1166L10.6875 8.83105H23.9737V14.1296H16.4781L16.9623 19.5554Z" fill="#EBEBEB"/>
<path d="M23.9504 33.3224L23.9737 33.3162V38.8289L23.9493 38.8357L13.0957 35.8226L12.3533 27.5032H17.6722L18.0495 31.729L23.9504 33.3224Z" fill="#EBEBEB"/>
<path d="M23.957 8.83105H37.2299L36.7555 14.1296H23.957V8.83105Z" fill="#CCD1D7"/>
<path d="M23.957 24.8538V19.5554H36.2734L36.1441 20.9782L34.8193 35.8226L23.957 38.8331V33.3206L29.8665 31.7256L30.4816 24.8538H23.957Z" fill="#CCD1D7"/>
</svg>
