<svg width="48" height="48" viewBox="0 0 48 48" fill="none" xmlns="http://www.w3.org/2000/svg">
<path d="M24.0284 0.0002223C27.9242 0.0002223 31.5924 0.910399 35.0332 2.67343L35.4882 2.90092L35.09 3.21372C34.1232 3.98149 33.3554 4.97675 32.872 6.11419L32.7299 6.42699L32.4455 6.28481C29.8009 5.03362 26.9858 4.37959 24.0569 4.37959C13.2227 4.37959 4.43602 13.1948 4.43602 24.0004C4.43602 34.8061 13.1943 43.6213 24.0284 43.6213C34.8626 43.6213 43.6493 34.8061 43.6493 24.0004C43.6493 21.4128 43.1659 18.882 42.1422 16.4933L42 16.1805L42.3128 16.0384C43.4787 15.6118 44.5024 14.9009 45.327 13.991L45.6398 13.5929L45.8389 14.0478C47.2891 17.2042 48 20.5597 48 23.9436C48 37.1663 37.2227 47.9436 24 47.9436C10.7773 47.9436 0 37.1663 0 23.9436C0 10.7208 10.7773 -0.0564257 24.0284 0.0002223ZM24.0284 13.081C30.0284 13.081 34.9479 17.972 34.9763 24.0289C34.9763 30.0858 30.0853 34.9767 24.0284 34.9767C17.9716 34.9767 13.0806 30.0858 13.0806 24.0289C13.0806 17.972 18 13.081 24.0284 13.081ZM39.6967 4.03836C42.4607 4.03836 44.7014 6.27906 44.7014 9.0431C44.7014 11.8071 42.4607 14.0478 39.6967 14.0478C36.9326 14.0478 34.6919 11.8071 34.6919 9.0431C34.6919 6.27906 36.9326 4.03836 39.6967 4.03836Z" fill="#3880FF"/>
</svg>
