<svg width="48" height="49" viewBox="0 0 48 49" fill="none" xmlns="http://www.w3.org/2000/svg">
<g clip-path="url(#clip0_299_2507)">
<path d="M17.7761 37.6211C17.7761 37.6211 15.9418 38.6878 19.0815 39.0488C22.8852 39.4827 24.8292 39.4204 29.0208 38.6271C29.0208 38.6271 30.1228 39.3181 31.6619 39.9166C22.2653 43.9438 10.3956 39.6833 17.7761 37.6211Z" fill="#5382A1"/>
<path d="M16.6283 32.3657C16.6283 32.3657 14.571 33.8886 17.713 34.2136C21.7762 34.6328 24.985 34.6671 30.5374 33.5979C30.5374 33.5979 31.3053 34.3765 32.5129 34.8023C21.1519 38.1244 8.49787 35.0642 16.6283 32.3657Z" fill="#5382A1"/>
<path d="M26.3072 23.4511C28.6225 26.1167 25.6989 28.5155 25.6989 28.5155C25.6989 28.5155 31.5778 25.4806 28.8779 21.6802C26.3563 18.1361 24.4225 16.3752 34.8911 10.3037C34.8911 10.3037 18.4588 14.4078 26.3072 23.4511Z" fill="#E76F00"/>
<path d="M38.7355 41.508C38.7355 41.508 40.0929 42.6265 37.2406 43.4917C31.8168 45.1348 14.6661 45.631 9.90174 43.5572C8.18907 42.8121 11.4008 41.7782 12.4111 41.5612C13.4647 41.3327 14.0669 41.3753 14.0669 41.3753C12.1622 40.0335 1.75588 44.0099 8.78096 45.1487C27.9394 48.2556 43.7049 43.7496 38.7355 41.508Z" fill="#5382A1"/>
<path d="M18.659 26.9209C18.659 26.9209 9.93513 28.993 15.5697 29.7454C17.9488 30.0639 22.6914 29.9919 27.1091 29.6217C30.7194 29.3172 34.3446 28.6697 34.3446 28.6697C34.3446 28.6697 33.0716 29.2149 32.1506 29.8437C23.2916 32.1737 6.17768 31.0898 11.1046 28.7065C15.2712 26.6924 18.659 26.9209 18.659 26.9209Z" fill="#5382A1"/>
<path d="M34.3079 35.6684C43.3135 30.9887 39.1497 26.4916 36.2434 27.0975C35.5311 27.2458 35.2134 27.3742 35.2134 27.3742C35.2134 27.3742 35.4779 26.96 35.983 26.7807C41.7325 24.7593 46.1543 32.7424 34.127 35.9042C34.127 35.9043 34.2663 35.7797 34.3079 35.6684Z" fill="#5382A1"/>
<path d="M28.8788 0.5C28.8788 0.5 33.8663 5.4891 24.1485 13.1609C16.3558 19.3151 22.3715 22.824 24.1453 26.8331C19.5966 22.729 16.2584 19.1162 18.4979 15.7537C21.7849 10.8179 30.8912 8.42489 28.8788 0.5Z" fill="#E76F00"/>
<path d="M19.5439 48.3491C28.1882 48.9025 41.4623 48.0421 41.7767 43.9519C41.7767 43.9519 41.1724 45.5025 34.6327 46.7339C27.2547 48.1223 18.155 47.9602 12.7578 47.0704C12.7579 47.0702 13.8627 47.9848 19.5439 48.3491Z" fill="#5382A1"/>
</g>
<defs>
<clipPath id="clip0_299_2507">
<rect width="48" height="48" fill="white" transform="translate(0 0.5)"/>
</clipPath>
</defs>
</svg>
