<svg width="48" height="48" viewBox="0 0 48 48" fill="none" xmlns="http://www.w3.org/2000/svg">
<g clip-path="url(#clip0_298_2288)">
<path d="M41.3159 17.8812C43.0243 17.5174 46.8935 14.6064 47.5656 13.0653C42.0021 16.8514 38.4646 15.7897 36.6811 15.2545C36.6051 15.2317 36.5324 15.2098 36.4628 15.1894C36.0874 15.0819 35.2188 14.6919 34.4094 14.2054C34.3534 14.1717 34.2981 14.1386 34.2438 14.1059C32.556 13.0927 31.6808 12.5672 30.3248 10.5957C29.5558 9.47862 28.7873 7.70311 28.5351 6.68562C28.1189 5.00343 28.2342 2.4154 29.0253 0.1875C26.3995 2.53072 25.9948 7.05728 26.875 10.05C26.9866 10.429 27.6104 11.9178 27.948 12.4635C30.2173 16.1141 34.5505 19.3222 41.3159 17.8812Z" fill="#21609B"/>
<path d="M36.4889 28.0593C40.8115 28.0891 45.3265 26.0688 48 23.2323C45.661 29.1701 38.8882 32.9869 29.8052 31.7728C22.2004 30.7553 14.9558 23.1023 14.2094 15.4342C13.6637 9.85342 15.609 6.52259 18.814 2.48249C17.7001 4.59559 17.2839 6.22536 17.1801 7.26487C15.9623 19.3369 26.8235 27.9964 36.4889 28.0593Z" fill="#21609B"/>
<path d="M46.886 35.4863L46.6711 36.043C43.0095 43.1722 36.5224 47.5468 27.269 47.7397C22.9432 47.8288 18.8214 46.7191 16.129 45.5118C10.3181 42.9012 5.4309 38.0596 2.76162 32.8867C-1.06721 25.4712 -1.7576 15.1558 6.20359 7.45094C6.26492 7.45094 6.02353 7.8686 5.78213 8.28627C5.54073 8.70393 5.29933 9.1216 5.36066 9.1216L5.14154 9.83452C-0.595425 27.7956 17.0794 43.1874 34.2609 41.4271C38.3901 41.0041 43.6558 38.7427 46.886 35.4863Z" fill="#21609B"/>
</g>
<defs>
<clipPath id="clip0_298_2288">
<rect width="48" height="48" fill="white"/>
</clipPath>
</defs>
</svg>
