<svg width="48" height="49" viewBox="0 0 48 49" fill="none" xmlns="http://www.w3.org/2000/svg">
<path d="M37.5301 37.8909C39.1867 37.1902 41.1619 36.9352 43.7104 36.9987C43.6387 36.5219 42.728 35.9555 42.0608 35.5406C41.8369 35.4013 41.6403 35.2791 41.5122 35.183C40.4928 34.4504 39.4095 33.6855 38.3265 33.0168C37.9776 32.8036 37.4753 32.6257 36.9919 32.4546C36.6809 32.3444 36.3778 32.2371 36.1283 32.1249C35.8735 32.021 35.5264 31.9172 35.1516 31.805C34.2615 31.5387 33.2153 31.2257 32.8789 30.7551C32.0127 29.6289 31.4082 28.2672 30.8045 26.9073C30.7422 26.7668 30.6798 26.6264 30.6172 26.4862C30.3012 25.7639 29.9496 25.0273 29.5961 24.2866C29.2013 23.4593 28.804 22.6268 28.451 21.8032C28.2971 21.4677 28.1801 21.1506 28.065 20.8383C27.9178 20.4391 27.7735 20.048 27.559 19.637C25.2333 15.1453 21.793 11.386 17.6197 8.74193C16.2496 7.88176 14.7208 7.08514 13.0322 6.54374C12.5166 6.38911 11.9453 6.36422 11.3684 6.33908C10.8761 6.31763 10.3797 6.296 9.91028 6.19339H9.24117C8.85491 6.08609 8.51201 5.77636 8.19303 5.48824C8.03849 5.34866 7.88958 5.21415 7.74406 5.11018C6.75638 4.44127 5.7689 3.99499 4.59016 3.51735C4.17608 3.32629 2.99734 2.88021 2.58324 3.23076C2.32822 3.29451 2.20092 3.39004 2.13716 3.64485C1.88235 4.02718 2.10559 4.60056 2.26467 4.9509C2.58044 5.62455 2.97971 6.11739 3.38886 6.62241C3.59889 6.88166 3.81153 7.14411 4.0168 7.43589C4.11484 7.57427 4.21706 7.71579 4.32099 7.85968C4.79119 8.51065 5.29652 9.21026 5.60964 9.8887C6.05147 10.8405 6.3664 11.8467 6.68018 12.8492C6.95457 13.7258 7.22808 14.5996 7.58479 15.4319C7.87138 16.101 8.31745 16.8654 8.73155 17.4708C8.86143 17.6479 9.03074 17.8075 9.20214 17.9691C9.4931 18.2434 9.79006 18.5234 9.91029 18.9043C10.2201 19.4206 9.65131 20.8991 9.30573 21.7974C9.22484 22.0076 9.15618 22.1861 9.11387 22.313C8.28548 24.9251 8.44476 28.5569 9.40046 30.8186C9.43462 30.8983 9.46852 30.9793 9.50268 31.0609C9.85077 31.8922 10.2244 32.7846 11.1526 33.0168C11.1815 32.9879 11.1842 32.9787 11.1904 32.9743C11.1979 32.9689 11.2104 32.9706 11.2801 32.9531C11.3267 32.5869 11.3664 32.2235 11.4055 31.8652C11.5535 30.5091 11.6935 29.2263 12.172 28.1428C12.4001 27.5833 12.7762 27.1316 13.1428 26.6914C13.3398 26.4548 13.5341 26.2215 13.7011 25.9766C13.9033 26.0978 13.9772 26.373 14.0531 26.6556C14.0967 26.8184 14.1411 26.9836 14.211 27.1233C14.241 27.195 14.2713 27.2673 14.3017 27.3399C14.6902 28.2676 15.1081 29.2657 15.5808 30.1815C16.632 32.2204 17.8109 34.1953 19.1487 35.9794C19.5946 36.6166 20.232 37.3175 20.8053 37.8909C20.8925 37.9672 20.9835 38.0323 21.073 38.0964C21.2451 38.2197 21.4122 38.3393 21.538 38.528H21.6018V38.6237C20.9969 38.4019 20.5325 37.9249 20.0792 37.4592C19.8162 37.1891 19.5569 36.9228 19.2761 36.7123C17.8425 35.6291 16.1224 34.0043 15.1347 32.4434C14.8236 31.7734 14.4946 31.1213 14.1611 30.4602C14.0506 30.2412 13.9396 30.0213 13.8286 29.7994C13.8286 29.7994 13.8288 29.7674 13.8286 29.7356C13.7069 29.898 13.6886 30.0603 13.6666 30.2556C13.6541 30.3668 13.6403 30.4888 13.6056 30.6276C13.4875 31.0817 13.429 31.5541 13.3725 32.0106C13.2307 33.1549 13.1013 34.1998 12.0765 34.6097C10.4519 35.2788 9.24118 33.5262 8.73155 32.73C7.10694 30.086 6.66087 25.626 7.80763 22.0262C7.89635 21.7492 7.95807 21.4528 8.01962 21.1573C8.13499 20.6034 8.24974 20.0525 8.54049 19.637C8.47658 19.2541 8.25656 19.0558 8.04154 18.862C7.93453 18.7655 7.82875 18.6702 7.74408 18.5538C7.298 17.9486 6.91588 17.2477 6.56534 16.5788C6.05598 15.5844 5.65758 14.4423 5.27147 13.3354C5.15037 12.9882 5.03047 12.6445 4.90875 12.3099C4.80001 12.0304 4.72917 11.7507 4.65929 11.4748C4.58583 11.1848 4.51342 10.8989 4.39912 10.6216C4.09797 9.96905 3.5993 9.31667 3.13634 8.711C3.01154 8.54773 2.88934 8.38786 2.77431 8.2323C2.6502 8.0542 2.48588 7.84778 2.30271 7.61767C1.40448 6.4893 0.052907 4.79143 0.767379 3.07148C2.1054 -0.20973 6.78859 2.27486 8.60405 3.42182C8.7856 3.53854 8.97771 3.708 9.17607 3.88297C9.46509 4.1379 9.76737 4.40454 10.0696 4.53681C10.4679 4.5528 10.8662 4.57669 11.2645 4.60058C11.6627 4.62445 12.0608 4.64833 12.4588 4.66432C12.5893 4.69483 12.719 4.72486 12.8478 4.75471C14.1986 5.06752 15.4604 5.35971 16.5365 5.97036C22.0159 9.18801 25.5839 12.4692 28.8651 17.8849C29.3105 18.6137 29.6145 19.3812 29.924 20.1628C30.1015 20.611 30.2808 21.0638 30.4897 21.5166C31.2861 23.3643 32.1784 25.3072 33.102 27.0596C33.2181 27.2918 33.3267 27.5316 33.4355 27.7719C33.7148 28.3885 33.9955 29.0082 34.4082 29.5126C34.5565 29.7246 34.8885 29.8378 35.2066 29.9462C35.3664 30.0006 35.5227 30.0539 35.6505 30.1179C36.0625 30.3301 36.5088 30.5228 36.9587 30.717C37.6566 31.0183 38.3631 31.3234 38.9637 31.7108C40.8113 32.8575 42.5954 34.2271 44.22 35.6291C44.5485 35.9229 44.8206 36.2824 45.0925 36.6413C45.3217 36.944 45.5507 37.2463 45.8129 37.5087V37.7953C45.3033 37.9546 44.7934 38.1139 44.2838 38.2414C43.7293 38.3839 43.2063 38.4398 42.6873 38.4953C42.1629 38.5513 41.6426 38.6069 41.0981 38.751C41.0295 38.7707 40.9592 38.7909 40.8875 38.8116C40.2604 38.9926 39.5289 39.2036 38.8999 39.2609C38.9317 39.2926 38.9637 39.3244 38.9637 39.3244C39.2707 40.1985 40.5763 40.9499 41.6464 41.5657C42.0194 41.7804 42.3637 41.9786 42.6272 42.1597C43.8697 43.0517 45.0165 44.1349 45.9404 45.3772C46.0992 45.536 46.2581 45.6869 46.4169 45.8378C46.5767 45.9896 46.7364 46.1414 46.8961 46.3011C47.004 46.4553 47.0746 46.632 47.144 46.8057C47.218 46.9908 47.2907 47.1726 47.4057 47.3206V47.4161C47.127 47.3166 46.9354 47.1175 46.7454 46.92C46.6313 46.8014 46.5178 46.6834 46.3863 46.5879C46.0862 46.3833 45.7862 46.1612 45.4863 45.939C45.0855 45.6423 44.6847 45.3455 44.2838 45.0906C43.6674 44.7012 43.0014 44.3945 42.3321 44.0863C41.687 43.7892 41.0388 43.4907 40.429 43.1154C39.7283 42.6694 39.0592 42.1597 38.3903 41.6501C37.7849 41.204 37.1162 40.3437 36.7337 39.7067C36.6373 39.5553 36.5766 39.392 36.5182 39.2347C36.4415 39.0281 36.3687 38.8321 36.2239 38.6873C36.2715 38.2347 36.7112 38.1205 37.1298 38.0117C37.2709 37.9751 37.4096 37.939 37.5301 37.8909Z" fill="white"/>
<path d="M9.91014 9.4746C10.2925 9.37907 10.6746 9.31511 11.2162 9.31511C11.3172 9.41615 11.4432 9.50214 11.5704 9.58896C11.7643 9.72126 11.961 9.85551 12.0764 10.048C12.1471 10.1471 12.1927 10.2462 12.2383 10.3453C12.2954 10.4692 12.3524 10.5931 12.4587 10.7171C12.4587 11.4815 12.2358 11.9912 11.7896 12.3099C11.7896 12.3099 11.7578 12.3417 11.726 12.3737C11.5987 12.1191 11.4794 11.8646 11.3601 11.6101C11.2405 11.3548 11.1208 11.0996 10.9931 10.8444C10.8691 10.6708 10.7258 10.5116 10.5819 10.3519C10.3564 10.1014 10.1296 9.84953 9.9739 9.53835H9.91014V9.4746Z" fill="white"/>
</svg>
