<svg width="48" height="49" viewBox="0 0 48 49" fill="none" xmlns="http://www.w3.org/2000/svg">
<ellipse cx="24" cy="24.448" rx="23.4375" ry="12.323" fill="url(#paint0_radial_299_2498)"/>
<ellipse cx="24.0005" cy="24.448" rx="22.522" ry="11.4075" fill="#6181B6"/>
<path fill-rule="evenodd" clip-rule="evenodd" d="M28.5586 28.1467L29.6755 22.3972C29.9319 21.0972 29.7122 20.1267 29.053 19.5225C28.4121 18.9365 27.3135 18.6436 25.7022 18.6436H23.7612L24.3106 15.7871C24.3289 15.6772 24.3106 15.5674 24.2373 15.4758C24.1641 15.3843 24.0725 15.3477 23.9627 15.3477H21.2893C21.1062 15.3477 20.9597 15.4758 20.9231 15.6406L19.7329 21.738C19.6231 21.0422 19.3667 20.4563 18.9273 19.9802C18.1399 19.083 16.9131 18.6252 15.2468 18.6252H10.1016C9.91847 18.6252 9.77199 18.7534 9.73536 18.9182L7.33668 31.2961C7.31837 31.406 7.33668 31.5159 7.40992 31.6074C7.48317 31.699 7.57472 31.7356 7.68458 31.7356H10.3762C10.5593 31.7356 10.7058 31.6074 10.7424 31.4426L11.3284 28.458H13.3242C14.3679 28.458 15.2651 28.3481 15.9426 28.1284C16.6567 27.8904 17.2976 27.5059 17.8652 26.9749C18.323 26.5537 18.7075 26.0776 19.0005 25.5649L18.5244 28.0369C18.5061 28.1467 18.5244 28.2566 18.5977 28.3481C18.6709 28.4397 18.7625 28.4763 18.8723 28.4763H21.5457C21.7288 28.4763 21.8753 28.3481 21.9119 28.1833L23.2302 21.4084H25.0613C25.8486 21.4084 26.0684 21.5549 26.1416 21.6282C26.1965 21.6831 26.3064 21.9028 26.1782 22.5803L25.1162 28.0552C25.0979 28.165 25.1162 28.2749 25.1895 28.3665C25.2627 28.458 25.3543 28.4946 25.4641 28.4946H28.2107C28.3755 28.4397 28.522 28.3115 28.5586 28.1467ZM16.1807 23.386C16.0159 24.2466 15.7046 24.8691 15.2468 25.217C14.7891 25.5649 14.0383 25.748 13.0496 25.748H11.8594L12.72 21.3169H14.2581C15.3933 21.3169 15.8511 21.5549 16.0342 21.7563C16.2722 22.0493 16.3272 22.6169 16.1807 23.386Z" fill="white"/>
<path fill-rule="evenodd" clip-rule="evenodd" d="M39.9854 19.9802C39.198 19.083 37.9712 18.6252 36.3049 18.6252H31.1231C30.94 18.6252 30.7935 18.7534 30.7568 18.9182L28.3582 31.2778C28.3399 31.3877 28.3582 31.4976 28.4314 31.5891C28.5047 31.6807 28.5962 31.7173 28.7061 31.7173H31.3977C31.5808 31.7173 31.7273 31.5891 31.7639 31.4243L32.3499 28.4397H34.3457C35.3894 28.4397 36.2866 28.3298 36.9641 28.1101C37.6782 27.8721 38.3191 27.4875 38.8867 26.9565C39.3628 26.5171 39.7656 26.0227 40.0586 25.4917C40.3516 24.9607 40.5713 24.3748 40.6995 23.7339C41.0108 22.1409 40.7727 20.8958 39.9854 19.9802ZM37.1838 23.386C37.019 24.2466 36.7078 24.8691 36.25 25.217C35.7922 25.5649 35.0415 25.748 34.0527 25.748H32.8625L33.7231 21.3169H35.2612C36.3965 21.3169 36.8542 21.5549 37.0374 21.7563C37.2937 22.0493 37.3486 22.6169 37.1838 23.386Z" fill="white"/>
<path fill-rule="evenodd" clip-rule="evenodd" d="M14.2583 20.9507C15.2837 20.9507 15.9612 21.1338 16.3091 21.5183C16.657 21.9028 16.7302 22.5437 16.5471 23.4592C16.364 24.4114 15.9978 25.1072 15.4668 25.51C14.9358 25.9128 14.1301 26.1143 13.0498 26.1143H11.4202L12.4272 20.9507H14.2583ZM7.70312 31.3511H10.3948L11.0356 28.0735H13.3428C14.3682 28.0735 15.1921 27.9636 15.8513 27.7439C16.5105 27.5242 17.0964 27.1763 17.6458 26.6636C18.1035 26.2424 18.4697 25.7847 18.7444 25.2903C19.019 24.7959 19.2205 24.2466 19.3303 23.6423C19.6233 22.1775 19.4036 21.0422 18.6895 20.2183C17.9753 19.3943 16.8401 18.9915 15.2837 18.9915H10.1018L7.70312 31.3511Z" fill="#000004"/>
<path fill-rule="evenodd" clip-rule="evenodd" d="M21.3088 15.7139H23.9822L23.3413 18.9915H25.7217C27.2231 18.9915 28.2485 19.2478 28.8162 19.7788C29.3838 20.3098 29.5486 21.1521 29.3289 22.324L28.2119 28.0735H25.502L26.564 22.5986C26.6921 21.9761 26.6372 21.5549 26.4358 21.3352C26.2344 21.1155 25.7766 20.9873 25.0991 20.9873H22.9568L21.5835 28.0735H18.9102L21.3088 15.7139Z" fill="#000004"/>
<path fill-rule="evenodd" clip-rule="evenodd" d="M35.2603 20.9507C36.2856 20.9507 36.9631 21.1338 37.311 21.5183C37.6589 21.9028 37.7322 22.5437 37.5491 23.4592C37.366 24.4114 36.9998 25.1072 36.4688 25.51C35.9377 25.9128 35.1321 26.1143 34.0518 26.1143H32.4221L33.4292 20.9507H35.2603ZM28.7051 31.3511H31.3967L32.0376 28.0735H34.3447C35.3701 28.0735 36.1941 27.9636 36.8533 27.7439C37.5125 27.5242 38.0984 27.1763 38.6477 26.6636C39.1055 26.2424 39.4717 25.7847 39.7463 25.2903C40.021 24.7959 40.2224 24.2466 40.3323 23.6423C40.6252 22.1775 40.4055 21.0422 39.6914 20.2183C38.9773 19.3943 37.842 18.9915 36.2856 18.9915H31.1038L28.7051 31.3511Z" fill="#000004"/>
<defs>
<radialGradient id="paint0_radial_299_2498" cx="0" cy="0" r="1" gradientUnits="userSpaceOnUse" gradientTransform="translate(14.6345 16.4587) scale(66.4776 34.9527)">
<stop stop-color="white"/>
<stop offset="0.5" stop-color="#4C6B97"/>
<stop offset="1" stop-color="#231F20"/>
</radialGradient>
</defs>
</svg>
