<svg width="38" height="40" viewBox="0 0 38 40" fill="none" xmlns="http://www.w3.org/2000/svg">
<g clip-path="url(#clip0_699_370)">
<path fill-rule="evenodd" clip-rule="evenodd" d="M37.8483 23.7824C37.6257 23.1084 37.0427 22.6389 36.2886 22.5261C35.9331 22.4731 35.5259 22.4957 35.0441 22.5951C34.2043 22.7683 33.5812 22.8343 33.1264 22.8471C34.8428 19.9492 36.2385 16.6444 37.0419 13.5336C38.3411 8.50367 37.6468 6.21219 36.8356 5.17562C34.6885 2.43225 31.556 0.958377 27.7768 0.913197C25.7609 0.888593 23.991 1.28664 23.0679 1.57281C22.2083 1.42123 21.2839 1.33653 20.3141 1.32084C18.4963 1.29187 16.8901 1.68811 15.5176 2.50255C14.7576 2.2457 13.5383 1.88349 12.13 1.65228C8.81771 1.10849 6.14824 1.53226 4.19565 2.91166C1.83121 4.58185 0.735061 7.48365 0.937814 11.5366C1.00211 12.8234 1.72199 16.7384 2.85534 20.4515C3.50672 22.5856 4.20131 24.3579 4.91981 25.7194C5.93872 27.6502 7.02895 28.7872 8.25292 29.1954C8.93902 29.4241 10.1855 29.5841 11.4965 28.4924C11.6627 28.6935 11.8843 28.8935 12.1786 29.0792C12.5522 29.3149 13.0092 29.5074 13.4654 29.6215C15.11 30.0327 16.6504 29.9298 17.9645 29.3536C17.9726 29.5873 17.9789 29.8106 17.9842 30.0035C17.9929 30.3163 18.0015 30.6229 18.013 30.9097C18.0908 32.8491 18.2228 34.357 18.6137 35.412C18.6351 35.4701 18.664 35.5585 18.6945 35.6522C18.8895 36.2494 19.2157 37.249 20.0453 38.032C20.9046 38.8429 21.9438 39.0917 22.8956 39.0916C23.3729 39.0916 23.8284 39.0291 24.2278 38.9434C25.6519 38.6383 27.2691 38.1733 28.439 36.5076C29.545 34.9328 30.0827 32.561 30.18 28.8236C30.1926 28.718 30.2042 28.6171 30.2155 28.5209C30.223 28.456 30.2307 28.3897 30.2385 28.3235L30.4992 28.3464L30.5663 28.3509C32.0167 28.417 33.7901 28.1094 34.8792 27.6035C35.7399 27.2041 38.4976 25.7482 37.8483 23.7824Z" fill="#FECE93"/>
<path fill-rule="evenodd" clip-rule="evenodd" d="M35.3694 24.1649C31.057 25.0545 30.7606 23.5944 30.7606 23.5944C35.3138 16.8382 37.2172 8.26214 35.5746 6.16321C31.0934 0.437708 23.3364 3.1455 23.2069 3.2158L23.1653 3.22326C22.3133 3.04639 21.3598 2.94103 20.2882 2.92354C18.3369 2.89157 16.8567 3.4351 15.7336 4.28683C15.7336 4.28683 1.89577 -1.41381 2.53935 11.4565C2.67626 14.1945 6.46374 32.1738 10.9813 26.7432C12.6325 24.7574 14.2278 23.0784 14.2278 23.0784C15.0202 23.6048 15.9688 23.8733 16.9633 23.7768L17.0405 23.7113C17.0165 23.9578 17.0275 24.199 17.0715 24.4845C15.9077 25.7847 16.2497 26.013 13.9232 26.4919C11.5691 26.9771 12.9521 27.8408 13.855 28.0665C14.9496 28.3403 17.482 28.728 19.1931 26.3327L19.1248 26.606C19.5808 26.9712 19.901 28.9817 19.8474 30.8041C19.7937 32.6267 19.7578 33.8779 20.1171 34.8552C20.4764 35.8326 20.8345 38.0316 23.8929 37.3762C26.4484 36.8286 27.7727 35.4094 27.9569 33.0421C28.0877 31.3592 28.3835 31.608 28.4022 30.1033L28.6395 29.391C28.9132 27.1096 28.683 26.3736 30.2574 26.7159L30.64 26.7495C31.7988 26.8023 33.3155 26.5632 34.2056 26.1494C36.1224 25.2599 37.2592 23.7747 35.3692 24.1649H35.3694Z" fill="#40668D"/>
<path fill-rule="evenodd" clip-rule="evenodd" d="M16.5434 12.6808C16.1549 12.6268 15.8029 12.6768 15.6248 12.8116C15.5246 12.8875 15.4936 12.9753 15.4853 13.0359C15.4629 13.1961 15.5753 13.3732 15.6442 13.4646C15.8393 13.7232 16.1244 13.901 16.4067 13.9402C16.4476 13.9459 16.4882 13.9486 16.5287 13.9486C16.9993 13.9486 17.4271 13.5822 17.4648 13.3117C17.512 12.973 17.0202 12.7472 16.5434 12.6808Z" fill="#40668D"/>
<path fill-rule="evenodd" clip-rule="evenodd" d="M29.4171 12.6915H29.417C29.38 12.426 28.9075 12.3503 28.4591 12.4126C28.0114 12.475 27.5772 12.6771 27.6135 12.9432C27.6426 13.1502 28.0161 13.5035 28.4585 13.5034C28.4958 13.5034 28.5335 13.5009 28.5715 13.4956C28.8667 13.4547 29.0834 13.2672 29.1863 13.1591C29.3431 12.9945 29.4337 12.8109 29.4171 12.6915Z" fill="#40668D"/>
<path fill-rule="evenodd" clip-rule="evenodd" d="M36.8048 24.064C36.6404 23.5667 36.1112 23.4067 35.2318 23.5883C32.621 24.1272 31.686 23.7539 31.379 23.5278C33.4084 20.4362 35.0778 16.6993 35.9784 13.2126C36.4051 11.561 36.6407 10.0272 36.6599 8.77706C36.6812 7.40469 36.4476 6.39642 35.9655 5.78045C34.0221 3.29718 31.1699 1.96519 27.7173 1.92859C25.3438 1.90192 23.3384 2.50941 22.9496 2.68018C22.1309 2.47657 21.2384 2.35158 20.2668 2.33563C18.4849 2.30683 16.9447 2.73342 15.6695 3.6029C15.1156 3.3968 13.6841 2.9054 11.9335 2.62343C8.90691 2.13605 6.50192 2.50529 4.7856 3.72121C2.73767 5.1721 1.79224 7.76562 1.97544 11.4296C2.03708 12.6624 2.73939 16.4545 3.84788 20.0862C5.30692 24.8661 6.89285 27.5721 8.56167 28.1286C8.75697 28.1938 8.98226 28.2394 9.23054 28.2394C9.83931 28.2394 10.5856 27.965 11.3621 27.0314C12.6519 25.4797 13.8562 24.1795 14.3001 23.707C14.9561 24.0592 15.6767 24.2558 16.4139 24.2755C16.4152 24.2948 16.4171 24.314 16.4189 24.3333C16.271 24.5087 16.1497 24.6624 16.0463 24.7936C15.5356 25.4419 15.4293 25.5769 13.7853 25.9154C13.3177 26.0119 12.0756 26.2678 12.0575 27.1384C12.0377 28.0896 13.5255 28.4891 13.6951 28.5315C14.2859 28.6793 14.855 28.7523 15.3977 28.7523C16.7178 28.7522 17.8794 28.3184 18.8077 27.479C18.7791 30.8701 18.9205 34.2116 19.3277 35.2297C19.6611 36.0631 20.4758 38.1001 23.0491 38.0999C23.4266 38.0999 23.8423 38.056 24.2995 37.958C26.9851 37.3822 28.1513 36.1952 28.6025 33.5784C28.8439 32.1799 29.2582 28.8402 29.453 27.0488C29.8643 27.1771 30.3937 27.2358 30.9661 27.2357C32.1598 27.2357 33.5371 26.9821 34.401 26.5812C35.3712 26.1306 37.1224 25.0247 36.8048 24.064ZM30.4092 11.9589C30.4003 12.4877 30.3275 12.9678 30.2504 13.469C30.1674 14.008 30.0815 14.5652 30.0599 15.2417C30.0385 15.9 30.1207 16.5845 30.2003 17.2464C30.361 18.5832 30.5258 19.9596 29.8876 21.3178C29.7884 21.1416 29.6926 20.9494 29.6048 20.7365C29.5255 20.5442 29.3533 20.2353 29.1149 19.8078C28.1869 18.1438 26.014 14.247 27.1263 12.6569C27.4576 12.1835 28.2985 11.6969 30.4092 11.9589ZM27.8508 2.99953C30.9443 3.06785 33.3913 4.22513 35.1239 6.43902C36.4527 8.13717 34.9895 15.864 30.7535 22.53C30.7116 22.4768 30.669 22.4232 30.6249 22.3681C30.6074 22.3461 30.5895 22.3237 30.5714 22.3011C31.666 20.4933 31.4519 18.7047 31.2614 17.1189C31.1831 16.4681 31.1092 15.8534 31.128 15.2761C31.1475 14.664 31.2284 14.1392 31.3066 13.6317C31.4029 13.0062 31.5007 12.3591 31.4737 11.5962C31.4938 11.5162 31.502 11.4217 31.4914 11.3094C31.4225 10.5778 30.5873 8.38853 28.8849 6.4067C27.9538 5.3229 26.5957 4.1099 24.7415 3.29178C25.5391 3.12649 26.6297 2.97235 27.8508 2.99953ZM10.5404 26.3482C9.68492 27.3768 9.09407 27.1797 8.8998 27.1149C7.63382 26.6926 6.16501 24.0171 4.86996 19.7742C3.74938 16.103 3.09449 12.4113 3.04271 11.3761C2.87905 8.10228 3.67266 5.82057 5.40158 4.59445C8.21525 2.59908 12.8413 3.79339 14.7001 4.39916C14.6733 4.42548 14.6455 4.45017 14.619 4.47692C11.5688 7.55746 11.6412 12.8206 11.6487 13.1423C11.6484 13.2664 11.6588 13.4422 11.6731 13.6839C11.7256 14.5691 11.8232 16.2167 11.5623 18.0825C11.3198 19.8163 11.8542 21.5133 13.0284 22.7384C13.15 22.8652 13.2768 22.9843 13.4079 23.0963C12.8852 23.6561 11.7494 24.8938 10.5404 26.3482ZM13.7999 21.999C12.8535 21.0116 12.4238 19.6381 12.6206 18.2305C12.8961 16.2594 12.7944 14.5428 12.7398 13.6206C12.7321 13.4916 12.7254 13.3785 12.7213 13.2893C13.1669 12.8943 15.2319 11.7877 16.7045 12.1252C17.3766 12.2791 17.786 12.7367 17.9563 13.5239C18.8374 17.5989 18.073 19.2974 17.4587 20.6622C17.3321 20.9434 17.2125 21.2092 17.1103 21.4842L17.0312 21.6967C16.8307 22.2341 16.6443 22.7338 16.5287 23.2083C15.5227 23.2052 14.544 22.7755 13.7999 21.999ZM13.9544 27.4947C13.6607 27.4213 13.3965 27.2939 13.2415 27.1882C13.3709 27.1272 13.6014 27.0444 14.0009 26.9621C15.9349 26.5639 16.2335 26.2829 16.8858 25.4548C17.0354 25.265 17.2049 25.0497 17.4396 24.7875C17.4397 24.7874 17.4398 24.7873 17.4398 24.7872C17.7895 24.3957 17.9494 24.4621 18.2394 24.5824C18.4745 24.6797 18.7034 24.9743 18.7963 25.2985C18.8402 25.4516 18.8895 25.7423 18.7281 25.9684C17.3656 27.8761 15.3803 27.8515 13.9544 27.4947ZM24.0755 36.9131C21.7096 37.4201 20.8719 36.2129 20.3199 34.8329C19.9636 33.9419 19.7886 29.9243 19.9128 25.4877C19.9144 25.4286 19.906 25.3716 19.8897 25.318C19.8756 25.2146 19.8538 25.1099 19.8236 25.0045C19.6388 24.359 19.1886 23.819 18.6485 23.5951C18.434 23.5062 18.04 23.3431 17.5667 23.4641C17.6677 23.0482 17.8428 22.5787 18.0325 22.0701L18.1121 21.8562C18.2018 21.615 18.3142 21.3652 18.4332 21.1008C19.076 19.6727 19.9563 17.7168 19.0009 13.298C18.643 11.6429 17.4479 10.8348 15.6361 11.0224C14.5499 11.1348 13.5563 11.5731 13.0607 11.8243C12.9542 11.8784 12.8567 11.9305 12.7656 11.9813C12.9039 10.3137 13.4266 7.19731 15.3816 5.2256C16.6124 3.98422 18.2518 3.37117 20.2491 3.40417C24.1846 3.46864 26.7082 5.48828 28.1324 7.17125C29.3597 8.62155 30.0243 10.0824 30.2895 10.8703C28.295 10.6675 26.9385 11.0613 26.2508 12.0443C24.7548 14.1828 27.0692 18.3335 28.1816 20.3283C28.3855 20.6939 28.5616 21.0098 28.617 21.1441C28.9792 22.022 29.4481 22.608 29.7906 23.0359C29.8955 23.167 29.9973 23.2941 30.0748 23.4051C29.4707 23.5793 28.3856 23.9817 28.4845 25.993C28.4047 27.0023 27.8375 31.7274 27.5495 33.3968C27.1692 35.6023 26.3576 36.4239 24.0755 36.9131ZM33.9509 25.6119C33.3332 25.8987 32.2995 26.1138 31.3174 26.1599C30.2328 26.2107 29.6807 26.0384 29.5508 25.9325C29.4897 24.6791 29.9564 24.5481 30.4501 24.4095C30.5277 24.3876 30.6034 24.3664 30.6764 24.3409C30.7219 24.3778 30.7716 24.4145 30.826 24.4504C31.6978 25.0259 33.2528 25.0879 35.4479 24.6349C35.456 24.6331 35.464 24.6316 35.472 24.63C35.176 24.9068 34.6693 25.2783 33.9509 25.6119Z" fill="#40668D"/>
<path d="M35.2318 23.5883L35.2571 23.7108L35.2571 23.7108L35.2318 23.5883ZM31.379 23.5278L31.2745 23.4592L31.2095 23.5583L31.3049 23.6285L31.379 23.5278ZM35.9784 13.2126L35.8574 13.1813V13.1813L35.9784 13.2126ZM36.6599 8.77706L36.535 8.77513V8.77514L36.6599 8.77706ZM35.9655 5.78045L36.064 5.70341V5.70341L35.9655 5.78045ZM27.7173 1.92859L27.7159 2.05358L27.716 2.05358L27.7173 1.92859ZM22.9496 2.68018L22.9194 2.80149L22.9608 2.81178L22.9999 2.79463L22.9496 2.68018ZM20.2668 2.33563L20.2688 2.21065L20.2688 2.21065L20.2668 2.33563ZM15.6695 3.6029L15.6259 3.72005L15.6865 3.7426L15.7399 3.70618L15.6695 3.6029ZM11.9335 2.62343L11.9534 2.50002L11.9534 2.50002L11.9335 2.62343ZM4.7856 3.72121L4.71334 3.61921L4.71333 3.61921L4.7856 3.72121ZM1.97544 11.4296L2.10029 11.4233H2.10029L1.97544 11.4296ZM3.84788 20.0862L3.72832 20.1227L3.72832 20.1227L3.84788 20.0862ZM8.56167 28.1286L8.60123 28.01L8.60122 28.01L8.56167 28.1286ZM11.3621 27.0314L11.4582 27.1114L11.4583 27.1113L11.3621 27.0314ZM14.3001 23.707L14.3592 23.5969L14.2747 23.5515L14.209 23.6214L14.3001 23.707ZM16.4139 24.2755L16.5386 24.2672L16.531 24.1536L16.4172 24.1505L16.4139 24.2755ZM16.4189 24.3333L16.5144 24.4138L16.548 24.374L16.5434 24.3221L16.4189 24.3333ZM16.0463 24.7936L16.1445 24.871L16.1445 24.871L16.0463 24.7936ZM13.7853 25.9154L13.7601 25.793L13.7601 25.793L13.7853 25.9154ZM12.0575 27.1384L12.1825 27.141V27.141L12.0575 27.1384ZM13.6951 28.5315L13.7255 28.4102L13.7254 28.4102L13.6951 28.5315ZM15.3977 28.7523V28.8773H15.3977L15.3977 28.7523ZM18.8077 27.479L18.9327 27.4801L18.9351 27.1953L18.7239 27.3863L18.8077 27.479ZM19.3277 35.2297L19.2116 35.2762L19.2116 35.2762L19.3277 35.2297ZM23.0491 38.0999V37.9749H23.0491L23.0491 38.0999ZM24.2995 37.958L24.3257 38.0802H24.3257L24.2995 37.958ZM28.6025 33.5784L28.4793 33.5571L28.4793 33.5572L28.6025 33.5784ZM29.453 27.0488L29.4902 26.9295L29.3452 26.8843L29.3288 27.0353L29.453 27.0488ZM30.9661 27.2357V27.1107H30.9661L30.9661 27.2357ZM34.401 26.5812L34.4536 26.6946L34.4536 26.6946L34.401 26.5812ZM30.2504 13.469L30.3739 13.488V13.488L30.2504 13.469ZM30.0599 15.2417L30.1848 15.2458L30.1848 15.2457L30.0599 15.2417ZM30.2003 17.2464L30.3244 17.2314L30.3244 17.2314L30.2003 17.2464ZM29.8876 21.3178L29.7786 21.3791L29.8976 21.5903L30.0007 21.3709L29.8876 21.3178ZM29.6048 20.7365L29.4893 20.7842V20.7842L29.6048 20.7365ZM29.1149 19.8078L29.224 19.7469L29.1149 19.8078ZM27.1263 12.6569L27.0239 12.5852L27.0239 12.5852L27.1263 12.6569ZM35.1239 6.43902L35.2223 6.36199L35.2223 6.36199L35.1239 6.43902ZM30.7535 22.53L30.6552 22.6073L30.7643 22.7459L30.859 22.597L30.7535 22.53ZM30.6249 22.3681L30.5272 22.4461L30.5274 22.4463L30.6249 22.3681ZM30.5714 22.3011L30.4644 22.2364L30.4192 22.311L30.4737 22.3791L30.5714 22.3011ZM31.2614 17.1189L31.3855 17.104L31.3855 17.1039L31.2614 17.1189ZM31.128 15.2761L31.2529 15.2802L31.2529 15.2801L31.128 15.2761ZM31.3066 13.6317L31.4301 13.6507L31.4301 13.6507L31.3066 13.6317ZM31.4737 11.5962L31.3525 11.5657L31.3481 11.5829L31.3488 11.6006L31.4737 11.5962ZM31.4914 11.3094L31.6159 11.2978L31.6159 11.2977L31.4914 11.3094ZM28.8849 6.4067L28.9797 6.32525L28.9797 6.32525L28.8849 6.4067ZM24.7415 3.29178L24.7162 3.16938L24.334 3.24858L24.6911 3.40614L24.7415 3.29178ZM8.8998 27.1149L8.86025 27.2335L8.86029 27.2335L8.8998 27.1149ZM4.86996 19.7742L4.98952 19.7377L4.86996 19.7742ZM3.04271 11.3761L2.91786 11.3824L2.91787 11.3824L3.04271 11.3761ZM5.40158 4.59445L5.32927 4.49249L5.32927 4.49249L5.40158 4.59445ZM14.7001 4.39916L14.7877 4.48826L14.9343 4.34403L14.7388 4.28031L14.7001 4.39916ZM14.619 4.47692L14.5302 4.38896L14.5302 4.38897L14.619 4.47692ZM11.6487 13.1423L11.7737 13.1425L11.7736 13.1394L11.6487 13.1423ZM11.6731 13.6839L11.5483 13.6913V13.6913L11.6731 13.6839ZM11.5623 18.0825L11.6861 18.0998L11.6861 18.0998L11.5623 18.0825ZM13.0284 22.7384L12.9382 22.8249L12.9382 22.8249L13.0284 22.7384ZM13.4079 23.0963L13.4993 23.1816L13.5884 23.0862L13.4892 23.0013L13.4079 23.0963ZM12.6206 18.2305L12.7444 18.2478L12.7444 18.2478L12.6206 18.2305ZM12.7398 13.6206L12.615 13.628L12.615 13.628L12.7398 13.6206ZM12.7213 13.2893L12.6384 13.1958L12.5938 13.2353L12.5964 13.2949L12.7213 13.2893ZM16.7045 12.1252L16.6766 12.247L16.6766 12.247L16.7045 12.1252ZM17.9563 13.5239L18.0784 13.4974L18.0784 13.4974L17.9563 13.5239ZM17.4587 20.6622L17.5727 20.7135L17.5727 20.7135L17.4587 20.6622ZM17.1103 21.4842L17.2274 21.5278L17.2275 21.5277L17.1103 21.4842ZM17.0312 21.6967L17.1483 21.7404L17.1483 21.7403L17.0312 21.6967ZM16.5287 23.2083L16.5283 23.3333L16.6268 23.3336L16.6501 23.2379L16.5287 23.2083ZM13.2415 27.1882L13.1882 27.0751L12.9904 27.1682L13.171 27.2914L13.2415 27.1882ZM14.0009 26.9621L13.9757 26.8397L13.9757 26.8397L14.0009 26.9621ZM16.8858 25.4548L16.7876 25.3774L16.7876 25.3774L16.8858 25.4548ZM17.4396 24.7875L17.5327 24.8709L17.5439 24.8584L17.5514 24.8434L17.4396 24.7875ZM17.4398 24.7872L17.5284 24.8756L17.5331 24.8705L17.4398 24.7872ZM18.2394 24.5824L18.1916 24.6978L18.1916 24.6979L18.2394 24.5824ZM18.7963 25.2985L18.6761 25.3329L18.6761 25.3329L18.7963 25.2985ZM18.7281 25.9684L18.8298 26.041L18.8298 26.041L18.7281 25.9684ZM20.3199 34.8329L20.2039 34.8793L20.2039 34.8793L20.3199 34.8329ZM19.9128 25.4877L20.0377 25.4912L20.0378 25.4911L19.9128 25.4877ZM19.8897 25.318L19.7659 25.335L19.7672 25.3448L19.7701 25.3544L19.8897 25.318ZM19.8236 25.0045L19.7035 25.0389L19.7035 25.0389L19.8236 25.0045ZM18.6485 23.5951L18.6964 23.4796L18.6964 23.4796L18.6485 23.5951ZM17.5667 23.4641L17.4452 23.4346L17.3961 23.6368L17.5977 23.5852L17.5667 23.4641ZM18.0325 22.0701L18.1496 22.1138L18.1496 22.1137L18.0325 22.0701ZM18.1121 21.8562L18.2293 21.8998L18.2293 21.8997L18.1121 21.8562ZM18.4332 21.1008L18.3192 21.0495L18.3192 21.0495L18.4332 21.1008ZM19.0009 13.298L19.1231 13.2715V13.2715L19.0009 13.298ZM15.6361 11.0224L15.649 11.1468L15.649 11.1468L15.6361 11.0224ZM13.0607 11.8243L13.1172 11.9358L13.1172 11.9358L13.0607 11.8243ZM12.7656 11.9813L12.6411 11.971L12.6217 12.2049L12.8266 12.0905L12.7656 11.9813ZM15.3816 5.2256L15.4704 5.31361L15.4704 5.31361L15.3816 5.2256ZM20.2491 3.40417L20.2471 3.52916L20.2471 3.52916L20.2491 3.40417ZM28.1324 7.17125L28.2279 7.0905L28.2279 7.0905L28.1324 7.17125ZM30.2895 10.8703L30.2769 10.9946L30.4699 11.0142L30.408 10.8304L30.2895 10.8703ZM26.2508 12.0443L26.1483 11.9727V11.9727L26.2508 12.0443ZM28.1816 20.3283L28.0724 20.3892L28.0724 20.3892L28.1816 20.3283ZM28.617 21.1441L28.5014 21.1918L28.5014 21.1918L28.617 21.1441ZM29.7906 23.0359L29.693 23.114L29.693 23.114L29.7906 23.0359ZM30.0748 23.4051L30.1094 23.5252L30.2772 23.4769L30.1773 23.3336L30.0748 23.4051ZM28.4845 25.993L28.6091 26.0028L28.6097 25.9949L28.6093 25.9869L28.4845 25.993ZM27.5495 33.3968L27.4263 33.3756L27.4263 33.3756L27.5495 33.3968ZM31.3174 26.1599L31.3233 26.2848H31.3233L31.3174 26.1599ZM29.5508 25.9325L29.4259 25.9385L29.4286 25.9941L29.4718 26.0293L29.5508 25.9325ZM30.4501 24.4095L30.4839 24.5298L30.484 24.5298L30.4501 24.4095ZM30.6764 24.3409L30.7553 24.2439L30.7011 24.1998L30.6351 24.2229L30.6764 24.3409ZM30.826 24.4504L30.8949 24.3461L30.8949 24.3461L30.826 24.4504ZM35.4479 24.6349L35.4732 24.7573L35.4739 24.7571L35.4479 24.6349ZM35.472 24.63L35.5574 24.7213L35.8807 24.4189L35.447 24.5075L35.472 24.63ZM36.9235 24.0247C36.8278 23.7352 36.6219 23.5424 36.3226 23.4519C36.0311 23.3638 35.6552 23.3732 35.2066 23.4659L35.2571 23.7108C35.6878 23.6218 36.0162 23.6204 36.2502 23.6912C36.4765 23.7596 36.6175 23.8955 36.6861 24.1032L36.9235 24.0247ZM35.2066 23.4659C32.605 24.0028 31.7158 23.6206 31.4531 23.4272L31.3049 23.6285C31.6562 23.8872 32.637 24.2515 35.2571 23.7108L35.2066 23.4659ZM31.4835 23.5964C33.5201 20.4937 35.1953 16.7443 36.0994 13.2438L35.8574 13.1813C34.9603 16.6543 33.2966 20.3787 31.2745 23.4592L31.4835 23.5964ZM36.0994 13.2438C36.5277 11.5859 36.7655 10.0419 36.7849 8.77898L36.535 8.77514C36.5159 10.0125 36.2824 11.5361 35.8574 13.1813L36.0994 13.2438ZM36.7849 8.779C36.8063 7.39742 36.5727 6.35348 36.064 5.70341L35.8671 5.85749C36.3225 6.43936 36.5561 7.41197 36.535 8.77513L36.7849 8.779ZM36.064 5.70341C34.0947 3.18714 31.2051 1.84056 27.7187 1.80359L27.716 2.05358C31.1348 2.08983 33.9495 3.40723 35.8671 5.85749L36.064 5.70341ZM27.7187 1.80359C25.328 1.77674 23.3049 2.38759 22.8993 2.56574L22.9999 2.79463C23.3719 2.63123 25.3596 2.02711 27.7159 2.05358L27.7187 1.80359ZM22.9798 2.55888C22.1519 2.353 21.25 2.22675 20.2688 2.21065L20.2647 2.46062C21.2267 2.4764 22.1098 2.60015 22.9194 2.80149L22.9798 2.55888ZM20.2688 2.21065C18.465 2.18149 16.8987 2.61353 15.5991 3.49962L15.7399 3.70618C16.9908 2.85332 18.5047 2.43216 20.2648 2.46062L20.2688 2.21065ZM15.7131 3.48574C15.1548 3.27803 13.7149 2.78375 11.9534 2.50002L11.9137 2.74684C13.6532 3.02704 15.0763 3.51557 15.6259 3.72005L15.7131 3.48574ZM11.9534 2.50002C8.9092 2.00981 6.46649 2.3772 4.71334 3.61921L4.85786 3.8232C6.53734 2.63339 8.90462 2.26229 11.9137 2.74684L11.9534 2.50002ZM4.71333 3.61921C2.61612 5.10503 1.66632 7.75044 1.8506 11.4358L2.10029 11.4233C1.91815 7.78079 2.85923 5.23918 4.85786 3.8232L4.71333 3.61921ZM1.8506 11.4358C1.91298 12.6834 2.61853 16.4867 3.72832 20.1227L3.96743 20.0497C2.86024 16.4222 2.16119 12.6413 2.10029 11.4233L1.8506 11.4358ZM3.72832 20.1227C4.45921 22.5171 5.22383 24.3989 6.01826 25.7544C6.81032 27.1057 7.6438 27.9543 8.52213 28.2472L8.60122 28.01C7.81072 27.7464 7.01683 26.9637 6.23395 25.6279C5.45345 24.2963 4.69558 22.4351 3.96743 20.0497L3.72832 20.1227ZM8.52211 28.2472C8.72815 28.3159 8.96685 28.3644 9.23054 28.3644V28.1144C8.99768 28.1144 8.78578 28.0716 8.60123 28.01L8.52211 28.2472ZM9.23054 28.3644C9.88302 28.3644 10.6625 28.068 11.4582 27.1114L11.266 26.9515C10.5087 27.8619 9.7956 28.1144 9.23054 28.1144V28.3644ZM11.4583 27.1113C12.7458 25.5623 13.9482 24.2641 14.3912 23.7926L14.209 23.6214C13.7642 24.0948 12.5581 25.3971 11.266 26.9515L11.4583 27.1113ZM14.241 23.8171C14.9136 24.1782 15.6532 24.3802 16.4105 24.4004L16.4172 24.1505C15.7002 24.1313 14.9987 23.9401 14.3592 23.5969L14.241 23.8171ZM16.2892 24.2838C16.2906 24.3049 16.2928 24.3273 16.2943 24.3444L16.5434 24.3221C16.5415 24.3008 16.5398 24.2846 16.5386 24.2672L16.2892 24.2838ZM16.3233 24.2527C16.1739 24.4298 16.0515 24.5849 15.9481 24.7163L16.1445 24.871C16.2478 24.7398 16.368 24.5875 16.5144 24.4138L16.3233 24.2527ZM15.9481 24.7163C15.6909 25.0427 15.5515 25.2173 15.2822 25.3603C15.0046 25.5076 14.5848 25.6231 13.7601 25.793L13.8105 26.0378C14.6297 25.8691 15.0851 25.7479 15.3994 25.5811C15.7219 25.4099 15.8909 25.1928 16.1445 24.871L15.9481 24.7163ZM13.7601 25.793C13.5277 25.8409 13.0849 25.9316 12.6971 26.1247C12.3118 26.3166 11.943 26.6298 11.9325 27.1358L12.1825 27.141C12.19 26.7765 12.4514 26.5264 12.8086 26.3485C13.1633 26.1719 13.5753 26.0863 13.8106 26.0378L13.7601 25.793ZM11.9325 27.1358C11.9211 27.6847 12.3446 28.0556 12.7431 28.2842C13.1487 28.5168 13.5762 28.6306 13.6648 28.6527L13.7254 28.4102C13.6444 28.39 13.2432 28.2828 12.8675 28.0673C12.4846 27.8478 12.1741 27.5433 12.1825 27.141L11.9325 27.1358ZM13.6648 28.6527C14.2645 28.8028 14.8437 28.8773 15.3977 28.8773V28.6273C14.8662 28.6273 14.3073 28.5559 13.7255 28.4102L13.6648 28.6527ZM15.3977 28.8773C16.7469 28.8772 17.9389 28.4331 18.8916 27.5718L18.7239 27.3863C17.8198 28.2037 16.6887 28.6272 15.3977 28.6273L15.3977 28.8773ZM18.6827 27.478C18.6684 29.1752 18.6966 30.8614 18.7795 32.2517C18.821 32.9467 18.8762 33.5693 18.9468 34.0831C19.0171 34.5942 19.1038 35.0066 19.2116 35.2762L19.4437 35.1833C19.3479 34.9438 19.2643 34.5568 19.1945 34.049C19.125 33.5439 19.0703 32.9283 19.0291 32.2368C18.9466 30.854 18.9184 29.1739 18.9327 27.4801L18.6827 27.478ZM19.2116 35.2762C19.3783 35.6927 19.6723 36.4302 20.2566 37.0623C20.845 37.6987 21.7243 38.225 23.0492 38.2249L23.0491 37.9749C21.8007 37.975 20.9859 37.4829 20.4402 36.8926C19.8905 36.2979 19.6105 35.6001 19.4437 35.1833L19.2116 35.2762ZM23.0491 38.2249C23.4363 38.2249 23.8608 38.1799 24.3257 38.0802L24.2733 37.8358C23.8238 37.9321 23.4169 37.9749 23.0491 37.9749V38.2249ZM24.3257 38.0802C25.6809 37.7897 26.6705 37.3413 27.3781 36.6212C28.0861 35.9005 28.4977 34.922 28.7257 33.5996L28.4793 33.5572C28.2561 34.8517 27.859 35.775 27.1997 36.446C26.54 37.1175 25.6038 37.5505 24.2733 37.8358L24.3257 38.0802ZM28.7257 33.5997C28.9678 32.197 29.3825 28.8539 29.5773 27.0624L29.3288 27.0353C29.134 28.8265 28.72 32.1628 28.4793 33.5571L28.7257 33.5997ZM29.4158 27.1682C29.8436 27.3016 30.387 27.3608 30.9661 27.3607L30.9661 27.1107C30.4005 27.1108 29.8849 27.0526 29.4902 26.9295L29.4158 27.1682ZM30.9661 27.3607C32.1724 27.3607 33.5688 27.1052 34.4536 26.6946L34.3483 26.4678C33.5054 26.8591 32.1472 27.1107 30.9661 27.1107V27.3607ZM34.4536 26.6946C34.9455 26.4661 35.6369 26.0711 36.168 25.6081C36.4333 25.3768 36.6647 25.1232 36.8093 24.8593C36.9545 24.5942 37.0172 24.3082 36.9235 24.0247L36.6861 24.1032C36.7512 24.3 36.7141 24.5126 36.59 24.7392C36.4652 24.9669 36.2578 25.1981 36.0037 25.4197C35.496 25.8624 34.8267 26.2456 34.3483 26.4678L34.4536 26.6946ZM30.2842 11.9567C30.2755 12.4759 30.2041 12.9481 30.1268 13.45L30.3739 13.488C30.451 12.9875 30.5251 12.4995 30.5342 11.961L30.2842 11.9567ZM30.1268 13.45C30.0439 13.9888 29.9568 14.5528 29.9349 15.2377L30.1848 15.2457C30.2061 14.5776 30.2909 14.0272 30.3739 13.488L30.1268 13.45ZM29.9349 15.2377C29.9132 15.9072 29.9969 16.6013 30.0762 17.2613L30.3244 17.2314C30.2446 16.5678 30.1638 15.8929 30.1848 15.2458L29.9349 15.2377ZM30.0762 17.2613C30.2374 18.6029 30.3952 19.9436 29.7744 21.2646L30.0007 21.3709C30.6564 19.9756 30.4845 18.5635 30.3244 17.2314L30.0762 17.2613ZM29.9965 21.2564C29.8995 21.0842 29.806 20.8966 29.7204 20.6889L29.4893 20.7842C29.5792 21.0022 29.6772 21.199 29.7786 21.3791L29.9965 21.2564ZM29.7204 20.6889C29.6375 20.4879 29.4603 20.1706 29.224 19.7469L29.0057 19.8687C29.2463 20.3001 29.4135 20.6005 29.4893 20.7842L29.7204 20.6889ZM29.224 19.7469C28.7595 18.914 27.9889 17.5315 27.4725 16.1606C27.2142 15.4749 27.0219 14.7982 26.9617 14.1985C26.9012 13.5968 26.9754 13.0907 27.2288 12.7285L27.0239 12.5852C26.7211 13.0181 26.6498 13.5954 26.7129 14.2235C26.7762 14.8537 26.9766 15.5533 27.2385 16.2487C27.7625 17.6396 28.5422 19.0376 29.0057 19.8687L29.224 19.7469ZM27.2288 12.7285C27.5198 12.3125 28.2992 11.823 30.3938 12.0829L30.4246 11.8348C28.2977 11.5709 27.3954 12.0544 27.0239 12.5852L27.2288 12.7285ZM27.848 3.12449C30.9083 3.19209 33.3185 4.33489 35.0255 6.51606L35.2223 6.36199C33.4641 4.11536 30.9802 2.94362 27.8536 2.87456L27.848 3.12449ZM35.0255 6.51606C35.175 6.70721 35.292 6.99276 35.3689 7.36956C35.4454 7.74497 35.4805 8.20262 35.4723 8.73031C35.456 9.78563 35.2672 11.1093 34.9041 12.5918C34.1779 15.5565 32.7583 19.142 30.648 22.463L30.859 22.597C32.9846 19.252 34.4146 15.6411 35.1469 12.6513C35.513 11.1566 35.7056 9.81356 35.7223 8.73418C35.7306 8.19451 35.6951 7.71783 35.6138 7.3196C35.5329 6.92276 35.405 6.59537 35.2223 6.36199L35.0255 6.51606ZM30.8517 22.4527C30.8096 22.3993 30.7668 22.3453 30.7225 22.29L30.5274 22.4463C30.5712 22.501 30.6136 22.5544 30.6552 22.6073L30.8517 22.4527ZM30.7227 22.2902C30.705 22.2681 30.687 22.2456 30.669 22.2231L30.4737 22.3791C30.4919 22.4019 30.5097 22.4241 30.5272 22.4461L30.7227 22.2902ZM30.6783 22.3658C31.7977 20.517 31.5757 18.6871 31.3855 17.104L31.1373 17.1338C31.3281 18.7223 31.5342 20.4696 30.4644 22.2364L30.6783 22.3658ZM31.3855 17.1039C31.307 16.4509 31.2345 15.8462 31.2529 15.2802L31.0031 15.272C30.9839 15.8607 31.0593 16.4852 31.1373 17.1338L31.3855 17.1039ZM31.2529 15.2801C31.2721 14.6765 31.3519 14.1587 31.4301 13.6507L31.183 13.6127C31.1049 14.1198 31.0228 14.6515 31.0031 15.2721L31.2529 15.2801ZM31.4301 13.6507C31.5264 13.0254 31.6261 12.3678 31.5986 11.5918L31.3488 11.6006C31.3753 12.3505 31.2794 12.987 31.183 13.6127L31.4301 13.6507ZM31.5949 11.6267C31.6189 11.5316 31.6276 11.4226 31.6159 11.2978L31.367 11.3211C31.3763 11.4207 31.3688 11.5009 31.3525 11.5657L31.5949 11.6267ZM31.6159 11.2977C31.5793 10.9094 31.3454 10.163 30.9132 9.27233C30.4789 8.37754 29.8389 7.32543 28.9797 6.32525L28.7901 6.48816C29.6333 7.4698 30.2621 8.50325 30.6883 9.38148C31.1164 10.2638 31.3346 10.9779 31.367 11.3212L31.6159 11.2977ZM28.9797 6.32525C28.0398 5.2312 26.6674 4.0049 24.792 3.17742L24.6911 3.40614C26.524 4.21491 27.8677 5.4146 28.7901 6.48816L28.9797 6.32525ZM24.7669 3.41418C25.5578 3.25027 26.6387 3.09758 27.848 3.12449L27.8536 2.87456C26.6207 2.84712 25.5204 3.00271 24.7162 3.16938L24.7669 3.41418ZM10.4443 26.2682C10.0277 26.7691 9.68718 26.9576 9.44123 27.0204C9.19756 27.0826 9.02937 27.0264 8.93931 26.9964L8.86029 27.2335C8.9645 27.2683 9.18887 27.3429 9.50307 27.2627C9.81498 27.183 10.1976 26.9558 10.6365 26.4281L10.4443 26.2682ZM8.93936 26.9964C8.65191 26.9005 8.34018 26.6716 8.01144 26.3032C7.6838 25.936 7.34623 25.4381 7.00536 24.8171C6.32366 23.5754 5.63565 21.8546 4.98952 19.7377L4.75041 19.8107C5.39932 21.9367 6.09324 23.6751 6.78621 24.9374C7.13266 25.5685 7.48061 26.0838 7.8249 26.4697C8.16809 26.8543 8.5147 27.1183 8.86025 27.2335L8.93936 26.9964ZM4.98952 19.7377C3.87033 16.071 3.2186 12.3905 3.16755 11.3699L2.91787 11.3824C2.97038 12.4322 3.62844 16.1349 4.75041 19.8107L4.98952 19.7377ZM3.16755 11.3699C3.0048 8.11412 3.79602 5.88632 5.47389 4.69642L5.32927 4.49249C3.54929 5.75481 2.7533 8.09043 2.91786 11.3824L3.16755 11.3699ZM5.47389 4.69642C6.84582 3.72348 8.67058 3.52198 10.3999 3.64606C12.1263 3.76991 13.7367 4.21667 14.6613 4.51801L14.7388 4.28031C13.8046 3.97588 12.1726 3.5226 10.4178 3.3967C8.66608 3.27102 6.77101 3.47005 5.32927 4.49249L5.47389 4.69642ZM14.6124 4.31006C14.6002 4.32202 14.5878 4.33362 14.5738 4.34687C14.5601 4.35971 14.5452 4.37389 14.5302 4.38896L14.7079 4.56488C14.7194 4.5532 14.7316 4.54166 14.7451 4.52888C14.7583 4.51652 14.7731 4.50262 14.7877 4.48826L14.6124 4.31006ZM14.5302 4.38897C12.9808 5.95377 12.2294 8.0668 11.8648 9.81872C11.4999 11.5725 11.5198 12.9791 11.5237 13.1452L11.7736 13.1394C11.77 12.9838 11.75 11.598 12.1096 9.86964C12.4696 8.13943 13.2071 6.08061 14.7079 4.56487L14.5302 4.38897ZM11.5237 13.142C11.5234 13.2709 11.5341 13.4514 11.5483 13.6913L11.7979 13.6765C11.7834 13.4329 11.7734 13.2619 11.7737 13.1425L11.5237 13.142ZM11.5483 13.6913C11.6007 14.5757 11.6976 16.2126 11.4385 18.0652L11.6861 18.0998C11.9489 16.2207 11.8504 14.5624 11.7979 13.6765L11.5483 13.6913ZM11.4385 18.0652C11.1909 19.8355 11.7365 21.5712 12.9382 22.8249L13.1186 22.6519C11.9719 21.4555 11.4487 19.7971 11.6861 18.0998L11.4385 18.0652ZM12.9382 22.8249C13.0628 22.9549 13.1927 23.0768 13.3267 23.1914L13.4892 23.0013C13.361 22.8918 13.2372 22.7756 13.1186 22.6519L12.9382 22.8249ZM13.3166 23.011C12.793 23.5717 11.6554 24.8113 10.4443 26.2683L10.6365 26.4281C11.8434 24.9762 12.9775 23.7404 13.4993 23.1816L13.3166 23.011ZM13.8901 21.9125C12.9714 20.954 12.5526 19.6193 12.7444 18.2478L12.4968 18.2131C12.2949 19.657 12.7356 21.0692 13.7097 22.0855L13.8901 21.9125ZM12.7444 18.2478C13.0218 16.2635 12.9192 14.5363 12.8645 13.6133L12.615 13.628C12.6695 14.5494 12.7705 16.2553 12.4968 18.2131L12.7444 18.2478ZM12.8645 13.6133C12.8569 13.4838 12.8502 13.3718 12.8462 13.2837L12.5964 13.2949C12.6005 13.3853 12.6074 13.4994 12.615 13.628L12.8645 13.6133ZM12.8042 13.3828C13.0113 13.1993 13.6234 12.8305 14.3717 12.5496C15.1206 12.2684 15.9766 12.0866 16.6766 12.247L16.7324 12.0033C15.9599 11.8263 15.0471 12.029 14.2839 12.3155C13.5202 12.6022 12.877 12.9842 12.6384 13.1958L12.8042 13.3828ZM16.6766 12.247C16.9905 12.3189 17.237 12.4598 17.4254 12.6704C17.6149 12.8821 17.7522 13.1716 17.8341 13.5503L18.0784 13.4974C17.9901 13.0889 17.8376 12.756 17.6117 12.5037C17.3849 12.2502 17.0907 12.0854 16.7324 12.0033L16.6766 12.247ZM17.8341 13.5503C18.2723 15.577 18.2997 17.0051 18.1445 18.0917C17.9894 19.1776 17.6513 19.9297 17.3447 20.6109L17.5727 20.7135C17.8803 20.0299 18.2316 19.2503 18.392 18.127C18.5523 17.0044 18.5214 15.5458 18.0784 13.4974L17.8341 13.5503ZM17.3447 20.6109C17.2184 20.8914 17.097 21.161 16.9931 21.4406L17.2275 21.5277C17.3279 21.2573 17.4458 20.9954 17.5727 20.7135L17.3447 20.6109ZM16.9931 21.4406L16.914 21.6531L17.1483 21.7403L17.2274 21.5278L16.9931 21.4406ZM16.914 21.653C16.7143 22.1887 16.5249 22.6956 16.4072 23.1787L16.6501 23.2379C16.7636 22.7719 16.9472 22.2796 17.1483 21.7404L16.914 21.653ZM16.5291 23.0833C15.5591 23.0803 14.6122 22.666 13.8901 21.9125L13.7096 22.0855C14.4758 22.885 15.4864 23.3301 16.5283 23.3333L16.5291 23.0833ZM13.9847 27.3735C13.7047 27.3035 13.4542 27.1819 13.3119 27.0849L13.171 27.2914C13.3387 27.4058 13.6167 27.5392 13.9241 27.616L13.9847 27.3735ZM13.2947 27.3012C13.4125 27.2458 13.6329 27.1655 14.0262 27.0845L13.9757 26.8397C13.5699 26.9232 13.3293 27.0086 13.1882 27.0751L13.2947 27.3012ZM14.0262 27.0845C14.9941 26.8852 15.569 26.7124 15.9852 26.4786C16.4064 26.242 16.657 25.9472 16.984 25.5321L16.7876 25.3774C16.4623 25.7905 16.2375 26.0502 15.8628 26.2607C15.4832 26.4739 14.9418 26.6407 13.9757 26.8397L14.0262 27.0845ZM16.9839 25.5322C17.1334 25.3425 17.3008 25.1299 17.5327 24.8709L17.3465 24.7042C17.1089 24.9695 16.9373 25.1875 16.7876 25.3774L16.9839 25.5322ZM17.5514 24.8434C17.5475 24.8513 17.5427 24.8587 17.5373 24.8655C17.5325 24.8715 17.5278 24.876 17.5283 24.8755L17.3514 24.6989C17.3518 24.6985 17.3471 24.7031 17.3421 24.7092C17.3366 24.7161 17.3318 24.7236 17.3278 24.7316L17.5514 24.8434ZM17.5331 24.8705C17.7028 24.6805 17.805 24.6274 17.8799 24.6166C17.9593 24.6052 18.0379 24.6341 18.1916 24.6978L18.2873 24.4669C18.151 24.4104 18.0046 24.346 17.8442 24.3692C17.6791 24.393 17.5266 24.5025 17.3466 24.7039L17.5331 24.8705ZM18.1916 24.6979C18.2832 24.7358 18.383 24.8169 18.4725 24.9321C18.5612 25.0461 18.6342 25.1865 18.6761 25.3329L18.9164 25.2641C18.8655 25.0862 18.7776 24.9172 18.6699 24.7786C18.563 24.6411 18.4308 24.5263 18.2873 24.4669L18.1916 24.6979ZM18.6761 25.3329C18.7184 25.4803 18.752 25.7198 18.6264 25.8957L18.8298 26.041C19.0271 25.7648 18.962 25.4229 18.9164 25.264L18.6761 25.3329ZM18.6264 25.8957C17.3079 27.7418 15.3895 27.725 13.9847 27.3735L13.924 27.616C15.371 27.9781 17.4233 28.0103 18.8298 26.041L18.6264 25.8957ZM24.0493 36.7909C22.8904 37.0392 22.1282 36.8639 21.5903 36.479C21.0465 36.0898 20.71 35.4715 20.436 34.7865L20.2039 34.8793C20.4819 35.5743 20.8403 36.2496 21.4448 36.6823C22.0552 37.1191 22.8948 37.294 24.1017 37.0354L24.0493 36.7909ZM20.436 34.7865C20.3539 34.5813 20.2774 34.1789 20.2127 33.6067C20.1486 33.0393 20.0974 32.318 20.0611 31.4845C19.9884 29.8176 19.9757 27.7071 20.0377 25.4912L19.7878 25.4842C19.7257 27.7049 19.7384 29.8215 19.8113 31.4953C19.8477 32.3321 19.8993 33.0596 19.9643 33.6348C20.0288 34.2051 20.1078 34.639 20.2039 34.8793L20.436 34.7865ZM20.0378 25.4911C20.0398 25.4179 20.0293 25.3475 20.0093 25.2817L19.7701 25.3544C19.7827 25.3958 19.7891 25.4393 19.7878 25.4842L20.0378 25.4911ZM20.0136 25.3011C19.9986 25.1918 19.9756 25.0812 19.9438 24.9701L19.7035 25.0389C19.732 25.1385 19.7525 25.2373 19.7659 25.335L20.0136 25.3011ZM19.9438 24.9701C19.7502 24.2941 19.2772 23.7204 18.6964 23.4796L18.6007 23.7106C19.1001 23.9176 19.5274 24.4239 19.7035 25.0389L19.9438 24.9701ZM18.6964 23.4796C18.481 23.3904 18.0525 23.2108 17.5357 23.343L17.5977 23.5852C18.0275 23.4753 18.3869 23.622 18.6007 23.7106L18.6964 23.4796ZM17.6882 23.4936C17.787 23.0865 17.9591 22.6245 18.1496 22.1138L17.9154 22.0265C17.7264 22.5329 17.5483 23.01 17.4452 23.4346L17.6882 23.4936ZM18.1496 22.1137L18.2293 21.8998L17.995 21.8126L17.9153 22.0265L18.1496 22.1137ZM18.2293 21.8997C18.3172 21.6632 18.4278 21.4173 18.5472 21.1521L18.3192 21.0495C18.2006 21.313 18.0864 21.5668 17.995 21.8126L18.2293 21.8997ZM18.5472 21.1521C18.8692 20.4367 19.2563 19.5773 19.44 18.3392C19.6237 17.1017 19.6033 15.4926 19.1231 13.2715L18.8787 13.3244C19.3539 15.5221 19.3711 17.1004 19.1927 18.3025C19.0144 19.5042 18.64 20.3368 18.3192 21.0495L18.5472 21.1521ZM19.1231 13.2715C18.9387 12.4193 18.5356 11.7727 17.9337 11.3656C17.333 10.9594 16.5497 10.8021 15.6233 10.8981L15.649 11.1468C16.5344 11.0551 17.2544 11.208 17.7937 11.5727C18.3318 11.9366 18.7051 12.5216 18.8787 13.3244L19.1231 13.2715ZM15.6233 10.8981C14.5148 11.0128 13.5052 11.4588 13.0042 11.7129L13.1172 11.9358C13.6074 11.6873 14.5851 11.2568 15.649 11.1468L15.6233 10.8981ZM13.0042 11.7128C12.8961 11.7676 12.7972 11.8205 12.7047 11.8722L12.8266 12.0905C12.9162 12.0404 13.0122 11.9891 13.1172 11.9358L13.0042 11.7128ZM12.8902 11.9916C13.0282 10.3277 13.5489 7.25151 15.4704 5.31361L15.2928 5.13759C13.3043 7.14311 12.7797 10.2997 12.6411 11.971L12.8902 11.9916ZM15.4704 5.31361C16.6737 4.09997 18.2784 3.49662 20.2471 3.52916L20.2512 3.27919C18.2251 3.24571 16.5512 3.86848 15.2928 5.13759L15.4704 5.31361ZM20.2471 3.52916C24.1354 3.59285 26.6278 5.58681 28.037 7.252L28.2279 7.0905C26.7886 5.38974 24.2337 3.34443 20.2512 3.27919L20.2471 3.52916ZM28.037 7.25199C29.2527 8.68861 29.9101 10.135 30.171 10.9101L30.408 10.8304C30.1384 10.0297 29.4667 8.55448 28.2279 7.0905L28.037 7.25199ZM30.3021 10.7459C28.2942 10.5418 26.8762 10.9322 26.1483 11.9727L26.3532 12.116C27.0008 11.1903 28.2958 10.7932 30.2769 10.9946L30.3021 10.7459ZM26.1483 11.9727C25.754 12.5363 25.6154 13.2262 25.64 13.9645C25.6645 14.7024 25.8522 15.497 26.1197 16.2806C26.6546 17.8472 27.5169 19.393 28.0724 20.3892L28.2907 20.2674C27.7339 19.2687 26.8828 17.7418 26.3563 16.1998C26.0932 15.429 25.9132 14.6603 25.8898 13.9562C25.8664 13.2524 25.9995 12.6216 26.3532 12.116L26.1483 11.9727ZM28.0724 20.3892C28.2791 20.7597 28.4497 21.0663 28.5014 21.1918L28.7325 21.0964C28.6735 20.9533 28.492 20.6281 28.2907 20.2674L28.0724 20.3892ZM28.5014 21.1918C28.8709 22.0872 29.3497 22.685 29.693 23.114L29.8882 22.9578C29.5466 22.531 29.0875 21.9567 28.7325 21.0964L28.5014 21.1918ZM29.693 23.114C29.7987 23.2461 29.8977 23.3697 29.9722 23.4766L30.1773 23.3336C30.097 23.2185 29.9922 23.0878 29.8881 22.9578L29.693 23.114ZM30.0401 23.285C29.7334 23.3735 29.2819 23.5255 28.9229 23.9268C28.5611 24.3312 28.309 24.9698 28.3596 25.9991L28.6093 25.9869C28.561 25.0049 28.8021 24.4367 29.1092 24.0935C29.419 23.7472 29.8121 23.611 30.1094 23.5252L30.0401 23.285ZM28.3598 25.9831C28.2804 26.9889 27.7137 31.7102 27.4263 33.3756L27.6727 33.4181C27.9614 31.7446 28.5291 27.0157 28.6091 26.0028L28.3598 25.9831ZM27.4263 33.3756C27.2379 34.4684 26.946 35.1952 26.4367 35.7107C25.9267 36.227 25.1821 36.5481 24.0493 36.7909L24.1017 37.0354C25.251 36.789 26.0533 36.4546 26.6146 35.8864C27.1767 35.3175 27.4808 34.5308 27.6727 33.4181L27.4263 33.3756ZM33.8983 25.4985C33.3003 25.7762 32.284 25.9894 31.3116 26.035L31.3233 26.2848C32.3149 26.2382 33.3661 26.0212 34.0035 25.7253L33.8983 25.4985ZM31.3116 26.035C30.7765 26.0601 30.3766 26.03 30.0973 25.9818C29.9576 25.9577 29.8493 25.9294 29.7702 25.9018C29.6883 25.8733 29.6455 25.8485 29.6298 25.8356L29.4718 26.0293C29.521 26.0695 29.5959 26.1059 29.688 26.1379C29.7828 26.1709 29.9047 26.2023 30.0548 26.2282C30.3552 26.28 30.7737 26.3105 31.3233 26.2848L31.3116 26.035ZM29.6756 25.9264C29.6457 25.3108 29.7477 25.0033 29.8888 24.8325C30.0308 24.6606 30.2309 24.6008 30.4839 24.5298L30.4163 24.2891C30.1756 24.3567 29.8955 24.4318 29.696 24.6733C29.4956 24.916 29.3949 25.3008 29.4259 25.9385L29.6756 25.9264ZM30.484 24.5298C30.5607 24.5082 30.6403 24.4859 30.7177 24.4589L30.6351 24.2229C30.5665 24.2469 30.4947 24.267 30.4162 24.2892L30.484 24.5298ZM30.5976 24.4379C30.6462 24.4774 30.6993 24.5166 30.7572 24.5548L30.8949 24.3461C30.8439 24.3125 30.7975 24.2782 30.7553 24.2439L30.5976 24.4379ZM30.7572 24.5548C31.2191 24.8597 31.8511 25.0219 32.6357 25.0532C33.4214 25.0846 34.3697 24.985 35.4732 24.7573L35.4226 24.5124C34.331 24.7377 33.4043 24.8337 32.6457 24.8034C31.8861 24.7731 31.3047 24.6166 30.8949 24.3461L30.7572 24.5548ZM35.4739 24.7571C35.4817 24.7555 35.4867 24.7545 35.497 24.7524L35.447 24.5075C35.4414 24.5086 35.4303 24.5108 35.4219 24.5126L35.4739 24.7571ZM35.3866 24.5387C35.1008 24.8059 34.6054 25.1702 33.8982 25.4985L34.0035 25.7253C34.7332 25.3865 35.2511 25.0077 35.5574 24.7213L35.3866 24.5387Z" fill="#F7D15C"/>
</g>
<defs>
<clipPath id="clip0_699_370">
<rect width="37.1212" height="38.2812" fill="white" transform="translate(0.871094 0.859375)"/>
</clipPath>
</defs>
</svg>
