<svg width="32" height="32" viewBox="0 0 32 32" fill="none" xmlns="http://www.w3.org/2000/svg">
<g clip-path="url(#clip0_354_1870)">
<path d="M15.8464 0.125C7.74238 0.125001 8.24845 3.6394 8.24845 3.6394L8.25748 7.28028H15.991V8.37345H5.18577C5.18577 8.37345 0 7.78533 0 15.9624C-5.78e-07 24.1394 4.52626 23.8494 4.52626 23.8494H7.22756V20.055C7.22756 20.055 7.08195 15.5287 11.6815 15.5287H19.3518C19.3518 15.5287 23.6612 15.5984 23.6612 11.3638V4.36215C23.6612 4.36215 24.3155 0.125 15.8464 0.125ZM11.5822 2.57333C12.3516 2.57333 12.9735 3.19521 12.9735 3.96464C12.9735 4.73406 12.3516 5.35594 11.5822 5.35594C10.8127 5.35594 10.1909 4.73406 10.1909 3.96464C10.1909 3.19521 10.8127 2.57333 11.5822 2.57333Z" fill="url(#paint0_linear_354_1870)"/>
<path d="M16.0765 31.8818C24.1805 31.8818 23.6745 28.3674 23.6745 28.3674L23.6654 24.7265H15.932V23.6333H26.7372C26.7372 23.6333 31.9229 24.2214 31.9229 16.0444C31.9229 7.86733 27.3967 8.15731 27.3967 8.15731H24.6954V11.9518C24.6954 11.9518 24.841 16.478 20.2414 16.478H12.5711C12.5711 16.478 8.26172 16.4084 8.26172 20.6429V27.6446C8.26172 27.6446 7.60743 31.8818 16.0765 31.8818ZM20.3408 29.4334C19.5713 29.4334 18.9495 28.8115 18.9495 28.0421C18.9495 27.2727 19.5713 26.6508 20.3408 26.6508C21.1102 26.6508 21.7321 27.2727 21.7321 28.0421C21.7321 28.8115 21.1102 29.4334 20.3408 29.4334Z" fill="url(#paint1_linear_354_1870)"/>
</g>
<defs>
<linearGradient id="paint0_linear_354_1870" x1="3.06786" y1="2.98143" x2="18.8877" y2="18.6435" gradientUnits="userSpaceOnUse">
<stop stop-color="#387EB8"/>
<stop offset="1" stop-color="#366994"/>
</linearGradient>
<linearGradient id="paint1_linear_354_1870" x1="12.778" y1="13.0386" x2="29.7669" y2="29.0987" gradientUnits="userSpaceOnUse">
<stop stop-color="#FFE052"/>
<stop offset="1" stop-color="#FFC331"/>
</linearGradient>
<clipPath id="clip0_354_1870">
<rect width="32" height="32" fill="white"/>
</clipPath>
</defs>
</svg>
